<?xml version="1.0" encoding="UTF-8"?>
<svg id="Layer_1" data-name="Layer 1" xmlns="http://www.w3.org/2000/svg" xmlns:xlink="http://www.w3.org/1999/xlink" viewBox="0 0 1522.42 1459.1">
  <defs>
    <style>
      .cls-1 {
        filter: url(#drop-shadow-1);
        opacity: .2;
      }

      .cls-2 {
        fill: none;
      }

      .cls-3 {
        fill: #f2f2f2;
      }

      .cls-4 {
        clip-path: url(#clippath);
      }
    </style>
    <clipPath id="clippath">
      <rect class="cls-2" x="362.97" y="519.58" width="800" height="400"/>
    </clipPath>
    <filter id="drop-shadow-1" x="-8.03" y="-8.42" width="1553" height="1490" filterUnits="userSpaceOnUse">
      <feOffset dx="7" dy="7"/>
      <feGaussianBlur result="blur" stdDeviation="5"/>
      <feFlood flood-color="#000" flood-opacity=".75"/>
      <feComposite in2="blur" operator="in"/>
      <feComposite in="SourceGraphic"/>
    </filter>
  </defs>
  <g class="cls-4">
    <g class="cls-1">
      <g>
        <g>
          <path class="cls-3" d="M469.12,59.77c-7.76,10.93-5.19,26.13,5.74,33.9,16.39,11.64,20.26,34.45,8.61,50.85-7.76,10.93-5.19,26.14,5.74,33.9,10.93,7.76,26.13,5.19,33.9-5.74,7.76-10.93,5.19-26.13-5.74-33.9-16.39-11.64-20.26-34.45-8.61-50.85,7.76-10.93,5.19-26.14-5.74-33.9-10.93-7.76-26.13-5.19-33.9,5.74Z"/>
          <path class="cls-3" d="M538.21,4.48c-10.93-7.76-26.13-5.19-33.9,5.74-11.64,16.39-34.45,20.26-50.85,8.61-10.93-7.76-26.13-5.19-33.9,5.74-7.76,10.93-5.19,26.13,5.74,33.9,10.93,7.76,26.14,5.19,33.9-5.74,11.64-16.39,34.45-20.26,50.85-8.61,10.93,7.76,26.13,5.19,33.9-5.74,7.76-10.93,5.19-26.13-5.74-33.9Z"/>
        </g>
        <g>
          <path class="cls-3" d="M566.52,128.95c-7.76,10.93-5.19,26.13,5.74,33.9,16.39,11.64,20.26,34.45,8.61,50.85-7.76,10.93-5.19,26.13,5.74,33.9,10.93,7.76,26.14,5.19,33.9-5.74,7.76-10.93,5.19-26.14-5.74-33.9-16.39-11.64-20.26-34.45-8.61-50.85,7.76-10.93,5.19-26.14-5.74-33.9-10.93-7.76-26.13-5.19-33.9,5.74Z"/>
          <path class="cls-3" d="M635.61,73.66c-10.93-7.76-26.13-5.19-33.9,5.74-11.64,16.39-34.45,20.26-50.85,8.61-10.93-7.76-26.13-5.19-33.9,5.74-7.76,10.93-5.19,26.13,5.74,33.9,10.93,7.76,26.14,5.19,33.9-5.74,11.64-16.39,34.45-20.26,50.85-8.61,10.93,7.76,26.13,5.19,33.9-5.74,7.76-10.93,5.19-26.14-5.74-33.9Z"/>
        </g>
        <g>
          <path class="cls-3" d="M663.92,198.14c-7.76,10.93-5.19,26.13,5.74,33.9,16.39,11.64,20.26,34.45,8.61,50.85-7.76,10.93-5.19,26.14,5.74,33.9,10.93,7.76,26.14,5.19,33.9-5.74s5.19-26.14-5.74-33.9c-16.39-11.64-20.26-34.45-8.61-50.85,7.76-10.93,5.19-26.14-5.74-33.9-10.93-7.76-26.13-5.19-33.9,5.74Z"/>
          <path class="cls-3" d="M733.01,142.85c-10.93-7.76-26.13-5.19-33.9,5.74-11.64,16.39-34.45,20.26-50.85,8.61-10.93-7.76-26.13-5.19-33.9,5.74-7.76,10.93-5.19,26.13,5.74,33.9,10.93,7.76,26.13,5.19,33.9-5.74,11.64-16.39,34.45-20.26,50.85-8.61,10.93,7.76,26.13,5.19,33.9-5.74,7.76-10.93,5.19-26.13-5.74-33.9Z"/>
        </g>
        <g>
          <path class="cls-3" d="M761.31,267.32c-7.76,10.93-5.19,26.13,5.74,33.9,16.39,11.64,20.26,34.45,8.61,50.85-7.76,10.93-5.19,26.13,5.74,33.9,10.93,7.76,26.14,5.19,33.9-5.74,7.76-10.93,5.19-26.14-5.74-33.9-16.39-11.64-20.26-34.45-8.61-50.85,7.76-10.93,5.19-26.13-5.74-33.9-10.93-7.76-26.13-5.19-33.9,5.74Z"/>
          <path class="cls-3" d="M830.41,212.03c-10.93-7.76-26.13-5.19-33.9,5.74-11.64,16.39-34.45,20.26-50.85,8.61-10.93-7.76-26.13-5.19-33.9,5.74-7.76,10.93-5.19,26.13,5.74,33.9,10.93,7.76,26.14,5.19,33.9-5.74,11.64-16.39,34.45-20.26,50.85-8.61,10.93,7.76,26.13,5.19,33.9-5.74,7.76-10.93,5.19-26.14-5.74-33.9Z"/>
        </g>
        <g>
          <path class="cls-3" d="M858.71,336.5c-7.76,10.93-5.19,26.13,5.74,33.9,16.39,11.64,20.26,34.45,8.61,50.85-7.76,10.93-5.19,26.14,5.74,33.9,10.93,7.76,26.14,5.19,33.9-5.74,7.76-10.93,5.19-26.14-5.74-33.9-16.39-11.64-20.26-34.45-8.61-50.85,7.76-10.93,5.19-26.14-5.74-33.9-10.93-7.76-26.13-5.19-33.9,5.74Z"/>
          <path class="cls-3" d="M927.8,281.21c-10.93-7.76-26.13-5.19-33.9,5.74-11.64,16.39-34.45,20.26-50.85,8.61-10.93-7.76-26.13-5.19-33.9,5.74-7.76,10.93-5.19,26.13,5.74,33.9,10.93,7.76,26.13,5.19,33.9-5.74,11.64-16.39,34.45-20.26,50.85-8.61,10.93,7.76,26.13,5.19,33.9-5.74,7.76-10.93,5.19-26.14-5.74-33.9Z"/>
        </g>
        <g>
          <path class="cls-3" d="M956.11,405.68c-7.76,10.93-5.19,26.13,5.74,33.9,16.39,11.64,20.26,34.45,8.61,50.85-7.76,10.93-5.19,26.14,5.74,33.9s26.13,5.19,33.9-5.74c7.76-10.93,5.19-26.14-5.74-33.9-16.39-11.64-20.26-34.45-8.61-50.85,7.76-10.93,5.19-26.13-5.74-33.9-10.93-7.76-26.13-5.19-33.9,5.74Z"/>
          <path class="cls-3" d="M1025.2,350.39c-10.93-7.76-26.13-5.19-33.9,5.74-11.64,16.39-34.45,20.26-50.85,8.61-10.93-7.76-26.13-5.19-33.9,5.74-7.76,10.93-5.19,26.13,5.74,33.9,10.93,7.76,26.14,5.19,33.9-5.74,11.64-16.39,34.45-20.26,50.85-8.61,10.93,7.76,26.13,5.19,33.9-5.74,7.76-10.93,5.19-26.14-5.74-33.9Z"/>
        </g>
        <g>
          <path class="cls-3" d="M1053.51,474.86c-7.76,10.93-5.19,26.13,5.74,33.9,16.39,11.64,20.26,34.45,8.61,50.85-7.76,10.93-5.19,26.14,5.74,33.9,10.93,7.76,26.14,5.19,33.9-5.74,7.76-10.93,5.19-26.14-5.74-33.9-16.39-11.64-20.26-34.45-8.61-50.85,7.76-10.93,5.19-26.14-5.74-33.9-10.93-7.76-26.13-5.19-33.9,5.74Z"/>
          <path class="cls-3" d="M1122.6,419.57c-10.93-7.76-26.13-5.19-33.9,5.74-11.64,16.39-34.45,20.26-50.85,8.61-10.93-7.76-26.13-5.19-33.9,5.74-7.76,10.93-5.19,26.13,5.74,33.9s26.14,5.19,33.9-5.74c11.64-16.39,34.45-20.26,50.85-8.61,10.93,7.76,26.13,5.19,33.9-5.74s5.19-26.14-5.74-33.9Z"/>
        </g>
        <g>
          <path class="cls-3" d="M1150.91,544.04c-7.76,10.93-5.19,26.13,5.74,33.9,16.39,11.64,20.26,34.45,8.61,50.85-7.76,10.93-5.19,26.14,5.74,33.9,10.93,7.76,26.14,5.19,33.9-5.74,7.76-10.93,5.19-26.14-5.74-33.9-16.39-11.64-20.26-34.45-8.61-50.85,7.76-10.93,5.19-26.14-5.74-33.9-10.93-7.76-26.13-5.19-33.9,5.74Z"/>
          <path class="cls-3" d="M1220,488.75c-10.93-7.76-26.13-5.19-33.9,5.74-11.64,16.39-34.45,20.26-50.85,8.61-10.93-7.76-26.13-5.19-33.9,5.74-7.76,10.93-5.19,26.13,5.74,33.9,10.93,7.76,26.14,5.19,33.9-5.74,11.64-16.39,34.45-20.26,50.85-8.61,10.93,7.76,26.13,5.19,33.9-5.74,7.76-10.93,5.19-26.14-5.74-33.9Z"/>
        </g>
        <g>
          <path class="cls-3" d="M1248.31,613.22c-7.76,10.93-5.19,26.13,5.74,33.9,16.39,11.64,20.26,34.45,8.61,50.85-7.76,10.93-5.19,26.14,5.74,33.9,10.93,7.76,26.14,5.19,33.9-5.74,7.76-10.93,5.19-26.14-5.74-33.9-16.39-11.64-20.26-34.45-8.61-50.85,7.76-10.93,5.19-26.14-5.74-33.9-10.93-7.76-26.13-5.19-33.9,5.74Z"/>
          <path class="cls-3" d="M1317.4,557.93c-10.93-7.76-26.13-5.19-33.9,5.74-11.64,16.39-34.45,20.26-50.85,8.61-10.93-7.76-26.13-5.19-33.9,5.74-7.76,10.93-5.19,26.13,5.74,33.9,10.93,7.76,26.14,5.19,33.9-5.74,11.64-16.39,34.45-20.26,50.85-8.61,10.93,7.76,26.13,5.19,33.9-5.74,7.76-10.93,5.19-26.14-5.74-33.9Z"/>
        </g>
        <g>
          <path class="cls-3" d="M1345.71,682.4c-7.76,10.93-5.19,26.13,5.74,33.9,16.39,11.64,20.26,34.45,8.61,50.85-7.76,10.93-5.19,26.14,5.74,33.9,10.93,7.76,26.13,5.19,33.9-5.74,7.76-10.93,5.19-26.14-5.74-33.9-16.39-11.64-20.26-34.45-8.61-50.85,7.76-10.93,5.19-26.14-5.74-33.9-10.93-7.76-26.13-5.19-33.9,5.74Z"/>
          <path class="cls-3" d="M1414.8,627.11c-10.93-7.76-26.13-5.19-33.9,5.74-11.64,16.39-34.45,20.26-50.85,8.61-10.93-7.76-26.13-5.19-33.9,5.74-7.76,10.93-5.19,26.13,5.74,33.9,10.93,7.76,26.13,5.19,33.9-5.74,11.64-16.39,34.45-20.26,50.85-8.61,10.93,7.76,26.13,5.19,33.9-5.74,7.76-10.93,5.19-26.13-5.74-33.9Z"/>
        </g>
        <g>
          <path class="cls-3" d="M1443.1,751.59c-7.76,10.93-5.19,26.13,5.74,33.9,16.39,11.64,20.26,34.45,8.61,50.85-7.76,10.93-5.19,26.14,5.74,33.9,10.93,7.76,26.14,5.19,33.9-5.74,7.76-10.93,5.19-26.14-5.74-33.9-16.39-11.64-20.26-34.45-8.61-50.85,7.76-10.93,5.19-26.14-5.74-33.9-10.93-7.76-26.13-5.19-33.9,5.74Z"/>
          <path class="cls-3" d="M1512.2,696.3c-10.93-7.76-26.13-5.19-33.9,5.74-11.64,16.39-34.45,20.26-50.85,8.61-10.93-7.76-26.13-5.19-33.9,5.74-7.76,10.93-5.19,26.13,5.74,33.9,10.93,7.76,26.14,5.19,33.9-5.74,11.64-16.39,34.45-20.26,50.85-8.61,10.93,7.76,26.13,5.19,33.9-5.74,7.76-10.93,5.19-26.14-5.74-33.9Z"/>
        </g>
      </g>
      <g>
        <g>
          <path class="cls-3" d="M399.94,157.17c-7.76,10.93-5.19,26.13,5.74,33.9,16.39,11.64,20.26,34.45,8.61,50.85-7.76,10.93-5.19,26.14,5.74,33.9,10.93,7.76,26.14,5.19,33.9-5.74,7.76-10.93,5.19-26.14-5.74-33.9-16.39-11.64-20.26-34.45-8.61-50.85,7.76-10.93,5.19-26.14-5.74-33.9-10.93-7.76-26.13-5.19-33.9,5.74Z"/>
          <path class="cls-3" d="M469.03,101.88c-10.93-7.76-26.13-5.19-33.9,5.74-11.64,16.39-34.45,20.26-50.85,8.61-10.93-7.76-26.13-5.19-33.9,5.74-7.76,10.93-5.19,26.13,5.74,33.9,10.93,7.76,26.14,5.19,33.9-5.74,11.64-16.39,34.45-20.26,50.85-8.61,10.93,7.76,26.13,5.19,33.9-5.74,7.76-10.93,5.19-26.14-5.74-33.9Z"/>
        </g>
        <g>
          <path class="cls-3" d="M497.34,226.35c-7.76,10.93-5.19,26.13,5.74,33.9,16.39,11.64,20.26,34.45,8.61,50.85-7.76,10.93-5.19,26.14,5.74,33.9,10.93,7.76,26.14,5.19,33.9-5.74,7.76-10.93,5.19-26.14-5.74-33.9-16.39-11.64-20.26-34.45-8.61-50.85,7.76-10.93,5.19-26.14-5.74-33.9-10.93-7.76-26.13-5.19-33.9,5.74Z"/>
          <path class="cls-3" d="M566.43,171.06c-10.93-7.76-26.13-5.19-33.9,5.74-11.64,16.39-34.45,20.26-50.85,8.61-10.93-7.76-26.13-5.19-33.9,5.74-7.76,10.93-5.19,26.13,5.74,33.9,10.93,7.76,26.14,5.19,33.9-5.74,11.64-16.39,34.45-20.26,50.85-8.61,10.93,7.76,26.13,5.19,33.9-5.74,7.76-10.93,5.19-26.13-5.74-33.9Z"/>
        </g>
        <g>
          <path class="cls-3" d="M594.73,295.53c-7.76,10.93-5.19,26.13,5.74,33.9,16.39,11.64,20.26,34.45,8.61,50.85-7.76,10.93-5.19,26.13,5.74,33.9,10.93,7.76,26.14,5.19,33.9-5.74,7.76-10.93,5.19-26.14-5.74-33.9-16.39-11.64-20.26-34.45-8.61-50.85,7.76-10.93,5.19-26.13-5.74-33.9-10.93-7.76-26.13-5.19-33.9,5.74Z"/>
          <path class="cls-3" d="M663.83,240.24c-10.93-7.76-26.13-5.19-33.9,5.74-11.64,16.39-34.45,20.26-50.85,8.61-10.93-7.76-26.13-5.19-33.9,5.74-7.76,10.93-5.19,26.13,5.74,33.9,10.93,7.76,26.14,5.19,33.9-5.74,11.64-16.39,34.45-20.26,50.85-8.61,10.93,7.76,26.13,5.19,33.9-5.74,7.76-10.93,5.19-26.14-5.74-33.9Z"/>
        </g>
        <g>
          <path class="cls-3" d="M692.13,364.72c-7.76,10.93-5.19,26.13,5.74,33.9,16.39,11.64,20.26,34.45,8.61,50.85-7.76,10.93-5.19,26.14,5.74,33.9,10.93,7.76,26.14,5.19,33.9-5.74,7.76-10.93,5.19-26.14-5.74-33.9-16.39-11.64-20.26-34.45-8.61-50.85,7.76-10.93,5.19-26.14-5.74-33.9-10.93-7.76-26.13-5.19-33.9,5.74Z"/>
          <path class="cls-3" d="M761.22,309.42c-10.93-7.76-26.13-5.19-33.9,5.74-11.64,16.39-34.45,20.26-50.85,8.61-10.93-7.76-26.13-5.19-33.9,5.74-7.76,10.93-5.19,26.13,5.74,33.9,10.93,7.76,26.13,5.19,33.9-5.74,11.64-16.39,34.45-20.26,50.85-8.61,10.93,7.76,26.13,5.19,33.9-5.74,7.76-10.93,5.19-26.13-5.74-33.9Z"/>
        </g>
        <g>
          <path class="cls-3" d="M789.53,433.9c-7.76,10.93-5.19,26.13,5.74,33.9,16.39,11.64,20.26,34.45,8.61,50.85-7.76,10.93-5.19,26.14,5.74,33.9,10.93,7.76,26.13,5.19,33.9-5.74,7.76-10.93,5.19-26.14-5.74-33.9-16.39-11.64-20.26-34.45-8.61-50.85,7.76-10.93,5.19-26.13-5.74-33.9-10.93-7.76-26.13-5.19-33.9,5.74Z"/>
          <path class="cls-3" d="M858.62,378.61c-10.93-7.76-26.13-5.19-33.9,5.74-11.64,16.39-34.45,20.26-50.85,8.61-10.93-7.76-26.13-5.19-33.9,5.74-7.76,10.93-5.19,26.13,5.74,33.9,10.93,7.76,26.14,5.19,33.9-5.74,11.64-16.39,34.45-20.26,50.85-8.61,10.93,7.76,26.13,5.19,33.9-5.74,7.76-10.93,5.19-26.14-5.74-33.9Z"/>
        </g>
        <g>
          <path class="cls-3" d="M886.93,503.08c-7.76,10.93-5.19,26.13,5.74,33.9,16.39,11.64,20.26,34.45,8.61,50.85-7.76,10.93-5.19,26.14,5.74,33.9,10.93,7.76,26.14,5.19,33.9-5.74,7.76-10.93,5.19-26.14-5.74-33.9-16.39-11.64-20.26-34.45-8.61-50.85,7.76-10.93,5.19-26.14-5.74-33.9-10.93-7.76-26.13-5.19-33.9,5.74Z"/>
          <path class="cls-3" d="M956.02,447.79c-10.93-7.76-26.13-5.19-33.9,5.74-11.64,16.39-34.45,20.26-50.85,8.61-10.93-7.76-26.13-5.19-33.9,5.74-7.76,10.93-5.19,26.13,5.74,33.9s26.14,5.19,33.9-5.74c11.64-16.39,34.45-20.26,50.85-8.61,10.93,7.76,26.13,5.19,33.9-5.74s5.19-26.14-5.74-33.9Z"/>
        </g>
        <g>
          <path class="cls-3" d="M984.33,572.26c-7.76,10.93-5.19,26.13,5.74,33.9,16.39,11.64,20.26,34.45,8.61,50.85-7.76,10.93-5.19,26.14,5.74,33.9,10.93,7.76,26.13,5.19,33.9-5.74,7.76-10.93,5.19-26.14-5.74-33.9-16.39-11.64-20.26-34.45-8.61-50.85,7.76-10.93,5.19-26.14-5.74-33.9-10.93-7.76-26.13-5.19-33.9,5.74Z"/>
          <path class="cls-3" d="M1053.42,516.97c-10.93-7.76-26.13-5.19-33.9,5.74-11.64,16.39-34.45,20.26-50.85,8.61-10.93-7.76-26.13-5.19-33.9,5.74-7.76,10.93-5.19,26.13,5.74,33.9,10.93,7.76,26.14,5.19,33.9-5.74,11.64-16.39,34.45-20.26,50.85-8.61,10.93,7.76,26.13,5.19,33.9-5.74,7.76-10.93,5.19-26.14-5.74-33.9Z"/>
        </g>
        <g>
          <path class="cls-3" d="M1081.73,641.44c-7.76,10.93-5.19,26.13,5.74,33.9,16.39,11.64,20.26,34.45,8.61,50.85-7.76,10.93-5.19,26.14,5.74,33.9s26.14,5.19,33.9-5.74c7.76-10.93,5.19-26.14-5.74-33.9-16.39-11.64-20.26-34.45-8.61-50.85,7.76-10.93,5.19-26.14-5.74-33.9-10.93-7.76-26.13-5.19-33.9,5.74Z"/>
          <path class="cls-3" d="M1150.82,586.15c-10.93-7.76-26.13-5.19-33.9,5.74-11.64,16.39-34.45,20.26-50.85,8.61-10.93-7.76-26.13-5.19-33.9,5.74-7.76,10.93-5.19,26.13,5.74,33.9s26.14,5.19,33.9-5.74c11.64-16.39,34.45-20.26,50.85-8.61,10.93,7.76,26.13,5.19,33.9-5.74s5.19-26.14-5.74-33.9Z"/>
        </g>
        <g>
          <path class="cls-3" d="M1179.13,710.62c-7.76,10.93-5.19,26.13,5.74,33.9,16.39,11.64,20.26,34.45,8.61,50.85-7.76,10.93-5.19,26.14,5.74,33.9,10.93,7.76,26.13,5.19,33.9-5.74,7.76-10.93,5.19-26.14-5.74-33.9-16.39-11.64-20.26-34.45-8.61-50.85,7.76-10.93,5.19-26.14-5.74-33.9-10.93-7.76-26.13-5.19-33.9,5.74Z"/>
          <path class="cls-3" d="M1248.22,655.33c-10.93-7.76-26.13-5.19-33.9,5.74-11.64,16.39-34.45,20.26-50.85,8.61-10.93-7.76-26.13-5.19-33.9,5.74-7.76,10.93-5.19,26.13,5.74,33.9,10.93,7.76,26.13,5.19,33.9-5.74,11.64-16.39,34.45-20.26,50.85-8.61,10.93,7.76,26.13,5.19,33.9-5.74,7.76-10.93,5.19-26.13-5.74-33.9Z"/>
        </g>
        <g>
          <path class="cls-3" d="M1276.52,779.8c-7.76,10.93-5.19,26.13,5.74,33.9,16.39,11.64,20.26,34.45,8.61,50.85-7.76,10.93-5.19,26.13,5.74,33.9,10.93,7.76,26.14,5.19,33.9-5.74,7.76-10.93,5.19-26.14-5.74-33.9-16.39-11.64-20.26-34.45-8.61-50.85,7.76-10.93,5.19-26.14-5.74-33.9-10.93-7.76-26.13-5.19-33.9,5.74Z"/>
          <path class="cls-3" d="M1345.62,724.51c-10.93-7.76-26.13-5.19-33.9,5.74-11.64,16.39-34.45,20.26-50.85,8.61-10.93-7.76-26.13-5.19-33.9,5.74-7.76,10.93-5.19,26.13,5.74,33.9,10.93,7.76,26.14,5.19,33.9-5.74,11.64-16.39,34.45-20.26,50.85-8.61,10.93,7.76,26.13,5.19,33.9-5.74,7.76-10.93,5.19-26.14-5.74-33.9Z"/>
        </g>
        <g>
          <path class="cls-3" d="M1373.92,848.98c-7.76,10.93-5.19,26.13,5.74,33.9,16.39,11.64,20.26,34.45,8.61,50.85-7.76,10.93-5.19,26.14,5.74,33.9,10.93,7.76,26.14,5.19,33.9-5.74,7.76-10.93,5.19-26.14-5.74-33.9-16.39-11.64-20.26-34.45-8.61-50.85,7.76-10.93,5.19-26.14-5.74-33.9-10.93-7.76-26.13-5.19-33.9,5.74Z"/>
          <path class="cls-3" d="M1443.01,793.69c-10.93-7.76-26.13-5.19-33.9,5.74-11.64,16.39-34.45,20.26-50.85,8.61-10.93-7.76-26.13-5.19-33.9,5.74-7.76,10.93-5.19,26.13,5.74,33.9,10.93,7.76,26.13,5.19,33.9-5.74,11.64-16.39,34.45-20.26,50.85-8.61,10.93,7.76,26.13,5.19,33.9-5.74,7.76-10.93,5.19-26.14-5.74-33.9Z"/>
        </g>
      </g>
      <g>
        <g>
          <path class="cls-3" d="M330.76,254.57c-7.76,10.93-5.19,26.13,5.74,33.9,16.39,11.64,20.26,34.45,8.61,50.85-7.76,10.93-5.19,26.13,5.74,33.9,10.93,7.76,26.14,5.19,33.9-5.74s5.19-26.13-5.74-33.9c-16.39-11.64-20.26-34.45-8.61-50.85,7.76-10.93,5.19-26.13-5.74-33.9-10.93-7.76-26.13-5.19-33.9,5.74Z"/>
          <path class="cls-3" d="M399.85,199.28c-10.93-7.76-26.13-5.19-33.9,5.74-11.64,16.39-34.45,20.26-50.85,8.61-10.93-7.76-26.13-5.19-33.9,5.74-7.76,10.93-5.19,26.13,5.74,33.9,10.93,7.76,26.14,5.19,33.9-5.74,11.64-16.39,34.45-20.26,50.85-8.61,10.93,7.76,26.13,5.19,33.9-5.74,7.76-10.93,5.19-26.13-5.74-33.9Z"/>
        </g>
        <g>
          <path class="cls-3" d="M428.16,323.75c-7.76,10.93-5.19,26.13,5.74,33.9,16.39,11.64,20.26,34.45,8.61,50.85-7.76,10.93-5.19,26.14,5.74,33.9s26.13,5.19,33.9-5.74c7.76-10.93,5.19-26.14-5.74-33.9-16.39-11.64-20.26-34.45-8.61-50.85,7.76-10.93,5.19-26.14-5.74-33.9-10.93-7.76-26.13-5.19-33.9,5.74Z"/>
          <path class="cls-3" d="M497.25,268.46c-10.93-7.76-26.13-5.19-33.9,5.74-11.64,16.39-34.45,20.26-50.85,8.61-10.93-7.76-26.13-5.19-33.9,5.74-7.76,10.93-5.19,26.13,5.74,33.9,10.93,7.76,26.14,5.19,33.9-5.74,11.64-16.39,34.45-20.26,50.85-8.61,10.93,7.76,26.13,5.19,33.9-5.74,7.76-10.93,5.19-26.14-5.74-33.9Z"/>
        </g>
        <g>
          <path class="cls-3" d="M525.55,392.93c-7.76,10.93-5.19,26.13,5.74,33.9,16.39,11.64,20.26,34.45,8.61,50.85-7.76,10.93-5.19,26.14,5.74,33.9,10.93,7.76,26.14,5.19,33.9-5.74,7.76-10.93,5.19-26.14-5.74-33.9-16.39-11.64-20.26-34.45-8.61-50.85,7.76-10.93,5.19-26.14-5.74-33.9-10.93-7.76-26.13-5.19-33.9,5.74Z"/>
          <path class="cls-3" d="M594.65,337.64c-10.93-7.76-26.13-5.19-33.9,5.74-11.64,16.39-34.45,20.26-50.85,8.61-10.93-7.76-26.13-5.19-33.9,5.74-7.76,10.93-5.19,26.13,5.74,33.9,10.93,7.76,26.13,5.19,33.9-5.74,11.64-16.39,34.45-20.26,50.85-8.61,10.93,7.76,26.13,5.19,33.9-5.74,7.76-10.93,5.19-26.14-5.74-33.9Z"/>
        </g>
        <g>
          <path class="cls-3" d="M622.95,462.11c-7.76,10.93-5.19,26.13,5.74,33.9,16.39,11.64,20.26,34.45,8.61,50.85-7.76,10.93-5.19,26.14,5.74,33.9,10.93,7.76,26.13,5.19,33.9-5.74,7.76-10.93,5.19-26.14-5.74-33.9-16.39-11.64-20.26-34.45-8.61-50.85,7.76-10.93,5.19-26.13-5.74-33.9-10.93-7.76-26.13-5.19-33.9,5.74Z"/>
          <path class="cls-3" d="M692.04,406.82c-10.93-7.76-26.13-5.19-33.9,5.74-11.64,16.39-34.45,20.26-50.85,8.61-10.93-7.76-26.13-5.19-33.9,5.74-7.76,10.93-5.19,26.13,5.74,33.9,10.93,7.76,26.14,5.19,33.9-5.74,11.64-16.39,34.45-20.26,50.85-8.61,10.93,7.76,26.13,5.19,33.9-5.74,7.76-10.93,5.19-26.14-5.74-33.9Z"/>
        </g>
        <g>
          <path class="cls-3" d="M720.35,531.3c-7.76,10.93-5.19,26.13,5.74,33.9,16.39,11.64,20.26,34.45,8.61,50.85-7.76,10.93-5.19,26.14,5.74,33.9,10.93,7.76,26.14,5.19,33.9-5.74,7.76-10.93,5.19-26.14-5.74-33.9-16.39-11.64-20.26-34.45-8.61-50.85,7.76-10.93,5.19-26.14-5.74-33.9-10.93-7.76-26.13-5.19-33.9,5.74Z"/>
          <path class="cls-3" d="M789.44,476c-10.93-7.76-26.13-5.19-33.9,5.74-11.64,16.39-34.45,20.26-50.85,8.61-10.93-7.76-26.13-5.19-33.9,5.74-7.76,10.93-5.19,26.13,5.74,33.9,10.93,7.76,26.14,5.19,33.9-5.74,11.64-16.39,34.45-20.26,50.85-8.61,10.93,7.76,26.13,5.19,33.9-5.74,7.76-10.93,5.19-26.14-5.74-33.9Z"/>
        </g>
        <g>
          <path class="cls-3" d="M817.75,600.48c-7.76,10.93-5.19,26.13,5.74,33.9,16.39,11.64,20.26,34.45,8.61,50.85-7.76,10.93-5.19,26.14,5.74,33.9,10.93,7.76,26.13,5.19,33.9-5.74,7.76-10.93,5.19-26.14-5.74-33.9-16.39-11.64-20.26-34.45-8.61-50.85,7.76-10.93,5.19-26.14-5.74-33.9-10.93-7.76-26.13-5.19-33.9,5.74Z"/>
          <path class="cls-3" d="M886.84,545.19c-10.93-7.76-26.13-5.19-33.9,5.74-11.64,16.39-34.45,20.26-50.85,8.61-10.93-7.76-26.13-5.19-33.9,5.74-7.76,10.93-5.19,26.13,5.74,33.9,10.93,7.76,26.13,5.19,33.9-5.74,11.64-16.39,34.45-20.26,50.85-8.61,10.93,7.76,26.13,5.19,33.9-5.74,7.76-10.93,5.19-26.14-5.74-33.9Z"/>
        </g>
        <g>
          <path class="cls-3" d="M915.15,669.66c-7.76,10.93-5.19,26.13,5.74,33.9,16.39,11.64,20.26,34.45,8.61,50.85-7.76,10.93-5.19,26.14,5.74,33.9,10.93,7.76,26.14,5.19,33.9-5.74,7.76-10.93,5.19-26.14-5.74-33.9-16.39-11.64-20.26-34.45-8.61-50.85,7.76-10.93,5.19-26.14-5.74-33.9-10.93-7.76-26.13-5.19-33.9,5.74Z"/>
          <path class="cls-3" d="M984.24,614.37c-10.93-7.76-26.13-5.19-33.9,5.74-11.64,16.39-34.45,20.26-50.85,8.61-10.93-7.76-26.13-5.19-33.9,5.74-7.76,10.93-5.19,26.13,5.74,33.9,10.93,7.76,26.14,5.19,33.9-5.74,11.64-16.39,34.45-20.26,50.85-8.61,10.93,7.76,26.13,5.19,33.9-5.74s5.19-26.14-5.74-33.9Z"/>
        </g>
        <g>
          <path class="cls-3" d="M1012.55,738.84c-7.76,10.93-5.19,26.13,5.74,33.9,16.39,11.64,20.26,34.45,8.61,50.85-7.76,10.93-5.19,26.14,5.74,33.9,10.93,7.76,26.13,5.19,33.9-5.74,7.76-10.93,5.19-26.14-5.74-33.9-16.39-11.64-20.26-34.45-8.61-50.85,7.76-10.93,5.19-26.14-5.74-33.9-10.93-7.76-26.13-5.19-33.9,5.74Z"/>
          <path class="cls-3" d="M1081.64,683.55c-10.93-7.76-26.13-5.19-33.9,5.74-11.64,16.39-34.45,20.26-50.85,8.61-10.93-7.76-26.13-5.19-33.9,5.74-7.76,10.93-5.19,26.13,5.74,33.9,10.93,7.76,26.13,5.19,33.9-5.74,11.64-16.39,34.45-20.26,50.85-8.61,10.93,7.76,26.13,5.19,33.9-5.74,7.76-10.93,5.19-26.13-5.74-33.9Z"/>
        </g>
        <g>
          <path class="cls-3" d="M1109.94,808.02c-7.76,10.93-5.19,26.13,5.74,33.9,16.39,11.64,20.26,34.45,8.61,50.85-7.76,10.93-5.19,26.14,5.74,33.9s26.14,5.19,33.9-5.74c7.76-10.93,5.19-26.14-5.74-33.9-16.39-11.64-20.26-34.45-8.61-50.85,7.76-10.93,5.19-26.14-5.74-33.9-10.93-7.76-26.13-5.19-33.9,5.74Z"/>
          <path class="cls-3" d="M1179.04,752.73c-10.93-7.76-26.13-5.19-33.9,5.74-11.64,16.39-34.45,20.26-50.85,8.61-10.93-7.76-26.13-5.19-33.9,5.74-7.76,10.93-5.19,26.13,5.74,33.9,10.93,7.76,26.14,5.19,33.9-5.74,11.64-16.39,34.45-20.26,50.85-8.61,10.93,7.76,26.13,5.19,33.9-5.74,7.76-10.93,5.19-26.14-5.74-33.9Z"/>
        </g>
        <g>
          <path class="cls-3" d="M1207.34,877.2c-7.76,10.93-5.19,26.13,5.74,33.9,16.39,11.64,20.26,34.45,8.61,50.85-7.76,10.93-5.19,26.14,5.74,33.9,10.93,7.76,26.13,5.19,33.9-5.74,7.76-10.93,5.19-26.14-5.74-33.9-16.39-11.64-20.26-34.45-8.61-50.85,7.76-10.93,5.19-26.14-5.74-33.9-10.93-7.76-26.13-5.19-33.9,5.74Z"/>
          <path class="cls-3" d="M1276.43,821.91c-10.93-7.76-26.13-5.19-33.9,5.74-11.64,16.39-34.45,20.26-50.85,8.61-10.93-7.76-26.13-5.19-33.9,5.74-7.76,10.93-5.19,26.13,5.74,33.9,10.93,7.76,26.13,5.19,33.9-5.74,11.64-16.39,34.45-20.26,50.85-8.61,10.93,7.76,26.13,5.19,33.9-5.74,7.76-10.93,5.19-26.14-5.74-33.9Z"/>
        </g>
        <g>
          <path class="cls-3" d="M1304.74,946.38c-7.76,10.93-5.19,26.13,5.74,33.9,16.39,11.64,20.26,34.45,8.61,50.85-7.76,10.93-5.19,26.14,5.74,33.9,10.93,7.76,26.14,5.19,33.9-5.74,7.76-10.93,5.19-26.14-5.74-33.9-16.39-11.64-20.26-34.45-8.61-50.85,7.76-10.93,5.19-26.14-5.74-33.9-10.93-7.76-26.13-5.19-33.9,5.74Z"/>
          <path class="cls-3" d="M1373.83,891.09c-10.93-7.76-26.13-5.19-33.9,5.74-11.64,16.39-34.45,20.26-50.85,8.61-10.93-7.76-26.13-5.19-33.9,5.74-7.76,10.93-5.19,26.13,5.74,33.9,10.93,7.76,26.14,5.19,33.9-5.74,11.64-16.39,34.45-20.26,50.85-8.61,10.93,7.76,26.13,5.19,33.9-5.74,7.76-10.93,5.19-26.14-5.74-33.9Z"/>
        </g>
      </g>
      <g>
        <g>
          <path class="cls-3" d="M261.58,351.97c-7.76,10.93-5.19,26.13,5.74,33.9,16.39,11.64,20.26,34.45,8.61,50.85-7.76,10.93-5.19,26.14,5.74,33.9,10.93,7.76,26.14,5.19,33.9-5.74,7.76-10.93,5.19-26.14-5.74-33.9-16.39-11.64-20.26-34.45-8.61-50.85,7.76-10.93,5.19-26.14-5.74-33.9-10.93-7.76-26.13-5.19-33.9,5.74Z"/>
          <path class="cls-3" d="M330.67,296.68c-10.93-7.76-26.13-5.19-33.9,5.74-11.64,16.39-34.45,20.26-50.85,8.61-10.93-7.76-26.13-5.19-33.9,5.74-7.76,10.93-5.19,26.13,5.74,33.9,10.93,7.76,26.14,5.19,33.9-5.74,11.64-16.39,34.45-20.26,50.85-8.61,10.93,7.76,26.13,5.19,33.9-5.74,7.76-10.93,5.19-26.14-5.74-33.9Z"/>
        </g>
        <g>
          <path class="cls-3" d="M358.97,421.15c-7.76,10.93-5.19,26.13,5.74,33.9,16.39,11.64,20.26,34.45,8.61,50.85-7.76,10.93-5.19,26.14,5.74,33.9,10.93,7.76,26.14,5.19,33.9-5.74,7.76-10.93,5.19-26.14-5.74-33.9-16.39-11.64-20.26-34.45-8.61-50.85,7.76-10.93,5.19-26.14-5.74-33.9-10.93-7.76-26.13-5.19-33.9,5.74Z"/>
          <path class="cls-3" d="M428.07,365.86c-10.93-7.76-26.13-5.19-33.9,5.74-11.64,16.39-34.45,20.26-50.85,8.61-10.93-7.76-26.13-5.19-33.9,5.74-7.76,10.93-5.19,26.13,5.74,33.9,10.93,7.76,26.14,5.19,33.9-5.74,11.64-16.39,34.45-20.26,50.85-8.61,10.93,7.76,26.13,5.19,33.9-5.74,7.76-10.93,5.19-26.13-5.74-33.9Z"/>
        </g>
        <g>
          <path class="cls-3" d="M456.37,490.33c-7.76,10.93-5.19,26.13,5.74,33.9,16.39,11.64,20.26,34.45,8.61,50.85-7.76,10.93-5.19,26.14,5.74,33.9,10.93,7.76,26.14,5.19,33.9-5.74,7.76-10.93,5.19-26.14-5.74-33.9-16.39-11.64-20.26-34.45-8.61-50.85,7.76-10.93,5.19-26.14-5.74-33.9-10.93-7.76-26.13-5.19-33.9,5.74Z"/>
          <path class="cls-3" d="M525.46,435.04c-10.93-7.76-26.13-5.19-33.9,5.74-11.64,16.39-34.45,20.26-50.85,8.61-10.93-7.76-26.13-5.19-33.9,5.74-7.76,10.93-5.19,26.13,5.74,33.9,10.93,7.76,26.14,5.19,33.9-5.74,11.64-16.39,34.45-20.26,50.85-8.61,10.93,7.76,26.13,5.19,33.9-5.74,7.76-10.93,5.19-26.14-5.74-33.9Z"/>
        </g>
        <g>
          <path class="cls-3" d="M553.77,559.51c-7.76,10.93-5.19,26.13,5.74,33.9,16.39,11.64,20.26,34.45,8.61,50.85-7.76,10.93-5.19,26.14,5.74,33.9,10.93,7.76,26.14,5.19,33.9-5.74,7.76-10.93,5.19-26.14-5.74-33.9-16.39-11.64-20.26-34.45-8.61-50.85,7.76-10.93,5.19-26.14-5.74-33.9-10.93-7.76-26.13-5.19-33.9,5.74Z"/>
          <path class="cls-3" d="M622.86,504.22c-10.93-7.76-26.13-5.19-33.9,5.74-11.64,16.39-34.45,20.26-50.85,8.61-10.93-7.76-26.13-5.19-33.9,5.74-7.76,10.93-5.19,26.13,5.74,33.9,10.93,7.76,26.14,5.19,33.9-5.74,11.64-16.39,34.45-20.26,50.85-8.61,10.93,7.76,26.13,5.19,33.9-5.74,7.76-10.93,5.19-26.14-5.74-33.9Z"/>
        </g>
        <g>
          <path class="cls-3" d="M651.17,628.69c-7.76,10.93-5.19,26.13,5.74,33.9,16.39,11.64,20.26,34.45,8.61,50.85-7.76,10.93-5.19,26.13,5.74,33.9,10.93,7.76,26.13,5.19,33.9-5.74,7.76-10.93,5.19-26.14-5.74-33.9-16.39-11.64-20.26-34.45-8.61-50.85,7.76-10.93,5.19-26.14-5.74-33.9-10.93-7.76-26.13-5.19-33.9,5.74Z"/>
          <path class="cls-3" d="M720.26,573.4c-10.93-7.76-26.13-5.19-33.9,5.74-11.64,16.39-34.45,20.26-50.85,8.61-10.93-7.76-26.13-5.19-33.9,5.74-7.76,10.93-5.19,26.13,5.74,33.9,10.93,7.76,26.13,5.19,33.9-5.74,11.64-16.39,34.45-20.26,50.85-8.61,10.93,7.76,26.13,5.19,33.9-5.74,7.76-10.93,5.19-26.14-5.74-33.9Z"/>
        </g>
        <g>
          <path class="cls-3" d="M748.57,697.88c-7.76,10.93-5.19,26.13,5.74,33.9,16.39,11.64,20.26,34.45,8.61,50.85-7.76,10.93-5.19,26.14,5.74,33.9,10.93,7.76,26.14,5.19,33.9-5.74,7.76-10.93,5.19-26.14-5.74-33.9-16.39-11.64-20.26-34.45-8.61-50.85,7.76-10.93,5.19-26.14-5.74-33.9-10.93-7.76-26.13-5.19-33.9,5.74Z"/>
          <path class="cls-3" d="M817.66,642.58c-10.93-7.76-26.13-5.19-33.9,5.74-11.64,16.39-34.45,20.26-50.85,8.61-10.93-7.76-26.13-5.19-33.9,5.74-7.76,10.93-5.19,26.13,5.74,33.9s26.14,5.19,33.9-5.74c11.64-16.39,34.45-20.26,50.85-8.61,10.93,7.76,26.13,5.19,33.9-5.74,7.76-10.93,5.19-26.13-5.74-33.9Z"/>
        </g>
        <g>
          <path class="cls-3" d="M845.97,767.06c-7.76,10.93-5.19,26.13,5.74,33.9,16.39,11.64,20.26,34.45,8.61,50.85-7.76,10.93-5.19,26.14,5.74,33.9,10.93,7.76,26.13,5.19,33.9-5.74,7.76-10.93,5.19-26.14-5.74-33.9-16.39-11.64-20.26-34.45-8.61-50.85,7.76-10.93,5.19-26.13-5.74-33.9-10.93-7.76-26.13-5.19-33.9,5.74Z"/>
          <path class="cls-3" d="M915.06,711.77c-10.93-7.76-26.13-5.19-33.9,5.74-11.64,16.39-34.45,20.26-50.85,8.61-10.93-7.76-26.13-5.19-33.9,5.74-7.76,10.93-5.19,26.13,5.74,33.9,10.93,7.76,26.13,5.19,33.9-5.74,11.64-16.39,34.45-20.26,50.85-8.61,10.93,7.76,26.13,5.19,33.9-5.74,7.76-10.93,5.19-26.14-5.74-33.9Z"/>
        </g>
        <g>
          <path class="cls-3" d="M943.36,836.24c-7.76,10.93-5.19,26.13,5.74,33.9,16.39,11.64,20.26,34.45,8.61,50.85-7.76,10.93-5.19,26.14,5.74,33.9,10.93,7.76,26.14,5.19,33.9-5.74,7.76-10.93,5.19-26.14-5.74-33.9-16.39-11.64-20.26-34.45-8.61-50.85,7.76-10.93,5.19-26.14-5.74-33.9-10.93-7.76-26.13-5.19-33.9,5.74Z"/>
          <path class="cls-3" d="M1012.46,780.95c-10.93-7.76-26.13-5.19-33.9,5.74-11.64,16.39-34.45,20.26-50.85,8.61-10.93-7.76-26.13-5.19-33.9,5.74-7.76,10.93-5.19,26.13,5.74,33.9,10.93,7.76,26.14,5.19,33.9-5.74,11.64-16.39,34.45-20.26,50.85-8.61,10.93,7.76,26.13,5.19,33.9-5.74s5.19-26.14-5.74-33.9Z"/>
        </g>
        <g>
          <path class="cls-3" d="M1040.76,905.42c-7.76,10.93-5.19,26.13,5.74,33.9,16.39,11.64,20.26,34.45,8.61,50.85-7.76,10.93-5.19,26.14,5.74,33.9,10.93,7.76,26.13,5.19,33.9-5.74,7.76-10.93,5.19-26.14-5.74-33.9-16.39-11.64-20.26-34.45-8.61-50.85,7.76-10.93,5.19-26.14-5.74-33.9-10.93-7.76-26.13-5.19-33.9,5.74Z"/>
          <path class="cls-3" d="M1109.85,850.13c-10.93-7.76-26.13-5.19-33.9,5.74-11.64,16.39-34.45,20.26-50.85,8.61-10.93-7.76-26.13-5.19-33.9,5.74-7.76,10.93-5.19,26.13,5.74,33.9,10.93,7.76,26.13,5.19,33.9-5.74,11.64-16.39,34.45-20.26,50.85-8.61,10.93,7.76,26.13,5.19,33.9-5.74,7.76-10.93,5.19-26.14-5.74-33.9Z"/>
        </g>
        <g>
          <path class="cls-3" d="M1138.16,974.6c-7.76,10.93-5.19,26.13,5.74,33.9,16.39,11.64,20.26,34.45,8.61,50.85-7.76,10.93-5.19,26.14,5.74,33.9s26.14,5.19,33.9-5.74c7.76-10.93,5.19-26.14-5.74-33.9-16.39-11.64-20.26-34.45-8.61-50.85,7.76-10.93,5.19-26.14-5.74-33.9-10.93-7.76-26.13-5.19-33.9,5.74Z"/>
          <path class="cls-3" d="M1207.25,919.31c-10.93-7.76-26.13-5.19-33.9,5.74-11.64,16.39-34.45,20.26-50.85,8.61-10.93-7.76-26.13-5.19-33.9,5.74-7.76,10.93-5.19,26.13,5.74,33.9,10.93,7.76,26.14,5.19,33.9-5.74,11.64-16.39,34.45-20.26,50.85-8.61,10.93,7.76,26.13,5.19,33.9-5.74,7.76-10.93,5.19-26.14-5.74-33.9Z"/>
        </g>
        <g>
          <path class="cls-3" d="M1235.56,1043.78c-7.76,10.93-5.19,26.13,5.74,33.9,16.39,11.64,20.26,34.45,8.61,50.85-7.76,10.93-5.19,26.14,5.74,33.9,10.93,7.76,26.14,5.19,33.9-5.74,7.76-10.93,5.19-26.14-5.74-33.9-16.39-11.64-20.26-34.45-8.61-50.85,7.76-10.93,5.19-26.14-5.74-33.9-10.93-7.76-26.13-5.19-33.9,5.74Z"/>
          <path class="cls-3" d="M1304.65,988.49c-10.93-7.76-26.13-5.19-33.9,5.74-11.64,16.39-34.45,20.26-50.85,8.61-10.93-7.76-26.13-5.19-33.9,5.74-7.76,10.93-5.19,26.13,5.74,33.9,10.93,7.76,26.13,5.19,33.9-5.74,11.64-16.39,34.45-20.26,50.85-8.61,10.93,7.76,26.13,5.19,33.9-5.74,7.76-10.93,5.19-26.14-5.74-33.9Z"/>
        </g>
      </g>
      <g>
        <g>
          <path class="cls-3" d="M192.39,449.37c-7.76,10.93-5.19,26.13,5.74,33.9,16.39,11.64,20.26,34.45,8.61,50.85-7.76,10.93-5.19,26.14,5.74,33.9,10.93,7.76,26.14,5.19,33.9-5.74,7.76-10.93,5.19-26.14-5.74-33.9-16.39-11.64-20.26-34.45-8.61-50.85,7.76-10.93,5.19-26.14-5.74-33.9-10.93-7.76-26.13-5.19-33.9,5.74Z"/>
          <path class="cls-3" d="M261.49,394.08c-10.93-7.76-26.13-5.19-33.9,5.74-11.64,16.39-34.45,20.26-50.85,8.61-10.93-7.76-26.13-5.19-33.9,5.74-7.76,10.93-5.19,26.13,5.74,33.9s26.14,5.19,33.9-5.74c11.64-16.39,34.45-20.26,50.85-8.61,10.93,7.76,26.13,5.19,33.9-5.74,7.76-10.93,5.19-26.13-5.74-33.9Z"/>
        </g>
        <g>
          <path class="cls-3" d="M289.79,518.55c-7.76,10.93-5.19,26.13,5.74,33.9,16.39,11.64,20.26,34.45,8.61,50.85-7.76,10.93-5.19,26.14,5.74,33.9,10.93,7.76,26.13,5.19,33.9-5.74,7.76-10.93,5.19-26.14-5.74-33.9-16.39-11.64-20.26-34.45-8.61-50.85,7.76-10.93,5.19-26.14-5.74-33.9-10.93-7.76-26.13-5.19-33.9,5.74Z"/>
          <path class="cls-3" d="M358.88,463.26c-10.93-7.76-26.13-5.19-33.9,5.74-11.64,16.39-34.45,20.26-50.85,8.61-10.93-7.76-26.13-5.19-33.9,5.74-7.76,10.93-5.19,26.13,5.74,33.9,10.93,7.76,26.14,5.19,33.9-5.74,11.64-16.39,34.45-20.26,50.85-8.61,10.93,7.76,26.13,5.19,33.9-5.74,7.76-10.93,5.19-26.14-5.74-33.9Z"/>
        </g>
        <g>
          <path class="cls-3" d="M387.19,587.73c-7.76,10.93-5.19,26.13,5.74,33.9,16.39,11.64,20.26,34.45,8.61,50.85-7.76,10.93-5.19,26.14,5.74,33.9,10.93,7.76,26.14,5.19,33.9-5.74,7.76-10.93,5.19-26.13-5.74-33.9-16.39-11.64-20.26-34.45-8.61-50.85,7.76-10.93,5.19-26.14-5.74-33.9-10.93-7.76-26.13-5.19-33.9,5.74Z"/>
          <path class="cls-3" d="M456.28,532.44c-10.93-7.76-26.13-5.19-33.9,5.74-11.64,16.39-34.45,20.26-50.85,8.61-10.93-7.76-26.13-5.19-33.9,5.74-7.76,10.93-5.19,26.13,5.74,33.9,10.93,7.76,26.14,5.19,33.9-5.74,11.64-16.39,34.45-20.26,50.85-8.61,10.93,7.76,26.13,5.19,33.9-5.74,7.76-10.93,5.19-26.13-5.74-33.9Z"/>
        </g>
        <g>
          <path class="cls-3" d="M484.59,656.91c-7.76,10.93-5.19,26.13,5.74,33.9,16.39,11.64,20.26,34.45,8.61,50.85-7.76,10.93-5.19,26.14,5.74,33.9,10.93,7.76,26.13,5.19,33.9-5.74,7.76-10.93,5.19-26.14-5.74-33.9-16.39-11.64-20.26-34.45-8.61-50.85,7.76-10.93,5.19-26.14-5.74-33.9-10.93-7.76-26.13-5.19-33.9,5.74Z"/>
          <path class="cls-3" d="M553.68,601.62c-10.93-7.76-26.13-5.19-33.9,5.74-11.64,16.39-34.45,20.26-50.85,8.61-10.93-7.76-26.13-5.19-33.9,5.74-7.76,10.93-5.19,26.13,5.74,33.9,10.93,7.76,26.13,5.19,33.9-5.74,11.64-16.39,34.45-20.26,50.85-8.61,10.93,7.76,26.13,5.19,33.9-5.74,7.76-10.93,5.19-26.14-5.74-33.9Z"/>
        </g>
        <g>
          <path class="cls-3" d="M581.99,726.09c-7.76,10.93-5.19,26.13,5.74,33.9,16.39,11.64,20.26,34.45,8.61,50.85-7.76,10.93-5.19,26.14,5.74,33.9,10.93,7.76,26.14,5.19,33.9-5.74,7.76-10.93,5.19-26.14-5.74-33.9-16.39-11.64-20.26-34.45-8.61-50.85,7.76-10.93,5.19-26.14-5.74-33.9-10.93-7.76-26.13-5.19-33.9,5.74Z"/>
          <path class="cls-3" d="M651.08,670.8c-10.93-7.76-26.13-5.19-33.9,5.74-11.64,16.39-34.45,20.26-50.85,8.61-10.93-7.76-26.13-5.19-33.9,5.74-7.76,10.93-5.19,26.13,5.74,33.9,10.93,7.76,26.14,5.19,33.9-5.74,11.64-16.39,34.45-20.26,50.85-8.61,10.93,7.76,26.13,5.19,33.9-5.74,7.76-10.93,5.19-26.14-5.74-33.9Z"/>
        </g>
        <g>
          <path class="cls-3" d="M679.39,795.27c-7.76,10.93-5.19,26.13,5.74,33.9,16.39,11.64,20.26,34.45,8.61,50.85-7.76,10.93-5.19,26.14,5.74,33.9,10.93,7.76,26.13,5.19,33.9-5.74,7.76-10.93,5.19-26.14-5.74-33.9-16.39-11.64-20.26-34.45-8.61-50.85,7.76-10.93,5.19-26.14-5.74-33.9-10.93-7.76-26.13-5.19-33.9,5.74Z"/>
          <path class="cls-3" d="M748.48,739.98c-10.93-7.76-26.13-5.19-33.9,5.74-11.64,16.39-34.45,20.26-50.85,8.61-10.93-7.76-26.13-5.19-33.9,5.74-7.76,10.93-5.19,26.13,5.74,33.9,10.93,7.76,26.13,5.19,33.9-5.74,11.64-16.39,34.45-20.26,50.85-8.61,10.93,7.76,26.13,5.19,33.9-5.74,7.76-10.93,5.19-26.14-5.74-33.9Z"/>
        </g>
        <g>
          <path class="cls-3" d="M776.78,864.45c-7.76,10.93-5.19,26.13,5.74,33.9,16.39,11.64,20.26,34.45,8.61,50.85-7.76,10.93-5.19,26.14,5.74,33.9,10.93,7.76,26.14,5.19,33.9-5.74,7.76-10.93,5.19-26.14-5.74-33.9-16.39-11.64-20.26-34.45-8.61-50.85,7.76-10.93,5.19-26.14-5.74-33.9-10.93-7.76-26.13-5.19-33.9,5.74Z"/>
          <path class="cls-3" d="M845.88,809.16c-10.93-7.76-26.13-5.19-33.9,5.74-11.64,16.39-34.45,20.26-50.85,8.61-10.93-7.76-26.13-5.19-33.9,5.74-7.76,10.93-5.19,26.13,5.74,33.9,10.93,7.76,26.14,5.19,33.9-5.74,11.64-16.39,34.45-20.26,50.85-8.61,10.93,7.76,26.13,5.19,33.9-5.74,7.76-10.93,5.19-26.14-5.74-33.9Z"/>
        </g>
        <g>
          <path class="cls-3" d="M874.18,933.64c-7.76,10.93-5.19,26.13,5.74,33.9,16.39,11.64,20.26,34.45,8.61,50.85-7.76,10.93-5.19,26.14,5.74,33.9,10.93,7.76,26.14,5.19,33.9-5.74,7.76-10.93,5.19-26.14-5.74-33.9-16.39-11.64-20.26-34.45-8.61-50.85,7.76-10.93,5.19-26.14-5.74-33.9-10.93-7.76-26.13-5.19-33.9,5.74Z"/>
          <path class="cls-3" d="M943.27,878.35c-10.93-7.76-26.13-5.19-33.9,5.74-11.64,16.39-34.45,20.26-50.85,8.61-10.93-7.76-26.13-5.19-33.9,5.74-7.76,10.93-5.19,26.13,5.74,33.9,10.93,7.76,26.14,5.19,33.9-5.74,11.64-16.39,34.45-20.26,50.85-8.61,10.93,7.76,26.13,5.19,33.9-5.74,7.76-10.93,5.19-26.14-5.74-33.9Z"/>
        </g>
        <g>
          <path class="cls-3" d="M971.58,1002.82c-7.76,10.93-5.19,26.13,5.74,33.9,16.39,11.64,20.26,34.45,8.61,50.85-7.76,10.93-5.19,26.14,5.74,33.9,10.93,7.76,26.14,5.19,33.9-5.74,7.76-10.93,5.19-26.14-5.74-33.9-16.39-11.64-20.26-34.45-8.61-50.85,7.76-10.93,5.19-26.14-5.74-33.9-10.93-7.76-26.13-5.19-33.9,5.74Z"/>
          <path class="cls-3" d="M1040.67,947.53c-10.93-7.76-26.13-5.19-33.9,5.74-11.64,16.39-34.45,20.26-50.85,8.61-10.93-7.76-26.13-5.19-33.9,5.74-7.76,10.93-5.19,26.13,5.74,33.9,10.93,7.76,26.14,5.19,33.9-5.74,11.64-16.39,34.45-20.26,50.85-8.61,10.93,7.76,26.13,5.19,33.9-5.74s5.19-26.14-5.74-33.9Z"/>
        </g>
        <g>
          <path class="cls-3" d="M1068.98,1072c-7.76,10.93-5.19,26.13,5.74,33.9,16.39,11.64,20.26,34.45,8.61,50.85-7.76,10.93-5.19,26.14,5.74,33.9,10.93,7.76,26.14,5.19,33.9-5.74,7.76-10.93,5.19-26.13-5.74-33.9-16.39-11.64-20.26-34.45-8.61-50.85,7.76-10.93,5.19-26.14-5.74-33.9-10.93-7.76-26.13-5.19-33.9,5.74Z"/>
          <path class="cls-3" d="M1138.07,1016.71c-10.93-7.76-26.13-5.19-33.9,5.74-11.64,16.39-34.45,20.26-50.85,8.61-10.93-7.76-26.13-5.19-33.9,5.74-7.76,10.93-5.19,26.13,5.74,33.9,10.93,7.76,26.13,5.19,33.9-5.74,11.64-16.39,34.45-20.26,50.85-8.61,10.93,7.76,26.13,5.19,33.9-5.74,7.76-10.93,5.19-26.13-5.74-33.9Z"/>
        </g>
        <g>
          <path class="cls-3" d="M1166.38,1141.18c-7.76,10.93-5.19,26.13,5.74,33.9,16.39,11.64,20.26,34.45,8.61,50.85-7.76,10.93-5.19,26.14,5.74,33.9,10.93,7.76,26.13,5.19,33.9-5.74,7.76-10.93,5.19-26.14-5.74-33.9-16.39-11.64-20.26-34.45-8.61-50.85,7.76-10.93,5.19-26.14-5.74-33.9-10.93-7.76-26.13-5.19-33.9,5.74Z"/>
          <path class="cls-3" d="M1235.47,1085.89c-10.93-7.76-26.13-5.19-33.9,5.74-11.64,16.39-34.45,20.26-50.85,8.61-10.93-7.76-26.13-5.19-33.9,5.74-7.76,10.93-5.19,26.13,5.74,33.9,10.93,7.76,26.14,5.19,33.9-5.74,11.64-16.39,34.45-20.26,50.85-8.61,10.93,7.76,26.13,5.19,33.9-5.74,7.76-10.93,5.19-26.14-5.74-33.9Z"/>
        </g>
      </g>
      <g>
        <g>
          <path class="cls-3" d="M123.21,546.77c-7.76,10.93-5.19,26.13,5.74,33.9,16.39,11.64,20.26,34.45,8.61,50.85-7.76,10.93-5.19,26.14,5.74,33.9,10.93,7.76,26.14,5.19,33.9-5.74,7.76-10.93,5.19-26.14-5.74-33.9-16.39-11.64-20.26-34.45-8.61-50.85,7.76-10.93,5.19-26.14-5.74-33.9-10.93-7.76-26.13-5.19-33.9,5.74Z"/>
          <path class="cls-3" d="M192.3,491.47c-10.93-7.76-26.13-5.19-33.9,5.74-11.64,16.39-34.45,20.26-50.85,8.61-10.93-7.76-26.13-5.19-33.9,5.74-7.76,10.93-5.19,26.13,5.74,33.9,10.93,7.76,26.14,5.19,33.9-5.74,11.64-16.39,34.45-20.26,50.85-8.61,10.93,7.76,26.13,5.19,33.9-5.74,7.76-10.93,5.19-26.14-5.74-33.9Z"/>
        </g>
        <g>
          <path class="cls-3" d="M220.61,615.95c-7.76,10.93-5.19,26.13,5.74,33.9,16.39,11.64,20.26,34.45,8.61,50.85-7.76,10.93-5.19,26.14,5.74,33.9,10.93,7.76,26.14,5.19,33.9-5.74,7.76-10.93,5.19-26.13-5.74-33.9-16.39-11.64-20.26-34.45-8.61-50.85,7.76-10.93,5.19-26.14-5.74-33.9-10.93-7.76-26.13-5.19-33.9,5.74Z"/>
          <path class="cls-3" d="M289.7,560.66c-10.93-7.76-26.13-5.19-33.9,5.74-11.64,16.39-34.45,20.26-50.85,8.61-10.93-7.76-26.13-5.19-33.9,5.74-7.76,10.93-5.19,26.13,5.74,33.9s26.14,5.19,33.9-5.74c11.64-16.39,34.45-20.26,50.85-8.61,10.93,7.76,26.13,5.19,33.9-5.74,7.76-10.93,5.19-26.13-5.74-33.9Z"/>
        </g>
        <g>
          <path class="cls-3" d="M318.01,685.13c-7.76,10.93-5.19,26.13,5.74,33.9,16.39,11.64,20.26,34.45,8.61,50.85-7.76,10.93-5.19,26.14,5.74,33.9,10.93,7.76,26.14,5.19,33.9-5.74,7.76-10.93,5.19-26.14-5.74-33.9-16.39-11.64-20.26-34.45-8.61-50.85,7.76-10.93,5.19-26.14-5.74-33.9-10.93-7.76-26.13-5.19-33.9,5.74Z"/>
          <path class="cls-3" d="M387.1,629.84c-10.93-7.76-26.13-5.19-33.9,5.74-11.64,16.39-34.45,20.26-50.85,8.61-10.93-7.76-26.13-5.19-33.9,5.74-7.76,10.93-5.19,26.13,5.74,33.9,10.93,7.76,26.14,5.19,33.9-5.74,11.64-16.39,34.45-20.26,50.85-8.61,10.93,7.76,26.13,5.19,33.9-5.74,7.76-10.93,5.19-26.14-5.74-33.9Z"/>
        </g>
        <g>
          <path class="cls-3" d="M415.41,754.31c-7.76,10.93-5.19,26.13,5.74,33.9,16.39,11.64,20.26,34.45,8.61,50.85-7.76,10.93-5.19,26.14,5.74,33.9,10.93,7.76,26.14,5.19,33.9-5.74,7.76-10.93,5.19-26.14-5.74-33.9-16.39-11.64-20.26-34.45-8.61-50.85,7.76-10.93,5.19-26.14-5.74-33.9-10.93-7.76-26.13-5.19-33.9,5.74Z"/>
          <path class="cls-3" d="M484.5,699.02c-10.93-7.76-26.13-5.19-33.9,5.74-11.64,16.39-34.45,20.26-50.85,8.61-10.93-7.76-26.13-5.19-33.9,5.74-7.76,10.93-5.19,26.13,5.74,33.9,10.93,7.76,26.14,5.19,33.9-5.74,11.64-16.39,34.45-20.26,50.85-8.61,10.93,7.76,26.13,5.19,33.9-5.74,7.76-10.93,5.19-26.14-5.74-33.9Z"/>
        </g>
        <g>
          <path class="cls-3" d="M512.81,823.49c-7.76,10.93-5.19,26.13,5.74,33.9,16.39,11.64,20.26,34.45,8.61,50.85-7.76,10.93-5.19,26.14,5.74,33.9,10.93,7.76,26.13,5.19,33.9-5.74,7.76-10.93,5.19-26.14-5.74-33.9-16.39-11.64-20.26-34.45-8.61-50.85,7.76-10.93,5.19-26.13-5.74-33.9-10.93-7.76-26.13-5.19-33.9,5.74Z"/>
          <path class="cls-3" d="M581.9,768.2c-10.93-7.76-26.13-5.19-33.9,5.74-11.64,16.39-34.45,20.26-50.85,8.61-10.93-7.76-26.13-5.19-33.9,5.74-7.76,10.93-5.19,26.13,5.74,33.9,10.93,7.76,26.13,5.19,33.9-5.74,11.64-16.39,34.45-20.26,50.85-8.61,10.93,7.76,26.13,5.19,33.9-5.74,7.76-10.93,5.19-26.14-5.74-33.9Z"/>
        </g>
        <g>
          <path class="cls-3" d="M610.21,892.67c-7.76,10.93-5.19,26.13,5.74,33.9,16.39,11.64,20.26,34.45,8.61,50.85-7.76,10.93-5.19,26.14,5.74,33.9,10.93,7.76,26.14,5.19,33.9-5.74,7.76-10.93,5.19-26.14-5.74-33.9-16.39-11.64-20.26-34.45-8.61-50.85,7.76-10.93,5.19-26.14-5.74-33.9-10.93-7.76-26.13-5.19-33.9,5.74Z"/>
          <path class="cls-3" d="M679.3,837.38c-10.93-7.76-26.13-5.19-33.9,5.74-11.64,16.39-34.45,20.26-50.85,8.61-10.93-7.76-26.13-5.19-33.9,5.74-7.76,10.93-5.19,26.13,5.74,33.9,10.93,7.76,26.14,5.19,33.9-5.74,11.64-16.39,34.45-20.26,50.85-8.61,10.93,7.76,26.13,5.19,33.9-5.74,7.76-10.93,5.19-26.14-5.74-33.9Z"/>
        </g>
        <g>
          <path class="cls-3" d="M707.6,961.85c-7.76,10.93-5.19,26.13,5.74,33.9,16.39,11.64,20.26,34.45,8.61,50.85-7.76,10.93-5.19,26.14,5.74,33.9,10.93,7.76,26.13,5.19,33.9-5.74,7.76-10.93,5.19-26.13-5.74-33.9-16.39-11.64-20.26-34.45-8.61-50.85,7.76-10.93,5.19-26.14-5.74-33.9-10.93-7.76-26.13-5.19-33.9,5.74Z"/>
          <path class="cls-3" d="M776.7,906.56c-10.93-7.76-26.13-5.19-33.9,5.74-11.64,16.39-34.45,20.26-50.85,8.61-10.93-7.76-26.13-5.19-33.9,5.74-7.76,10.93-5.19,26.13,5.74,33.9,10.93,7.76,26.13,5.19,33.9-5.74,11.64-16.39,34.45-20.26,50.85-8.61,10.93,7.76,26.13,5.19,33.9-5.74,7.76-10.93,5.19-26.14-5.74-33.9Z"/>
        </g>
        <g>
          <path class="cls-3" d="M805,1031.03c-7.76,10.93-5.19,26.13,5.74,33.9,16.39,11.64,20.26,34.45,8.61,50.85-7.76,10.93-5.19,26.14,5.74,33.9,10.93,7.76,26.14,5.19,33.9-5.74,7.76-10.93,5.19-26.14-5.74-33.9-16.39-11.64-20.26-34.45-8.61-50.85,7.76-10.93,5.19-26.14-5.74-33.9-10.93-7.76-26.13-5.19-33.9,5.74Z"/>
          <path class="cls-3" d="M874.09,975.74c-10.93-7.76-26.13-5.19-33.9,5.74-11.64,16.39-34.45,20.26-50.85,8.61-10.93-7.76-26.13-5.19-33.9,5.74-7.76,10.93-5.19,26.13,5.74,33.9,10.93,7.76,26.14,5.19,33.9-5.74,11.64-16.39,34.45-20.26,50.85-8.61,10.93,7.76,26.13,5.19,33.9-5.74,7.76-10.93,5.19-26.14-5.74-33.9Z"/>
        </g>
        <g>
          <path class="cls-3" d="M902.4,1100.22c-7.76,10.93-5.19,26.13,5.74,33.9,16.39,11.64,20.26,34.45,8.61,50.85-7.76,10.93-5.19,26.14,5.74,33.9,10.93,7.76,26.14,5.19,33.9-5.74s5.19-26.14-5.74-33.9c-16.39-11.64-20.26-34.45-8.61-50.85,7.76-10.93,5.19-26.14-5.74-33.9-10.93-7.76-26.13-5.19-33.9,5.74Z"/>
          <path class="cls-3" d="M971.49,1044.92c-10.93-7.76-26.13-5.19-33.9,5.74-11.64,16.39-34.45,20.26-50.85,8.61-10.93-7.76-26.13-5.19-33.9,5.74-7.76,10.93-5.19,26.13,5.74,33.9,10.93,7.76,26.13,5.19,33.9-5.74,11.64-16.39,34.45-20.26,50.85-8.61,10.93,7.76,26.13,5.19,33.9-5.74,7.76-10.93,5.19-26.14-5.74-33.9Z"/>
        </g>
        <g>
          <path class="cls-3" d="M999.8,1169.4c-7.76,10.93-5.19,26.13,5.74,33.9,16.39,11.64,20.26,34.45,8.61,50.85-7.76,10.93-5.19,26.14,5.74,33.9,10.93,7.76,26.13,5.19,33.9-5.74,7.76-10.93,5.19-26.14-5.74-33.9-16.39-11.64-20.26-34.45-8.61-50.85,7.76-10.93,5.19-26.14-5.74-33.9-10.93-7.76-26.13-5.19-33.9,5.74Z"/>
          <path class="cls-3" d="M1068.89,1114.11c-10.93-7.76-26.13-5.19-33.9,5.74-11.64,16.39-34.45,20.26-50.85,8.61-10.93-7.76-26.13-5.19-33.9,5.74-7.76,10.93-5.19,26.13,5.74,33.9,10.93,7.76,26.14,5.19,33.9-5.74,11.64-16.39,34.45-20.26,50.85-8.61,10.93,7.76,26.13,5.19,33.9-5.74,7.76-10.93,5.19-26.14-5.74-33.9Z"/>
        </g>
        <g>
          <path class="cls-3" d="M1097.2,1238.58c-7.76,10.93-5.19,26.13,5.74,33.9,16.39,11.64,20.26,34.45,8.61,50.85-7.76,10.93-5.19,26.14,5.74,33.9,10.93,7.76,26.14,5.19,33.9-5.74,7.76-10.93,5.19-26.14-5.74-33.9-16.39-11.64-20.26-34.45-8.61-50.85,7.76-10.93,5.19-26.14-5.74-33.9-10.93-7.76-26.13-5.19-33.9,5.74Z"/>
          <path class="cls-3" d="M1166.29,1183.29c-10.93-7.76-26.13-5.19-33.9,5.74-11.64,16.39-34.45,20.26-50.85,8.61-10.93-7.76-26.13-5.19-33.9,5.74-7.76,10.93-5.19,26.13,5.74,33.9,10.93,7.76,26.13,5.19,33.9-5.74,11.64-16.39,34.45-20.26,50.85-8.61,10.93,7.76,26.13,5.19,33.9-5.74,7.76-10.93,5.19-26.14-5.74-33.9Z"/>
        </g>
      </g>
      <g>
        <g>
          <path class="cls-3" d="M54.03,644.16c-7.76,10.93-5.19,26.13,5.74,33.9,16.39,11.64,20.26,34.45,8.61,50.85-7.76,10.93-5.19,26.14,5.74,33.9,10.93,7.76,26.14,5.19,33.9-5.74,7.76-10.93,5.19-26.14-5.74-33.9-16.39-11.64-20.26-34.45-8.61-50.85,7.76-10.93,5.19-26.14-5.74-33.9-10.93-7.76-26.13-5.19-33.9,5.74Z"/>
          <path class="cls-3" d="M123.12,588.87c-10.93-7.76-26.13-5.19-33.9,5.74-11.64,16.39-34.45,20.26-50.85,8.61-10.93-7.76-26.13-5.19-33.9,5.74-7.76,10.93-5.19,26.13,5.74,33.9,10.93,7.76,26.14,5.19,33.9-5.74,11.64-16.39,34.45-20.26,50.85-8.61,10.93,7.76,26.13,5.19,33.9-5.74,7.76-10.93,5.19-26.14-5.74-33.9Z"/>
        </g>
        <g>
          <path class="cls-3" d="M151.43,713.35c-7.76,10.93-5.19,26.13,5.74,33.9,16.39,11.64,20.26,34.45,8.61,50.85-7.76,10.93-5.19,26.14,5.74,33.9,10.93,7.76,26.14,5.19,33.9-5.74,7.76-10.93,5.19-26.14-5.74-33.9-16.39-11.64-20.26-34.45-8.61-50.85,7.76-10.93,5.19-26.14-5.74-33.9-10.93-7.76-26.13-5.19-33.9,5.74Z"/>
          <path class="cls-3" d="M220.52,658.05c-10.93-7.76-26.13-5.19-33.9,5.74-11.64,16.39-34.45,20.26-50.85,8.61-10.93-7.76-26.13-5.19-33.9,5.74-7.76,10.93-5.19,26.13,5.74,33.9,10.93,7.76,26.14,5.19,33.9-5.74,11.64-16.39,34.45-20.26,50.85-8.61,10.93,7.76,26.13,5.19,33.9-5.74s5.19-26.14-5.74-33.9Z"/>
        </g>
        <g>
          <path class="cls-3" d="M248.83,782.53c-7.76,10.93-5.19,26.13,5.74,33.9,16.39,11.64,20.26,34.45,8.61,50.85-7.76,10.93-5.19,26.14,5.74,33.9,10.93,7.76,26.14,5.19,33.9-5.74,7.76-10.93,5.19-26.14-5.74-33.9-16.39-11.64-20.26-34.45-8.61-50.85,7.76-10.93,5.19-26.14-5.74-33.9-10.93-7.76-26.13-5.19-33.9,5.74Z"/>
          <path class="cls-3" d="M317.92,727.24c-10.93-7.76-26.13-5.19-33.9,5.74-11.64,16.39-34.45,20.26-50.85,8.61-10.93-7.76-26.13-5.19-33.9,5.74-7.76,10.93-5.19,26.13,5.74,33.9,10.93,7.76,26.14,5.19,33.9-5.74,11.64-16.39,34.45-20.26,50.85-8.61,10.93,7.76,26.13,5.19,33.9-5.74,7.76-10.93,5.19-26.14-5.74-33.9Z"/>
        </g>
        <g>
          <path class="cls-3" d="M346.23,851.71c-7.76,10.93-5.19,26.13,5.74,33.9,16.39,11.64,20.26,34.45,8.61,50.85-7.76,10.93-5.19,26.14,5.74,33.9,10.93,7.76,26.14,5.19,33.9-5.74,7.76-10.93,5.19-26.14-5.74-33.9-16.39-11.64-20.26-34.45-8.61-50.85,7.76-10.93,5.19-26.14-5.74-33.9-10.93-7.76-26.13-5.19-33.9,5.74Z"/>
          <path class="cls-3" d="M415.32,796.42c-10.93-7.76-26.13-5.19-33.9,5.74-11.64,16.39-34.45,20.26-50.85,8.61-10.93-7.76-26.13-5.19-33.9,5.74-7.76,10.93-5.19,26.13,5.74,33.9,10.93,7.76,26.14,5.19,33.9-5.74,11.64-16.39,34.45-20.26,50.85-8.61,10.93,7.76,26.13,5.19,33.9-5.74,7.76-10.93,5.19-26.14-5.74-33.9Z"/>
        </g>
        <g>
          <path class="cls-3" d="M443.63,920.89c-7.76,10.93-5.19,26.13,5.74,33.9,16.39,11.64,20.26,34.45,8.61,50.85-7.76,10.93-5.19,26.14,5.74,33.9,10.93,7.76,26.14,5.19,33.9-5.74,7.76-10.93,5.19-26.14-5.74-33.9-16.39-11.64-20.26-34.45-8.61-50.85,7.76-10.93,5.19-26.14-5.74-33.9-10.93-7.76-26.13-5.19-33.9,5.74Z"/>
          <path class="cls-3" d="M512.72,865.6c-10.93-7.76-26.13-5.19-33.9,5.74-11.64,16.39-34.45,20.26-50.85,8.61-10.93-7.76-26.13-5.19-33.9,5.74-7.76,10.93-5.19,26.13,5.74,33.9,10.93,7.76,26.14,5.19,33.9-5.74,11.64-16.39,34.45-20.26,50.85-8.61,10.93,7.76,26.13,5.19,33.9-5.74,7.76-10.93,5.19-26.13-5.74-33.9Z"/>
        </g>
        <g>
          <path class="cls-3" d="M541.02,990.07c-7.76,10.93-5.19,26.13,5.74,33.9,16.39,11.64,20.26,34.45,8.61,50.85-7.76,10.93-5.19,26.14,5.74,33.9,10.93,7.76,26.14,5.19,33.9-5.74,7.76-10.93,5.19-26.14-5.74-33.9-16.39-11.64-20.26-34.45-8.61-50.85,7.76-10.93,5.19-26.14-5.74-33.9-10.93-7.76-26.13-5.19-33.9,5.74Z"/>
          <path class="cls-3" d="M610.12,934.78c-10.93-7.76-26.13-5.19-33.9,5.74-11.64,16.39-34.45,20.26-50.85,8.61-10.93-7.76-26.13-5.19-33.9,5.74-7.76,10.93-5.19,26.13,5.74,33.9,10.93,7.76,26.13,5.19,33.9-5.74,11.64-16.39,34.45-20.26,50.85-8.61,10.93,7.76,26.13,5.19,33.9-5.74,7.76-10.93,5.19-26.14-5.74-33.9Z"/>
        </g>
        <g>
          <path class="cls-3" d="M638.42,1059.25c-7.76,10.93-5.19,26.13,5.74,33.9,16.39,11.64,20.26,34.45,8.61,50.85-7.76,10.93-5.19,26.14,5.74,33.9,10.93,7.76,26.14,5.19,33.9-5.74,7.76-10.93,5.19-26.14-5.74-33.9-16.39-11.64-20.26-34.45-8.61-50.85,7.76-10.93,5.19-26.14-5.74-33.9-10.93-7.76-26.13-5.19-33.9,5.74Z"/>
          <path class="cls-3" d="M707.51,1003.96c-10.93-7.76-26.13-5.19-33.9,5.74-11.64,16.39-34.45,20.26-50.85,8.61-10.93-7.76-26.13-5.19-33.9,5.74-7.76,10.93-5.19,26.13,5.74,33.9,10.93,7.76,26.14,5.19,33.9-5.74,11.64-16.39,34.45-20.26,50.85-8.61,10.93,7.76,26.13,5.19,33.9-5.74,7.76-10.93,5.19-26.14-5.74-33.9Z"/>
        </g>
        <g>
          <path class="cls-3" d="M735.82,1128.43c-7.76,10.93-5.19,26.13,5.74,33.9,16.39,11.64,20.26,34.45,8.61,50.85-7.76,10.93-5.19,26.14,5.74,33.9,10.93,7.76,26.14,5.19,33.9-5.74,7.76-10.93,5.19-26.14-5.74-33.9-16.39-11.64-20.26-34.45-8.61-50.85,7.76-10.93,5.19-26.14-5.74-33.9-10.93-7.76-26.13-5.19-33.9,5.74Z"/>
          <path class="cls-3" d="M804.91,1073.14c-10.93-7.76-26.13-5.19-33.9,5.74-11.64,16.39-34.45,20.26-50.85,8.61-10.93-7.76-26.13-5.19-33.9,5.74-7.76,10.93-5.19,26.13,5.74,33.9,10.93,7.76,26.13,5.19,33.9-5.74,11.64-16.39,34.45-20.26,50.85-8.61,10.93,7.76,26.13,5.19,33.9-5.74,7.76-10.93,5.19-26.14-5.74-33.9Z"/>
        </g>
        <g>
          <path class="cls-3" d="M833.22,1197.61c-7.76,10.93-5.19,26.13,5.74,33.9,16.39,11.64,20.26,34.45,8.61,50.85-7.76,10.93-5.19,26.14,5.74,33.9,10.93,7.76,26.14,5.19,33.9-5.74,7.76-10.93,5.19-26.14-5.74-33.9-16.39-11.64-20.26-34.45-8.61-50.85,7.76-10.93,5.19-26.14-5.74-33.9-10.93-7.76-26.13-5.19-33.9,5.74Z"/>
          <path class="cls-3" d="M902.31,1142.32c-10.93-7.76-26.13-5.19-33.9,5.74-11.64,16.39-34.45,20.26-50.85,8.61-10.93-7.76-26.13-5.19-33.9,5.74-7.76,10.93-5.19,26.13,5.74,33.9,10.93,7.76,26.14,5.19,33.9-5.74,11.64-16.39,34.45-20.26,50.85-8.61,10.93,7.76,26.13,5.19,33.9-5.74,7.76-10.93,5.19-26.14-5.74-33.9Z"/>
        </g>
        <g>
          <path class="cls-3" d="M930.62,1266.8c-7.76,10.93-5.19,26.13,5.74,33.9,16.39,11.64,20.26,34.45,8.61,50.85-7.76,10.93-5.19,26.13,5.74,33.9,10.93,7.76,26.14,5.19,33.9-5.74,7.76-10.93,5.19-26.14-5.74-33.9-16.39-11.64-20.26-34.45-8.61-50.85,7.76-10.93,5.19-26.14-5.74-33.9-10.93-7.76-26.13-5.19-33.9,5.74Z"/>
          <path class="cls-3" d="M999.71,1211.5c-10.93-7.76-26.13-5.19-33.9,5.74-11.64,16.39-34.45,20.26-50.85,8.61-10.93-7.76-26.13-5.19-33.9,5.74-7.76,10.93-5.19,26.13,5.74,33.9,10.93,7.76,26.14,5.19,33.9-5.74,11.64-16.39,34.45-20.26,50.85-8.61,10.93,7.76,26.13,5.19,33.9-5.74,7.76-10.93,5.19-26.14-5.74-33.9Z"/>
        </g>
        <g>
          <path class="cls-3" d="M1028.02,1335.98c-7.76,10.93-5.19,26.13,5.74,33.9,16.39,11.64,20.26,34.45,8.61,50.85-7.76,10.93-5.19,26.14,5.74,33.9s26.13,5.19,33.9-5.74c7.76-10.93,5.19-26.14-5.74-33.9-16.39-11.64-20.26-34.45-8.61-50.85,7.76-10.93,5.19-26.14-5.74-33.9-10.93-7.76-26.13-5.19-33.9,5.74Z"/>
          <path class="cls-3" d="M1097.11,1280.69c-10.93-7.76-26.13-5.19-33.9,5.74-11.64,16.39-34.45,20.26-50.85,8.61-10.93-7.76-26.13-5.19-33.9,5.74-7.76,10.93-5.19,26.13,5.74,33.9,10.93,7.76,26.14,5.19,33.9-5.74,11.64-16.39,34.45-20.26,50.85-8.61,10.93,7.76,26.13,5.19,33.9-5.74,7.76-10.93,5.19-26.14-5.74-33.9Z"/>
        </g>
      </g>
    </g>
  </g>
</svg>