<?xml version="1.0" encoding="UTF-8"?>
<svg id="Layer_1" data-name="Layer 1" xmlns="http://www.w3.org/2000/svg" viewBox="0 0 734.5 691.6">
  <defs>
    <style>
      .cls-1 {
        stroke: #fd3e1f;
      }

      .cls-1, .cls-2, .cls-3, .cls-4, .cls-5, .cls-6, .cls-7, .cls-8, .cls-9, .cls-10, .cls-11, .cls-12, .cls-13, .cls-14, .cls-15, .cls-16, .cls-17, .cls-18, .cls-19, .cls-20, .cls-21, .cls-22, .cls-23, .cls-24, .cls-25, .cls-26, .cls-27, .cls-28, .cls-29, .cls-30, .cls-31, .cls-32, .cls-33, .cls-34, .cls-35, .cls-36 {
        fill: none;
        stroke-miterlimit: 10;
      }

      .cls-2 {
        stroke: #ff6240;
      }

      .cls-3 {
        stroke: #fd710a;
      }

      .cls-4 {
        stroke: #f77115;
      }

      .cls-5 {
        stroke: #ffcf18;
      }

      .cls-6 {
        stroke: #ffc215;
      }

      .cls-7 {
        stroke: #f17d01;
      }

      .cls-8 {
        stroke: #ffc715;
      }

      .cls-37 {
        fill: #ffc306;
      }

      .cls-38 {
        fill: #f0eee9;
      }

      .cls-9 {
        stroke: #c91f19;
      }

      .cls-10 {
        stroke: #f6490a;
      }

      .cls-11 {
        stroke: #e92815;
      }

      .cls-39 {
        fill: #ef9600;
      }

      .cls-12 {
        stroke: #61121d;
      }

      .cls-13 {
        stroke: #96160f;
      }

      .cls-14 {
        stroke: #ffbb03;
      }

      .cls-15 {
        stroke: #ffae00;
      }

      .cls-16 {
        stroke: #f7ad03;
      }

      .cls-40 {
        fill: #ffdb29;
      }

      .cls-17 {
        stroke: #da2617;
      }

      .cls-18 {
        stroke: #871410;
      }

      .cls-41 {
        fill: #ff4c2a;
      }

      .cls-19 {
        stroke: #fd790d;
      }

      .cls-20 {
        stroke: #d58582;
      }

      .cls-21 {
        stroke: #f98601;
      }

      .cls-42 {
        fill: #ffb300;
      }

      .cls-43 {
        fill: #560c07;
      }

      .cls-22 {
        stroke: #2f0914;
      }

      .cls-23 {
        stroke: #fd5334;
      }

      .cls-24 {
        stroke: #f7a703;
      }

      .cls-25 {
        stroke: #f55d0a;
      }

      .cls-44 {
        fill: #ffa900;
      }

      .cls-26 {
        stroke: #eb4c36;
      }

      .cls-45 {
        fill: #ef8a00;
      }

      .cls-27 {
        stroke: #f79f00;
      }

      .cls-46 {
        fill: #fa2f13;
      }

      .cls-28 {
        stroke: #eb3721;
      }

      .cls-29 {
        stroke: #ffb603;
      }

      .cls-30 {
        stroke: #f17701;
      }

      .cls-47 {
        fill: #080721;
      }

      .cls-31 {
        stroke: #ef9000;
      }

      .cls-48 {
        fill: #d72117;
      }

      .cls-32 {
        stroke: #ff8818;
      }

      .cls-33 {
        stroke: #7c7a85;
      }

      .cls-49 {
        fill: #f26301;
      }

      .cls-34 {
        stroke: #e5420c;
      }

      .cls-35 {
        stroke: #fd6c0a;
      }

      .cls-50 {
        fill: #ba1d1a;
      }

      .cls-36 {
        stroke: #f95816;
      }

      .cls-51 {
        fill: #f75;
      }
    </style>
  </defs>
  <path class="cls-13" d="M489.23,109.65c-.81-.55-1.44-1.26-1.92-2.1-.08-.17-.3-.22-.45-.12h-.02c-.07.12-.07.26,0,.38l11.29,17.98c.07.12.23.15.33.05.12-.12.22-.26.28-.45M499.36,126.53c-.15.08-.3.18-.41.28-.28.25-.35.66-.15.98l5.43,9.42c.13.25.45.35.71.22.18-.1.31-.25.4-.43M505.36,137.96l5.56,11.01c.08.17.26.26.46.25.15-.02.31-.08.48-.17M512.69,150.47c-.38-.02-.63.1-.74.33-.05.08-.05.18-.02.26,1.18,2.83,2.81,5.26,4.92,7.28M518.9,161.43c-.41.28-.51.63-.26,1.08,78.76,138.9,120.96,213.26,126.6,223.07,6.44,11.22,12.85,22.48,19.19,33.79.17.31.56.45.91.33.18-.07.36-.18.58-.33M671.45,429.95c3.49,8.26,7.57,16.22,12.23,23.89,2.1,3.44,4.02,6.89,5.73,10.31,4.22,8.43,9.67,15.58,12.63,23.72"/>
  <path class="cls-9" d="M702.04,487.88c2.88,6.41,5.35,12.98,7.4,19.72,6.13,20.13-5.76,37.42-19.62,52.33-.2.22-.55.13-.63-.15l-4.57-14.64c-.33-1.08-1.8-1.19-2.3-.18l-1.34,2.72c-.43.89-.51,1.92-.23,2.88,6.16,20.58,2.04,42.8-7.23,61.8-6.14,12.58-12.47,18.94-23.99,28.24-3.71,3-8.08,5.45-13.13,7.33-4.92,1.84-9.57,3.79-13.97,5.84-.55.26-1.13.43-1.72.51-5.68.74-10,1.46-12.93,2.17-4.44,1.06-9.07,1.77-13.89,2.15-18.41,1.44-36.74.76-55.43.33-25.26-.6-50.91-1.41-76.93-2.45-30.4-1.21-64.32-2.45-101.77-3.76-45.11-1.57-82.43-3.03-111.95-4.39-21.49-.99-37.68-1.66-48.57-2-28.23-.86-51.51-2.5-79.96-3.46-10.51-.35-20.98-.84-31.42-1.46-6.44-.38-12.22-2.09-17.98-2.62-12.38-1.13-24.2-3.05-36.36-4.59"/>
  <line class="cls-13" x1="33.5" y1="634.23" x2="18.24" y2="621.6"/>
  <path class="cls-11" d="M1.95,585.97c4.6,8.97,7.28,15.46,15.12,19.24.98.46,1.85,1.11,2.6,1.89,11.84,12.27,25.43,19.68,40.79,22.22,11.97,1.97,28.39,3.21,49.25,3.73.41.02,1.87.3,4.39.84.6.13,1.19.2,1.8.22,25.3.18,48.61,1.85,70.41,2.3,18.01.36,49.92,1.57,95.69,3.63,26.72,1.19,75.53,1.84,120.11,4.44,30.3,1.75,48.49,2.22,81.29,3.58,18.21.76,43.03,1.36,74.47,1.8,13.68.2,23.1.13,28.26-.18,9.22-.58,18.44-2.38,27.66-5.43,25.25-8.33,41.49-25.58,56.16-47.47.35-.51.6-1.08.78-1.66,4.16-13.48,4.72-27.09,1.69-40.83-1.87-8.44-3.54-15.25-5.03-20.43-1.56-5.41-1.67-10.38-.35-14.92.13-.5.08-1.01-.15-1.47-10.65-20.61-22.09-40.64-34.34-60.11"/>
  <path class="cls-28" d="M632.56,457.35c-1.8-3.69-3.68-7.27-5.63-10.71-26.04-45.74-39.49-69.29-40.31-70.63-6.62-10.74-12.37-22.7-18.49-33.36-12.7-22.12-24.11-42.53-34.24-61.24-3.01-5.58-9.32-15.43-12.96-22.15-14.55-26.95-28.21-51.55-40.94-73.82-19.04-33.31-37.3-67.7-57.83-104.95-6.46-11.75-14.16-23.13-21.65-34.42-1.56-2.35-5.61-6.77-12.17-13.28"/>
  <path class="cls-11" d="M388.32,32.79l-4.69-9.04c-.25-.46.3-.96.73-.66,3.18,2.14,6.27,4.44,9.27,6.87.05.03.1.03.18-.02.08-.03.08-.15,0-.22-5.79-4.62-9.9-8.41-12.33-11.34-4.93-5.99-9.9-10.17-14.83-15.65-.35-.4-.84-.61-1.37-.61l-27.58-.12"/>
  <line class="cls-20" x1="648.76" y1="671.65" x2="647.44" y2="672.26"/>
  <path class="cls-18" d="M647.44,672.26c-1.34-.35-2.65-.45-3.91-.3-6.32.79-12.65,1.54-18.99,2.24-13,1.42-26.75,1.42-40.18,2.05"/>
  <line class="cls-12" x1="584.36" y1="676.25" x2="579.88" y2="676.4"/>
  <line class="cls-20" x1="579.88" y1="676.4" x2="574.03" y2="676.47"/>
  <path class="cls-12" d="M574.03,676.47c-.33-.22-.7-.25-1.11-.1"/>
  <line class="cls-20" x1="572.92" y1="676.37" x2="507.56" y2="674.13"/>
  <path class="cls-12" d="M507.56,674.13c-.25-.4-.7-.5-1.34-.28"/>
  <line class="cls-20" x1="506.22" y1="673.85" x2="503.8" y2="673.57"/>
  <path class="cls-12" d="M503.8,673.57c-.45-.35-1.01-.41-1.69-.18"/>
  <line class="cls-20" x1="502.11" y1="673.39" x2="481.85" y2="673.16"/>
  <path class="cls-18" d="M481.85,673.16h7.75c.2,0,.35-.15.35-.33l.02-.55c.02-.2-.13-.35-.33-.36l-60.13-1.94c-.08-.02-.15-.03-.2-.08-.68-.48-1.94-.78-3.79-.86-15.6-.78-27-.45-43.56-1.59-9.04-.61-18.19-.79-27.47-.51-5.84.18-11.72-.12-17.63-.88-10.53-1.37-21.44.12-33.84-1.82-2.3-.35-5.63-.53-9.98-.55-14.75-.02-26.19-.31-34.3-.89-10.18-.73-17.04-1.09-20.58-1.09-12.55.03-22.73-1.54-35.31-1.37-2.95.03-10.53-.28-22.76-.94-17.02-.93-41.7-1.97-74.07-3.13-1.66-.07-3.33-.15-5-.23-10.05-.51-18.86-1.42-26.42-2.73-5.5-.94-13.06-3.48-22.68-7.63-2.83-1.23-5.98-3-9.44-5.3-3.01-2-5.99-4.06-8.96-6.13"/>
  <path class="cls-1" d="M388.32,32.79c-2.93-2.15-5.68-4.5-8.26-7.04-3.33-3.26-6.13-5.48-8.41-6.69-7.8-4.12-16.22-6.18-25.3-6.18"/>
  <path class="cls-23" d="M346.36,12.89c-32.13-1.62-59.25,14.93-70.66,45.33"/>
  <path class="cls-1" d="M275.7,58.22c-8.39,8.26-17.38,16.29-22.47,26.52-4.88,9.83-7.38,15.86-13.44,25.46-2.04,3.23-4.57,7.67-7.6,13.33-3.15,5.86-7.4,12.05-10.33,17.05-13.13,22.35-34.34,63.66-51.36,93.52-9.04,15.84-18.99,36.54-29.87,54.9-4.93,8.34-9.12,16.97-14.42,25.31-.81,1.27-2.62,4.3-5.41,9.07-10.08,17.17-24.01,43.61-41.8,79.29-2.72,5.45-5.48,12.93-8.31,22.47"/>
  <path class="cls-23" d="M70.69,425.15c-1.46,1.94-2.75,4.02-3.87,6.29-4.06,8.11-7.76,14.93-11.09,20.46-4.07,6.74-7.04,13.15-11.97,21.77-8.58,15.05-16.94,31.34-25.1,48.87"/>
  <path class="cls-1" d="M18.65,522.55c-11.36,24.57-12.19,49.73-2.48,75.49.1.25.36.4.63.35.26-.05.46-.3.45-.56-.86-24.35.86-46.26,27.23-56.21,7.1-2.68,17.57-7.72,31.36-15.1.46-.25.79-.71.88-1.24,2.3-14.85,5.79-27.52,10.5-37.96,5.51-12.23,12.78-25.28,21.82-39.14,4.65-7.14,8.2-13.31,10.66-18.49,3.58-7.57,8.92-18.11,16.04-31.65,3.79-7.23,12.91-19.82,17.45-31.42,2.28-5.83,6.67-11.87,9.01-16.21,8.56-15.94,18.36-33.91,29.44-53.91,2.4-4.32,4.57-9.34,6.67-13.89,3.33-7.17,9.83-18.69,19.55-34.55,6.52-10.61,10.4-19.62,16.74-29.78,2.33-3.73,5.98-10.18,10.89-19.35,5.07-9.45,11.13-18.16,15.13-26.21,4.4-8.82,9.3-15.07,13.76-24.37,3.24-6.75,8.77-13.68,14.29-21.94,10.65-15.99,32.55-20.71,51.44-19.32,2.4.18,8.18,2.28,17.3,6.34,1.64.73,3.16,1.72,4.52,2.93,1.21,1.08,5.56,4.88,13.1,11.44,3.23,2.83,7.43,8.54,12.62,17.15,3.2,5.3,4.93,8.16,5.23,8.61,4.02,5.96,5.76,11.44,9.87,17.15,1.57,2.19,3.23,4.97,4.98,8.34,1.14,2.19,3.63,6.29,7.43,12.3,4.44,6.99,8.11,15.08,12.35,22.62"/>
  <path class="cls-11" d="M427.5,213.96l-13.94-20.48c-.15-.22-.5-.12-.51.15l-.79,12.14"/>
  <path class="cls-10" d="M412.25,205.77c-4.73-8.18-9.04-16.94-13.82-24.52-7.43-11.8-15.02-23.53-22.73-35.15-.91-1.37-1.99-2.62-3.23-3.73"/>
  <path class="cls-11" d="M372.46,142.38c-.7-11.69-13.11-20.26-23.18-23.34"/>
  <path class="cls-17" d="M349.29,119.03c-16.56-4.59-31.56-2.32-44.98,6.8-4.14,2.8-8.29,7.07-10.79,10.66-5.31,7.63-11.57,17.76-18.77,30.4-7.23,12.65-13.08,22.23-20.5,35.79-2.93,5.35-5.84,10.45-8.77,15.31-3.81,6.34-7.2,12.47-10.17,18.34-6.42,12.71-16.9,29.42-22.55,40.43-14.7,28.66-29.45,55.96-44.24,81.9-1.47,2.58-2.37,4.22-2.65,4.9-1.89,4.57-4.83,8.13-6.79,12.12-2.05,4.19-5.65,10.88-10.79,20.1-3.29,5.91-6.26,13.01-10.03,19.25-2.76,4.59-5.36,9.34-7.83,14.25-7.22,14.42-14.7,28.69-22.47,42.81"/>
  <path class="cls-11" d="M107.95,472.12c-3.49,5.41-8.18,14.12-14.06,26.09-8.16,16.67-9.83,33.36-5.02,50.1,2.43,8.46,6.18,15.61,11.19,21.42.3.35.63.65.99.93l5.3,3.97"/>
  <path class="cls-1" d="M106.36,574.63c1.47.98,2.55,1.97,3.24,2.98.33.48-.02,1.13-.6,1.11l-5.89-.17c-.56-.02-.78.71-.3,1.01,10.4,6.44,18.61,7.57,31.27,8.64"/>
  <path class="cls-23" d="M134.09,588.21c-.4,1.04-.25,1.89.43,2.53.18.17.41.26.65.28,11.59,1.31,23.21,2.19,34.85,2.6,29.59,1.06,59.14,2.07,88.64,3.05,21.8.73,38.87,1.29,51.17,1.67,52.2,1.66,104.22,3.43,156.07,5.31,24.72.89,50.08.93,75.16,1.08,11.61.08,22.27-2.45,32.02-7.57.13-.08.25-.17.36-.26l17.37-15.17c.41-.36.78-.78,1.09-1.24,6.56-10.05,10.36-16.21,11.44-18.51,3.21-6.89,3.29-12.14.26-15.74"/>
  <path class="cls-11" d="M603.62,546.24c-.08-3.59-.1-7.81-.02-12.67.05-2.3-.55-4.85-1.77-7.62"/>
  <path class="cls-1" d="M601.83,525.96l-1.14-7.14c-.05-.31.38-.48.55-.2,6.21,10.15,5.89,20.08,5.3,33.29-.02.22.15.4.36.41h.03c.23,0,.43-.18.45-.43l1.18-13.38s.03-.05.05-.07c.03,0,.07.02.07.05l.4,2.63s.05.07.08.07c.05,0,.08-.03.08-.08.25-13.33-3.1-25.23-10.02-35.68-5.38-8.11-9.34-14.64-11.9-19.59-7.91-15.33-11.29-20.17-21.34-37.18-12.78-21.59-24.3-46.16-37-69.24-14.68-26.74-28.66-52.2-38.87-79.68-2.93-7.86-4.01-15.45-3.23-22.73.68-6.36,5.5-15.68,7.17-21.42,1.32-4.59,2.15-10.73,2.48-18.39.02-.55-.08-1.09-.31-1.59-2.2-4.88-7.09-14.02-14.62-27.4-11.42-20.28-17.19-30.5-17.28-30.66-4.45-7.5-10.21-17.91-17.28-31.24-12.38-23.38-25.76-47.05-40.13-71.04-6.16-10.28-13.24-20.83-21.24-31.64-.17-.23.07-.53.33-.41,3.99,1.84,7.02,4.12,9.07,6.85,10.51,14.01,19.93,28.72,28.28,44.14,6.52,12.07,10.2,18.79,11.04,20.16,11.14,18.28,17.47,32.09,28.13,50.13,1.64,2.76,8.58,14.75,20.81,35.98,3.26,5.66,6.54,11.7,9.82,18.11,4.82,9.39,8.06,15.45,9.77,18.18,10.71,17.25,19.59,32.86,26.65,46.82,3.63,7.17,7.91,14.92,12.85,23.24,4.59,7.75,12.22,24.6,19.65,35.81,7,10.55,10.83,19.52,17.83,30.36,8.48,13.16,15.6,28.53,24.27,42.45,4.55,7.33,11.77,19.54,21.62,36.62,1.11,1.9,2.05,3.31,2.83,4.24,1.87,2.24,3.2,2.57,3.96,1.03"/>
  <path class="cls-22" d="M383.23,669.07l-2.85-.15M166.77,659.91l-4.42-.02"/>
  <path class="cls-18" d="M648.76,671.65c.26-.63.61-1.04,1.06-1.24,5.33-2.28,13.26-3.87,18.03-5.71,9.14-3.54,18.74-9.17,28.81-16.87,13.86-10.61,24.35-27.65,28.91-43.66,2.53-8.89,3.91-19.9,4.09-33,.13-9.29-.76-17.76-2.68-25.41-1.57-6.24-4.12-14.34-7.68-24.32-1.74-4.85-6.41-11.36-7.14-16.46-.08-.56-.35-1.08-.73-1.47-.35-.35-1.41-1.84-3.15-4.44-.79-1.18-1.32-2.33-1.59-3.49-.71-3.08-2.27-5.65-4.65-7.7"/>
  <path class="cls-28" d="M601.83,525.96c-8.91-19.78-19.67-38.39-30.63-57.08-10.35-17.67-17.7-30.36-22.07-38.11-29.62-52.53-51.79-91.7-66.5-117.55-1.16-2.04-18.38-33.11-51.67-93.23-1.14-2.05-2.28-4.06-3.46-6.03"/>
  <path class="cls-22" d="M617.13,676.6c-.78-.18-1.57-.23-2.4-.12M612.11,676.52l-4.45-.03M593.7,676.52l-9.34-.26"/>
  <path class="cls-33" d="M380.38,668.92l2.85.15M502.11,673.39c.5.18,1.06.25,1.69.18M506.22,673.85l1.34.28M572.92,676.37l1.11.1M579.88,676.4l13.82.12M607.66,676.48l4.45.03M614.73,676.48l2.4.12"/>
  <line class="cls-34" x1="372.46" y1="142.38" x2="368.87" y2="140.19"/>
  <line class="cls-11" x1="368.87" y1="140.19" x2="364.87" y2="138.11"/>
  <path class="cls-28" d="M364.87,138.11c-6.47-3.51-13.99-4.83-22.53-3.96-15.88,1.59-27.62,5.4-36.69,19.12-6.67,10.05-12.55,20.63-17.63,31.72-.65,1.42-1.44,2.76-2.38,4.02l-8.53,11.47c-.12.15-.2.3-.28.46-3,6.72-5.28,13.39-9.8,20.51-9.45,14.92-14.83,23.59-16.14,26.04-5.73,10.73-11.47,21.44-17.25,32.15"/>
  <path class="cls-11" d="M233.63,279.66c-6.9,10.33-11.8,21.8-17.81,32.7-12.81,23.23-23.74,45.13-36.9,70.83-1.99,3.87-5.18,7.63-7.02,11.24-6.89,13.54-12.1,24.27-15.65,32.17-2.8,6.24-7.55,15.84-14.25,28.77-9.52,18.36-17.25,37.86-23.18,58.48-5.15,17.95-5.48,32.4-5.13,52.12.02.55.26,1.06.68,1.41,6.06,4.98,16.19,6.72,24.75,7.86,5.15.7,13.23,1.16,24.2,1.41,30.21.68,76.34,2.32,138.34,4.95,22.73.96,44.72.89,65.94,1.94,48.36,2.4,97.55,4.22,147.55,5.46,12.55.31,22.12.23,28.71-.25,7.55-.53,12.78-1.62,15.69-3.29,5.74-3.29,10.28-5.7,13.61-7.23,4.21-1.94,7.63-5.07,9.22-8.38,2.76-5.79,5.15-10.6,7.19-14.4,5.65-10.6,6.67-18.11,2.65-28.1-6.09-15.07-14.7-30.26-23.74-45.66-22.91-38.92-36.77-63.04-41.59-72.33-6.66-12.88-14.72-27.32-24.19-43.33-3.66-6.18-12.43-21.7-26.32-46.57-1.9-3.39-3.33-5.78-4.24-7.19-4.06-6.16-7.04-13.1-10.21-18.28-3.53-5.79-8.92-15.35-16.19-28.66-1.9-3.51-7.32-13.03-16.21-28.54-5.45-9.5-10.74-19.06-15.93-28.66"/>
  <line class="cls-34" x1="413.59" y1="208.12" x2="412.25" y2="205.77"/>
  <path class="cls-26" d="M603.62,546.24c-2.38,10.6-6.27,19.65-11.69,27.18"/>
  <path class="cls-28" d="M591.93,573.42c-8.41,6.31-15.74,14.67-25.41,18.34-11.8,4.5-24.49,6.84-38.05,7.02-10.48.15-27.96.12-52.45-.1-23.19-.22-46.84-3.06-68.28-3.54-22.27-.48-44.02-3.63-66.42-3.81-.68-.02-8.46-.26-23.31-.76-28.03-.94-56.04-1.67-84.05-2.22"/>
  <line class="cls-11" x1="233.96" y1="588.36" x2="210.63" y2="587.3"/>
  <line class="cls-28" x1="210.63" y1="587.3" x2="169.66" y2="585.76"/>
  <path class="cls-11" d="M169.66,585.76l52.42,1.54s.05-.02.05-.05l.02-.51c0-.18-.13-.33-.31-.35-19.57-1.87-39.17-2.2-58.79-1.03"/>
  <path class="cls-28" d="M163.03,585.36c-8.29.12-15.12-.33-20.45-1.34-4.12-.78-7.62-1.16-10.51-1.14-.51,0-1.03-.08-1.52-.25l-24.19-8"/>
  <path class="cls-2" d="M134.09,588.21c7.6-.08,16.27,1.16,22.57,1.41,21.77.88,42.3,1.57,61.55,2.05,2.86.07,5.58.22,8.15.43,11.06.96,22.15.93,35.38,1.16,13.77.22,27.17,1.64,40.84,1.27,2.14-.05,8.66.36,19.6,1.24,14.44,1.16,34.17.66,43.57,1.26,8.08.51,16.06.78,23.92.79,17.53.05,32.1.43,43.74,1.16,14.9.94,30.89.61,46.82,1.67,13.68.91,29.01.35,44.95.88,5.65.18,13.05-.1,22.2-.83,4.72-.38,8.82-1.36,12.35-2.93,12.38-5.53,23.11-14.25,32.18-24.35"/>
  <path class="cls-9" d="M349.29,119.03c2.68,1.47,5,3.51,6.95,6.11,1.29,1.71-.5,4.01-2.47,3.21l-9.62-3.89c-.2-.08-.4-.13-.61-.15-13.64-.94-25.61,3.13-35.91,12.25-.6.53-1.13,1.13-1.61,1.79-4.3,6.03-8.61,10.68-12.15,16.87-6.26,10.98-12.96,22.57-20.12,34.78-2.1,3.63-3.08,7.57-5.78,10.98-1.27,1.59-2.95,4.21-4.98,7.85-7.04,12.5-12.2,21.42-15.5,26.75-9.34,15.13-14.3,26.44-23.16,41.62-3.66,6.29-13.76,25.03-30.26,56.21-10.99,20.74-20.12,37.83-27.38,51.26-2.27,4.17-4.19,8.58-6.09,12.22-13.13,25.21-25.51,48.26-37.18,69.15-6.54,11.72-13.63,26.72-19.72,40.61-4.27,9.75-6.04,19.37-5.33,28.84.41,5.25,3.15,12.93,8.23,23.03.33.66,2.09,2.86,5.26,6.59.22.26.08.65-.25.7-9.27,1.23-14.5-9.22-18.92-16.06-10.91-16.8-1.34-42.88,6.56-59.02,3.01-6.14,5.91-12.35,8.71-18.61"/>
  <path class="cls-2" d="M346.36,12.89l12.07,2.35c1.24.25,1.21,2.02-.03,2.23-6.9,1.21-14.68,2.52-23.31,3.94-23.15,3.82-42.3,19.87-53.43,39.93-7,12.63-13.28,23.41-18.84,32.37-11.06,17.83-21.32,36.97-30.89,56.22-7.93,15.96-20.35,35.73-28.11,49.7-8.99,16.17-16.87,30.07-23.64,41.64-16.82,28.69-35.91,64.44-51.62,91.64-7.05,12.22-19.02,38.43-31.64,57.96-1.8,2.8-5.2,8.58-10.2,17.35-2.73,4.8-6.57,10.88-11.51,18.23-3.26,4.88-8.92,15.07-16.95,30.58-2.14,4.12-4.34,8.18-6.61,12.2-3.69,6.54-5.89,10.61-6.59,12.19-.43.96-1.71,3.03-3.82,6.22-5.78,8.71-10.61,18.72-17.35,31.51-.88,1.64-1.67,2.9-2.38,3.74-1.61,1.9-2.55,1.79-2.85-.35M70.69,425.15c5.61-9.83,11.29-19.6,17.04-29.32,5.74-9.73,9.37-17.48,15.02-26.94,3.13-5.25,6.84-11.99,11.09-20.25,8.69-16.82,15.28-28.94,19.78-36.36,7.73-12.76,13.87-23.56,18.41-32.4,3.69-7.19,8.16-15.51,13.38-24.97,12-21.7,28.01-50.31,48.03-85.83,22.02-39.07,40.98-74.24,62.27-110.87"/>
  <path class="cls-1" d="M163.03,585.36l6.62.4M210.63,587.3l-12.7.3M197.93,587.6l-19.83-.66s-.07.03-.05.05c.02.02.02.05.02.07.03.07.12.12.18.12l19.68.43M197.93,587.6l36.03.76"/>
  <line class="cls-10" x1="413.59" y1="208.12" x2="399.42" y2="211.17"/>
  <path class="cls-34" d="M399.42,211.17c-5.58-11.66-14.12-20.28-25.66-25.89"/>
  <path class="cls-1" d="M364.87,138.11c-10.68-2.93-21.51-3.59-32.48-2.02-.18.03-.31.18-.3.36v.02c.02.18.18.33.36.31,9.16-.31,18.26.18,27.33,1.51"/>
  <path class="cls-36" d="M359.78,138.29c-12.22-1.18-21.46-1.42-27.71-.74-7.93.84-14.35,4.19-19.27,10.03-8.99,10.65-16.42,23.39-22.28,38.26-.1.25.2.46.4.3l2.93-2.17c.12-.08.23-.17.38-.22,4.82-1.52,11.69-3.49,20.61-5.91,4.12-1.13,8.72-1.72,13.79-1.77,8.66-.1,13.33-.12,14.01-.07,9.85.78,20.21,3.87,31.12,9.27"/>
  <line class="cls-28" x1="373.76" y1="185.27" x2="382.99" y2="201.8"/>
  <path class="cls-36" d="M382.99,201.8c-5.89-7.88-11.56-13.68-17-17.38-3.87-2.63-8.97-4.04-15.28-4.25"/>
  <path class="cls-4" d="M350.71,180.16c-3.36-1.01-6.92-1.46-10.7-1.32"/>
  <path class="cls-32" d="M340.01,178.83c-13.46-1.44-26.9.5-40.31,5.78-14.19,5.6-22.73,15.88-24.55,30.94-.98,8.16-1.18,16.19-.56,24.06,2.81,36.27,5.94,72.53,9.39,108.75"/>
  <path class="cls-1" d="M283.97,348.36c-1.31-1.94-1.97-1.51-1.95,1.32.03,6.64.5,13.38,1.41,20.25,1.56,11.67,1.56,16.82,3.01,28.11.05.46-.23.91-.7,1.06-6.49,1.9-15.53,3.86-27.13,5.88-9.69,1.69-18.43,5.25-28.39,8.69-6.8,2.35-15.5,3.96-26.11,4.82-17.35,1.42-29.2-7.17-23.38-25.98,1.84-5.96,4.14-11.8,6.9-17.52,15.33-31.79,30.66-63.57,45.99-95.34"/>
  <line class="cls-10" x1="368.87" y1="140.19" x2="359.78" y2="138.29"/>
  <path class="cls-11" d="M399.42,211.17c4.82,12.7,7.15,26.85,6.97,42.5-.45,39.7-2.07,73.46-4.83,101.26-2.02,20.31-1.92,39.63-3.31,57.95-.84,11.14-4.42,24.49-15.08,30.26-7.85,4.25-17.95,9.65-27.04,10.31-16.57,1.23-31.09.5-41.46-13.1-.33-.43-.03-1.06.53-1.08l6.8-.13"/>
  <line class="cls-16" x1="340.01" y1="178.83" x2="360.86" y2="189.58"/>
  <path class="cls-24" d="M360.86,189.58c3.94,4.82,6.52,10.36,7.75,16.64"/>
  <path class="cls-14" d="M368.61,206.22c-3.81-5.53-6.56-8.16-8.23-7.91"/>
  <path class="cls-5" d="M360.38,198.3c-16.37-11.7-34.67-14.97-54.92-9.8-11.21,2.86-18.46,9.32-21.72,19.39-1.44,4.42-2.32,10.56-2.63,18.39"/>
  <path class="cls-14" d="M281.11,226.28l.15-13.81c0-.3-.23-.55-.53-.56l-.84-.02c-.28-.02-.51.18-.56.46-1.01,6.46-1.39,13.21-1.14,20.28.51,14.68.84,23.06,1.01,25.13.38,4.82,3.28,39.12,8.72,102.91,1.11,13.05,3.39,29.7,4.59,44.58.05.6-.65.96-1.11.58l-1.41-1.14"/>
  <line class="cls-19" x1="289.98" y1="404.7" x2="283.97" y2="348.36"/>
  <line class="cls-7" x1="350.71" y1="180.16" x2="366.9" y2="193.42"/>
  <line class="cls-31" x1="366.9" y1="193.42" x2="360.86" y2="189.58"/>
  <path class="cls-34" d="M382.99,201.8c4.55,9.59,6.77,20.56,6.67,32.93-.23,29.87-1.29,57.35-3.16,82.46-.78,10.41-1.95,20.96-3.56,31.64-3.03,20.25-4.62,30.73-4.73,31.46-2.6,14.47-8.44,27.85-17.53,40.11-3.63,4.9-7.27,8.58-10.93,11.04-7.57,5.07-18.81,7.78-27.75,7.7"/>
  <path class="cls-10" d="M322,439.14c-4.14-3-8.81-4.72-14.01-5.17-.3-.03-.53-.26-.53-.58-.02-.3.22-.55.51-.58,7.14-.79,14.77-2.09,22.93-3.86v-.02c-.26-.12-8.08.96-23.43,3.21-.53.07-1.04-.1-1.42-.45l-3.08-2.91"/>
  <path class="cls-30" d="M302.98,428.79c20.1,1.18,37.6.2,49.04-18.48,7.47-12.2,12.27-21.14,13.79-34.1,1.82-15.4,3.82-30.78,3.96-46.11.12-13,.15-21.99,1.34-36.54,2.05-25,3.06-32.8,4.44-55.36.51-8.53,1.36-16.87,2.5-25.03.08-.56.05-1.13-.1-1.67-1.99-7.2-5.66-13.23-11.04-18.08"/>
  <path class="cls-25" d="M302.98,428.79c-2.4-1.57-4.37-3.68-5.94-6.34"/>
  <path class="cls-27" d="M297.04,422.45c4.5,0,8.94.26,13.31.81,6.36.78,10.78.99,13.24.61,6.16-.94,12.15-2.8,17.98-5.58.51-.25.98-.56,1.39-.94,5.81-5.35,9.4-11.26,10.74-17.75,3.63-17.48,6.49-37.25,8.59-59.29,1.52-15.91,1.66-31.41,3.89-46.99,2.14-14.98,3.73-24.75,4.45-39.44.61-12.14,1.04-22.71,1.29-31.75.02-.48-.03-.96-.13-1.44l-3.2-14.49"/>
  <path class="cls-3" d="M297.04,422.45c-3.59-4.95-5.94-10.86-7.05-17.75"/>
  <path class="cls-14" d="M293.34,326.41c21.17-9.24,43.54-20.84,54.5-42.35,3.96-7.78,7-16.18,9.11-25.18,4.07-17.43,7.33-35.25,9.78-53.41.03-.23-.02-.45-.12-.65-.41-.71-1.11-1.09-2.05-1.16"/>
  <line class="cls-8" x1="360.38" y1="198.3" x2="364.57" y2="203.67"/>
  <path class="cls-5" d="M364.57,203.67l-.13,2c-.03.46-.53.75-.94.51-2.14-1.18-4.42-2.58-6.84-4.24-4.83-3.31-9.06-4.5-14.02-5.22-12.81-1.82-31.67-3.18-42.78,4.82-9.6,6.94-14.14,16.74-13.63,29.4,1.14,28.23,3.53,60.05,7.12,95.46"/>
  <path class="cls-8" d="M293.34,326.41c.4,9.6.73,19.16,1.77,28.67,2.81,25.79,4.37,40.74,4.69,44.83.41,5.48.56,8.81.48,9.95-.07.76-1.14.88-1.37.15-1.36-4.32-2.33-8.49-2.95-12.55-1.54-10.12-2.7-20.15-3.49-30.13-1.14-14.06-2-24.11-2.58-30.18-3.58-36.9-6.51-73.87-8.77-110.87"/>
  <path class="cls-13" d="M357.33.44c0-.13-.17-.17-.48-.12-.13.03-.18.1-.17.22.05.17.2.26.36.25.17-.03.3-.18.28-.35M478.42,93.32c.07.2.41.38,1.03.56.17.03.31-.1.3-.26-.02-.05-.18-.3-.53-.74-.13-.18-.38-.23-.58-.12-.2.12-.3.35-.22.56M485.09,104.88c.15.36.38.71.7,1.03.35.38.98.08.91-.43-.05-.36-.4-.73-1.04-1.09-.33-.18-.71.15-.56.5M669.26,427.38c.25.46.48.73.71.79.18.05.35-.12.31-.3-.05-.22-.25-.48-.61-.83-.1-.08-.25-.1-.35-.02-.1.08-.13.23-.07.35"/>
  <path class="cls-11" d="M48.68,632.89c4.25,1.97,9.09,3.2,14.49,3.64.73.07,1.47-.02,2.19-.23,4.45-1.37,8.51-2.09,12.15-2.17,4.25-.1,15.5-.05,33.72.17.22,0,.4-.18.41-.4v-.02c.02-.25-.2-.46-.45-.48-17.28-.55-30.41-.53-50.03-2.75-16.56-1.87-24.92-8.08-37.96-17.91-.13-.1-.31-.07-.41.05l-.02.02c-.1.12-.08.3.03.41,4.85,4.54,10.21,8.66,16.09,12.35,6.71,4.22,15.48,6.52,22.86,9.72.25.12.36.38.26.63l-.03.07c-.18.51-.78.73-1.24.45-3.2-1.9-7.09-3.44-11.67-4.64-.3-.08-.6.08-.7.36s.02.6.3.73"/>
  <path class="cls-9" d="M316.27,441.23c12.1,8.26,19.82,13.76,33.13,8.18,15.78-6.59,30.89-19.16,35.31-35.76,4.39-16.39,6.18-32.83,8.34-52.91,1.87-17.37,3.96-43.97,6.23-79.83,1.04-16.26,1.21-33,.51-50.2-.3-7.5-2.43-19.5-10.74-21.32-.48-.1-.89.31-.79.79,1.74,8.36,2.6,17.25,2.62,26.67.03,37.65-3.03,77.13-6.37,116.22-1.18,13.68-1.92,27.32-4.8,40.74-2.98,13.92-9.37,31.24-20.5,39.68-7.7,5.84-16.85,9.02-27.47,9.54-2.78.13-7.9-.56-15.33-2.1-.18-.03-.28.2-.13.3"/>
  <line class="cls-35" x1="280.96" y1="536.7" x2="287.98" y2="549.22"/>
  <path class="cls-10" d="M287.98,549.22c6.24,7.43,14.01,12.96,23.29,16.57"/>
  <path class="cls-11" d="M311.27,565.79l4.29,2.12s.05.08.02.1c-.05.03-.17.02-.38-.05-.79-.25-1.71-.25-2.75.03-.46.12-.6.7-.25,1.03,1.29,1.21,2.6,2.04,3.94,2.48,5.66,1.94,10.31,3.56,13.94,4.9,11.89,4.37,21.26,4.35,34.14,3.73,7.3-.35,13.69-1.97,19.14-4.87,18.1-9.65,29.27-27.81,28.39-48.44-.22-5-.55-9.4-1.01-13.23-.05-.48-.15-.94-.3-1.41-5.26-16.04-17.4-31.17-34.65-35.05-1.87-.43-2.73.1-2.62,1.57"/>
  <path class="cls-10" d="M373.18,478.71l-20.53-10.15c-.31-.15-.65-.25-.99-.28l-13.03-1.11"/>
  <line class="cls-35" x1="338.62" y1="467.17" x2="329.92" y2="466.87"/>
  <path class="cls-19" d="M329.92,466.87c-8.76.1-17.1,1.82-25.03,5.17-13.91,5.88-21.09,17.91-26.14,31.32-3.81,10.12-1.47,23.49,2.22,33.34"/>
  <path class="cls-29" d="M329.92,466.87c-4.88,2.48-10.12,4.04-15.69,4.65-.15.02-.25.17-.22.3l.12.61c.03.2.22.35.43.36,13.18.38,25.48,1.37,35.81,9.67"/>
  <path class="cls-14" d="M350.36,482.47c-14.16-7.25-29.14-9.73-44.95-7.45-.38.05-.6.48-.4.83l.28.48c.1.18.3.28.5.26,11.87-1.04,27.35-.3,38.51,5.18"/>
  <path class="cls-5" d="M344.3,481.77c-7.53-2.15-15.26-3.38-23.18-3.66-17.04-.61-28.46,7.1-34.29,23.16-1.57,4.32-2.57,8.76-3.01,13.31-.03.3.17.58.45.65.3.08.6-.07.71-.35l2.47-5.94"/>
  <path class="cls-29" d="M287.45,508.94c-.63,6.74-1.29,11.11-2,13.13-1.69,4.82-3.18,9.69-4.49,14.64"/>
  <path class="cls-8" d="M345.25,485.38c.88-.58.96-1.36.26-2.32-.33-.48-.73-.91-1.21-1.29"/>
  <path class="cls-21" d="M338.62,467.17c.31.99.25,1.71-.18,2.15-.08.1-.2.17-.33.18l-3.82.5c-.61.08-.71.94-.13,1.16,5.45,2.04,11.95,3.77,16.27,7.93,7.8,7.47,15.05,16.77,16.22,26.74.45,3.79.53,8.68.22,14.64-.28,5.28-1.54,9.95-3.74,13.97-3.46,6.36-7.8,11.42-13.01,15.18-4.93,3.56-11.19,5.61-18.79,6.16-9.22.65-16.61.22-22.17-1.32-10.65-2.93-17.71-4.69-21.17-5.23"/>
  <path class="cls-6" d="M287.45,508.94c3.36-8.33,8.77-15.12,16.22-20.4,4.42-3.13,9.72-4.9,15.86-5.31,9.67-.66,18.24.05,25.71,2.15"/>
  <path class="cls-15" d="M345.25,485.38c-9.62-1.31-19.25-1.75-28.94-1.36-.2.02-.36.18-.35.38v.02c0,.25.22.46.46.45,15.02-.5,28.51.75,40.16,9.78.58.45,1.41.4,1.92-.13.5-.51.55-1.34.08-1.9l-8.23-10.15"/>
  <path class="cls-34" d="M373.18,478.71c9.88,7.57,14.49,18.56,13.82,32.95-.02.1.05.2.13.2.05,0,.05-.03-.03-.1-.02-.02-.02-.05-.03-.08l-.15-1.56s0-.02-.02-.02-.02,0-.02.02c-1.8,19.88-10.31,35.91-25.53,48.11-4.75,3.82-11.24,6.09-19.44,6.82-13.26,1.18-23.48,1.42-30.64.75"/>
  <path class="cls-9" d="M337.93,573.16c14.47,5.35,28.19,1.44,38.91-9.29,5.55-5.56,10.13-11.34,13.72-17.33,5.48-9.09,10.46-25.35,6.79-35.99-.13-.38-.53-.61-.93-.51-.41.1-.68.5-.81,1.21-.08.36-.26.68-.53.91-5.68,4.7-6.11,10.58-9.67,20.13-4.44,11.94-11.13,21.51-20.08,28.71-8.63,6.94-15.74,8.76-27.37,11.62-.28.07-.3.45-.03.55"/>
  <path class="cls-48" d="M489.23,109.65c-.81-.55-1.44-1.26-1.92-2.1-.08-.17-.3-.22-.45-.12h-.02c-.07.12-.07.26,0,.38l11.29,17.98c.07.12.23.15.33.05.12-.12.22-.26.28-.45.17.91.36,1.29.61,1.14-.15.08-.3.18-.41.28-.28.25-.35.66-.15.98l5.43,9.42c.13.25.45.35.71.22.18-.1.31-.25.4-.43.51,1.18.53,1.49.02.96l5.56,11.01c.08.17.26.26.46.25.15-.02.31-.08.48-.17.38.41.66.89.83,1.42-.38-.02-.63.1-.74.33-.05.08-.05.18-.02.26,1.18,2.83,2.81,5.26,4.92,7.28.86.28,1.54,1.31,2.05,3.08-.41.28-.51.63-.26,1.08,78.76,138.9,120.96,213.26,126.6,223.07,6.44,11.22,12.85,22.48,19.19,33.79.17.31.56.45.91.33.18-.07.36-.18.58-.33l5.53,10.58c3.49,8.26,7.57,16.22,12.23,23.89,2.1,3.44,4.02,6.89,5.73,10.31,4.22,8.43,9.67,15.58,12.63,23.72,2.88,6.41,5.35,12.98,7.4,19.72,6.13,20.13-5.76,37.42-19.62,52.33-.2.22-.55.13-.63-.15l-4.57-14.64c-.33-1.08-1.8-1.19-2.3-.18l-1.34,2.72c-.43.89-.51,1.92-.23,2.88,6.16,20.58,2.04,42.8-7.23,61.8-6.14,12.58-12.47,18.94-23.99,28.24-3.71,3-8.08,5.45-13.13,7.33-4.92,1.84-9.57,3.79-13.97,5.84-.55.26-1.13.43-1.72.51-5.68.74-10,1.46-12.93,2.17-4.44,1.06-9.07,1.77-13.89,2.15-18.41,1.44-36.74.76-55.43.33-25.26-.6-50.91-1.41-76.93-2.45-30.4-1.21-64.32-2.45-101.77-3.76-45.11-1.57-82.43-3.03-111.95-4.39-21.49-.99-37.68-1.66-48.57-2-28.23-.86-51.51-2.5-79.96-3.46-10.51-.35-20.98-.84-31.42-1.46-6.44-.38-12.22-2.09-17.98-2.62-12.38-1.13-24.2-3.05-36.36-4.59l-15.26-12.63c-8.49-10.89-13.92-22.76-16.29-35.63,4.6,8.97,7.28,15.46,15.12,19.24.98.46,1.85,1.11,2.6,1.89,11.84,12.27,25.43,19.68,40.79,22.22,11.97,1.97,28.39,3.21,49.25,3.73.41.02,1.87.3,4.39.84.6.13,1.19.2,1.8.22,25.3.18,48.61,1.85,70.41,2.3,18.01.36,49.92,1.57,95.69,3.63,26.72,1.19,75.53,1.84,120.11,4.44,30.3,1.75,48.49,2.22,81.29,3.58,18.21.76,43.03,1.36,74.47,1.8,13.68.2,23.1.13,28.26-.18,9.22-.58,18.44-2.38,27.66-5.43,25.25-8.33,41.49-25.58,56.16-47.47.35-.51.6-1.08.78-1.66,4.16-13.48,4.72-27.09,1.69-40.83-1.87-8.44-3.54-15.25-5.03-20.43-1.56-5.41-1.67-10.38-.35-14.92.13-.5.08-1.01-.15-1.47-10.65-20.61-22.09-40.64-34.34-60.11-1.8-3.69-3.68-7.27-5.63-10.71-26.04-45.74-39.49-69.29-40.31-70.63-6.62-10.74-12.37-22.7-18.49-33.36-12.7-22.12-24.11-42.53-34.24-61.24-3.01-5.58-9.32-15.43-12.96-22.15-14.55-26.95-28.21-51.55-40.94-73.82-19.04-33.31-37.3-67.7-57.83-104.95-6.46-11.75-14.16-23.13-21.65-34.42-1.56-2.35-5.61-6.77-12.17-13.28l-4.69-9.04c-.25-.46.3-.96.73-.66,3.18,2.14,6.27,4.44,9.27,6.87.05.03.1.03.18-.02.08-.03.08-.15,0-.22-5.79-4.62-9.9-8.41-12.33-11.34-4.93-5.99-9.9-10.17-14.83-15.65-.35-.4-.84-.61-1.37-.61l-27.58-.12,13.41-1.69c1.37.23,2.6.18,3.64-.17,16.7-.79,31.04,1.32,43.01,6.37,12.04,5.07,22.3,11.21,30.78,18.43,11.59,9.85,21.79,21.51,31.03,35.2,10.73,15.91,20.61,32.42,29.67,49.49M357.33.44c0-.13-.17-.17-.48-.12-.13.03-.18.1-.17.22.05.17.2.26.36.25.17-.03.3-.18.28-.35M478.42,93.32c.07.2.41.38,1.03.56.17.03.31-.1.3-.26-.02-.05-.18-.3-.53-.74-.13-.18-.38-.23-.58-.12-.2.12-.3.35-.22.56M485.09,104.88c.15.36.38.71.7,1.03.35.38.98.08.91-.43-.05-.36-.4-.73-1.04-1.09-.33-.18-.71.15-.56.5M669.26,427.38c.25.46.48.73.71.79.18.05.35-.12.31-.3-.05-.22-.25-.48-.61-.83-.1-.08-.25-.1-.35-.02-.1.08-.13.23-.07.35M48.68,632.89c4.25,1.97,9.09,3.2,14.49,3.64.73.07,1.47-.02,2.19-.23,4.45-1.37,8.51-2.09,12.15-2.17,4.25-.1,15.5-.05,33.72.17.22,0,.4-.18.41-.4v-.02c.02-.25-.2-.46-.45-.48-17.28-.55-30.41-.53-50.03-2.75-16.56-1.87-24.92-8.08-37.96-17.91-.13-.1-.31-.07-.41.05l-.02.02c-.1.12-.08.3.03.41,4.85,4.54,10.21,8.66,16.09,12.35,6.71,4.22,15.48,6.52,22.86,9.72.25.12.36.38.26.63l-.03.07c-.18.51-.78.73-1.24.45-3.2-1.9-7.09-3.44-11.67-4.64-.3-.08-.6.08-.7.36s.02.6.3.73h0Z"/>
  <path class="cls-46" d="M388.32,32.79c-2.93-2.15-5.68-4.5-8.26-7.04-3.33-3.26-6.13-5.48-8.41-6.69-7.8-4.12-16.22-6.18-25.3-6.18-32.13-1.62-59.25,14.93-70.66,45.33-8.39,8.26-17.38,16.29-22.47,26.52-4.88,9.83-7.38,15.86-13.44,25.46-2.04,3.23-4.57,7.67-7.6,13.33-3.15,5.86-7.4,12.05-10.33,17.05-13.13,22.35-34.34,63.66-51.36,93.52-9.04,15.84-18.99,36.54-29.87,54.9-4.93,8.34-9.12,16.97-14.42,25.31-.81,1.27-2.62,4.3-5.41,9.07-10.08,17.17-24.01,43.61-41.8,79.29-2.72,5.45-5.48,12.93-8.31,22.47-1.46,1.94-2.75,4.02-3.87,6.29-4.06,8.11-7.76,14.93-11.09,20.46-4.07,6.74-7.04,13.15-11.97,21.77-8.58,15.05-16.94,31.34-25.1,48.87-11.36,24.57-12.19,49.73-2.48,75.49.1.25.36.4.63.35.26-.05.46-.3.45-.56-.86-24.35.86-46.26,27.23-56.21,7.1-2.68,17.57-7.72,31.36-15.1.46-.25.79-.71.88-1.24,2.3-14.85,5.79-27.52,10.5-37.96,5.51-12.23,12.78-25.28,21.82-39.14,4.65-7.14,8.2-13.31,10.66-18.49,3.58-7.57,8.92-18.11,16.04-31.65,3.79-7.23,12.91-19.82,17.45-31.42,2.28-5.83,6.67-11.87,9.01-16.21,8.56-15.94,18.36-33.91,29.44-53.91,2.4-4.32,4.57-9.34,6.67-13.89,3.33-7.17,9.83-18.69,19.55-34.55,6.52-10.61,10.4-19.62,16.74-29.78,2.33-3.73,5.98-10.18,10.89-19.35,5.07-9.45,11.13-18.16,15.13-26.21,4.4-8.82,9.3-15.07,13.76-24.37,3.24-6.75,8.77-13.68,14.29-21.94,10.65-15.99,32.55-20.71,51.44-19.32,2.4.18,8.18,2.28,17.3,6.34,1.64.73,3.16,1.72,4.52,2.93,1.21,1.08,5.56,4.88,13.1,11.44,3.23,2.83,7.43,8.54,12.62,17.15,3.2,5.3,4.93,8.16,5.23,8.61,4.02,5.96,5.76,11.44,9.87,17.15,1.57,2.19,3.23,4.97,4.98,8.34,1.14,2.19,3.63,6.29,7.43,12.3,4.44,6.99,8.11,15.08,12.35,22.62l-13.94-20.48c-.15-.22-.5-.12-.51.15l-.79,12.14c-4.73-8.18-9.04-16.94-13.82-24.52-7.43-11.8-15.02-23.53-22.73-35.15-.91-1.37-1.99-2.62-3.23-3.73-.7-11.69-13.11-20.26-23.18-23.34-16.56-4.59-31.56-2.32-44.98,6.8-4.14,2.8-8.29,7.07-10.79,10.66-5.31,7.63-11.57,17.76-18.77,30.4-7.23,12.65-13.08,22.23-20.5,35.79-2.93,5.35-5.84,10.45-8.77,15.31-3.81,6.34-7.2,12.47-10.17,18.34-6.42,12.71-16.9,29.42-22.55,40.43-14.7,28.66-29.45,55.96-44.24,81.9-1.47,2.58-2.37,4.22-2.65,4.9-1.89,4.57-4.83,8.13-6.79,12.12-2.05,4.19-5.65,10.88-10.79,20.1-3.29,5.91-6.26,13.01-10.03,19.25-2.76,4.59-5.36,9.34-7.83,14.25-7.22,14.42-14.7,28.69-22.47,42.81-3.49,5.41-8.18,14.12-14.06,26.09-8.16,16.67-9.83,33.36-5.02,50.1,2.43,8.46,6.18,15.61,11.19,21.42.3.35.63.65.99.93l5.3,3.97c1.47.98,2.55,1.97,3.24,2.98.33.48-.02,1.13-.6,1.11l-5.89-.17c-.56-.02-.78.71-.3,1.01,10.4,6.44,18.61,7.57,31.27,8.64-.4,1.04-.25,1.89.43,2.53.18.17.41.26.65.28,11.59,1.31,23.21,2.19,34.85,2.6,29.59,1.06,59.14,2.07,88.64,3.05,21.8.73,38.87,1.29,51.17,1.67,52.2,1.66,104.22,3.43,156.07,5.31,24.72.89,50.08.93,75.16,1.08,11.61.08,22.27-2.45,32.02-7.57.13-.08.25-.17.36-.26l17.37-15.17c.41-.36.78-.78,1.09-1.24,6.56-10.05,10.36-16.21,11.44-18.51,3.21-6.89,3.29-12.14.26-15.74-.08-3.59-.1-7.81-.02-12.67.05-2.3-.55-4.85-1.77-7.62l-1.14-7.14c-.05-.31.38-.48.55-.2,6.21,10.15,5.89,20.08,5.3,33.29-.02.22.15.4.36.41h.03c.23,0,.43-.18.45-.43l1.18-13.38s.03-.05.05-.07c.03,0,.07.02.07.05l.4,2.63s.05.07.08.07c.05,0,.08-.03.08-.08.25-13.33-3.1-25.23-10.02-35.68-5.38-8.11-9.34-14.64-11.9-19.59-7.91-15.33-11.29-20.17-21.34-37.18-12.78-21.59-24.3-46.16-37-69.24-14.68-26.74-28.66-52.2-38.87-79.68-2.93-7.86-4.01-15.45-3.23-22.73.68-6.36,5.5-15.68,7.17-21.42,1.32-4.59,2.15-10.73,2.48-18.39.02-.55-.08-1.09-.31-1.59-2.2-4.88-7.09-14.02-14.62-27.4-11.42-20.28-17.19-30.5-17.28-30.66-4.45-7.5-10.21-17.91-17.28-31.24-12.38-23.38-25.76-47.05-40.13-71.04-6.16-10.28-13.24-20.83-21.24-31.64-.17-.23.07-.53.33-.41,3.99,1.84,7.02,4.12,9.07,6.85,10.51,14.01,19.93,28.72,28.28,44.14,6.52,12.07,10.2,18.79,11.04,20.16,11.14,18.28,17.47,32.09,28.13,50.13,1.64,2.76,8.58,14.75,20.81,35.98,3.26,5.66,6.54,11.7,9.82,18.11,4.82,9.39,8.06,15.45,9.77,18.18,10.71,17.25,19.59,32.86,26.65,46.82,3.63,7.17,7.91,14.92,12.85,23.24,4.59,7.75,12.22,24.6,19.65,35.81,7,10.55,10.83,19.52,17.83,30.36,8.48,13.16,15.6,28.53,24.27,42.45,4.55,7.33,11.77,19.54,21.62,36.62,1.11,1.9,2.05,3.31,2.83,4.24,1.87,2.24,3.2,2.57,3.96,1.03,12.25,19.47,23.69,39.5,34.34,60.11.23.46.28.98.15,1.47-1.32,4.54-1.21,9.5.35,14.92,1.49,5.18,3.16,11.99,5.03,20.43,3.03,13.74,2.47,27.35-1.69,40.83-.18.58-.43,1.14-.78,1.66-14.67,21.89-30.91,39.14-56.16,47.47-9.22,3.05-18.44,4.85-27.66,5.43-5.17.31-14.59.38-28.26.18-31.44-.45-56.26-1.04-74.47-1.8-32.8-1.36-50.99-1.82-81.29-3.58-44.58-2.6-93.39-3.24-120.11-4.44-45.78-2.05-77.68-3.26-95.69-3.63-21.8-.45-45.11-2.12-70.41-2.3-.61-.02-1.21-.08-1.8-.22-2.52-.55-3.97-.83-4.39-.84-20.86-.51-37.28-1.75-49.25-3.73-15.36-2.53-28.96-9.95-40.79-22.22-.75-.78-1.62-1.42-2.6-1.89-7.83-3.77-10.51-10.26-15.12-19.24-2.76-14.85-2.58-29.07.55-42.66.81-3.56,2.19-8.29,4.09-14.19,3.26-10.07,9.17-21.19,13.59-29.32,19.2-35.35,37.3-68.54,54.27-99.55,7.81-14.25,14.88-26.95,21.22-38.09,31.59-55.51,63.03-113.92,91.29-164.55,39.07-69.93,65.18-116.52,78.34-139.76,1.95-3.46,4.83-8.05,8.63-13.77,9.75-14.72,21.74-25.89,35.93-33.51,7.67-4.11,16.94-6.95,27.85-8.54l27.58.12c.53,0,1.03.22,1.37.61,4.93,5.48,9.9,9.65,14.83,15.65,2.43,2.93,6.54,6.72,12.33,11.34.08.07.08.18,0,.22-.08.05-.13.05-.18.02-3-2.43-6.09-4.74-9.27-6.87-.43-.3-.98.2-.73.66l4.69,9.04h0Z"/>
  <path class="cls-51" d="M346.36,12.89l12.07,2.35c1.24.25,1.21,2.02-.03,2.23-6.9,1.21-14.68,2.52-23.31,3.94-23.15,3.82-42.3,19.87-53.43,39.93-7,12.63-13.28,23.41-18.84,32.37-11.06,17.83-21.32,36.97-30.89,56.22-7.93,15.96-20.35,35.73-28.11,49.7-8.99,16.17-16.87,30.07-23.64,41.64-16.82,28.69-35.91,64.44-51.62,91.64-7.05,12.22-19.02,38.43-31.64,57.96-1.8,2.8-5.2,8.58-10.2,17.35-2.73,4.8-6.57,10.88-11.51,18.23-3.26,4.88-8.92,15.07-16.95,30.58-2.14,4.12-4.34,8.18-6.61,12.2-3.69,6.54-5.89,10.61-6.59,12.19-.43.96-1.71,3.03-3.82,6.22-5.78,8.71-10.61,18.72-17.35,31.51-.88,1.64-1.67,2.9-2.38,3.74-1.61,1.9-2.55,1.79-2.85-.35,8.16-17.53,16.52-33.82,25.1-48.87,4.93-8.63,7.9-15.03,11.97-21.77,3.33-5.53,7.04-12.35,11.09-20.46,1.13-2.27,2.42-4.35,3.87-6.29,5.61-9.83,11.29-19.6,17.04-29.32,5.74-9.73,9.37-17.48,15.02-26.94,3.13-5.25,6.84-11.99,11.09-20.25,8.69-16.82,15.28-28.94,19.78-36.36,7.73-12.76,13.87-23.56,18.41-32.4,3.69-7.19,8.16-15.51,13.38-24.97,12-21.7,28.01-50.31,48.03-85.83,22.02-39.07,40.98-74.24,62.27-110.87,11.41-30.4,38.53-46.95,70.66-45.33h0Z"/>
  <path class="cls-41" d="M388.32,32.79c6.56,6.51,10.61,10.93,12.17,13.28,7.5,11.29,15.2,22.66,21.65,34.42,20.53,37.25,38.79,71.64,57.83,104.95,12.73,22.27,26.39,46.87,40.94,73.82,3.64,6.72,9.95,16.57,12.96,22.15,10.13,18.71,21.54,39.12,34.24,61.24,6.13,10.66,11.87,22.62,18.49,33.36.83,1.34,14.27,24.88,40.31,70.63,1.95,3.44,3.82,7.02,5.63,10.71-.76,1.54-2.09,1.21-3.96-1.03-.78-.93-1.72-2.33-2.83-4.24-9.85-17.09-17.07-29.29-21.62-36.62-8.68-13.92-15.79-29.29-24.27-42.45-7-10.84-10.83-19.82-17.83-30.36-7.43-11.21-15.07-28.06-19.65-35.81-4.93-8.33-9.22-16.08-12.85-23.24-7.07-13.96-15.94-29.57-26.65-46.82-1.71-2.73-4.95-8.79-9.77-18.18-3.28-6.41-6.56-12.45-9.82-18.11-12.23-21.22-19.17-33.21-20.81-35.98-10.66-18.05-16.99-31.85-28.13-50.13-.84-1.37-4.52-8.1-11.04-20.16-8.34-15.41-17.76-30.13-28.28-44.14-2.05-2.73-5.08-5.02-9.07-6.85-.26-.12-.5.18-.33.41,8,10.81,15.08,21.36,21.24,31.64,14.37,23.99,27.75,47.66,40.13,71.04,7.07,13.33,12.83,23.74,17.28,31.24.1.17,5.86,10.38,17.28,30.66,7.53,13.38,12.42,22.52,14.62,27.4.23.5.33,1.04.31,1.59-.33,7.67-1.16,13.81-2.48,18.39-1.67,5.74-6.49,15.07-7.17,21.42-.78,7.28.3,14.87,3.23,22.73,10.21,27.48,24.19,52.95,38.87,79.68,12.7,23.08,24.22,47.65,37,69.24,10.05,17.02,13.43,21.85,21.34,37.18,2.57,4.95,6.52,11.47,11.9,19.59,6.92,10.45,10.26,22.35,10.02,35.68,0,.05-.03.08-.08.08-.03,0-.08-.02-.08-.07l-.4-2.63s-.03-.05-.07-.05c-.02.02-.05.03-.05.07l-1.18,13.38c-.02.25-.22.43-.45.43h-.03c-.22-.02-.38-.2-.36-.41.6-13.21.91-23.14-5.3-33.29-.17-.28-.6-.12-.55.2l1.14,7.14c-8.91-19.78-19.67-38.39-30.63-57.08-10.35-17.67-17.7-30.36-22.07-38.11-29.62-52.53-51.79-91.7-66.5-117.55-1.16-2.04-18.38-33.11-51.67-93.23-1.14-2.05-2.28-4.06-3.46-6.03-4.24-7.53-7.91-15.63-12.35-22.62-3.81-6.01-6.29-10.12-7.43-12.3-1.75-3.38-3.41-6.16-4.98-8.34-4.11-5.71-5.84-11.19-9.87-17.15-.3-.45-2.04-3.31-5.23-8.61-5.18-8.61-9.39-14.32-12.62-17.15-7.53-6.56-11.89-10.36-13.1-11.44-1.36-1.21-2.88-2.2-4.52-2.93-9.12-4.06-14.9-6.16-17.3-6.34-18.89-1.39-40.79,3.33-51.44,19.32-5.51,8.26-11.04,15.18-14.29,21.94-4.45,9.3-9.35,15.55-13.76,24.37-4.01,8.05-10.07,16.75-15.13,26.21-4.92,9.17-8.56,15.63-10.89,19.35-6.34,10.17-10.21,19.17-16.74,29.78-9.72,15.86-16.22,27.38-19.55,34.55-2.1,4.55-4.27,9.57-6.67,13.89-11.08,20-20.88,37.96-29.44,53.91-2.33,4.34-6.72,10.38-9.01,16.21-4.54,11.61-13.66,24.19-17.45,31.42-7.12,13.54-12.47,24.09-16.04,31.65-2.47,5.18-6.01,11.36-10.66,18.49-9.04,13.86-16.31,26.9-21.82,39.14-4.7,10.45-8.2,23.11-10.5,37.96-.08.53-.41.99-.88,1.24-13.79,7.38-24.25,12.42-31.36,15.1-26.37,9.95-28.1,31.85-27.23,56.21.02.26-.18.51-.45.56-.26.05-.53-.1-.63-.35-9.7-25.76-8.87-50.93,2.48-75.49.3,2.14,1.24,2.25,2.85.35.71-.84,1.51-2.1,2.38-3.74,6.74-12.78,11.57-22.8,17.35-31.51,2.12-3.2,3.39-5.26,3.82-6.22.7-1.57,2.9-5.65,6.59-12.19,2.27-4.02,4.47-8.08,6.61-12.2,8.03-15.51,13.69-25.69,16.95-30.58,4.93-7.35,8.77-13.43,11.51-18.23,5-8.77,8.39-14.55,10.2-17.35,12.62-19.54,24.59-45.74,31.64-57.96,15.71-27.2,34.8-62.95,51.62-91.64,6.77-11.57,14.65-25.46,23.64-41.64,7.76-13.97,20.18-33.74,28.11-49.7,9.57-19.25,19.83-38.39,30.89-56.22,5.56-8.96,11.84-19.73,18.84-32.37,11.13-20.07,30.28-36.11,53.43-39.93,8.63-1.42,16.41-2.73,23.31-3.94,1.24-.22,1.27-1.99.03-2.23l-12.07-2.35c9.07,0,17.5,2.05,25.3,6.18,2.28,1.21,5.08,3.43,8.41,6.69,2.58,2.53,5.33,4.88,8.26,7.04h0Z"/>
  <path class="cls-41" d="M275.7,58.22c-21.29,36.64-40.25,71.8-62.27,110.87-20.02,35.51-36.03,64.12-48.03,85.83-5.22,9.45-9.69,17.78-13.38,24.97-4.54,8.84-10.68,19.64-18.41,32.4-4.5,7.42-11.09,19.54-19.78,36.36-4.25,8.26-7.96,15-11.09,20.25-5.65,9.45-9.27,17.2-15.02,26.94-5.74,9.72-11.42,19.49-17.04,29.32,2.83-9.54,5.6-17.02,8.31-22.47,17.8-35.68,31.72-62.12,41.8-79.29,2.8-4.77,4.6-7.8,5.41-9.07,5.3-8.34,9.49-16.97,14.42-25.31,10.88-18.36,20.83-39.06,29.87-54.9,17.02-29.87,38.23-71.17,51.36-93.52,2.93-5,7.19-11.19,10.33-17.05,3.03-5.66,5.56-10.1,7.6-13.33,6.06-9.6,8.56-15.63,13.44-25.46,5.08-10.23,14.07-18.26,22.47-26.52h0Z"/>
  <path class="cls-43" d="M479.22,92.87c.35.45.51.7.53.74.02.17-.13.3-.3.26-.61-.18-.96-.36-1.03-.56-.08-.22.02-.45.22-.56.2-.12.45-.07.58.12h0Z"/>
  <path class="cls-43" d="M485.66,104.38c.65.36.99.73,1.04,1.09.07.51-.56.81-.91.43-.31-.31-.55-.66-.7-1.03-.15-.35.23-.68.56-.5h0Z"/>
  <path class="cls-43" d="M489.23,109.65l9.52,15.74c-.07.18-.17.33-.28.45-.1.1-.26.07-.33-.05l-11.29-17.98c-.07-.12-.07-.26,0-.38h.02c.15-.1.36-.05.45.12.48.84,1.11,1.56,1.92,2.1h0Z"/>
  <path class="cls-50" d="M349.29,119.03c2.68,1.47,5,3.51,6.95,6.11,1.29,1.71-.5,4.01-2.47,3.21l-9.62-3.89c-.2-.08-.4-.13-.61-.15-13.64-.94-25.61,3.13-35.91,12.25-.6.53-1.13,1.13-1.61,1.79-4.3,6.03-8.61,10.68-12.15,16.87-6.26,10.98-12.96,22.57-20.12,34.78-2.1,3.63-3.08,7.57-5.78,10.98-1.27,1.59-2.95,4.21-4.98,7.85-7.04,12.5-12.2,21.42-15.5,26.75-9.34,15.13-14.3,26.44-23.16,41.62-3.66,6.29-13.76,25.03-30.26,56.21-10.99,20.74-20.12,37.83-27.38,51.26-2.27,4.17-4.19,8.58-6.09,12.22-13.13,25.21-25.51,48.26-37.18,69.15-6.54,11.72-13.63,26.72-19.72,40.61-4.27,9.75-6.04,19.37-5.33,28.84.41,5.25,3.15,12.93,8.23,23.03.33.66,2.09,2.86,5.26,6.59.22.26.08.65-.25.7-9.27,1.23-14.5-9.22-18.92-16.06-10.91-16.8-1.34-42.88,6.56-59.02,3.01-6.14,5.91-12.35,8.71-18.61,7.76-14.12,15.25-28.39,22.47-42.81,2.47-4.92,5.07-9.67,7.83-14.25,3.77-6.24,6.74-13.34,10.03-19.25,5.15-9.22,8.74-15.91,10.79-20.1,1.95-3.99,4.9-7.55,6.79-12.12.28-.68,1.18-2.32,2.65-4.9,14.78-25.94,29.54-53.24,44.24-81.9,5.65-11.01,16.13-27.71,22.55-40.43,2.96-5.88,6.36-12,10.17-18.34,2.93-4.87,5.84-9.97,8.77-15.31,7.42-13.56,13.26-23.14,20.5-35.79,7.2-12.63,13.46-22.76,18.77-30.4,2.5-3.59,6.66-7.86,10.79-10.66,13.43-9.12,28.43-11.39,44.98-6.8h0Z"/>
  <path class="cls-48" d="M372.46,142.38l-3.59-2.19-4.01-2.09c-6.47-3.51-13.99-4.83-22.53-3.96-15.88,1.59-27.62,5.4-36.69,19.12-6.67,10.05-12.55,20.63-17.63,31.72-.65,1.42-1.44,2.76-2.38,4.02l-8.53,11.47c-.12.15-.2.3-.28.46-3,6.72-5.28,13.39-9.8,20.51-9.45,14.92-14.83,23.59-16.14,26.04-5.73,10.73-11.47,21.44-17.25,32.15-6.9,10.33-11.8,21.8-17.81,32.7-12.81,23.23-23.74,45.13-36.9,70.83-1.99,3.87-5.18,7.63-7.02,11.24-6.89,13.54-12.1,24.27-15.65,32.17-2.8,6.24-7.55,15.84-14.25,28.77-9.52,18.36-17.25,37.86-23.18,58.48-5.15,17.95-5.48,32.4-5.13,52.12.02.55.26,1.06.68,1.41,6.06,4.98,16.19,6.72,24.75,7.86,5.15.7,13.23,1.16,24.2,1.41,30.21.68,76.34,2.32,138.34,4.95,22.73.96,44.72.89,65.94,1.94,48.36,2.4,97.55,4.22,147.55,5.46,12.55.31,22.12.23,28.71-.25,7.55-.53,12.78-1.62,15.69-3.29,5.74-3.29,10.28-5.7,13.61-7.23,4.21-1.94,7.63-5.07,9.22-8.38,2.76-5.79,5.15-10.6,7.19-14.4,5.65-10.6,6.67-18.11,2.65-28.1-6.09-15.07-14.7-30.26-23.74-45.66-22.91-38.92-36.77-63.04-41.59-72.33-6.66-12.88-14.72-27.32-24.19-43.33-3.66-6.18-12.43-21.7-26.32-46.57-1.9-3.39-3.33-5.78-4.24-7.19-4.06-6.16-7.04-13.1-10.21-18.28-3.53-5.79-8.92-15.35-16.19-28.66-1.9-3.51-7.32-13.03-16.21-28.54-5.45-9.5-10.74-19.06-15.93-28.66l-1.34-2.35.79-12.14c.02-.26.36-.36.51-.15l13.94,20.48c1.18,1.97,2.32,3.97,3.46,6.03,33.29,60.11,50.51,91.19,51.67,93.23,14.72,25.84,36.89,65.01,66.5,117.55,4.37,7.75,11.72,20.45,22.07,38.11,10.96,18.69,21.72,37.3,30.63,57.08,1.23,2.76,1.82,5.31,1.77,7.62-.08,4.85-.07,9.07.02,12.67-2.38,10.6-6.27,19.65-11.69,27.18-8.41,6.31-15.74,14.67-25.41,18.34-11.8,4.5-24.49,6.84-38.05,7.02-10.48.15-27.96.12-52.45-.1-23.19-.22-46.84-3.06-68.28-3.54-22.27-.48-44.02-3.63-66.42-3.81-.68-.02-8.46-.26-23.31-.76-28.03-.94-56.04-1.67-84.05-2.22l-23.33-1.06-40.98-1.54,52.42,1.54s.05-.02.05-.05l.02-.51c0-.18-.13-.33-.31-.35-19.57-1.87-39.17-2.2-58.79-1.03-8.29.12-15.12-.33-20.45-1.34-4.12-.78-7.62-1.16-10.51-1.14-.51,0-1.03-.08-1.52-.25l-24.19-8-5.3-3.97c-.36-.28-.7-.58-.99-.93-5.02-5.81-8.76-12.96-11.19-21.42-4.82-16.74-3.15-33.43,5.02-50.1,5.88-11.97,10.56-20.68,14.06-26.09-2.8,6.26-5.7,12.47-8.71,18.61-7.9,16.14-17.47,42.22-6.56,59.02,4.42,6.84,9.65,17.28,18.92,16.06.33-.05.46-.43.25-.7-3.18-3.73-4.93-5.93-5.26-6.59-5.08-10.1-7.81-17.78-8.23-23.03-.71-9.47,1.06-19.09,5.33-28.84,6.09-13.89,13.18-28.89,19.72-40.61,11.67-20.89,24.06-43.94,37.18-69.15,1.9-3.64,3.82-8.05,6.09-12.22,7.27-13.43,16.39-30.51,27.38-51.26,16.51-31.17,26.61-49.92,30.26-56.21,8.86-15.18,13.82-26.49,23.16-41.62,3.29-5.33,8.46-14.25,15.5-26.75,2.04-3.64,3.71-6.26,4.98-7.85,2.7-3.41,3.68-7.35,5.78-10.98,7.15-12.22,13.86-23.81,20.12-34.78,3.54-6.19,7.85-10.84,12.15-16.87.48-.66,1.01-1.26,1.61-1.79,10.3-9.12,22.27-13.19,35.91-12.25.22.02.41.07.61.15l9.62,3.89c1.97.79,3.76-1.51,2.47-3.21-1.95-2.6-4.27-4.64-6.95-6.11,10.07,3.08,22.48,11.66,23.18,23.34h0Z"/>
  <path class="cls-43" d="M505.34,137c-.08.18-.22.33-.4.43-.26.13-.58.03-.71-.22l-5.43-9.42c-.2-.31-.13-.73.15-.98.12-.1.26-.2.41-.28l5.98,10.46h0Z"/>
  <path class="cls-41" d="M364.87,138.11c-10.68-2.93-21.51-3.59-32.48-2.02-.18.03-.31.18-.3.36v.02c.02.18.18.33.36.31,9.16-.31,18.26.18,27.33,1.51-12.22-1.18-21.46-1.42-27.71-.74-7.93.84-14.35,4.19-19.27,10.03-8.99,10.65-16.42,23.39-22.28,38.26-.1.25.2.46.4.3l2.93-2.17c.12-.08.23-.17.38-.22,4.82-1.52,11.69-3.49,20.61-5.91,4.12-1.13,8.72-1.72,13.79-1.77,8.66-.1,13.33-.12,14.01-.07,9.85.78,20.21,3.87,31.12,9.27l9.24,16.52c-5.89-7.88-11.56-13.68-17-17.38-3.87-2.63-8.97-4.04-15.28-4.25-3.36-1.01-6.92-1.46-10.7-1.32-13.46-1.44-26.9.5-40.31,5.78-14.19,5.6-22.73,15.88-24.55,30.94-.98,8.16-1.18,16.19-.56,24.06,2.81,36.27,5.94,72.53,9.39,108.75-1.31-1.94-1.97-1.51-1.95,1.32.03,6.64.5,13.38,1.41,20.25,1.56,11.67,1.56,16.82,3.01,28.11.05.46-.23.91-.7,1.06-6.49,1.9-15.53,3.86-27.13,5.88-9.69,1.69-18.43,5.25-28.39,8.69-6.8,2.35-15.5,3.96-26.11,4.82-17.35,1.42-29.2-7.17-23.38-25.98,1.84-5.96,4.14-11.8,6.9-17.52,15.33-31.79,30.66-63.57,45.99-95.34,5.78-10.71,11.52-21.42,17.25-32.15,1.31-2.45,6.69-11.13,16.14-26.04,4.52-7.12,6.8-13.79,9.8-20.51.08-.17.17-.31.28-.46l8.53-11.47c.94-1.26,1.74-2.6,2.38-4.02,5.08-11.09,10.96-21.67,17.63-31.72,9.07-13.72,20.81-17.53,36.69-19.12,8.54-.88,16.06.45,22.53,3.96h0Z"/>
  <path class="cls-46" d="M364.87,138.11l4.01,2.09-9.09-1.9c-9.07-1.32-18.18-1.82-27.33-1.51-.18.02-.35-.13-.36-.31v-.02c-.02-.18.12-.33.3-.36,10.98-1.57,21.8-.91,32.48,2.02h0Z"/>
  <path class="cls-49" d="M359.78,138.29l9.09,1.9,3.59,2.19c1.24,1.11,2.32,2.35,3.23,3.73,7.72,11.62,15.3,23.34,22.73,35.15,4.78,7.58,9.09,16.34,13.82,24.52l1.34,2.35-14.17,3.05c-5.58-11.66-14.12-20.28-25.66-25.89-10.91-5.4-21.27-8.49-31.12-9.27-.68-.05-5.35-.03-14.01.07-5.07.05-9.67.65-13.79,1.77-8.92,2.42-15.79,4.39-20.61,5.91-.15.05-.26.13-.38.22l-2.93,2.17c-.2.17-.5-.05-.4-.3,5.86-14.87,13.29-27.62,22.28-38.26,4.92-5.84,11.34-9.19,19.27-10.03,6.26-.68,15.5-.43,27.71.74h0Z"/>
  <path class="cls-43" d="M511.86,149.05c-.17.08-.33.15-.48.17-.2.02-.38-.08-.46-.25l-5.56-11.01c2.85,3.43,5.02,7.14,6.51,11.09h0Z"/>
  <path class="cls-43" d="M512.69,150.47c1.92,2.4,3.31,5.02,4.16,7.88-2.1-2.02-3.74-4.45-4.92-7.28-.03-.08-.03-.18.02-.26.12-.23.36-.35.74-.33h0Z"/>
  <path class="cls-43" d="M665.92,419.37c-.22.15-.4.26-.58.33-.35.12-.75-.02-.91-.33-6.34-11.31-12.75-22.57-19.19-33.79-5.65-9.82-47.85-84.17-126.6-223.07-.25-.45-.15-.79.26-1.08l147.02,257.94h0Z"/>
  <path class="cls-37" d="M340.01,178.83l20.84,10.74c3.94,4.82,6.52,10.36,7.75,16.64-3.81-5.53-6.56-8.16-8.23-7.91-16.37-11.7-34.67-14.97-54.92-9.8-11.21,2.86-18.46,9.32-21.72,19.39-1.44,4.42-2.32,10.56-2.63,18.39l.15-13.81c0-.3-.23-.55-.53-.56l-.84-.02c-.28-.02-.51.18-.56.46-1.01,6.46-1.39,13.21-1.14,20.28.51,14.68.84,23.06,1.01,25.13.38,4.82,3.28,39.12,8.72,102.91,1.11,13.05,3.39,29.7,4.59,44.58.05.6-.65.96-1.11.58l-1.41-1.14-6.01-56.34c-3.44-36.22-6.57-72.48-9.39-108.75-.61-7.86-.41-15.89.56-24.06,1.82-15.07,10.36-25.35,24.55-30.94,13.41-5.28,26.85-7.22,40.31-5.78h0Z"/>
  <path class="cls-39" d="M350.71,180.16l16.19,13.26-6.04-3.84-20.84-10.74c3.77-.13,7.33.31,10.7,1.32h0Z"/>
  <path class="cls-49" d="M382.99,201.8c4.55,9.59,6.77,20.56,6.67,32.93-.23,29.87-1.29,57.35-3.16,82.46-.78,10.41-1.95,20.96-3.56,31.64-3.03,20.25-4.62,30.73-4.73,31.46-2.6,14.47-8.44,27.85-17.53,40.11-3.63,4.9-7.27,8.58-10.93,11.04-7.57,5.07-18.81,7.78-27.75,7.7-4.14-3-8.81-4.72-14.01-5.17-.3-.03-.53-.26-.53-.58-.02-.3.22-.55.51-.58,7.14-.79,14.77-2.09,22.93-3.86v-.02c-.26-.12-8.08.96-23.43,3.21-.53.07-1.04-.1-1.42-.45l-3.08-2.91c20.1,1.18,37.6.2,49.04-18.48,7.47-12.2,12.27-21.14,13.79-34.1,1.82-15.4,3.82-30.78,3.96-46.11.12-13,.15-21.99,1.34-36.54,2.05-25,3.06-32.8,4.44-55.36.51-8.53,1.36-16.87,2.5-25.03.08-.56.05-1.13-.1-1.67-1.99-7.2-5.66-13.23-11.04-18.08l-16.19-13.26c6.31.22,11.41,1.62,15.28,4.25,5.45,3.71,11.11,9.5,17,17.38h0Z"/>
  <path class="cls-40" d="M360.38,198.3l4.19,5.36-.13,2c-.03.46-.53.75-.94.51-2.14-1.18-4.42-2.58-6.84-4.24-4.83-3.31-9.06-4.5-14.02-5.22-12.81-1.82-31.67-3.18-42.78,4.82-9.6,6.94-14.14,16.74-13.63,29.4,1.14,28.23,3.53,60.05,7.12,95.46.4,9.6.73,19.16,1.77,28.67,2.81,25.79,4.37,40.74,4.69,44.83.41,5.48.56,8.81.48,9.95-.07.76-1.14.88-1.37.15-1.36-4.32-2.33-8.49-2.95-12.55-1.54-10.12-2.7-20.15-3.49-30.13-1.14-14.06-2-24.11-2.58-30.18-3.58-36.9-6.51-73.87-8.77-110.87.31-7.83,1.19-13.97,2.63-18.39,3.26-10.07,10.51-16.52,21.72-19.39,20.25-5.17,38.54-1.9,54.92,9.8h0Z"/>
  <path class="cls-48" d="M373.76,185.27c11.54,5.61,20.08,14.24,25.66,25.89,4.82,12.7,7.15,26.85,6.97,42.5-.45,39.7-2.07,73.46-4.83,101.26-2.02,20.31-1.92,39.63-3.31,57.95-.84,11.14-4.42,24.49-15.08,30.26-7.85,4.25-17.95,9.65-27.04,10.31-16.57,1.23-31.09.5-41.46-13.1-.33-.43-.03-1.06.53-1.08l6.8-.13c8.94.08,20.18-2.63,27.75-7.7,3.66-2.47,7.3-6.14,10.93-11.04,9.09-12.27,14.93-25.64,17.53-40.11.12-.73,1.71-11.21,4.73-31.46,1.61-10.68,2.78-21.22,3.56-31.64,1.87-25.12,2.93-52.6,3.16-82.46.1-12.37-2.12-23.34-6.67-32.93l-9.24-16.52M316.27,441.23c12.1,8.26,19.82,13.76,33.13,8.18,15.78-6.59,30.89-19.16,35.31-35.76,4.39-16.39,6.18-32.83,8.34-52.91,1.87-17.37,3.96-43.97,6.23-79.83,1.04-16.26,1.21-33,.51-50.2-.3-7.5-2.43-19.5-10.74-21.32-.48-.1-.89.31-.79.79,1.74,8.36,2.6,17.25,2.62,26.67.03,37.65-3.03,77.13-6.37,116.22-1.18,13.68-1.92,27.32-4.8,40.74-2.98,13.92-9.37,31.24-20.5,39.68-7.7,5.84-16.85,9.02-27.47,9.54-2.78.13-7.9-.56-15.33-2.1-.18-.03-.28.2-.13.3h0Z"/>
  <path class="cls-45" d="M366.9,193.42c5.38,4.85,9.06,10.88,11.04,18.08.15.55.18,1.11.1,1.67-1.14,8.16-1.99,16.51-2.5,25.03-1.37,22.57-2.38,30.36-4.44,55.36-1.19,14.55-1.23,23.54-1.34,36.54-.13,15.33-2.14,30.71-3.96,46.11-1.52,12.96-6.32,21.9-13.79,34.1-11.44,18.67-28.94,19.65-49.04,18.48-2.4-1.57-4.37-3.68-5.94-6.34,4.5,0,8.94.26,13.31.81,6.36.78,10.78.99,13.24.61,6.16-.94,12.15-2.8,17.98-5.58.51-.25.98-.56,1.39-.94,5.81-5.35,9.4-11.26,10.74-17.75,3.63-17.48,6.49-37.25,8.59-59.29,1.52-15.91,1.66-31.41,3.89-46.99,2.14-14.98,3.73-24.75,4.45-39.44.61-12.14,1.04-22.71,1.29-31.75.02-.48-.03-.96-.13-1.44l-3.2-14.49c-1.23-6.27-3.81-11.82-7.75-16.64l6.04,3.84h0Z"/>
  <path class="cls-42" d="M368.61,206.22l3.2,14.49c.1.48.15.96.13,1.44-.25,9.04-.68,19.62-1.29,31.75-.73,14.68-2.32,24.45-4.45,39.44-2.24,15.58-2.37,31.08-3.89,46.99-2.1,22.04-4.97,41.8-8.59,59.29-1.34,6.49-4.93,12.4-10.74,17.75-.41.38-.88.7-1.39.94-5.83,2.78-11.82,4.64-17.98,5.58-2.47.38-6.89.17-13.24-.61-4.37-.55-8.81-.81-13.31-.81-3.59-4.95-5.94-10.86-7.05-17.75l1.41,1.14c.46.38,1.16.02,1.11-.58-1.19-14.88-3.48-31.54-4.59-44.58-5.45-63.79-8.34-98.09-8.72-102.91-.17-2.07-.5-10.45-1.01-25.13-.25-7.07.13-13.82,1.14-20.28.05-.28.28-.48.56-.46l.84.02c.3.02.53.26.53.56l-.15,13.81c2.27,37,5.2,73.97,8.77,110.87.58,6.08,1.44,16.13,2.58,30.18.79,9.98,1.95,20.02,3.49,30.13.61,4.06,1.59,8.23,2.95,12.55.23.73,1.31.61,1.37-.15.08-1.14-.07-4.47-.48-9.95-.31-4.09-1.87-19.04-4.69-44.83-1.04-9.52-1.37-19.07-1.77-28.67,21.17-9.24,43.54-20.84,54.5-42.35,3.96-7.78,7-16.18,9.11-25.18,4.07-17.43,7.33-35.25,9.78-53.41.03-.23-.02-.45-.12-.65-.41-.71-1.11-1.09-2.05-1.16l-4.19-5.36c1.67-.25,4.42,2.38,8.23,7.91h0Z"/>
  <path class="cls-37" d="M364.57,203.67c.94.07,1.64.45,2.05,1.16.1.2.15.41.12.65-2.45,18.16-5.71,35.98-9.78,53.41-2.1,9.01-5.15,17.4-9.11,25.18-10.96,21.51-33.33,33.11-54.5,42.35-3.59-35.41-5.98-67.23-7.12-95.46-.51-12.67,4.02-22.47,13.63-29.4,11.11-8,29.97-6.64,42.78-4.82,4.97.71,9.19,1.9,14.02,5.22,2.42,1.66,4.7,3.06,6.84,4.24.41.23.91-.05.94-.51l.13-2h0Z"/>
  <path class="cls-50" d="M316.41,440.93c7.43,1.54,12.55,2.23,15.33,2.1,10.61-.51,19.77-3.69,27.47-9.54,11.13-8.44,17.52-25.76,20.5-39.68,2.88-13.43,3.63-27.07,4.8-40.74,3.34-39.09,6.41-78.57,6.37-116.22-.02-9.42-.88-18.31-2.62-26.67-.1-.48.31-.89.79-.79,8.31,1.82,10.45,13.82,10.74,21.32.7,17.2.53,33.94-.51,50.2-2.27,35.86-4.35,62.47-6.23,79.83-2.17,20.08-3.96,36.52-8.34,52.91-4.42,16.61-19.54,29.17-35.31,35.76-13.31,5.58-21.03.08-33.13-8.18-.15-.1-.05-.33.13-.3h0Z"/>
  <path class="cls-46" d="M413.59,208.12c5.18,9.6,10.48,19.15,15.93,28.66,8.89,15.51,14.3,25.03,16.21,28.54,7.27,13.31,12.67,22.86,16.19,28.66,3.18,5.18,6.16,12.12,10.21,18.28.91,1.41,2.33,3.79,4.24,7.19,13.89,24.87,22.66,40.4,26.32,46.57,9.47,16.01,17.53,30.45,24.19,43.33,4.82,9.29,18.68,33.41,41.59,72.33,9.04,15.4,17.65,30.6,23.74,45.66,4.02,9.98,3,17.5-2.65,28.1-2.04,3.81-4.42,8.61-7.19,14.4-1.59,3.31-5.02,6.44-9.22,8.38-3.33,1.54-7.86,3.94-13.61,7.23-2.91,1.67-8.15,2.76-15.69,3.29-6.59.48-16.16.56-28.71.25-50-1.24-99.19-3.06-147.55-5.46-21.22-1.04-43.21-.98-65.94-1.94-62-2.63-108.13-4.27-138.34-4.95-10.98-.25-19.06-.71-24.2-1.41-8.56-1.14-18.69-2.88-24.75-7.86-.41-.35-.66-.86-.68-1.41-.35-19.72-.02-34.17,5.13-52.12,5.93-20.61,13.66-40.11,23.18-58.48,6.71-12.93,11.46-22.53,14.25-28.77,3.54-7.9,8.76-18.63,15.65-32.17,1.84-3.61,5.03-7.37,7.02-11.24,13.16-25.69,24.09-47.6,36.9-70.83,6.01-10.89,10.91-22.37,17.81-32.7-15.33,31.77-30.66,63.56-45.99,95.34-2.76,5.71-5.07,11.56-6.9,17.52-5.83,18.81,6.03,27.4,23.38,25.98,10.61-.86,19.3-2.47,26.11-4.82,9.97-3.44,18.71-7,28.39-8.69,11.61-2.02,20.65-3.97,27.13-5.88.46-.15.75-.6.7-1.06-1.46-11.29-1.46-16.44-3.01-28.11-.91-6.87-1.37-13.61-1.41-20.25-.02-2.83.65-3.26,1.95-1.32l6.01,56.34c1.11,6.89,3.46,12.8,7.05,17.75,1.57,2.67,3.54,4.77,5.94,6.34l3.08,2.91c.38.35.89.51,1.42.45,15.35-2.25,23.16-3.33,23.43-3.21v.02c-8.16,1.77-15.79,3.06-22.93,3.86-.3.03-.53.28-.51.58,0,.31.23.55.53.58,5.2.45,9.87,2.17,14.01,5.17l-6.8.13c-.56.02-.86.65-.53,1.08,10.36,13.59,24.88,14.32,41.46,13.1,9.09-.66,19.19-6.06,27.04-10.31,10.66-5.78,14.24-19.12,15.08-30.26,1.39-18.31,1.29-37.63,3.31-57.95,2.76-27.8,4.39-61.55,4.83-101.26.18-15.65-2.15-29.8-6.97-42.5l14.17-3.05M280.96,536.7l7.02,12.52c6.24,7.43,14.01,12.96,23.29,16.57l4.29,2.12s.05.08.02.1c-.05.03-.17.02-.38-.05-.79-.25-1.71-.25-2.75.03-.46.12-.6.7-.25,1.03,1.29,1.21,2.6,2.04,3.94,2.48,5.66,1.94,10.31,3.56,13.94,4.9,11.89,4.37,21.26,4.35,34.14,3.73,7.3-.35,13.69-1.97,19.14-4.87,18.1-9.65,29.27-27.81,28.39-48.44-.22-5-.55-9.4-1.01-13.23-.05-.48-.15-.94-.3-1.41-5.26-16.04-17.4-31.17-34.65-35.05-1.87-.43-2.73.1-2.62,1.57l-20.53-10.15c-.31-.15-.65-.25-.99-.28l-13.03-1.11-8.71-.3c-8.76.1-17.1,1.82-25.03,5.17-13.91,5.88-21.09,17.91-26.14,31.32-3.81,10.12-1.47,23.49,2.22,33.34h0Z"/>
  <path class="cls-43" d="M669.67,427.05c.36.35.56.61.61.83.03.18-.13.35-.31.3-.23-.07-.46-.33-.71-.79-.07-.12-.03-.26.07-.35.1-.08.25-.07.35.02h0Z"/>
  <path class="cls-43" d="M716.34,628.72c-4.47,6.11-9.39,11.61-14.77,16.49-9.95,9.06-21.26,15.91-33.89,20.58-5.75,2.14-11.57,4.07-17.47,5.84-.18.05-.68.07-1.46.02.26-.63.61-1.04,1.06-1.24,5.33-2.28,13.26-3.87,18.03-5.71,9.14-3.54,18.74-9.17,28.81-16.87,13.86-10.61,24.35-27.65,28.91-43.66,2.53-8.89,3.91-19.9,4.09-33,.13-9.29-.76-17.76-2.68-25.41-1.57-6.24-4.12-14.34-7.68-24.32-1.74-4.85-6.41-11.36-7.14-16.46-.08-.56-.35-1.08-.73-1.47-.35-.35-1.41-1.84-3.15-4.44-.79-1.18-1.32-2.33-1.59-3.49-.71-3.08-2.27-5.65-4.65-7.7-2.96-8.15-8.41-15.3-12.63-23.72-1.71-3.43-3.63-6.87-5.73-10.31-4.67-7.67-8.74-15.63-12.23-23.89,20.65,34.57,34.27,58.59,40.88,72.05,6.77,13.79,11.99,28.06,15.61,42.8,2.68,10.88,4.62,24.49,3.31,36.29-1.16,10.41-3.18,20.21-6.04,29.37-.98,3.13-3.92,9.2-8.86,18.26h0Z"/>
  <path class="cls-37" d="M329.92,466.87c-4.88,2.48-10.12,4.04-15.69,4.65-.15.02-.25.17-.22.3l.12.61c.03.2.22.35.43.36,13.18.38,25.48,1.37,35.81,9.67-14.16-7.25-29.14-9.73-44.95-7.45-.38.05-.6.48-.4.83l.28.48c.1.18.3.28.5.26,11.87-1.04,27.35-.3,38.51,5.18-7.53-2.15-15.26-3.38-23.18-3.66-17.04-.61-28.46,7.1-34.29,23.16-1.57,4.32-2.57,8.76-3.01,13.31-.03.3.17.58.45.65.3.08.6-.07.71-.35l2.47-5.94c-.63,6.74-1.29,11.11-2,13.13-1.69,4.82-3.18,9.69-4.49,14.64-3.69-9.85-6.03-23.23-2.22-33.34,5.05-13.41,12.23-25.45,26.14-31.32,7.93-3.34,16.27-5.07,25.03-5.17h0Z"/>
  <path class="cls-44" d="M338.62,467.17c.31.99.25,1.71-.18,2.15-.08.1-.2.17-.33.18l-3.82.5c-.61.08-.71.94-.13,1.16,5.45,2.04,11.95,3.77,16.27,7.93,7.8,7.47,15.05,16.77,16.22,26.74.45,3.79.53,8.68.22,14.64-.28,5.28-1.54,9.95-3.74,13.97-3.46,6.36-7.8,11.42-13.01,15.18-4.93,3.56-11.19,5.61-18.79,6.16-9.22.65-16.61.22-22.17-1.32-10.65-2.93-17.71-4.69-21.17-5.23l-7.02-12.52c1.31-4.95,2.8-9.82,4.49-14.64.71-2.02,1.37-6.39,2-13.13,3.36-8.33,8.77-15.12,16.22-20.4,4.42-3.13,9.72-4.9,15.86-5.31,9.67-.66,18.24.05,25.71,2.15-9.62-1.31-19.25-1.75-28.94-1.36-.2.02-.36.18-.35.38v.02c0,.25.22.46.46.45,15.02-.5,28.51.75,40.16,9.78.58.45,1.41.4,1.92-.13.5-.51.55-1.34.08-1.9l-8.23-10.15c-10.33-8.29-22.63-9.29-35.81-9.67-.22-.02-.4-.17-.43-.36l-.12-.61c-.03-.13.07-.28.22-.3,5.58-.61,10.81-2.17,15.69-4.65l8.71.3h0Z"/>
  <path class="cls-49" d="M373.18,478.71c9.88,7.57,14.49,18.56,13.82,32.95-.02.1.05.2.13.2.05,0,.05-.03-.03-.1-.02-.02-.02-.05-.03-.08l-.15-1.56s0-.02-.02-.02-.02,0-.02.02c-1.8,19.88-10.31,35.91-25.53,48.11-4.75,3.82-11.24,6.09-19.44,6.82-13.26,1.18-23.48,1.42-30.64.75-9.29-3.61-17.05-9.14-23.29-16.57,3.46.55,10.53,2.3,21.17,5.23,5.56,1.54,12.95,1.97,22.17,1.32,7.6-.55,13.86-2.6,18.79-6.16,5.22-3.76,9.55-8.82,13.01-15.18,2.2-4.02,3.46-8.69,3.74-13.97.31-5.96.23-10.84-.22-14.64-1.18-9.97-8.43-19.27-16.22-26.74-4.32-4.16-10.83-5.89-16.27-7.93-.58-.22-.48-1.08.13-1.16l3.82-.5c.13-.02.25-.08.33-.18.43-.45.5-1.16.18-2.15l13.03,1.11c.35.03.68.13.99.28l20.53,10.15h0Z"/>
  <path class="cls-42" d="M350.36,482.47l8.23,10.15c.46.56.41,1.39-.08,1.9-.51.53-1.34.58-1.92.13-11.66-9.04-25.15-10.28-40.16-9.78-.25.02-.46-.2-.46-.45v-.02c-.02-.2.15-.36.35-.38,9.69-.4,19.32.05,28.94,1.36.88-.58.96-1.36.26-2.32-.33-.48-.73-.91-1.21-1.29-11.16-5.48-26.64-6.22-38.51-5.18-.2.02-.4-.08-.5-.26l-.28-.48c-.2-.35.02-.78.4-.83,15.81-2.28,30.79.2,44.95,7.45h0Z"/>
  <path class="cls-48" d="M311.27,565.79c7.17.68,17.38.43,30.64-.75,8.2-.73,14.68-3,19.44-6.82,15.21-12.2,23.72-28.23,25.53-48.11t.02-.02s.02,0,.02.02l.15,1.56s.02.07.03.08c.08.07.08.1.03.1-.08,0-.15-.1-.13-.2.66-14.39-3.94-25.38-13.82-32.95-.12-1.47.74-2,2.62-1.57,17.25,3.87,29.39,19.01,34.65,35.05.15.46.25.93.3,1.41.46,3.82.79,8.23,1.01,13.23.88,20.63-10.3,38.79-28.39,48.44-5.45,2.9-11.84,4.52-19.14,4.87-12.88.63-22.25.65-34.14-3.73-3.63-1.34-8.28-2.96-13.94-4.9-1.34-.45-2.65-1.27-3.94-2.48-.35-.33-.22-.91.25-1.03,1.04-.28,1.95-.28,2.75-.03.22.07.33.08.38.05.03-.02.02-.08-.02-.1l-4.29-2.12M337.93,573.16c14.47,5.35,28.19,1.44,38.91-9.29,5.55-5.56,10.13-11.34,13.72-17.33,5.48-9.09,10.46-25.35,6.79-35.99-.13-.38-.53-.61-.93-.51-.41.1-.68.5-.81,1.21-.08.36-.26.68-.53.91-5.68,4.7-6.11,10.58-9.67,20.13-4.44,11.94-11.13,21.51-20.08,28.71-8.63,6.94-15.74,8.76-27.37,11.62-.28.07-.3.45-.03.55h0Z"/>
  <path class="cls-40" d="M344.3,481.77c.48.38.88.81,1.21,1.29.7.96.61,1.74-.26,2.32-7.47-2.1-16.04-2.81-25.71-2.15-6.14.41-11.44,2.19-15.86,5.31-7.45,5.28-12.86,12.07-16.22,20.4l-2.47,5.94c-.12.28-.41.43-.71.35-.28-.07-.48-.35-.45-.65.45-4.55,1.44-8.99,3.01-13.31,5.83-16.06,17.25-23.77,34.29-23.16,7.91.28,15.65,1.51,23.18,3.66h0Z"/>
  <path class="cls-50" d="M648.76,671.65l-1.32.61c-1.34-.35-2.65-.45-3.91-.3-6.32.79-12.65,1.54-18.99,2.24-13,1.42-26.75,1.42-40.18,2.05l-4.49.15-5.84.07c-.33-.22-.7-.25-1.11-.1l-65.36-2.24c-.25-.4-.7-.5-1.34-.28l-2.42-.28c-.45-.35-1.01-.41-1.69-.18l-20.26-.23h7.75c.2,0,.35-.15.35-.33l.02-.55c.02-.2-.13-.35-.33-.36l-60.13-1.94c-.08-.02-.15-.03-.2-.08-.68-.48-1.94-.78-3.79-.86-15.6-.78-27-.45-43.56-1.59-9.04-.61-18.19-.79-27.47-.51-5.84.18-11.72-.12-17.63-.88-10.53-1.37-21.44.12-33.84-1.82-2.3-.35-5.63-.53-9.98-.55-14.75-.02-26.19-.31-34.3-.89-10.18-.73-17.04-1.09-20.58-1.09-12.55.03-22.73-1.54-35.31-1.37-2.95.03-10.53-.28-22.76-.94-17.02-.93-41.7-1.97-74.07-3.13-1.66-.07-3.33-.15-5-.23-10.05-.51-18.86-1.42-26.42-2.73-5.5-.94-13.06-3.48-22.68-7.63-2.83-1.23-5.98-3-9.44-5.3-3.01-2-5.99-4.06-8.96-6.13,12.15,1.54,23.97,3.46,36.36,4.59,5.76.53,11.54,2.23,17.98,2.62,10.45.61,20.91,1.11,31.42,1.46,28.46.96,51.74,2.6,79.96,3.46,10.89.35,27.09,1.01,48.57,2,29.52,1.36,66.84,2.81,111.95,4.39,37.45,1.31,71.37,2.55,101.77,3.76,26.03,1.04,51.67,1.85,76.93,2.45,18.69.43,37.02,1.11,55.43-.33,4.82-.38,9.45-1.09,13.89-2.15,2.93-.71,7.25-1.42,12.93-2.17.6-.08,1.18-.25,1.72-.51,4.4-2.05,9.06-4.01,13.97-5.84,5.05-1.89,9.42-4.34,13.13-7.33,11.52-9.3,17.85-15.66,23.99-28.24,9.27-19.01,13.39-41.22,7.23-61.8-.28-.96-.2-1.99.23-2.88l1.34-2.72c.5-1.01,1.97-.89,2.3.18l4.57,14.64c.08.28.43.36.63.15,13.86-14.92,25.74-32.2,19.62-52.33-2.05-6.74-4.52-13.31-7.4-19.72,2.38,2.05,3.94,4.62,4.65,7.7.26,1.16.79,2.32,1.59,3.49,1.74,2.6,2.8,4.09,3.15,4.44.38.4.65.91.73,1.47.73,5.1,5.4,11.61,7.14,16.46,3.56,9.98,6.11,18.08,7.68,24.32,1.92,7.65,2.81,16.13,2.68,25.41-.18,13.1-1.56,24.11-4.09,33-4.55,16.01-15.05,33.05-28.91,43.66-10.07,7.7-19.67,13.33-28.81,16.87-4.77,1.84-12.7,3.43-18.03,5.71-.45.2-.79.61-1.06,1.24h0Z"/>
  <path class="cls-50" d="M337.93,573.16c-.26-.1-.25-.48.03-.55,11.62-2.86,18.74-4.69,27.37-11.62,8.96-7.2,15.65-16.77,20.08-28.71,3.56-9.55,3.99-15.43,9.67-20.13.26-.23.45-.55.53-.91.13-.71.4-1.11.81-1.21.4-.1.79.13.93.51,3.68,10.65-1.31,26.9-6.79,35.99-3.59,5.99-8.18,11.77-13.72,17.33-10.71,10.73-24.44,14.64-38.91,9.29h0Z"/>
  <path class="cls-51" d="M134.09,588.21c7.6-.08,16.27,1.16,22.57,1.41,21.77.88,42.3,1.57,61.55,2.05,2.86.07,5.58.22,8.15.43,11.06.96,22.15.93,35.38,1.16,13.77.22,27.17,1.64,40.84,1.27,2.14-.05,8.66.36,19.6,1.24,14.44,1.16,34.17.66,43.57,1.26,8.08.51,16.06.78,23.92.79,17.53.05,32.1.43,43.74,1.16,14.9.94,30.89.61,46.82,1.67,13.68.91,29.01.35,44.95.88,5.65.18,13.05-.1,22.2-.83,4.72-.38,8.82-1.36,12.35-2.93,12.38-5.53,23.11-14.25,32.18-24.35,5.41-7.53,9.3-16.59,11.69-27.18,3.03,3.61,2.95,8.86-.26,15.74-1.08,2.3-4.88,8.46-11.44,18.51-.31.46-.68.88-1.09,1.24l-17.37,15.17c-.12.1-.23.18-.36.26-9.75,5.12-20.41,7.65-32.02,7.57-25.08-.15-50.45-.18-75.16-1.08-51.85-1.89-103.87-3.66-156.07-5.31-12.3-.38-29.37-.94-51.17-1.67-29.5-.98-59.05-1.99-88.64-3.05-11.64-.41-23.26-1.29-34.85-2.6-.23-.02-.46-.12-.65-.28-.68-.65-.83-1.49-.43-2.53h0Z"/>
  <path class="cls-41" d="M591.93,573.42c-9.07,10.1-19.8,18.82-32.18,24.35-3.53,1.57-7.63,2.55-12.35,2.93-9.16.73-16.56,1.01-22.2.83-15.94-.53-31.27.03-44.95-.88-15.93-1.06-31.92-.73-46.82-1.67-11.64-.73-26.21-1.11-43.74-1.16-7.86-.02-15.84-.28-23.92-.79-9.4-.6-29.14-.1-43.57-1.26-10.94-.88-17.47-1.29-19.6-1.24-13.68.36-27.07-1.06-40.84-1.27-13.23-.23-24.32-.2-35.38-1.16-2.57-.22-5.28-.36-8.15-.43-19.25-.48-39.78-1.18-61.55-2.05-6.29-.25-14.97-1.49-22.57-1.41-12.67-1.08-20.88-2.2-31.27-8.64-.48-.3-.26-1.03.3-1.01l5.89.17c.58.02.93-.63.6-1.11-.7-1.01-1.77-2-3.24-2.98l24.19,8c.5.17,1.01.25,1.52.25,2.9-.02,6.39.36,10.51,1.14,5.33,1.01,12.15,1.46,20.45,1.34l6.62.4,40.98,1.54-12.7.3-19.83-.66s-.07.03-.05.05c.02.02.02.05.02.07.03.07.12.12.18.12l19.68.43,36.03.76c28.01.55,56.02,1.27,84.05,2.22,14.85.5,22.63.75,23.31.76,22.4.18,44.15,3.33,66.42,3.81,21.44.48,45.08,3.33,68.28,3.54,24.49.22,41.97.25,52.45.1,13.56-.18,26.24-2.52,38.05-7.02,9.67-3.68,17-12.04,25.41-18.34h0Z"/>
  <path class="cls-38" d="M314.65,666.72l65.73,2.2,2.85.15,4.11.68c.15.03.31.05.46.05l94.05,3.36,20.26.23c.5.18,1.06.25,1.69.18l2.42.28,1.34.28,65.36,2.24,1.11.1,5.84-.07,13.82.12,13.96-.03,4.45.03,2.62-.03,2.4.12c7.28-.58,14.57-1.41,21.87-2.47,1.46-.22,4.27-.84,8.44-1.87l1.32-.61c.78.05,1.27.03,1.46-.02,5.89-1.77,11.72-3.71,17.47-5.84,12.63-4.67,23.94-11.52,33.89-20.58,5.38-4.88,10.3-10.38,14.77-16.49,9.82-10.45,15.1-23.82,15.81-40.13.02-.25.36-.3.45-.07,5.65,15.45-2.38,35.84-9.87,48.62-23.67,40.51-60.35,52.28-105.46,54-17,.65-31.41.6-43.24-.15-39.45-2.48-62.03-3.96-67.73-4.42-22.57-1.85-37.23-2.93-58.54-3.38-70.74-1.49-146.4-3.77-227-6.87-33.51-1.27-75.63-4.49-99.96-6.39-10.3-.81-19.72-2.75-28.26-5.84-1.16-.41-1.64-1.8-.99-2.85.83-1.34,2.6-1.97,5.31-1.85,17.2.71,39.73,1.89,67.61,3.56,10.41.63,20.51.07,30,.98,11.08,1.06,23.91.91,33.79,1.34,9.97.45,34.77,1.34,74.4,2.72,4.07.15,8.06-.28,11.99-1.27h0Z"/>
  <path class="cls-46" d="M169.66,585.76l-6.62-.4c19.62-1.18,39.22-.84,58.79,1.03.18.02.31.17.31.35l-.02.51s-.02.05-.05.05l-52.42-1.54h0Z"/>
  <path class="cls-46" d="M197.93,587.6l-19.68-.43c-.07,0-.15-.05-.18-.12,0-.02,0-.05-.02-.07-.02-.02.02-.05.05-.05l19.83.66h0Z"/>
  <polygon class="cls-46" points="233.96 588.36 197.93 587.6 210.63 587.3 233.96 588.36 233.96 588.36"/>
  <path class="cls-46" d="M49.08,631.8c4.59,1.19,8.48,2.73,11.67,4.64.46.28,1.06.07,1.24-.45l.03-.07c.1-.25-.02-.51-.26-.63-7.38-3.2-16.16-5.5-22.86-9.72-5.88-3.69-11.24-7.81-16.09-12.35-.12-.12-.13-.3-.03-.41l.02-.02c.1-.12.28-.15.41-.05,13.05,9.83,21.41,16.04,37.96,17.91,19.62,2.22,32.75,2.2,50.03,2.75.25.02.46.23.45.48v.02c-.02.22-.2.4-.41.4-18.23-.22-29.47-.26-33.72-.17-3.64.08-7.7.79-12.15,2.17-.71.22-1.46.3-2.19.23-5.4-.45-10.23-1.67-14.49-3.64-.28-.13-.4-.45-.3-.73s.4-.45.7-.36h0Z"/>
  <path class="cls-43" d="M33.5,634.23c2.96,2.07,5.94,4.12,8.96,6.13,3.46,2.3,6.61,4.07,9.44,5.3,9.62,4.16,17.18,6.69,22.68,7.63,7.57,1.31,16.37,2.22,26.42,2.73,1.67.08,3.34.17,5,.23,32.37,1.16,57.05,2.2,74.07,3.13,12.23.66,19.82.98,22.76.94,12.58-.17,22.76,1.41,35.31,1.37,3.54,0,10.4.36,20.58,1.09,8.11.58,19.55.88,34.3.89,4.35.02,7.68.2,9.98.55,12.4,1.94,23.31.45,33.84,1.82,5.91.76,11.79,1.06,17.63.88,9.27-.28,18.43-.1,27.47.51,16.56,1.14,27.96.81,43.56,1.59,1.85.08,3.11.38,3.79.86.05.05.12.07.2.08l60.13,1.94c.2.02.35.17.33.36l-.02.55c0,.18-.15.33-.35.33h-7.75l-94.05-3.36c-.15,0-.31-.02-.46-.05l-4.11-.68-2.85-.15-65.73-2.2-147.88-6.8-4.42-.02c-6.44.23-12.85.12-19.22-.35-11.18-.81-16.92-1.21-17.23-1.21-1.34.05-7.09.02-17.27-.08-7.83-.08-15.79-1.77-23.89-1.67-.98.02-1.94-.17-2.83-.51-2.45-.98-5.93-.89-9.04-1.57-11.51-2.5-22.25-7.02-32.22-13.53-8.63-5.65-16.11-12.1-22.42-19.37l15.26,12.63h0Z"/>
  <polygon class="cls-47" points="166.77 659.91 162.35 659.89 166.77 659.91 166.77 659.91"/>
  <polygon class="cls-47" points="383.23 669.07 380.38 668.92 383.23 669.07 383.23 669.07"/>
  <path class="cls-43" d="M647.44,672.26c-4.17,1.03-6.99,1.66-8.44,1.87-7.3,1.06-14.59,1.89-21.87,2.47-.78-.18-1.57-.23-2.4-.12l-2.62.03-4.45-.03-13.96.03-9.34-.26c13.43-.63,27.18-.63,40.18-2.05,6.34-.7,12.67-1.44,18.99-2.24,1.26-.15,2.57-.05,3.91.3h0Z"/>
  <path class="cls-47" d="M503.8,673.57c-.63.07-1.19,0-1.69-.18.68-.23,1.24-.17,1.69.18h0Z"/>
  <path class="cls-47" d="M507.56,674.13l-1.34-.28c.65-.22,1.09-.12,1.34.28h0Z"/>
  <path class="cls-47" d="M574.03,676.47l-1.11-.1c.41-.15.78-.12,1.11.1h0Z"/>
  <polygon class="cls-47" points="584.36 676.25 593.7 676.52 579.88 676.4 584.36 676.25 584.36 676.25"/>
  <polygon class="cls-47" points="612.11 676.52 607.66 676.48 612.11 676.52 612.11 676.52"/>
  <path class="cls-47" d="M617.13,676.6l-2.4-.12c.83-.12,1.62-.07,2.4.12h0Z"/>
</svg>