<?xml version="1.0" encoding="UTF-8"?>
<svg id="Layer_1" data-name="Layer 1" xmlns="http://www.w3.org/2000/svg" xmlns:xlink="http://www.w3.org/1999/xlink" viewBox="0 0 715.25 752.48">
  <defs>
    <style>
      .cls-1 {
        fill: url(#linear-gradient-2);
      }

      .cls-2 {
        fill: url(#linear-gradient-3);
      }

      .cls-3 {
        fill: url(#linear-gradient);
      }
    </style>
    <linearGradient id="linear-gradient" x1="226.04" y1="343.92" x2="488.06" y2="436.46" gradientUnits="userSpaceOnUse">
      <stop offset="0" stop-color="#09ffed"/>
      <stop offset="1" stop-color="#3f75ff"/>
    </linearGradient>
    <linearGradient id="linear-gradient-2" x1="267.82" y1="304.03" x2="519.67" y2="392.97" xlink:href="#linear-gradient"/>
    <linearGradient id="linear-gradient-3" x1="17.22" y1="711.2" x2="647.5" y2="82.77" xlink:href="#linear-gradient"/>
  </defs>
  <g>
    <path class="cls-3" d="M372.88,446.32h0c-10.62,0-19.99-6.96-23.06-17.13l-1.25-4.13c-.08-.28-.34-.47-.63-.47h-52.87c-.29,0-.55.19-.63.47l-1.42,4.71c-2.96,9.83-12.01,16.55-22.28,16.55h0c-16.16,0-27.41-16.08-21.86-31.26l34.97-95.67c5.92-16.2,21.33-26.97,38.57-26.97h0c17.25,0,32.67,10.79,38.58,26.99l34.5,94.56c5.73,15.71-5.9,32.34-22.63,32.34ZM320.99,335.82l-15.89,53.51c-.13.42.19.84.63.84h31.55c.44,0,.75-.42.63-.84l-15.67-53.51c-.08-.28-.34-.47-.63-.47h0c-.29,0-.55.19-.63.47Z"/>
    <path class="cls-1" d="M452.82,446.32h0c-13.66,0-24.74-11.08-24.74-24.74v-104.42c0-13.66,11.08-24.74,24.74-24.74h0c13.66,0,24.74,11.08,24.74,24.74v104.42c0,13.66-11.08,24.74-24.74,24.74Z"/>
  </g>
  <path class="cls-2" d="M692.67,626.65c-.28-.26-.57-.5-.86-.76-7.38-6.37-16.19-11.16-25.92-13.69-5.42-1.41-10.82-2.19-16.12-2.38-.41-.02-.81-.02-1.22-.02-24.72.02-46.55,12.77-58.82,35.59-1.7,3.16-3.5,5.11-5.77,6.23-.05.02-.11.05-.16.08-1.77.97-3.94,1.38-6.86,1.3-4.82-.15-9.65-.26-14.49-.32h-.32c-14.65-.15-29.3-.06-43.94.21-1.22.02-2.25-.02-3.13-.18-.06,0-.11,0-.16-.02-3.81-.42-5.11-2.42-5.11-6.83.06-33.25.05-66.51-.15-99.74-.03-4.36,1.39-5.95,5.32-6.12.78-.13,1.7-.16,2.76-.15,1.74.03,3.47.1,5.22.15,6.52-.02,13.06-.13,19.51-.75,9.12-.88,17.31-3.8,24.2-8.35.02-.02.03-.03.05-.03,10.8-7.28,18.2-18.52,21.4-32.62.54-2.69.89-5.5,1.04-8.37.21-4.15.37-7.2.78-9.44.31-4.79,2.01-6.52,7.9-6.41,5.43.11,10.87.19,16.3.26,9.83.03,19.68.1,29.51.08,6.62-.05,13.25-.15,19.87-.29,7.15-.16,8.63,2.43,8.42,8.81-.39,12.15-.57,24.35-.02,36.48.44,9.77,4.36,16.77,10.59,20.21.34.19.7.36,1.07.52,2.09.92,4.41,1.52,6.94,1.77.03.02.06.02.1.02.57.05,1.15.06,1.75.06,1.8,0,3.55-.21,5.22-.62.26-.05.52-.13.78-.21,8.03-2.4,14.73-9.7,15.07-18.95.78-20.24,1.22-40.62-.26-60.78-.28-3.63-.96-6.93-2.03-9.86-.02-.05-.05-.1-.06-.15-2.3-5.14-5.47-9.29-9.49-12.39-.08-.05-.18-.11-.26-.18-6.2-4.22-14.71-6.33-25.29-6.44-4.87-.05-9.73-.1-14.6-.11-.13-.02-.24-.02-.37,0-21.15-.08-42.34-.03-63.51.23-4.25.05-6.44-.76-7.25-3.28-.02-.02-.02-.03-.02-.05-.62-1.33-.78-3.15-.63-5.55.52-8.08.29-16.2.02-24.32-.19-5.32,1.91-6.54,7.07-6.5,24.33.23,48.68.24,73.01.21,6.42-.02,12.86-.03,19.29-.06,6.68-.26,12.78-2.21,17.41-7.4,5.94-6.67,7.15-14.5,3.6-22.61-3.23-7.36-8.61-12.02-16.14-13.24-.94-.13-1.9-.23-2.87-.28-.39-.03-.79-.05-1.2-.05-2.37,0-4.75,0-7.12-.02-21.01.05-42.03-.03-63.04.03h-.49c-6.99.03-14,.1-20.99.19-.92.02-1.75-.02-2.5-.1-.06,0-.13-.02-.19-.02-4.77-.37-6.54-2.34-6.03-8.43.73-8.86.42-17.83.1-26.75-.19-5.35,1.7-7.09,6.63-7.19.58-.05,1.22-.05,1.88-.05,6.78.08,13.56.13,20.34.16,18.14.08,36.27.02,54.41-.03,2,0,3.99-.02,5.99-.03.28,0,.55-.02.83-.02,10.46-.34,18.38-2.85,23.94-7.72.39-.34.78-.7,1.15-1.07.37-.37.73-.75,1.09-1.15,5.24-5.92,7.77-14.58,7.85-26.15.11-15.67.32-31.36,0-47.03-.23-10.97-5.21-17.78-13.87-20.67-2.22-.75-4.33-1.2-6.36-1.38h-.08c-.36,0-.73.02-1.09.03-5.42.32-9.86,1.91-13.24,4.72-.05.03-.1.08-.15.13-.29.24-.58.5-.86.78-.23.21-.44.44-.67.67-3.52,3.78-5.5,9.2-5.73,16.09-.02.42-.03.86-.03,1.28-.08,8.76-.23,17.53-.16,26.31.02,1.88.06,3.76.13,5.64.08,2.35-.19,4.04-.94,5.21-.06.11-.13.23-.23.32-.99,1.43-2.84,2.06-6.08,2.01-7.72-.15-15.46-.23-23.18-.28-11.35,0-22.73.06-34.08.1-3.08.03-6.15.08-9.23.13-6.78.11-9.05-2.19-8.68-8.82.49-8.53-.52-16.38-3.15-23.44-.05-.13-.1-.28-.16-.41-6.26-14.99-19.22-26.31-35.99-30.61-6.31-1.44-12.88-1.8-19.58-1.75-1.7.02-3.26.02-4.69.02h-.13c-2.43.08-4.87.16-7.3.21-5.4.1-7.14-1.33-7.49-5.52v-.02c-1.01-3.07-.99-7.88-.97-15.44.03-26.49.29-52.99.06-79.48-.06-6.86,1.87-9.39,9.16-9.18,4.12.11,8.26.21,12.38.28,14.91.1,29.81.05,44.72-.32,2.03-.05,3.8.06,5.37.42,3.88.16,5.86,1.77,7.67,5.42.02,0,.02.02.02.02.47.67.94,1.41,1.4,2.22,5.63,10.11,12.88,18.2,21.18,24.14.28.21.57.41.84.58,11.34,7.61,24.66,11.47,38.28,11.05h.13c6.67-.32,13.43-1.67,20.18-4.12,26.85-9.77,44.15-35.14,44.15-63.51,0-.42-.02-.86-.02-1.31-.37-10.74-3.36-21.54-9.23-31.49-2.97-5.03-6.31-9.51-9.98-13.43-.02-.02-.03-.03-.05-.05-10.43-10.25-24.49-17.26-40.55-19.27-2.98-.37-6.07-.5-9.21-.41-.06-.02-.15,0-.21.02-14.44.55-30.07,6.25-42.14,17.68-.06.06-.13.13-.19.19-6.13,6.2-11.18,13.87-15.15,22.79-.19.44-.39.86-.58,1.25-.08.16-.13.32-.19.49-1.83,4.95-4.36,5.99-8.55,6.07-.91.11-1.88.15-2.97.13-5.27-.1-10.53-.16-15.8-.19-17.86-.06-35.7-.05-53.56,0-25.87.06-38.27,12.25-38.41,38.1-.19,35.15-.23,70.29-.05,105.44.03,5.6-1.56,7.43-7.3,7.36h-.13c-1.07.13-2.3.18-3.73.13-4.54-.13-9.1-.23-13.66-.29h-.13c-18.72-.1-37.44-.03-56.14.18h-.28c-.39,0-.78.02-1.17.02-6.54.11-8.11-2.01-7.98-8.26.37-18.64.41-37.31-.03-55.95-.15-6.08,2.17-8.55,7.32-11.34,23-12.44,37.36-31.34,37.52-58.2.05-8.82-1.2-17.03-3.8-24.49-.84-2.09-1.82-4.14-2.89-6.16C403.94,13.2,381.16.15,357.63,0c-23.54.15-46.31,13.2-58.38,35.85-1.07,2.03-2.04,4.07-2.89,6.16-2.61,7.46-3.86,15.67-3.81,24.49.18,26.86,14.53,45.76,37.52,58.2,5.16,2.79,7.48,5.26,7.33,11.34-.45,18.64-.42,37.31-.03,55.95.13,6.24-1.44,8.37-8,8.26-.39,0-.76-.02-1.15-.02h-.28c-18.7-.21-37.42-.28-56.14-.18h-.13c-4.56.06-9.12.16-13.66.29-1.43.05-2.68,0-3.75-.13h-.11c-5.76.06-7.33-1.77-7.3-7.36.18-35.15.15-70.29-.06-105.44-.15-25.86-12.52-38.04-38.4-38.1-17.86-.05-35.72-.06-53.56,0-5.27.03-10.53.1-15.8.19-1.07.02-2.06-.02-2.95-.13-4.2-.08-6.75-1.1-8.56-6.07-.06-.16-.11-.32-.19-.49-.19-.39-.39-.81-.58-1.25-3.97-8.92-9.02-16.59-15.15-22.79-.06-.06-.13-.13-.19-.19C99.32,7.15,83.68,1.46,69.25.91c-.08,0-.15,0-.21-.02-3.15-.1-6.23.03-9.21.41-16.01,2-30.01,8.95-40.44,19.14-3.73,3.96-7.12,8.52-10.14,13.61C3.05,44.53.08,55.98,0,67.29c.16,28.21,17.45,53.35,44.15,63.07,6.75,2.45,13.51,3.8,20.18,4.12h.13c13.63.42,26.94-3.44,38.28-11.05.29-.19.57-.39.84-.58,8.31-5.94,15.56-14.03,21.18-24.14.45-.81.92-1.56,1.39-2.22,0-.02.02-.02.02-.02,1.8-3.65,3.8-5.26,7.67-5.42,1.57-.36,3.34-.47,5.37-.42,14.89.37,29.8.42,44.71.32h.02c4.12-.06,8.26-.16,12.38-.28,7.3-.21,9.23,2.32,9.16,9.18-.23,26.49.03,52.99.06,79.48.02,7.53.02,12.34-.97,15.41v.03c-.36,4.2-2.09,5.63-7.49,5.53-2.43-.05-4.87-.13-7.3-.21h-.13c-1.43,0-2.98,0-4.69-.02-6.7-.05-13.27.31-19.58,1.75-16.76,4.28-29.7,15.59-35.98,30.53-.06.16-.13.32-.19.49-2.61,7.06-3.62,14.89-3.13,23.44.37,6.63-1.9,8.94-8.68,8.82-3.08-.05-6.15-.1-9.23-.13-11.35-.03-22.73-.1-34.08-.1-7.74.05-15.47.13-23.2.28-3.24.05-5.09-.58-6.08-2.03-.08-.08-.13-.18-.18-.28-.78-1.15-1.07-2.85-.99-5.24.06-2.21.13-4.41.15-6.62.05-8.47-.08-16.93-.16-25.39,0-.41-.02-.83-.03-1.23-.23-6.89-2.21-12.31-5.73-16.09-.21-.23-.42-.44-.67-.67-.28-.28-.57-.54-.86-.78-.05-.05-.1-.08-.15-.13-3.37-2.81-7.83-4.4-13.24-4.72-.37-.02-.73-.03-1.1-.03h-.06c-2.01.18-4.14.63-6.36,1.38-8.66,2.89-13.64,9.7-13.87,20.67-.32,15.67-.11,31.36,0,47.03.08,11.57,2.61,20.23,7.85,26.15.36.41.71.78,1.09,1.15.37.37.76.73,1.15,1.07,5.56,4.87,13.46,7.38,23.93,7.72.28.02.54.02.81.02,2.01.02,4.02.03,6.03.03,18.12.05,36.25.11,54.37.03,6.78-.03,13.56-.08,20.34-.16.67,0,1.28,0,1.87.05,4.95.1,6.85,1.82,6.67,7.19-.32,8.92-.63,17.89.1,26.75.5,6.1-1.27,8.06-6.03,8.43-.05.02-.11.02-.19.02-.75.08-1.57.11-2.5.1-6.99-.1-14-.16-20.99-.19-.16,0-.32-.02-.49,0-21.02-.06-42.03.02-63.04-.03-2.37.02-4.75.02-7.12.02-.42,0-.83.02-1.23.05-.94.05-1.88.13-2.79.28-7.56,1.2-12.96,5.86-16.19,13.24-3.57,8.11-2.34,15.95,3.58,22.61,4.62,5.19,10.74,7.14,17.42,7.4,6.42.03,12.85.05,19.27.06,24.35.03,48.7.02,73.03-.21,5.16-.03,7.27,1.18,7.07,6.5-.28,8.11-.5,16.24.02,24.32.15,2.42-.03,4.23-.65,5.58-.81,2.51-3,3.34-7.25,3.29-21.17-.26-42.34-.31-63.51-.23h-.39c-4.87.02-9.72.06-14.58.11-10.87.11-19.55,2.34-25.78,6.8-3.91,3.07-7.01,7.15-9.26,12.21-.03.05-.05.1-.06.15-1.07,2.94-1.75,6.23-2.03,9.86-1.49,20.16-1.04,40.54-.28,60.78.36,9.25,7.06,16.55,15.09,18.95.26.08.5.15.78.21,1.67.41,3.42.62,5.22.62.6,0,1.18-.02,1.75-.06.03,0,.06,0,.1-.02,2.53-.24,4.85-.84,6.94-1.77.16-.06.32-.15.49-.23,6.57-3.31,10.72-10.45,11.18-20.5.54-12.13.37-24.33-.02-36.48-.21-6.37,1.27-8.97,8.42-8.81,6.62.15,13.25.24,19.87.29,9.83.02,19.68-.05,29.51-.08,5.43-.06,10.87-.15,16.3-.26,5.95-.11,7.61,1.65,7.92,6.57.39,2.22.54,5.22.75,9.28.13,2.51.42,4.96.84,7.35.03.21.08.41.11.6,2.97,13.51,9.78,24.43,19.72,31.81.58.42,1.18.86,1.8,1.27,6.89,4.56,15.1,7.48,24.22,8.35,6.47.62,12.99.73,19.51.75,1.75-.05,3.49-.11,5.22-.15,1.05-.02,1.98.02,2.76.15,3.93.16,5.35,1.75,5.32,6.12-.19,33.24-.21,66.49-.15,99.74,0,4.41-1.3,6.41-5.11,6.83-.05.02-.1.02-.16.02-.88.16-1.91.19-3.13.18-14.65-.28-29.3-.36-43.94-.21h-.32c-4.83.06-9.67.18-14.49.32-2.92.08-5.09-.32-6.86-1.3-.06-.03-.11-.05-.16-.08-2.27-1.12-4.09-3.07-5.77-6.23-12.26-22.82-34.1-35.57-58.83-35.59-.39,0-.79,0-1.2.02-5.3.19-10.71.97-16.14,2.38-9.77,2.55-18.59,7.36-25.99,13.76-.28.24-.55.49-.81.73-10.32,9.52-17.84,22.48-20.96,37.31-3.21,15.23-.45,30.92,6.7,44.24.13.24.26.47.39.7.34.63.7,1.27,1.09,1.9,9.78,16.14,26.36,27.88,46.68,31.74.29.05.57.11.86.16,6.33.94,12.65.97,18.78.16.23-.02.47-.05.71-.1,17.84-2.87,34.47-13.63,44.84-29.57.83-1.41,1.61-2.87,2.32-4.38.91-1.88,1.82-3.55,2.79-5.01,0-.02,0-.03.02-.03.34-.76.68-1.54.99-2.34,2.21-5.56,5.06-6.96,10.67-6.88.92.02,1.85.02,2.77.03,2.24-.28,4.7-.31,7.46-.16,2.14.11,4.3.21,6.44.28.08,0,.15.02.21,0,14.26.08,28.52.03,42.79-.02,3.78-.06,7.58-.13,11.35-.18,1.82-.02,3.58-.11,5.27-.29,5.22-.58,9.81-1.77,13.77-3.54.37-.18.76-.36,1.12-.54.24-.11.49-.24.71-.37,10.67-5.79,16.3-16.77,16.43-32.47.15-17.83.03-35.67.03-53.51h.06c0-18.38.32-36.77-.16-55.15-.18-6.89,2.14-8.73,8.69-8.65,9.31.13,18.62.19,27.95.23h1.75c14.66-.03,29.33-.16,44.01-.37,6.23-.08,8.35,1.75,8.24,8.27-.39,22.43-.36,44.87.06,67.3.11,6.54-1.83,10.01-7.93,12.75-24.88,11.18-40.07,38.27-36.79,65.48,1.05,8.78,3.37,16.71,6.91,23.73,3.46,6.29,8.09,12.17,13.95,17.34,5.13,4.53,10.5,8.22,16.06,11.05,1.35.62,2.74,1.22,4.15,1.77,8.11,3.21,16.09,4.82,23.86,4.91,7.77-.1,15.75-1.7,23.86-4.91,1.4-.55,2.76-1.14,4.09-1.74,5.58-2.82,10.97-6.54,16.12-11.08,5.86-5.17,10.5-11.05,13.95-17.34,3.54-7.02,5.86-14.96,6.91-23.73,3.26-27.22-11.91-54.31-36.81-65.48-6.08-2.74-8.03-6.21-7.92-12.75.42-22.43.45-44.87.06-67.3-.11-6.52,2.01-8.35,8.24-8.27,14.66.21,29.33.34,44.01.37h1.75c9.31-.03,18.64-.1,27.95-.23,6.55-.08,8.87,1.75,8.69,8.65-.49,18.38-.18,36.77-.18,55.15h.08c0,17.84-.13,35.69.03,53.51.13,15.7,5.76,26.68,16.43,32.47.23.13.47.26.71.37.36.18.75.36,1.12.54,3.97,1.77,8.58,2.95,13.82,3.54,1.67.18,3.41.28,5.21.29,3.78.05,7.58.11,11.35.18,14.27.05,28.55.1,42.81.02h.21c2.14-.06,4.3-.16,6.44-.28,2.76-.15,5.22-.11,7.46.16.92-.02,1.85-.02,2.77-.03,5.61-.08,8.45,1.31,10.67,6.88.31.79.65,1.57.99,2.34t.02.03c.97,1.46,1.88,3.13,2.79,5.01.71,1.51,1.49,2.97,2.32,4.38,10.37,15.93,26.94,26.68,44.75,29.57.26.03.5.08.73.1,6.13.81,12.46.78,18.77-.16.31-.05.62-.1.92-.16,20.34-3.86,36.92-15.6,46.7-31.74.39-.63.75-1.27,1.09-1.9.15-.24.28-.47.39-.7,7.15-13.32,9.91-29,6.7-44.24-3.11-14.84-10.66-27.82-20.99-37.34ZM625.6,59.47c.06-.23.15-.45.23-.67,2.55-7.45,8.65-13.12,16.43-15.22.19-.05.37-.11.57-.15.37-.11.75-.19,1.14-.26.03-.02.06-.03.1-.02,1.43-.31,2.89-.47,4.38-.49.19,0,.39,0,.58.02.1-.02.18-.02.28,0,.39,0,.76.02,1.14.05.34.02.67.03.99.06.79.06,1.57.18,2.34.34.37.06.75.15,1.12.24.03.02.08.02.13.03.39.08.76.18,1.14.31.31.08.62.18.92.29.6.19,1.2.42,1.78.68,8.69,3.68,14.53,12.05,14.45,22.13-.02,1.77-.21,3.5-.55,5.16-1.64,9.72-8.18,16.61-17.57,18.7-2.06.55-4.25.84-6.5.84-14.32-.02-24.35-10.11-24.36-24.56,0-2.6.44-5.13,1.28-7.51ZM66.57,91.54c-2.25,0-4.44-.29-6.5-.84-9.39-2.09-15.93-8.99-17.57-18.7-.34-1.65-.54-3.39-.55-5.16-.08-10.07,5.76-18.44,14.45-22.13.58-.26,1.18-.49,1.78-.68.31-.11.62-.21.92-.29.37-.13.75-.23,1.14-.31.05-.03.08-.03.13-.03.37-.1.75-.18,1.12-.24.76-.16,1.54-.28,2.34-.34.32-.03.65-.06.99-.06.37-.03.75-.05,1.14-.05h.28c.19-.02.39-.02.58-.02,1.49.02,2.97.18,4.41.49.41.06.81.16,1.2.28.21.05.42.11.63.16,7.77,2.12,13.85,7.8,16.37,15.22.08.21.16.42.21.62.84,2.38,1.3,4.93,1.3,7.54-.03,14.45-10.04,24.54-24.36,24.56ZM66.13,701.3c-1.49-.03-2.95-.21-4.38-.54-.16-.03-.32-.06-.49-.1-10.79-2.14-18.17-10.46-18.98-21.78l-.05-.63c-.08-.78-.1-1.57-.08-2.38.32-13.58,11.4-23.93,25.39-23.72,13.37.19,23.76,10.98,23.57,24.46-.21,14.86-10.51,25.05-24.98,24.69ZM332.73,65.63c-.16-12.3,11.13-23.34,24.04-23.52.29,0,.58,0,.86.02.28-.02.57-.02.86-.02,12.91.18,24.2,11.23,24.04,23.52-.18,12.99-10.88,23.91-23.57,24.01-.44,0-.86,0-1.3-.03h-.08c-.44.03-.86.03-1.3.03-12.67-.1-23.37-11.01-23.55-24.01ZM382.35,686.74c-.05,12.78-10.8,23.1-24.14,23.15-.19,0-.39,0-.58-.02-.19.02-.41.02-.6.02-13.32-.05-24.09-10.37-24.14-23.15-.03-8.94,5.84-17.24,13.93-21.4,3.11-1.77,6.59-2.79,10.12-2.82.23,0,.45,0,.68.02.23-.02.45-.02.68-.02,3.54.03,7.01,1.05,10.12,2.82,8.09,4.15,13.95,12.46,13.92,21.4ZM357.71,497.26h-.18c-56.14,0-112.3,0-168.44.02-.5,0-1.01,0-1.49-.02h-2.74c-11.63,0-16.59-4.95-17.23-16.63-.1-1.88,0-3.78,0-5.68-.03-70.53-.05-141.06-.08-211.59-.02-16.82,4.74-21.67,21.66-21.66,23.24.03,46.47.26,69.72.26,65.79.02,131.6,0,197.41,0,23.24,0,46.47-.23,69.72-.26,16.92-.02,21.67,4.83,21.66,21.66-.05,70.53-.05,141.06-.08,211.59,0,1.9.1,3.8,0,5.68-.63,11.68-5.6,16.63-17.24,16.63h-2.73c-.49.02-.99.02-1.49.02-56.14-.02-112.3-.02-168.46-.02ZM673.01,678.25c0,.21-.02.42-.05.63-.81,11.32-8.21,19.64-18.98,21.78-.16.03-.32.06-.49.1-1.43.32-2.89.5-4.38.54-14.47.36-24.77-9.83-24.98-24.69-.19-13.48,10.2-24.27,23.57-24.46,13.98-.21,25.06,10.14,25.39,23.72.02.81,0,1.61-.08,2.38Z"/>
</svg>