<?xml version="1.0" encoding="UTF-8"?>
<svg id="Layer_1" data-name="Layer 1" xmlns="http://www.w3.org/2000/svg" viewBox="0 0 835.59 391.04">
  <defs>
    <style>
      .cls-1 {
        fill: #0e4788;
      }

      .cls-2 {
        fill: #14181e;
      }

      .cls-3 {
        fill: #19232f;
      }

      .cls-4 {
        fill: #283341;
      }

      .cls-5 {
        fill: #353f4c;
      }

      .cls-6 {
        fill: #212e3e;
      }

      .cls-7 {
        fill: #1c232b;
      }

      .cls-8 {
        fill: #68d1f7;
      }

      .cls-9 {
        fill: #364251;
      }

      .cls-10 {
        fill: #2e3743;
      }

      .cls-11 {
        fill: #050709;
      }

      .cls-12 {
        fill: #485261;
      }

      .cls-13 {
        fill: #27313f;
      }

      .cls-14 {
        fill: #444f5e;
      }

      .cls-15 {
        fill: #4a5564;
      }

      .cls-16 {
        fill: #3f4b59;
      }

      .cls-17 {
        fill: #0e1217;
      }

      .cls-18 {
        fill: #2a3139;
      }

      .cls-19 {
        fill: #4e5866;
      }

      .cls-20 {
        fill: #384758;
      }

      .cls-21 {
        fill: #1d242c;
      }

      .cls-22 {
        fill: #424f5e;
      }

      .cls-23 {
        fill: #323f4e;
      }

      .cls-24 {
        fill: #536273;
      }

      .cls-25 {
        fill: #4d5664;
      }

      .cls-26 {
        fill: #bbeefd;
      }

      .cls-27 {
        fill: #30b6f9;
      }

      .cls-28 {
        fill: #167cc9;
      }

      .cls-29 {
        fill: #212934;
      }

      .cls-30 {
        fill: #097ad0;
      }

      .cls-31 {
        fill: #2e4053;
      }

      .cls-32 {
        fill: #0f1217;
      }

      .cls-33 {
        fill: #0b080f;
      }

      .cls-34 {
        fill: #2c3643;
      }

      .cls-35 {
        fill: #4f5b6a;
      }

      .cls-36 {
        fill: #232734;
      }

      .cls-37 {
        fill: #0b55a1;
      }

      .cls-38 {
        fill: #5f6a79;
      }

      .cls-39 {
        fill: #18222e;
      }

      .cls-40 {
        fill: #545f6e;
      }

      .cls-41 {
        fill: #0f1216;
      }

      .cls-42 {
        fill: #2badf7;
      }

      .cls-43 {
        fill: #55606f;
      }

      .cls-44 {
        fill: #0a72ca;
      }

      .cls-45 {
        fill: #222b37;
      }

      .cls-46 {
        fill: #3ab3ef;
      }

      .cls-47 {
        fill: #1d232b;
      }

      .cls-48 {
        fill: #5e6977;
      }

      .cls-49 {
        fill: #13161b;
      }

      .cls-50 {
        fill: #48505c;
      }

      .cls-51 {
        fill: #5fcdf7;
      }

      .cls-52 {
        fill: #2e3844;
      }

      .cls-53 {
        fill: #202933;
      }

      .cls-54 {
        fill: #0f65b3;
      }

      .cls-55 {
        fill: #516072;
      }

      .cls-56 {
        fill: #101722;
      }

      .cls-57 {
        fill: #272f38;
      }

      .cls-58 {
        fill: #47515d;
      }

      .cls-59 {
        fill: #4c5a6a;
      }

      .cls-60 {
        fill: #495361;
      }

      .cls-61 {
        fill: #3e4856;
      }

      .cls-62 {
        fill: #2e3641;
      }

      .cls-63 {
        fill: #2e3947;
      }

      .cls-64 {
        fill: #444e5c;
      }

      .cls-65 {
        fill: #3d4754;
      }

      .cls-66 {
        fill: #232c38;
      }

      .cls-67 {
        fill: #6f7989;
      }

      .cls-68 {
        fill: #0e1115;
      }

      .cls-69 {
        fill: #222a34;
      }

      .cls-70 {
        fill: #373541;
      }

      .cls-71 {
        fill: #3a4656;
      }

      .cls-72 {
        fill: #222d3b;
      }

      .cls-73 {
        fill: #405469;
      }

      .cls-74 {
        fill: #97e3fa;
      }

      .cls-75 {
        fill: #323d4c;
      }

      .cls-76 {
        fill: #2a9ade;
      }

      .cls-77 {
        fill: #1886db;
      }

      .cls-78 {
        fill: #33404f;
      }

      .cls-79 {
        fill: #1d8bd6;
      }

      .cls-80 {
        fill: #344455;
      }

      .cls-81 {
        fill: #31a5e6;
      }

      .cls-82 {
        fill: #111419;
      }

      .cls-83 {
        fill: #747d8d;
      }

      .cls-84 {
        fill: #384351;
      }

      .cls-85 {
        fill: #a2e7fb;
      }

      .cls-86 {
        fill: #70d4f8;
      }

      .cls-87 {
        fill: #105192;
      }

      .cls-88 {
        fill: #43bdf4;
      }

      .cls-89 {
        fill: #0e4a8e;
      }

      .cls-90 {
        fill: #11151a;
      }

      .cls-91 {
        fill: #0d1322;
      }

      .cls-92 {
        fill: #465262;
      }

      .cls-93 {
        fill: #4f5f72;
      }

      .cls-94 {
        fill: #434c59;
      }

      .cls-95 {
        fill: #1c2532;
      }

      .cls-96 {
        fill: #232b36;
      }

      .cls-97 {
        fill: #2d3540;
      }

      .cls-98 {
        fill: #616c7a;
      }

      .cls-99 {
        fill: #101317;
      }

      .cls-100 {
        fill: #101216;
      }

      .cls-101 {
        fill: #1064b2;
      }

      .cls-102 {
        fill: #49c1f5;
      }

      .cls-103 {
        fill: #151a20;
      }

      .cls-104 {
        fill: #4fc5f6;
      }

      .cls-105 {
        fill: #293544;
      }

      .cls-106 {
        fill: #8ddffa;
      }

      .cls-107 {
        fill: #273a4e;
      }

      .cls-108 {
        fill: #151625;
      }

      .cls-109 {
        fill: #2e3948;
      }

      .cls-110 {
        fill: #455262;
      }

      .cls-111 {
        fill: #37241e;
      }

      .cls-112 {
        fill: #1b2532;
      }

      .cls-113 {
        fill: #303843;
      }

      .cls-114 {
        fill: #445161;
      }

      .cls-115 {
        fill: #070b14;
      }

      .cls-116 {
        fill: #3eb8f2;
      }

      .cls-117 {
        fill: #161d29;
      }

      .cls-118 {
        fill: #84dcf9;
      }

      .cls-119 {
        fill: #57c9f6;
      }

      .cls-120 {
        fill: #262f3b;
      }

      .cls-121 {
        fill: #2c3948;
      }

      .cls-122 {
        fill: #dff9fe;
      }

      .cls-123 {
        fill: #4a5666;
      }

      .cls-124 {
        fill: #2e3b4a;
      }

      .cls-125 {
        fill: #4f5b6b;
      }

      .cls-126 {
        fill: #394452;
      }

      .cls-127 {
        fill: #2d353d;
      }

      .cls-128 {
        fill: #181c24;
      }

      .cls-129 {
        fill: #1b232e;
      }

      .cls-130 {
        fill: #0a0f19;
      }

      .cls-131 {
        fill: #5c6b7c;
      }

      .cls-132 {
        fill: #414954;
      }

      .cls-133 {
        fill: #0f151f;
      }

      .cls-134 {
        fill: #c8f2fd;
      }

      .cls-135 {
        fill: #576372;
      }

      .cls-136 {
        fill: #343e4c;
      }

      .cls-137 {
        fill: #1d242e;
      }

      .cls-138 {
        fill: #222d3a;
      }

      .cls-139 {
        fill: #374455;
      }

      .cls-140 {
        fill: #4b5867;
      }

      .cls-141 {
        fill: #2b343f;
      }

      .cls-142 {
        fill: #5c6675;
      }

      .cls-143 {
        fill: #3c4857;
      }

      .cls-144 {
        fill: #0b2a59;
      }

      .cls-145 {
        fill: #d4f6fe;
      }

      .cls-146 {
        fill: #3d4958;
      }

      .cls-147 {
        fill: #1b212b;
      }

      .cls-148 {
        fill: #79d8f9;
      }

      .cls-149 {
        fill: #28313d;
      }

      .cls-150 {
        fill: #687281;
      }

      .cls-151 {
        fill: #36adec;
      }

      .cls-152 {
        fill: #344151;
      }

      .cls-153 {
        fill: #2a333f;
      }

      .cls-154 {
        fill: #262e38;
      }

      .cls-155 {
        fill: #364353;
      }

      .cls-156 {
        fill: #171b1e;
      }

      .cls-157 {
        fill: #1e262f;
      }

      .cls-158 {
        fill: #434e5d;
      }

      .cls-159 {
        fill: #2e353e;
      }

      .cls-160 {
        fill: #14191f;
      }

      .cls-161 {
        fill: #18202b;
      }

      .cls-162 {
        fill: #aeeafc;
      }

      .cls-163 {
        fill: #1d364e;
      }

      .cls-164 {
        fill: #19222e;
      }

      .cls-165 {
        fill: #6e7988;
      }

      .cls-166 {
        fill: #475260;
      }

      .cls-167 {
        fill: #44505f;
      }

      .cls-168 {
        fill: #0b0e16;
      }

      .cls-169 {
        fill: #56616f;
      }

      .cls-170 {
        fill: #111924;
      }

      .cls-171 {
        fill: #292e44;
      }

      .cls-172 {
        fill: #374352;
      }

      .cls-173 {
        fill: #322f3a;
      }

      .cls-174 {
        fill: #1e242c;
      }

      .cls-175 {
        fill: #444e5a;
      }

      .cls-176 {
        fill: #1e2328;
      }

      .cls-177 {
        fill: #0b0d10;
      }

      .cls-178 {
        fill: #444d5a;
      }

      .cls-179 {
        fill: #505b6a;
      }

      .cls-180 {
        fill: #3e4b5b;
      }
    </style>
  </defs>
  <path class="cls-25" d="M582.72,6.5c12.98-8.96,30.97-5.88,45.97-6.38l.05,1.51c-11.46.95-23.55-1.08-34.52,3.23-2.31.76-6.19,1.35-4.66,4.69,5.42,2.58,11.36,3.53,17.33,3.94,41.62,3,80.21,20.91,115.3,42.49,16.56,10.57,33.63,20.45,48.38,33.53,7.86,3.81,12.64,11.57,17.27,18.71-2.54.87-5.12,1.67-7.81,1.81-1.67-13-16.02-19.76-24.54-28.28-31.2-20.5-62.45-41.9-97.8-54.72-23.13-10.59-48.89-8.21-73.31-12.21-12.56,1.49-3.45-4.68-1.66-8.32h0Z"/>
  <path class="cls-132" d="M205.21,1.81c10.41-.1,20.83-.34,31.25-.03l.03,1.53c-9.75.1-19.48,0-29.2.28l-1.71-.11-.38-1.66h0Z"/>
  <path class="cls-38" d="M594.23,4.86c10.96-4.32,23.06-2.28,34.52-3.23,18.68,1.51,36.9,7.65,54.16,14.87,51.01,20.73,96.78,52.57,139.28,87.22,3.63,6.09,10.09,11.83,10.23,19.43,1.77,8.27-5.94,13.31-12.75,15.41-4.6,7.29-14.07,7.4-20.84,3.45-15.49-7.89-33.28-8.04-50.25-9.01-67.21-4.33-134.55-5.25-201.91-4.76-14.18,1.71-28.52.9-42.66,3-2.36.18-4.46-1.13-6.61-1.82,12.47-14.92,34.02-13.46,51.35-17.17,5.43-.46,11.16-.05,16.49-1.64.71-.13,2.08-.41,2.79-.56,26.8-.08,53.62.03,80.44-.05,2.61.1,5.22.21,7.83.41,14.77,2.22,29.76,1.07,44.64,1.21,22.81.05,45.64.16,68.47-.11,8.55,2.31,18.97,3.59,26.69-1.79.36-6.6-6.5-11.01-10.09-15.77-24.42-18.05-48.91-36.22-75.78-50.53-14.92-5.4-27.69-15.44-43.13-19.5-19.47-5.42-39.78-13.57-60.18-10.42-5.97-.41-11.92-1.36-17.33-3.94-1.53-3.35,2.35-3.94,4.66-4.69M808.21,112.4c-20.38,8.26-42.77,4.64-64.09,6.53-23.7-1.66-47.68.15-71.18-3.63-24.98-.57-50.04-.77-74.97.31-7.39-2.05-14.85,2.99-18.66,9.08,34.1-.87,67.96,2.1,102.04,2.33,32.41,1.62,64.96,1.36,97.23,5.42,12.6,1.33,26,6.86,38.42,1.62,7.32-2.94,15.9-12.46,9.86-20.25-5.4-3.79-12.69-1.76-18.64-1.41h0Z"/>
  <path class="cls-43" d="M197.56,3.86c2.61-.67,5.33-.53,8.03-.39l1.71.11c-9.11,2.26-17.91,5.63-27.15,7.39-10.16,2.02-15.13,12.54-23.5,17.61-7.68,4.56-15.15,9.83-20.33,17.23,2.87,3.63,7.62-1.81,10.88-.53,14.87-9.13,30.89-16.49,47.73-21.16,14.87-1.43,30.49-6.88,45.1-1.33-18.09-.11-37.01-.02-53.93,7.25-30.38,12.6-57.02,32-86.38,46.56-13.06,9.03-24.96,20.43-34.32,33.24-2.82.69-3.59-.2-2.31-2.63,6.76-6.48,12.19-14.07,17.77-21.55,8.27-7.39,17.94-12.83,27.26-18.68,4.63-2.59-1.38-5.92-4.38-4.37-11.65,5.56-25.18,8.24-33.56,18.91-.72.16-2.17.51-2.89.67,7.25-8.73,15.9-16.15,23.4-24.65,7.7-7.29,16.02-14.3,25.85-18.41,7.58-7.29,19.74-8.14,26.44-16.22,16.54-9.7,35.8-14.87,54.59-19.07h0Z"/>
  <path class="cls-48" d="M207.29,3.58c9.72-.28,19.45-.18,29.2-.28,1.97.69,6.5-1.46,6.66,1.54l.25,1.33c-9.09-2.26-18.6.79-27.77,1-4.73.98-15.39,1.51-13.69,9.13,19.79-1.53,38.86,3.17,57.35,9.6,3.43-2.15.72-6.3.11-9.24l1.54.03c2.84.9,4.55,6.09,4.6,9.13-.48,1.89-.9,3.79-1.23,5.73-8.12-2.86-16.45-5.17-24.29-8.75-14.61-5.55-30.23-.1-45.1,1.33-16.84,4.66-32.86,12.03-47.73,21.16-3.27-1.28-8.01,4.15-10.88.53,5.19-7.4,12.65-12.67,20.33-17.23,8.37-5.07,13.34-15.59,23.5-17.61,9.24-1.76,18.04-5.12,27.15-7.39h0Z"/>
  <path class="cls-165" d="M215.63,7.18c9.17-.21,18.68-3.27,27.77-1,6.01,2.38,11.29,6.11,16,10.49.61,2.94,3.32,7.09-.11,9.24-18.48-6.43-37.55-11.13-57.35-9.6-1.71-7.62,8.96-8.14,13.69-9.13h0Z"/>
  <path class="cls-58" d="M243.15,4.85c7.07.71,14.79,5.33,17.79,11.85l-1.54-.03c-4.71-4.38-10-8.11-16-10.49l-.25-1.33h0Z"/>
  <path class="cls-64" d="M573.98,13.54c2.22-2.92,4.71-6.84,8.75-7.04-1.79,3.64-10.9,9.81,1.66,8.32,24.42,4,50.19,1.62,73.31,12.21,35.35,12.82,66.6,34.22,97.8,54.72,8.52,8.52,22.86,15.28,24.54,28.28l-1.62.13c-8.9-8.81-15.41-19.97-26.14-26.83-32.66-21.34-64.81-44.72-102.33-56.84-23.81-9.55-50.21-5.05-74.71-10.5-.31-.61-.94-1.84-1.25-2.45h0Z"/>
  <path class="cls-169" d="M606.9,13.5c20.4-3.15,40.72,5.01,60.18,10.42,15.44,4.05,28.21,14.1,43.13,19.5,26.87,14.31,51.35,32.48,75.78,50.53,3.59,4.76,10.45,9.17,10.09,15.77-7.71,5.38-18.14,4.1-26.69,1.79.89-.3,2.66-.87,3.56-1.17,1.81.16,3.61-.05,5.45-.18l1.62-.13c2.69-.13,5.27-.94,7.81-1.81-4.63-7.14-9.4-14.9-17.27-18.71-14.75-13.08-31.82-22.96-48.38-33.53-35.09-21.58-73.68-39.49-115.3-42.49h0Z"/>
  <path class="cls-65" d="M572.73,13.02l1.25.53c.31.61.94,1.84,1.25,2.45,24.5,5.45,50.89.95,74.71,10.5,37.52,12.11,69.67,35.5,102.33,56.84,10.73,6.86,17.25,18.02,26.14,26.83-1.84.13-3.64.34-5.45.18-6.7-11.06-15.35-21.45-26.92-27.57-19.71-11.82-37.22-27.15-58.18-36.88-11.16-7.25-23.93-11.11-35.96-16.56-25.16-10.01-52.6-5.43-78.71-9.78-.1-1.23-.33-3.68-.43-4.89l-.03-1.64h0Z"/>
  <path class="cls-5" d="M569.38,19.68c-.36-2.51,1.38-3.97,3.38-5.02.1,1.21.33,3.66.43,4.89,26.11,4.35,53.55-.23,78.71,9.78,12.03,5.45,24.8,9.31,35.96,16.56,20.96,9.73,38.47,25.06,58.18,36.88,11.57,6.12,20.22,16.51,26.92,27.57-.9.3-2.68.87-3.56,1.17-22.83.28-45.66.16-68.47.11l.18-1.61c11.42,0,22.88.07,34.33,0,10.29-.03,20.65.21,30.99.05-.2-.54-.59-1.61-.79-2.13-6.94-16.76-25.8-24.27-39.46-34.66-12.88-11.44-28.79-18.28-43.44-27.01-9.95-5.89-20.84-9.86-31.45-14.34-21.78-8.81-45.58-6.52-68.51-7.89-3.87-.3-7.57,1.13-11.32,1.79-2.02-1.41-1.67-4-2.08-6.12h0Z"/>
  <path class="cls-10" d="M566.95,29.1c-1.21-3.17-.33-7.47,2.43-9.42.41,2.12.07,4.71,2.08,6.12,3.76-.66,7.45-2.08,11.32-1.79,22.93,1.38,46.73-.92,68.51,7.89,10.6,4.48,21.5,8.45,31.45,14.34,14.66,8.73,30.56,15.58,43.44,27.01,13.66,10.39,32.51,17.91,39.46,34.66-2.38.21-4.74.38-7.11.44,2.56-5.55-5.71-8.86-8.14-13.34-17.22-11.6-32.07-26.77-50.68-36.27-18.56-8.93-36.17-20.4-56.18-25.87-16.56-5.15-33.92-3.2-50.88-5.02-9.14-1.59-19.97,1.59-24.47,10.18-.21-3-.41-6.04-1.23-8.94h0Z"/>
  <path class="cls-19" d="M36.83,86.02c33.84-23.35,67.88-47.5,106.14-63.09-6.7,8.07-18.86,8.93-26.44,16.22-9.83,4.12-18.15,11.13-25.85,18.41-6.73-.02-9.72,7.17-15.64,9.06-2.59,1.02-6.32,1.87-5.24,5.47-13.97,1.1-19.48,15.26-31.53,20.22-5.88,2.66-10.8,6.93-13.54,12.95-4.12,8.67,3.74,11.72,8.96,15.41,13.24,3.38,26.28,8.78,40.29,7.47,35.47-.72,71.15,1.43,106.52-1.35,60.2,3.28,125.74-3.13,180.39,27.98.51.26,1.51.8,2.02,1.08.38.89,1.13,2.66,1.53,3.55l-.21,1.74c-12.05-8.96-25.96-14.67-40.34-18.63-3.46-2.71-7.75-3.18-12-2.95-21.66-6.53-44.74-4.48-67-7.11-23.57-2.59-47.37.53-70.89-2.33-34.35,2.49-68.88.72-103.3,1.28-12.05,1.77-22.99-5.91-34.91-4.45-9.96-3-25.09-6.99-22.75-20.32,6.12-8.5,16.2-13.43,23.78-20.61h0Z"/>
  <path class="cls-179" d="M186.09,30.06c16.92-7.27,35.84-7.37,53.93-7.25,7.85,3.58,16.17,5.89,24.29,8.75v1.56c-2.2.92-4.81,2.07-6.86.18-15.95-10.24-36.16-10.9-54-5.68-20.73,3.22-38.14,15.8-55.64,26.49-9.7,3.2-16.72,11.21-26.28,14.72-21.53,8.71-37.57,25.83-54.52,40.98l-1.62.05c9.36-12.8,21.25-24.21,34.32-33.24,29.36-14.56,56-33.96,86.38-46.56h0Z"/>
  <path class="cls-15" d="M203.45,27.61c17.84-5.22,38.04-4.56,54,5.68,2.05,1.89,4.66.74,6.86-.18,2.36,7.48-6.71,4.61-9.96,1.71-12.69-8.83-28.9-9.96-43.58-6.14-24.77,3.66-45.53,18.45-65.21,32.87-4.73-.34-8.32,2.25-11.73,4.83-11.67,7.71-25.16,12.42-35.78,21.75-8.47,8.11-18.05,14.94-27.72,21.55-.82.03-2.48.1-3.32.13,16.95-15.15,32.99-32.27,54.52-40.98,9.55-3.51,16.58-11.52,26.28-14.72,17.5-10.68,34.91-23.27,55.64-26.49h0Z"/>
  <path class="cls-14" d="M210.77,28.68c14.67-3.82,30.89-2.69,43.58,6.14,3.25,2.91,12.33,5.78,9.96-1.71v-1.56c.33-1.94.75-3.84,1.23-5.73l.26,1.89c.02,2.87.07,8.62.08,11.49-.3.59-.89,1.77-1.17,2.38-9.13.84-15.85-8.71-24.75-10.6-17.53-4.25-34.71,3.13-51.06,8.62-8.5,3.82-16.95,9.31-21.62,17.63-4,5.27-13.92,8.3-11.51,16.23-4.78.21-9.31,2.13-11.55,6.57-2.48-1.21-4.73-3.28-7.68-2.95-5.42,7.39-14.31,10.77-22.58,13.97-11.65,3.61-22.14,10.04-32.15,16.89-2.79.44-5.56.92-8.29,1.61-.8.05-2.4.11-3.2.15,9.67-6.61,19.25-13.44,27.72-21.55,10.62-9.32,24.11-14.03,35.78-21.75,3.41-2.58,7.01-5.17,11.73-4.83,19.68-14.43,40.44-29.21,65.21-32.87h0Z"/>
  <path class="cls-159" d="M265.8,27.71c5.6.75.62,10.8,1.82,15.05l-1.62-.1c-.03-.87-.08-2.61-.11-3.46-.02-2.87-.07-8.62-.08-11.49h0Z"/>
  <path class="cls-149" d="M568.18,38.05c4.5-8.58,15.33-11.77,24.47-10.18,16.95,1.82,34.32-.13,50.88,5.02,20.01,5.47,37.62,16.94,56.18,25.87,18.61,9.5,33.46,24.67,50.68,36.27,2.43,4.48,10.7,7.8,8.14,13.34-2.12.03-4.2,0-6.29-.08-2.53-6.02-10.37-7.53-13.15-13.44-14.61-17.81-34.09-30.9-55.08-40.08-10.06-7.27-21.81-10.96-32.89-16.25-18.23-6.61-37.86-5.74-56.92-7.11-10.65-.61-17.32,6.65-25.05,12.18-.61-1.81-.94-3.66-.98-5.55h0Z"/>
  <path class="cls-16" d="M188.91,39.59c16.35-5.48,33.53-12.87,51.06-8.62,8.9,1.89,15.62,11.44,24.75,10.6-1.25,2.26-2.4,5.6-5.24,6.11-9.63-3.94-16.38-14.92-27.92-13.15-16.89,1.25-34.53,7.71-45.07,21.62,2.07,5.6-3.94,7.21-7.55,9.55-7.99,7.96-15.44,16.97-26,21.62-5.79,2.86-10.21,8.11-16.76,9.34-6.99.89-6.6,12.38-15.61,9.17-12.82,2.38-25.8,2.28-38.77,2.08,10.01-6.84,20.5-13.28,32.15-16.89,8.27-3.2,17.17-6.58,22.58-13.97,2.95-.33,5.2,1.74,7.68,2.95,2.25-4.43,6.78-6.35,11.55-6.57-2.41-7.93,7.5-10.96,11.51-16.23,4.66-8.32,13.11-13.8,21.62-17.63h0Z"/>
  <path class="cls-68" d="M566.95,29.1c.82,2.91,1.02,5.94,1.23,8.94.05,1.89.38,3.74.98,5.55,1.97,7.99,8.4,14.74,16.12,17.51,19.19,3.23,41.34-2.51,58.76,8.94-6.55,1.67-12.15-4.2-18.63-4.25-17.05-1.28-37.86,4.32-51.35-9.4-7.57-6.76-8.75-17.81-7.11-27.29h0Z"/>
  <path class="cls-66" d="M594.21,31.42c19.05,1.36,38.68.49,56.92,7.11,11.08,5.28,22.83,8.98,32.89,16.25,20.99,9.17,40.47,22.27,55.08,40.08,2.77,5.91,10.62,7.42,13.15,13.44-5.7,0-11.21.07-16.84.13-11.26-.16-22.55.46-33.76-.66-5.65-3.69-10.96-7.85-16.69-11.36-2.84-2.54-5.92-4.83-8.68-7.45-2.79-10.7-19.76-10.21-22.8-21.35,5.99-4.02,12.34.05,17.71,3.05,15.21,5.12,30.49,10.5,45.5,16.51-.05-2.64.11-5.28.11-7.93-9.37-9.31-21.25-15.64-33.27-20.89-5.97-2.92-10.59-8.86-17.94-8.35-8.62-4.94-17.05-11.06-27.43-11.26-13.54-.77-27.05-2.76-40.6-2.53-4.68,1.12-10.8,2.02-13.39,6.5,4.41,4.28,9.62,7.85,13.51,12.7-4.66.41-9.62,1.54-12.39,5.7-7.71-2.77-14.15-9.52-16.12-17.51,7.73-5.53,14.39-12.79,25.05-12.18h0Z"/>
  <path class="cls-126" d="M186.5,56.15c10.54-13.9,28.18-20.37,45.07-21.62,11.54-1.77,18.28,9.21,27.92,13.15,2.84-.51,3.99-3.84,5.24-6.11.28-.61.87-1.79,1.17-2.38.03.85.08,2.59.11,3.46,0,2.25.44,4.97-1.82,6.34-2.02,1.85-3.99,3.71-5.97,5.6-9.21-4.33-18.33-9.55-28.28-11.8-10.5,2.1-20.66,7.04-29.15,13.43-4.91,7.32-12.29,11.93-18.71,17.66-4.51,3.02-9.14,5.91-13.34,9.37-6.88,3.89-14.31,7.32-19.6,13.36-6.63,4.09-13.7,7.68-19.53,12.95.71.16,2.12.48,2.82.64l.75,1.38c-19.92.77-39.8-.36-59.64-2.05,2.72-.69,5.5-1.17,8.29-1.61,12.97.2,25.95.3,38.77-2.08,9.01,3.2,8.62-8.29,15.61-9.17,6.55-1.23,10.96-6.48,16.76-9.34,10.55-4.64,18-13.66,26-21.62,3.61-2.35,9.62-3.96,7.55-9.55h0Z"/>
  <path class="cls-29" d="M584.17,42.71c2.59-4.48,8.72-5.38,13.39-6.5,13.56-.23,27.06,1.76,40.6,2.53,10.37.2,18.81,6.32,27.43,11.26,7.35-.51,11.96,5.43,17.94,8.35,12.01,5.25,23.9,11.59,33.27,20.89,0,2.64-.16,5.28-.11,7.93-15-6.01-30.28-11.39-45.5-16.51-5.37-3-11.72-7.07-17.71-3.05,3.04,11.14,20.01,10.65,22.8,21.35-.71-.13-2.12-.39-2.81-.53-8.98-7.17-18.86-13.85-29.43-18.38-17.41-11.46-39.57-5.71-58.76-8.94,2.77-4.15,7.73-5.28,12.39-5.7-3.89-4.86-9.09-8.42-13.51-12.7h0Z"/>
  <path class="cls-136" d="M200.77,56.22c8.49-6.38,18.64-11.32,29.15-13.43,9.95,2.25,19.07,7.47,28.28,11.8-1.49,1.51-2.97,3.07-4.64,4.4-11.19-.56-23.49-9.09-33.86-1.92-9.68,4.48-21.88,5.06-29.43,13.46-2.58,1.48-5.32,2.68-8.21,3.35,6.42-5.73,13.8-10.34,18.71-17.66h0Z"/>
  <path class="cls-103" d="M258.2,54.59c1.99-1.89,3.96-3.74,5.97-5.6-3.82,12.54-18.58,18.45-30.95,18.28-13.41-.21-26.75.03-39.87,2.94,18.3-11.24,42.61.82,60.2-11.23,1.67-1.33,3.15-2.89,4.64-4.4h0Z"/>
  <path class="cls-52" d="M219.7,57.07c10.37-7.17,22.67,1.36,33.86,1.92-17.59,12.05-41.9-.02-60.2,11.23-.77.08-2.31.25-3.09.31,7.55-8.4,19.74-8.98,29.43-13.46h0Z"/>
  <path class="cls-142" d="M75.04,66.62c5.92-1.89,8.91-9.08,15.64-9.06-7.5,8.5-16.15,15.92-23.4,24.65.72-.16,2.17-.51,2.89-.67,8.39-10.67,21.91-13.34,33.56-18.91,3-1.56,9.01,1.77,4.38,4.37-9.32,5.84-18.99,11.29-27.26,18.68-5.58,7.48-11.01,15.07-17.77,21.55-1.28,2.43-.51,3.32,2.31,2.63l1.62-.05c.84-.03,2.49-.1,3.32-.13.8-.03,2.4-.1,3.2-.15,19.84,1.69,39.72,2.82,59.64,2.05,7.07.07,14.16.15,21.25.11,14.26.31,28.57-.74,42.8.44-3.48,3.59-7.11,7.06-10.32,10.88,36.78-1.05,73.41,2.26,109.82,7.22,11.62.72,22.27,6.02,33.69,7.45,10.16,3.33,20.25,7.24,29.21,13.16.33.98.95,2.94,1.26,3.92-54.65-31.12-120.19-24.7-180.39-27.98-35.37,2.77-71.05.62-106.52,1.35-14.02,1.31-27.05-4.09-40.29-7.47-5.22-3.69-13.08-6.75-8.96-15.41,2.74-6.02,7.66-10.29,13.54-12.95,12.05-4.96,17.56-19.12,31.53-20.22-1.08-3.59,2.64-4.45,5.24-5.47h0Z"/>
  <path class="cls-47" d="M182.06,73.88c2.89-.67,5.63-1.87,8.21-3.35.77-.07,2.31-.23,3.09-.31l.23,1.62c-8.78,2.48-15.99,10.39-24.86,11.41,4.2-3.46,8.83-6.35,13.34-9.37h0Z"/>
  <path class="cls-32" d="M644.04,70.05c10.57,4.53,20.45,11.21,29.43,18.38-.8-.08-2.38-.23-3.17-.31-8.58-5.91-17.92-10.57-26.62-16.3l.36-1.77h0Z"/>
  <path class="cls-174" d="M149.12,96.61c5.28-6.04,12.72-9.47,19.6-13.36-1.49,6.68-11.75,8.06-16.49,13.11-.79.07-2.33.18-3.1.25h0Z"/>
  <path class="cls-41" d="M673.47,88.43c.69.13,2.1.39,2.81.53,2.76,2.63,5.84,4.91,8.68,7.45-5.86-.74-9.7-3.4-11.49-7.98h0Z"/>
  <path class="cls-21" d="M129.59,109.56c5.83-5.27,12.9-8.86,19.53-12.95-1.85,5.56-10.18,7.88-14.69,12.26-.51.34-1.51,1-2.02,1.33-.71-.16-2.12-.48-2.82-.64h0Z"/>
  <path class="cls-168" d="M684.96,96.41c5.73,3.51,11.05,7.66,16.69,11.36,11.21,1.12,22.5.49,33.76.66l.03,1.59c-11.46.07-22.91,0-34.33,0l-1.49-.11c-4.83-4.28-13.31-7.02-14.66-13.49h0Z"/>
  <path class="cls-158" d="M6.37,115.14c.02-4.05,3.97-6.17,6.68-8.5-2.35,13.33,12.79,17.32,22.75,20.32,18.5,6.65,38.42,8.03,57.89,6.34,72.77-.43,145.78-2.08,218.2,6.27,3.63,2.07,7.83,2.99,12,2.95,14.38,3.96,28.3,9.67,40.34,18.63,1.97,1.87,4.22,3.43,6.48,4.96,3.05,2.99,5.88,6.53,11.09,5.73,10.59,7.71,23.45,11.31,36.52,11.21,9.42-.94,19.09,2.05,26.9,7.14,7.19,11.21,14.84,22.98,16.1,36.62-5.09-8.44-9.16-18.02-18.05-23.16-5.61-2.49-11.34-5.65-17.68-4.43-7.99-1.97-16.4-1.07-24.39-2.68-3.81-6.35-12.92-4.94-17.13-10.83-8.17-10.27-17.36-21.11-29.61-26.39-2.72-1.49-5.32-3.2-7.73-5.14-2.48-3.23-6.71-3.35-10.26-4.61-42.26-15.02-87.89-10.65-131.86-13.84-7.66-1.69-15.33,1.26-22.96-.07-11.7-2.13-23.54-.25-35.25.21-23.52-2.45-47.24-1.33-70.74.51-17.74,2.4-34.07-5.63-50.75-10.09-4.41-.79-7.89-6.89-12.42-4.83-2.68-1.44-4.58-3.76-6.12-6.32h0Z"/>
  <path class="cls-113" d="M132.42,110.2c.51-.33,1.51-.98,2.02-1.33,6.58,1.23,13.29.95,19.97,1.26l.02,1.56c-7.09.03-14.18-.05-21.25-.11l-.75-1.38h0Z"/>
  <path class="cls-156" d="M187.25,108.46c14.75-.16,29.54-.15,44.31-.02v1.59c-14.79.02-29.54.02-44.31.02v-1.59h0Z"/>
  <path class="cls-127" d="M568.04,108.44c26.79-.05,53.59-.16,80.39,0l.03,1.56c-26.82.08-53.64-.03-80.44.05l.02-1.61h0Z"/>
  <path class="cls-176" d="M648.42,108.44c4.84-.2,9.86-.23,14.79.03l.02,1.58c-2.31.11-4.64.23-6.94.36-2.61-.2-5.22-.31-7.83-.41l-.03-1.56h0Z"/>
  <path class="cls-161" d="M735.41,108.42c5.63-.07,11.14-.13,16.84-.13,2.08.08,4.17.11,6.29.08,2.36-.07,4.73-.23,7.11-.44.2.53.59,1.59.79,2.13-10.34.16-20.7-.08-30.99-.05l-.03-1.59h0Z"/>
  <path class="cls-94" d="M154.41,110.13c4.37-.13,8.75-.18,13.15-.11,6.56.05,13.13.07,19.69.03,14.77,0,29.53,0,44.31-.02,5.48.05,10.9.02,16.41,0,9.29,0,18.58-.15,27.88.03l.02,1.58c-26.21.05-52.45-.13-78.65.49-14.23-1.18-28.54-.13-42.8-.44l-.02-1.56h0Z"/>
  <path class="cls-175" d="M544.98,110.05c6.78-.38,13.52-.2,20.25.56-5.33,1.59-11.06,1.18-16.49,1.64-.89-.11-2.68-.34-3.56-.46l-.2-1.74h0Z"/>
  <path class="cls-166" d="M656.28,110.41c2.3-.13,4.63-.25,6.94-.36,4.35.02,8.71.02,13.11-.02,7.73,0,15.51-.13,23.27-.13l1.49.11-.18,1.61c-14.89-.15-29.87,1-44.64-1.21h0Z"/>
  <path class="cls-98" d="M197.23,112.13c26.19-.62,52.44-.44,78.65-.49,6.12,1.17,13.92-1.97,19.4,1.92,3.77,2.49,9.09.84,13.44,1.46,23.65,1.13,45,12.1,66.72,20.37,9.81,5.24,21.29,5.45,31.46,9.26,3.68.98,7.47,1.71,11.37,2.17,8.65,3.05,19.04.03,26.59,6.09-1.61,6.88-10.29,7.17-15.62,9.09-21.91,4.89-45.77,3.22-66.32-6.14-.51-.28-1.51-.82-2.02-1.08-.31-.98-.94-2.94-1.26-3.92,13.16,7.91,29.79,11.28,44.36,5.02-.07-.72-.23-2.15-.31-2.87-19.45-7.91-39.09-15.41-58.25-24.01-10.59-7.62-24.13-6.42-36.39-8.93-1.69,1.85-5.06,5.58-6.75,7.45,9.42,3.13,19.38,5.25,28.11,10.18-11.42-1.43-22.07-6.73-33.69-7.45-36.4-4.96-73.04-8.27-109.82-7.22,3.22-3.82,6.84-7.29,10.32-10.88h0Z"/>
  <path class="cls-40" d="M502.2,118.01c14.18-2.59,28.41-6.93,42.97-6.22.89.11,2.68.34,3.56.46-17.33,3.71-38.88,2.25-51.35,17.17,2.15.69,4.25,2,6.61,1.82,14.13-2.1,28.48-1.3,42.66-3,67.36-.49,134.7.43,201.91,4.76,16.97.97,34.76,1.12,50.25,9.01,6.78,3.96,16.25,3.84,20.84-3.45,6.81-2.1,14.53-7.14,12.75-15.41,3.3.08.84,5.81,1.46,8.21-.08.72-.23,2.18-.31,2.92-.59,1.58-1.13,3.17-1.62,4.78l-.94.89c-2.22,2.46-4.73,4.4-8.21,3.55-6.73,5.1-8.53,14.13-13.38,20.79-1.05,2.48-4.33,1.44-6.38,1.46-3.33-6.07-5.86-12.65-9.75-18.38-6.43-5.56-14.48-9.72-23.21-9.81-21.42-2.61-43.02-4.2-64.57-4.22-1.95-.23-3.89-.48-5.83-.71-20.09-2.91-40.46,0-60.61-1.84-11.59-1.2-23.21,1.74-34.76-.03-14.26-1.51-28.59,1.03-42.85.64-21.99.07-43.95,2.3-65.44,6.94-22.37,10-42.57,25.49-67.32,29.46-13.08,1.56-27.28,3.74-39.73-1.77-2.25-.72-4.68-1.92-6.91-.49-6.38-.05-11.98-3.55-17.61-6.12-.39-.89-1.15-2.66-1.53-3.55,20.55,9.36,44.41,11.03,66.32,6.14,5.33-1.92,14.02-2.22,15.62-9.09-7.55-6.06-17.94-3.04-26.59-6.09,3.05-.46,6.14-.85,9.09-1.76,26.18-5.32,49.3-19.74,74.84-27.05h0Z"/>
  <path class="cls-150" d="M808.21,112.4c5.96-.34,13.24-2.38,18.64,1.41,6.04,7.8-2.54,17.32-9.86,20.25-12.42,5.24-25.82-.3-38.42-1.62-32.27-4.05-64.81-3.79-97.23-5.42-34.07-.23-67.93-3.2-102.04-2.33,3.81-6.09,11.28-11.13,18.66-9.08,24.93-1.08,49.99-.89,74.97-.31,23.5,3.77,47.48,1.97,71.18,3.63,21.32-1.89,43.71,1.72,64.09-6.53M804.93,119.09c-11.98,2.4-24.18,3.55-36.35,4.41-.51.64-1.54,1.92-2.07,2.56,14.61,3.15,29.56,8.57,44.58,5.71,5.6-.23,11.41-5.65,9.5-11.57-4.76-2.68-10.5-2.46-15.66-1.12h0Z"/>
  <path class="cls-50" d="M295.28,113.56c4,.61,12.03-2.4,13.44,1.46-4.35-.62-9.67,1.03-13.44-1.46h0Z"/>
  <path class="cls-84" d="M4.63,118.53c.43-.85,1.31-2.54,1.74-3.4,1.54,2.56,3.45,4.87,6.12,6.32,11.11,9.22,25.67,10.83,38.36,16.72,18.05,6.93,37.45-.94,55.97-.26,41.57.18,83.16-.33,124.73.25,33.27,4.28,68.72-.98,100.17,12.85-35.57-8.12-72.18-7.27-108.34-9.78-21.6.74-43.07-1.99-64.63-.66-34.17,2.66-71.21-4.41-102.91,11.93-8.12-3.22-12.85-11.08-20.29-15.36-8.96-4.87-18.37-8.88-27.21-13.95-1.94-.87-3.07-2.74-3.71-4.66h0Z"/>
  <path class="cls-75" d="M3.25,121.59c.34-.75,1.03-2.28,1.38-3.05.64,1.92,1.77,3.79,3.71,4.66,8.85,5.07,18.25,9.08,27.21,13.95,7.43,4.28,12.16,12.15,20.29,15.36,31.69-16.35,68.74-9.27,102.91-11.93,21.57-1.33,43.03,1.4,64.63.66,36.16,2.51,72.77,1.66,108.34,9.78,4.69,4.27,11.55,4.23,16.54,8.04,15.35,8.06,23.01,25.14,23.52,41.88-2.15,7.45,5.96,14.38,1.82,21.32-3.74,9.67-5.86,19.88-9.88,29.44,1.56,7.47-4.96,12.72-7.07,19.33-7.16,21.5-16.13,44.92-36.48,57.21-6.32,2.79-13.11,5.81-20.19,4.51,1.62-1.12,3.28-2.18,5.01-3.13,7.32,1.69,12.59-4.56,18.27-8.06,19.92-15.62,27.08-40.88,34.55-63.88,2.53-9.73,3-19.99,6.99-29.3,5.45-11.93,3.23-25.8.23-38.08,1.26-5.97-1.18-12.18-5.1-16.64-7.35-9.9-18.12-15.82-29.61-19.45-32.23-11.08-67.03-6.19-100.38-9.88-43.69-2.97-87.46-.39-131.15.44-10.95,2.63-26.03,2.69-32.6,13.28-.9,8.73,4.41,16.94,7.78,24.75l.62,1.56c-.59,2.3-1.25,4.58-2.08,6.81-.02-11.23-8.57-18.83-15.48-26.46-4.1-2.69-8.42-.89-12.01,1.64-2.05,6.7-5.05,13.92-2.25,20.81,4.87,14.92,8.86,30.18,10.11,45.91,2.07,22.27,2.89,46.12,14.43,65.95,7.12,14.54,14.16,29.72,26.74,40.44,18.3,19.86,45.99,25.29,71.53,28.67,31.53,2.26,63.76,6.25,94.95-.92,14.34-1.51,28.51-5.17,41.85-10.68,11.54-3.84,18.38-14.52,26.65-22.76,8.09-3.41,17.13.16,25.47-2.3-1.2,2.1-2.38,4.2-3.43,6.38-6.29,6.01-12.24,12.34-18.63,18.25-9.04-1.51-18.81,2.94-27.7,5.63-11.93,1.97-22.98,7.65-35.22,7.98-32.41,6.86-65.83,5.2-98.67,2.82-21.65-1.92-43.49-6.84-62.33-18.05-28.77-19.32-48.15-51.39-53.9-85.44-5.99-23.81-2.86-49.96-14.92-72.13-3.45-7.04-9.8-12.87-9.7-21.35-.16-11.78,1.56-23.68-.67-35.35-8.39-3.36-14.21-11-23.09-13.24-3.05-.16-2.66-3.13-2.95-5.38h0Z"/>
  <path class="cls-83" d="M804.93,119.09c5.15-1.35,10.9-1.56,15.66,1.12,1.9,5.92-3.91,11.34-9.5,11.57-15.02,2.86-29.97-2.56-44.58-5.71.53-.64,1.56-1.92,2.07-2.56,12.18-.87,24.37-2.02,36.35-4.41h0Z"/>
  <path class="cls-61" d="M12.49,121.46c4.53-2.07,8.01,4.04,12.42,4.83,16.67,4.46,33.01,12.49,50.75,10.09,23.5-1.84,47.22-2.95,70.74-.51,11.72-.46,23.55-2.35,35.25-.21,7.63,1.33,15.3-1.62,22.96.07,43.97,3.18,89.6-1.18,131.86,13.84,3.55,1.26,7.78,1.38,10.26,4.61-5.01-1.07-9.98-2.25-15.02-3.15-31.45-13.84-66.9-8.57-100.17-12.85-41.57-.57-83.16-.07-124.73-.25-18.51-.67-37.91,7.19-55.97.26-12.69-5.89-27.24-7.5-38.36-16.72h0Z"/>
  <path class="cls-67" d="M309.05,120.06c12.26,2.51,25.8,1.31,36.39,8.93,19.15,8.6,38.8,16.1,58.25,24.01.08.72.25,2.15.31,2.87-14.57,6.25-31.2,2.89-44.36-5.02-8.96-5.92-19.05-9.83-29.21-13.16-8.73-4.92-18.69-7.04-28.11-10.18,1.69-1.87,5.06-5.6,6.75-7.45h0Z"/>
  <path class="cls-34" d="M1.74,128.09c.72-1.84-1.64-7.09,1.51-6.5.3,2.25-.1,5.22,2.95,5.38,8.88,2.25,14.71,9.88,23.09,13.24,2.23,11.67.51,23.57.67,35.35-.1,8.49,6.25,14.31,9.7,21.35,12.06,22.17,8.93,48.32,14.92,72.13,5.74,34.06,25.13,66.13,53.9,85.44,18.84,11.21,40.69,16.13,62.33,18.05,32.84,2.38,66.26,4.04,98.67-2.82,12.24-.33,23.29-6.01,35.22-7.98,8.9-2.69,18.66-7.14,27.7-5.63-6.96,6.17-14.77,11.59-23.31,15.35-3.79.21-7.58.18-11.37.38-22.71,7.43-46.94,7.17-70.57,7.98-13.28,1.53-26.72,1.49-39.95-.36-22.58-1.66-45.27-5.38-66.24-14.21-13.08-4.09-22.34-14.97-33.05-22.94-18.07-18.86-33.09-41.95-36.9-68.24-5.53-15.13-5.68-31.58-7.62-47.4,1.54-17.2-10.06-31.87-23.11-41.56-2.05-9.77-3.18-19.76-3.2-29.74,1.38-9.13-5.7-19.3-15.23-19.12-.05-2.72-.08-5.45-.13-8.16h0Z"/>
  <path class="cls-60" d="M35.8,126.95c11.92-1.46,22.86,6.22,34.91,4.45,34.42-.56,68.95,1.21,103.3-1.28,23.52,2.86,47.32-.26,70.89,2.33,22.26,2.63,45.33.57,67,7.11-72.43-8.35-145.43-6.7-218.2-6.27-19.47,1.69-39.39.31-57.89-6.34h0Z"/>
  <path class="cls-49" d="M.18,128.1l1.56-.02c.05,2.71.08,5.43.13,8.16.95,15.1-2.56,30.84,1.84,45.59.11,2.91.53,5.84.02,8.73l-1.59-.11C-.13,169.74-.21,148.93.18,128.1H.18Z"/>
  <path class="cls-35" d="M561.45,131.39c14.26.39,28.59-2.15,42.85-.64,11.55,1.77,23.17-1.17,34.76.03,20.15,1.84,40.52-1.07,60.61,1.84-42.23,1.03-84.49-.18-126.72.62-21.7,2.54-44.05.07-65.24,6.55-13.13,1.3-23.37,9.98-33.42,17.61-13.88,7.93-30.15,9.4-45.27,13.88-15.71,1.99-33.19,3.46-46.99-5.76,2.23-1.43,4.66-.23,6.91.49,12.46,5.51,26.65,3.33,39.73,1.77,24.75-3.97,44.95-19.47,67.32-29.46,21.48-4.64,43.44-6.88,65.44-6.94h0Z"/>
  <path class="cls-97" d="M833.87,131.35h1.59c.11,14.25.28,28.49-.11,42.75l-1.81-.49c.49-13.11.57-26.24.02-39.34.08-.74.23-2.2.31-2.92h0Z"/>
  <path class="cls-123" d="M507.72,139.79c21.19-6.48,43.54-4,65.24-6.55,42.23-.8,84.49.41,126.72-.62,1.94.23,3.87.48,5.83.71,18.66,2.33,37.45,3.05,56.15,4.78,7.75,2.22,16.71,2.35,22.91,8.08,9.58,10.01,12.47,23.88,13.67,37.19,3.53,7.22,11.31,1.31,16.33-.8,5.02-5.58,1.33-15.02,4.58-21.66-1.15-8.49,9.29-8.49,10.87-15.25.39-1.9.72-3.81.98-5.71l.94-.89c2.92,13.98-6.24,26.18-6.34,39.95-1.1,5.53-6.25,8.99-10.31,12.47-5.02,2.25-11.24,4.07-13.13,9.91-2.15,10.49-2.59,21.32-4.61,31.89-6.93.1-4.64-7.66-2.12-11.32-4.5-9.36-4.78-19.81-2.69-29.89.74-15.41-3.74-31.68-13.51-43.76-7.62-3.55-15.48-7.55-24.08-7.34-36.47-4.71-73.3-6.14-109.96-4.87-14.43-3.12-28.94,1.33-43.39-.38-5.63-1.21-11.19-.3-16.82-.21-26.88,1.84-55.13-1.35-80.57,9.54-18.94,4.51-35.84,25.72-28.84,45.22-.54,8.29,4.38,16.84,2.07,25.24-1.67-3.43-2.77-8.76-7.8-6.89-3.91,5.53-3.36,13.2-1.62,19.42,1.87,9.91,4.48,19.69,6.3,29.62l-1.82.21c-2.04-5.28-3.3-10.8-5.07-16.17-4.27-16.3-7.14-32.91-7.66-49.76-1.25-4.46,5.88-8.22-.15-11.09,2.95-.02,6.06-.43,4.58-4.1-4.78-1.36-8.04-6.89-13.92-3.56-15.36,1.82-30.79,2.64-46.23,3.18-12.64.64-20.93-10.96-33.53-10.26-2.26-1.53-4.51-3.09-6.48-4.96l.21-1.74c5.63,2.58,11.23,6.07,17.61,6.12,13.8,9.22,31.28,7.75,46.99,5.76,15.12-4.48,31.38-5.96,45.27-13.88,10.04-7.63,20.29-16.31,33.42-17.61h0Z"/>
  <path class="cls-125" d="M705.51,133.32c21.55.02,43.15,1.61,64.57,4.22,8.73.1,16.77,4.25,23.21,9.81,3.89,5.73,6.42,12.31,9.75,18.38,2.05-.02,5.33,1.02,6.38-1.46,4.84-6.66,6.65-15.69,13.38-20.79,3.48.85,5.99-1.08,8.21-3.55-.26,1.9-.59,3.81-.98,5.71-1.58,6.76-12.01,6.76-10.87,15.25-3.25,6.65.44,16.08-4.58,21.66-5.02,2.12-12.8,8.03-16.33.8-1.2-13.31-4.09-27.18-13.67-37.19-6.2-5.73-15.17-5.86-22.91-8.08-18.69-1.72-37.49-2.45-56.15-4.78h0Z"/>
  <path class="cls-114" d="M584.97,135.51c5.63-.08,11.19-1,16.82.21,14.46,1.71,28.97-2.74,43.39.38,36.67-1.26,73.49.16,109.96,4.87,8.6-.21,16.46,3.79,24.08,7.34,9.77,12.08,14.25,28.34,13.51,43.76-2.08,10.08-1.81,20.53,2.69,29.89-2.53,3.66-4.81,11.42,2.12,11.32,2.02-10.57,2.46-21.4,4.61-31.89,1.89-5.84,8.11-7.66,13.13-9.91,4.05-3.48,9.21-6.94,10.31-12.47.1-13.77,9.26-25.96,6.34-39.95.49-1.61,1.03-3.2,1.62-4.78.56,13.1.48,26.23-.02,39.34-.69,2.15-1.28,4.35-1.81,6.55-2.59,5.38-1.82,15.97-10.42,14.48-5.76,2.94-15.26,3.68-15.94,11.67-3.74,31.86-9.22,63.76-19.3,94.24-4.04-3.84-1.43-11.14-1.92-16.54-1.08-6.61.62-13.16,1.39-19.71-.56-13.03-1.85-26.18-.54-39.21,5.01-21.83,5.12-45.74-4.92-66.21-2.38-5.48-8.91-6.57-13.41-9.57-10.95-6.93-24.36-6.65-36.83-7.14-32.94-5.2-66.39-1.35-99.46-3.91-19.12,1.69-38.31,1.18-57.48,1.46-14.02,1-28.05,2.91-42.1,2.28-15.89,4.74-36.37,7.4-44.72,23.91-5.15,5.6-1.44,13.69-4.89,19.78-1.94,1.44-3.76,3.04-5.63,4.56-7.01-19.5,9.9-40.7,28.84-45.22,25.44-10.88,53.69-7.7,80.57-9.54h0Z"/>
  <path class="cls-120" d="M1.87,136.24c9.54-.18,16.61,10,15.23,19.12.02,9.98,1.15,19.97,3.2,29.74,13.05,9.68,24.65,24.36,23.11,41.56,1.94,15.82,2.08,32.27,7.62,47.4,3.81,26.29,18.82,49.39,36.9,68.24,10.72,7.98,19.97,18.86,33.05,22.94,20.98,8.83,43.66,12.56,66.24,14.21,13.23,1.85,26.67,1.89,39.95.36,23.63-.8,47.86-.54,70.57-7.98,3.79-.2,7.58-.16,11.37-.38-25.28,12.92-54.59,15.64-82.52,15.9-6.68.11-13.51-.36-20.06,1.15-.64.03-1.92.08-2.56.11-6.75-1.33-13.57-1.08-20.37-.87-18.61-.11-37.72-1.61-55.2-8.45-3.56-8.71-13.7-9.24-21.42-11.78-12.95-7.47-20.22-21.37-31.71-30.63-5.37-4.19-8.53-10.32-11.83-16.1-2.64-.8-5.35-1.28-8.03-1.92-6.98-14.51-13.44-29.59-16-45.59,4.69-12.05-3.87-23.39-2.08-35.37-.57-9.63-.9-19.33-1.59-28.94-4.91-8.26-15.03-11.11-21.06-18.28-2.97-3.73-6.58-6.94-10.98-8.86-4.4-14.75-.89-30.49-1.84-45.59h0Z"/>
  <path class="cls-180" d="M572.91,139.72c19.17-.28,38.36.23,57.48-1.46,33.07,2.56,66.52-1.3,99.46,3.91,12.47.49,25.88.21,36.83,7.14,4.5,3,11.03,4.09,13.41,9.57,10.04,20.47,9.93,44.38,4.92,66.21-1.31,13.03-.02,26.18.54,39.21-.77,6.55-2.48,13.1-1.39,19.71.49,5.4-2.12,12.7,1.92,16.54,10.08-30.48,15.56-62.38,19.3-94.24.67-7.99,10.18-8.73,15.94-11.67,8.6,1.49,7.83-9.09,10.42-14.48.16,2.74.34,5.5.43,8.26-1.89,4.15-3.92,8.26-6.2,12.23-5.4,5.73-17.23,5.5-18.25,14.54-1.2,10.68-2,21.45-3.82,32.04l-1.07.74c-3.69,7.53-3.66,17.2-5.58,25.73-1.94,5.92-3.41,12-4.84,18.07-2.64,9.11-7.81,17.43-9.47,26.79-.36.82-1.07,2.48-1.43,3.3-4.1,3.71-6.52,8.78-9.75,13.2-19.09,8.5-36.3,20.83-56.16,27.62-2.23.72-4.61,1.66-6.88.54,8.5-5.61,17.54-10.34,26.06-15.92,4.23-4.58,1.46-11.67,6.02-15.95,2.48-1.84,4.69-4.68,8.14-4.04,5.07.2,7.04-5.14,10.27-8.04,8.75-7.6,9.17-19.89,14.61-29.41,6.17-13.15,3.51-28.11,6.71-41.98-.53-28.33,10.88-58.77-3.97-85.38-13.1-13.24-32.51-17.54-50.78-16.82-13.46-4.83-27.49.23-41.24-2.51-51.93-.72-103.94-1.07-155.72,3.36-10.96,2.91-21.4,7.6-31.54,12.59-11.64,8.98-13.67,23.77-14.39,37.45.8.21,2.43.62,3.23.82-.34,2.22-.72,4.43-1.23,6.61-6.37-3.68-3.23-12.23-3.68-18.3,3.45-6.09-.26-14.18,4.89-19.78,8.35-16.51,28.84-19.17,44.72-23.91,14.05.62,28.08-1.28,42.1-2.28"/>
  <path class="cls-12" d="M311.89,139.56c4.25-.23,8.53.25,12,2.95-4.17.03-8.37-.89-12-2.95h0Z"/>
  <path class="cls-63" d="M98.77,144.79c43.69-.84,87.46-3.41,131.15-.44,33.35,3.69,68.14-1.2,100.38,9.88-18.69-1.3-37.16-6.07-56.08-4.89-48.56-4.28-97.37-3.38-146.09-2.94-18.74.95-39.47.07-55.16,11.92-4.43,7.8,2.63,16.26.98,24.5-3.36-7.81-8.68-16.02-7.78-24.75,6.56-10.59,21.65-10.65,32.6-13.28h0Z"/>
  <path class="cls-20" d="M528.81,146.52c51.78-4.43,103.79-4.09,155.72-3.36,13.75,2.74,27.79-2.31,41.24,2.51,18.27-.72,37.68,3.58,50.78,16.82,14.85,26.6,3.45,57.05,3.97,85.38-3.2,13.87-.54,28.84-6.71,41.98-5.43,9.52-5.86,21.81-14.61,29.41-3.23,2.9-5.2,8.24-10.27,8.04-3.45-.64-5.66,2.2-8.14,4.04-2.07-.92-4.12-1.85-6.3-2.36-1.56,1.85-2.86,4.23-5.55,4.48.95-1.89,3.17-3.68,1.76-5.91,3.77-4.1,7.4-8.35,10.95-12.67.82-.36,2.45-1.1,3.27-1.48,1.94,3.25,3.43,8.34,8.27,6.61,13.75-13.2,17.45-32.48,20.71-50.39-3.25-9.34,2.92-17.36,2.92-26.47,2.31-25.39,10.78-53.36-2.41-76.93-10.54-15.51-30.31-15.49-47.01-17.18-8.75-1.97-17.58-3.51-26.51-1.67-21.83-2.12-43.72.23-65.6-1.2-40.77,1.41-82.8-3.23-122.35,9.11-8.22,4.69-20.61,7.85-22.17,18.92-1.54,4.22-1.02,8.83-1.38,13.26-1.07,3.32-2.18,6.61-3.28,9.91-.8-.2-2.43-.61-3.23-.82.72-13.69,2.76-28.48,14.39-37.45,10.14-4.99,20.58-9.68,31.54-12.59h0Z"/>
  <path class="cls-178" d="M406.9,144.65c6.83-.28,13.64-.15,20.47.41-2.95.9-6.04,1.3-9.09,1.76-3.91-.46-7.7-1.18-11.37-2.17h0Z"/>
  <path class="cls-4" d="M72.97,158.32c15.69-11.85,36.42-10.96,55.16-11.92,48.71-.44,97.52-1.35,146.09,2.94,18.92-1.18,37.39,3.59,56.08,4.89,11.49,3.63,22.26,9.55,29.61,19.45,3.87,17.4,4.43,35.68.08,53.06-3.38,24.18-9.29,48.32-20.29,70.26-6.02,7.19-9.91,18.51-19.61,21.6,20.35-19.61,26.23-48.56,33.53-74.68,2.23-23.03,11.6-46.86,2.33-69.49-11.19-16.02-31.59-19.07-49.55-20.79-67.49-3.74-135.21-6.48-202.74-2.31-9.26,1.61-19.88,3.84-25.96,11.72-2.04,5.12-1.53,10.85-1.82,16.26-.39,1.69-.82,3.38-1.3,5.07l-.62-1.56c1.64-8.24-5.42-16.71-.98-24.5h0Z"/>
  <path class="cls-80" d="M512.94,155.28c39.55-12.34,81.59-7.7,122.35-9.11,21.88,1.43,43.77-.92,65.6,1.2,8.93-1.84,17.76-.3,26.51,1.67,16.69,1.69,36.47,1.67,47.01,17.18,13.2,23.57,4.73,51.54,2.41,76.93,0,9.11-6.17,17.13-2.92,26.47-3.27,17.91-6.96,37.19-20.71,50.39-4.84,1.72-6.34-3.36-8.27-6.61.66-1.69,1.33-3.35,2.04-5.01,1.95,5.63,9.13,2.22,11.85-1,5.88-10.06,8.65-21.6,6.45-33.07,8.63-25,10.8-51.57,13.59-77.68,1.4-10.82-4.87-19.83-9.11-29.07-3.07-6.27-9.72-9.96-16.23-11.59-43.74-9.47-88.77-1.92-132.97-6.37-10.42-1.05-20.75,1.08-31.13.05-21.99-1.17-43.74,2.84-65.52,5.05-12.33,3.73-25.36,8.67-33.1,19.48,1.56-11.08,13.95-14.23,22.17-18.92h0Z"/>
  <path class="cls-138" d="M103.66,151.33c67.54-4.17,135.25-1.43,202.74,2.31,17.96,1.72,38.36,4.78,49.55,20.79,9.27,22.63-.1,46.46-2.33,69.49-7.3,26.11-13.18,55.06-33.53,74.68-2.05,1.21-4.1,2.46-6.19,3.64.97-2.71,1.95-5.5,4.41-7.19,11.29-7.86,15.23-21.81,20.42-33.84,9.57-25.49,14.18-52.39,17.54-79.27,1.28-11.09-.11-22.93-7.68-31.66-4.25-5.17-11.06-6.78-16.92-9.29-31.56-8.8-64.57-4.99-96.85-8.04-44.71-.61-89.46-.79-134.07,2-8.27,1.99-19.89,5.99-20.3,15.94-.44.75-1.35,2.3-1.79,3.07-1.02,1.72-1.87,3.56-2.79,5.35.3-5.42-.21-11.14,1.82-16.26,6.09-7.88,16.71-10.11,25.96-11.72h0Z"/>
  <path class="cls-31" d="M523.87,154.72c21.78-2.22,43.53-6.22,65.52-5.05,10.39,1.03,20.71-1.1,31.13-.05,44.2,4.45,89.23-3.1,132.97,6.37,6.52,1.62,13.16,5.32,16.23,11.59,4.23,9.24,10.5,18.25,9.11,29.07-2.79,26.11-4.96,52.68-13.59,77.68,2.2,11.47-.57,23.01-6.45,33.07-2.72,3.22-9.9,6.63-11.85,1,12.37-30.56,17.58-63.5,19.99-96.21,9.57-7.53,9.5-21.09,3.89-30.95-3.48-5.55-4-12.74-8.63-17.54-11.65-8.34-26.36-7.37-39.9-9.13-44.84-1.28-89.81,1.54-134.57-1.56-9.77,1.2-19.65,1.33-29.43.23-18.55,1.59-37.47,4.17-54.26,12.65-5.94,2.54-7.83,8.98-9.63,14.57-1.66,2.35-3.36,4.66-5.02,7.01.36-4.43-.16-9.04,1.38-13.26,7.75-10.82,20.78-15.76,33.1-19.48h0Z"/>
  <path class="cls-172" d="M331.71,151.02c5.04.9,10.01,2.08,15.02,3.15,2.41,1.94,5.01,3.64,7.73,5.14,5.15,5.83,10.88,11.11,16.1,16.89,5.01,10.13,8.14,21.32,15.87,29.94,16.69,2.05,33.42.51,50.16.92,9.81,2.63,17.22,10.57,21.37,19.61,7.62,14.66,10.09,31.66,18.09,46.09,8.24,19.5,15.3,39.85,28.39,56.8,13.36,14.2,28.46,29.07,48.63,31.99-.02.79-.07,2.4-.1,3.2l-.13,1.71c-19.73-5.91-35.43-19.69-49.75-33.94-20.02-27.21-30.35-59.79-41.84-91.14-5.06-11.18-10.7-25.64-23.96-28.61-15.48-2.99-31.66-.03-45.99,6.11-4.91,9.9-8.71,22.47-3.46,32.86-1.03,3.59-2.1,7.24-2.04,11.03-.2,8.45-5.4,15.84-7.22,24.01-1.81,4.58-2.17,10.03-5.79,13.67-6.66,9.9-11.41,21.17-18.32,31.05-8.34,2.46-17.38-1.12-25.47,2.3-8.27,8.24-15.12,18.92-26.65,22.76-13.34,5.51-27.51,9.17-41.85,10.68-31.18,7.17-63.42,3.18-94.95.92,20.98-2.92,41.87,3.18,62.74-.11,23.5-.03,46.96-5.4,69.03-13.18,9.36-1.81,12.56-11.44,17.61-18.15-7.6-2.99-15.35.79-23.06,1.2,2.3-2.26,5.15-3.84,8.09-5.14,7.07,1.3,13.87-1.72,20.19-4.51,20.35-12.29,29.33-35.71,36.48-57.21,2.12-6.61,8.63-11.87,7.07-19.33,4.02-9.57,6.14-19.78,9.88-29.44,4.14-6.94-3.97-13.87-1.82-21.32-.51-16.74-8.17-33.83-23.52-41.88-4.99-3.81-11.85-3.77-16.54-8.04h0Z"/>
  <path class="cls-95" d="M100.76,154.95c44.61-2.79,89.37-2.61,134.07-2,32.28,3.05,65.29-.76,96.85,8.04,5.86,2.51,12.67,4.12,16.92,9.29,7.57,8.73,8.96,20.56,7.68,31.66-3.36,26.88-7.98,53.78-17.54,79.27-5.19,12.03-9.13,25.98-20.42,33.84,20.06-31.1,28.71-68.06,31.89-104.53,5.76-13.28,2.74-30.76-7.47-41-30.84-15.87-66.32-10.41-99.67-13.52-45.97.31-92.02-1.18-137.91,1.59-7.04-.46-13.56,3.17-18.32,8.11-2.12,1.74-4.22,3.5-6.38,5.19.41-9.95,12.03-13.95,20.3-15.94h0Z"/>
  <path class="cls-107" d="M504.04,165.88c16.79-8.49,35.71-11.06,54.26-12.65,9.78,1.1,19.66.97,29.43-.23,44.76,3.1,89.73.28,134.57,1.56,13.54,1.76,28.25.79,39.9,9.13,4.63,4.81,5.15,12,8.63,17.54,5.61,9.86,5.68,23.42-3.89,30.95,1.43-11.09-1.95-21.66-6.96-31.33-.67-5.48-4.96-9.34-9.08-12.51-6.75-5.32-14.87-9.55-23.7-9.04-22.37-2.38-44.86-1.56-67.29-1.69-30.59-1.21-61.38-3.48-91.91-.3-17.61.53-35.63,1.2-52.5,6.84-5.42-.85-7.39,3.53-9.81,6.81-2.2,2.72-10.67,4.63-6.7,8.58-.95.95-1.92,1.9-2.87,2.84-.43-.48-1.28-1.44-1.71-1.94,1.81-5.6,3.69-12.03,9.63-14.57h0Z"/>
  <path class="cls-117" d="M105.16,157.6c45.89-2.77,91.94-1.28,137.91-1.59,33.35,3.12,68.83-2.35,99.67,13.52,10.21,10.24,13.23,27.72,7.47,41-1.12-12.01.64-27.01-9.01-36.17-10.42-5.79-22.01-10.18-33.76-12.29-26.36-1.59-52.72-3.58-79.16-2.79-39.39.57-78.88-1.43-118.17,1.56-8.4-1.72-15.56,2.89-23.27,4.87,4.76-4.94,11.28-8.57,18.32-8.11h0Z"/>
  <path class="cls-163" d="M568,157.32c30.53-3.18,61.32-.92,91.91.3,22.44.13,44.92-.69,67.29,1.69,8.83-.51,16.95,3.73,23.7,9.04,4.12,3.17,8.4,7.02,9.08,12.51-4.58-2.43-7.4-11.19-13.36-9.09-1.61-.62-3.18-1.3-4.74-1.99.41-.51,1.2-1.54,1.61-2.05-14.54-5.79-30.56-4.6-45.81-6.56-45.56-.39-91.14-.49-136.68.07-18.73,1.15-37.83,2.38-55.31,9.75,2.43-3.28,4.4-7.66,9.81-6.81,16.87-5.65,34.89-6.32,52.5-6.84h0Z"/>
  <path class="cls-133" d="M110.11,160.83c39.29-2.99,78.78-.98,118.17-1.56,26.44-.79,52.8,1.2,79.16,2.79-8.35.33-16.68.23-25.01.59l.21,1.41c2.08.36,6.27,1.08,8.35,1.44-3.04.13-9.09.41-12.13.54-.67-.1-2.02-.31-2.69-.43-30.13-2.89-60.66-1.23-90.94-1.08-4.73-.15-9.36-.28-14.03-.02-26.87.41-55.08-3.15-80.91,5.88-4.27,1.28-7.8,4.02-11.34,6.61-.07-.77-.21-2.3-.28-3.05.44-.77,1.35-2.31,1.79-3.07,2.17-1.69,4.27-3.45,6.38-5.19,7.71-1.99,14.87-6.6,23.27-4.87h0Z"/>
  <path class="cls-146" d="M354.46,159.3c12.24,5.28,21.43,16.12,29.61,26.39,4.22,5.89,13.33,4.48,17.13,10.83,7.99,1.61,16.4.71,24.39,2.68,6.34-1.21,12.06,1.94,17.68,4.43,8.9,5.14,12.97,14.72,18.05,23.16,2.1,4.96,3.48,10.26,6.3,14.9,1.77,5.37,3.04,10.88,5.07,16.17.95,5.01,2.76,9.81,3.35,14.89-7.99-14.43-10.47-31.43-18.09-46.09-4.15-9.04-11.55-16.99-21.37-19.61-16.74-.41-33.46,1.13-50.16-.92-7.73-8.62-10.87-19.81-15.87-29.94-5.22-5.78-10.95-11.06-16.1-16.89h0Z"/>
  <path class="cls-91" d="M505.68,170.97c17.48-7.37,36.58-8.6,55.31-9.75,2.23.76,4.56,1.18,6.91,1.48l.16,1.49c-3.43.05-6.86.18-10.27.33-20.01.43-43.03,1.08-58.81,15.03-3.97-3.96,4.5-5.86,6.7-8.58h0Z"/>
  <path class="cls-33" d="M560.99,161.22c45.54-.56,91.12-.46,136.68-.07,15.25,1.97,31.27.77,45.81,6.56-.41.51-1.2,1.54-1.61,2.05-12.36-4.17-25.88-5.17-38.85-5.2-1.25-.18-3.74-.56-4.99-.74-5.6-.98-11.14-1.48-16.77-1.31-5.55-.05-10.93,0-16.41.05-26.28-.03-52.52-.03-78.78-.02-6.11-.07-12.1-.03-18.17.15-2.35-.3-4.68-.72-6.91-1.48h0Z"/>
  <path class="cls-9" d="M45,166.38c3.59-2.53,7.91-4.33,12.01-1.64,6.91,7.63,15.46,15.23,15.48,26.46-.41,15.23-.16,30.48,1.13,45.66-9.77-13.79-5.22-32.61-7.27-48.58,2.76-7.71-4.76-8.07-8.85-10.85-6.19,3.81-6.66,12.08-5.86,18.63,4.02,28.34,3.35,57.31,10.29,85.21,1.74,5.94,5.28,11.41,5.35,17.77-11.54-19.83-12.36-43.67-14.43-65.95-1.25-15.72-5.24-30.99-10.11-45.91-2.81-6.89.2-14.11,2.25-20.81h0Z"/>
  <path class="cls-130" d="M282.43,162.65c8.34-.36,16.66-.26,25.01-.59,11.75,2.12,23.34,6.5,33.76,12.29,9.65,9.16,7.89,24.16,9.01,36.17-3.18,36.47-11.83,73.43-31.89,104.53-2.46,1.69-3.45,4.48-4.41,7.19-1.94,1.92-4.07,3.68-6.38,5.14-.54-.51-1.61-1.53-2.15-2.04,15.3-13.79,23.03-33.83,29.39-52.93,9.77-25.83,13.98-54.54,10.32-81.85-.18-10.59-11.98-14.13-19.43-18.73-11.14-3.89-22.96-5.32-34.66-6.34-2.08-.36-6.27-1.08-8.35-1.44l-.21-1.41h0Z"/>
  <path class="cls-1" d="M567.9,162.7c6.07-.18,12.06-.21,18.17-.15v1.62c-6.06.02-12,.05-18,.02l-.16-1.49h0Z"/>
  <path class="cls-77" d="M586.07,162.55c26.26-.02,52.5-.02,78.78.02v1.61c-26.28.02-52.52.03-78.78,0v-1.62h0Z"/>
  <path class="cls-54" d="M664.85,162.57c5.48-.05,10.86-.1,16.41-.05v1.67c-5.55,0-10.93.05-16.41-.02v-1.61h0Z"/>
  <path class="cls-144" d="M681.26,162.52c5.63-.16,11.18.33,16.77,1.31-5.68.08-11.16.41-16.77.36v-1.67h0Z"/>
  <path class="cls-3" d="M90.29,170.4c25.83-9.03,54.05-5.47,80.91-5.88-24.37,3.12-49.5-.87-73.56,5.35-2.4.64-4.91.51-7.35.53h0Z"/>
  <path class="cls-72" d="M171.2,164.52c4.68-.26,9.31-.13,14.03.02,30.18,2.68,60.64.94,90.94,1.08.67.11,2.02.33,2.69.43,15.17,2.68,30.99,2,45.22,8.86,8.93,2.22,13.74,10.75,21.01,15.66,3.66,27.31-.56,56.02-10.32,81.85-6.37,19.1-14.1,39.14-29.39,52.93-10.57,6.01-20.47,13.97-32.76,16.05-9.83,2.31-19.94,3.09-29.92,4.51-23.8.79-47.61.56-71.39.26-23.26-1.61-48.89-5.35-65.78-23.11-22.8-22.86-22.83-57.3-28.64-87.05.31-16.79-3.23-33.79.57-50.37,1.71-6.89,9.04-9.73,12.83-15.25,2.45-.02,4.96.11,7.35-.53,24.06-6.22,49.19-2.23,73.56-5.35M138.6,168.43c-11.87.97-23.73,1.99-35.55,3.35-9.8,1.38-19.33,7.35-22.35,17.12-1.35,31.87,6.38,63.12,10.57,94.54.94,8.22,6.99,14.71,8.07,22.99,5.3,7.71,8.81,17.76,18.43,20.88,6.32,9.47,17.54,9.09,27.24,11.93,45.08,4.02,91.68,9.39,135.67-4.53,8.3-3.13,14.61-9.86,22.68-13.46,19.15-14.95,25.9-40.1,30.72-62.93,7.07-22.62,14.3-48.81,2.08-70.74-16.77-18.27-44.02-17.35-66.86-20.01-43.56.38-87.23-1.28-130.71.85h0Z"/>
  <path class="cls-112" d="M185.23,164.54c30.28-.15,60.81-1.81,90.94,1.08-30.3-.15-60.76,1.59-90.94-1.08h0Z"/>
  <path class="cls-76" d="M498.99,179.56c15.77-13.95,38.8-14.61,58.81-15.03,41.01,3.04,82.32.41,123.47,1.38,7.14-.71,14.87,1.46,21.76-1.33,12.97.03,26.49,1.03,38.85,5.2,1.56.69,3.13,1.36,4.74,1.99,7.76,6.22,15.43,14.43,16.67,24.73-2.18,9.42-1.64,19.14-1.92,28.74-3.04-12.9,1.36-29.74-9.01-40.24-7.96-8.86-20.24-9.47-31.1-11.54-27.97-2.72-56.02-5.74-84.15-5.6-8.62,1.4-17.32,1.51-25.92.36-22.78,2.45-45.76,1.69-68.47,4.84-13.8,1.81-30.22.94-40.03,12.77-13.08,11.93-11.72,31.69-6.71,47.15,4.23,11.21,7.5,22.73,9.86,34.48,6.43,16.61,17.45,30.53,26.46,45.66,16.68,11.37,34.61,24.5,56.03,22.52,11.31-1.53,22.52,3.46,33.73.49,4.33-1.02,8.35,1.92,12.7,1.51,10.39.43,20.83.23,31.22-.44,19.38,3.04,38.24-4.27,54.64-13.79,14.43-11.92,23.26-29.18,30.56-46.09.67,1.82,1.38,3.64,2.13,5.47-2.92,10.5-6.27,20.98-11.14,30.76-.82-.31-2.45-.92-3.27-1.23-14.07,19.89-39.18,30.61-63.16,30-31.54.89-63.12,1.53-94.62-.87-17.84.66-33.6-8.76-48.66-16.99-13.28-20.06-27.2-40.65-32.22-64.6-3.97-14.05-8.98-27.95-9.63-42.69l-1.07-.76c-.43,2.66-1.26,7.98-1.69,10.64-.13-.84-.41-2.51-.54-3.35,0-5.78.3-11.49-.15-17.23.1-8.81,3.35-17.32,8.94-24.08.95-.94,1.92-1.89,2.87-2.84h0Z"/>
  <path class="cls-42" d="M557.79,164.52c3.41-.15,6.84-.28,10.27-.33,6.01.03,11.95,0,18-.02,26.26.03,52.5.02,78.78,0,5.48.07,10.86.02,16.41.02,5.61.05,11.09-.28,16.77-.36,1.25.18,3.74.56,4.99.74-6.89,2.79-14.62.62-21.76,1.33-41.15-.97-82.46,1.66-123.47-1.38h0Z"/>
  <path class="cls-164" d="M278.86,166.05c3.04-.13,9.09-.41,12.13-.54,11.7,1.02,23.52,2.45,34.66,6.34,7.45,4.6,19.25,8.14,19.43,18.73-7.27-4.91-12.08-13.44-21.01-15.66-14.23-6.86-30.05-6.19-45.22-8.86h0Z"/>
  <path class="cls-92" d="M370.71,166.1c12.6-.71,20.89,10.9,33.53,10.26,15.44-.54,30.87-1.36,46.23-3.18,5.88-3.33,9.14,2.2,13.92,3.56,1.48,3.68-1.62,4.09-4.58,4.1,6.02,2.87-1.1,6.63.15,11.09.53,16.86,3.4,33.46,7.66,49.76-2.82-4.64-4.2-9.95-6.3-14.9-1.26-13.64-8.91-25.41-16.1-36.62-7.81-5.09-17.48-8.07-26.9-7.14-13.06.1-25.93-3.5-36.52-11.21-5.22.8-8.04-2.74-11.09-5.73h0Z"/>
  <path class="cls-105" d="M138.6,168.43c43.48-2.13,87.15-.48,130.71-.85,22.85,2.66,50.09,1.74,66.86,20.01,12.21,21.93,4.99,48.12-2.08,70.74-4.83,22.83-11.57,47.97-30.72,62.93-8.07,3.59-14.38,10.32-22.68,13.46-43.99,13.92-90.58,8.55-135.67,4.53-9.7-2.84-20.93-2.46-27.24-11.93-9.62-3.12-13.13-13.16-18.43-20.88-1.08-8.29-7.14-14.77-8.07-22.99-4.19-31.41-11.92-62.66-10.57-94.54,3.02-9.77,12.56-15.74,22.35-17.12,11.82-1.36,23.68-2.38,35.55-3.35M182.92,170.05c-16.54,2.31-33.43-1-49.96,1.85-13.44,2.22-30.36-.13-40.83,10.39-3.33,3.41-7.4,7.4-4.91,13.08,2.66,22.85,2.58,47.27,13.92,67.7-1.31,5.65.31,11.37-.15,17.13,5.61,1.38,3.12,7.75,6.89,10.88,1.05,2.12-2.18,4.53.21,6.38,4.19,4.46,1.74,10.8,3.97,16.02,3.07-.13,6.25-1.82,8.99.44.79,6.29,6.96,9.57,10.72,14.05,7.09-2.26,12.31,5.6,19.32,5.35,4.78-.74,9.26,1.18,13.67,2.56,13.44,1.58,27.24.87,40.65,3.53,13.69-3.1,28.08.2,41.98-2.07,9.4-1.67,18.58-4.46,27.92-6.48,11.09-2.94,18.99-11.82,29.39-16.33,3.61-5.1,7.83-9.72,11.67-14.64,8.44-15.02,10.98-32.22,15.49-48.6,5.1-20.55,8.9-43.9-.71-63.66-8.73-10.06-23.49-13.11-36.16-14.64-14.8-4.63-30.51-.38-45.54-3.53-22.11.53-44.44-1.94-66.55.57h0Z"/>
  <path class="cls-81" d="M611.2,168.22c8.6,1.15,17.3,1.03,25.92-.36,28.13-.15,56.18,2.87,84.15,5.6,10.87,2.07,23.14,2.68,31.1,11.54,10.37,10.5,5.97,27.34,9.01,40.24.43.85,1.28,2.54,1.71,3.4-.39,18.4-5.27,36.39-9.77,54.16-.76-1.82-1.46-3.64-2.13-5.47-7.3,16.9-16.13,34.17-30.56,46.09-16.4,9.52-35.25,16.82-54.64,13.79-10.39.67-20.83.87-31.22.44-4.35.41-8.37-2.53-12.7-1.51-11.21,2.97-22.42-2.02-33.73-.49-21.42,1.99-39.36-11.14-56.03-22.52-9.01-15.13-20.02-29.05-26.46-45.66-2.36-11.75-5.63-23.27-9.86-34.48-5.01-15.46-6.37-35.22,6.71-47.15,9.81-11.83,26.23-10.96,40.03-12.77,22.71-3.15,45.69-2.4,68.47-4.84M632.54,171.53c-12.36,2.68-25.26-.77-37.67,1.77-14.97,2.91-30.25.36-44.84,5.92-6.48,6.81-14.56-3.58-20.4,2.28-8.57-1.07-14.31,5.78-21.89,7.88-8.65,7.8-5.86,19.97-6.01,30.18-.03,12.98,3,25.49,7.86,37.49,9.49,3.87,6.91,16.71,13.1,22.98,7.62,3.22,6.93,12.64,11.11,18.61,2.31.53,3.48-.51,3.46-3.1,5.7,2.13,10.95,6.61,13.28,12.44,4.69.61,7.06,5.22,11.42,6.58,4.53-.38,8.45,2.26,12.57,3.58,8.22-2.43,16.54,1.61,24.67,3.07,11.19.02,22.9-2.49,33.32,3.17,16.17,3.76,33.12-.77,49.29,1.64,10.52.77,20.58-5.01,30.53-7.8,8.7-4.23,13.52-12.79,18.51-20.58,5.92.05,5.74-7.07,9.83-10.01,8.81-15.71,11.44-34.01,15.85-51.29,1.25-15.66,2.82-33.66-6.7-47.17-3.51-4-9.09-4.79-13.21-8.07-20.56-3.4-40.98-8.88-61.94-8.9-14.05-2-28.16.98-42.15-.67h0Z"/>
  <path class="cls-124" d="M182.92,170.05c22.11-2.51,44.44-.05,66.55-.57,15.03,3.15,30.74-1.1,45.54,3.53,12.67,1.53,27.43,4.58,36.16,14.64,9.6,19.76,5.81,43.12.71,63.66-4.51,16.38-7.06,33.58-15.49,48.6-3.84,4.92-8.06,9.54-11.67,14.64-10.41,4.51-18.3,13.39-29.39,16.33-9.34,2.02-18.51,4.81-27.92,6.48-13.9,2.26-28.3-1.03-41.98,2.07-13.41-2.66-27.21-1.95-40.65-3.53-4.41-1.38-8.9-3.3-13.67-2.56-7.01.25-12.23-7.62-19.32-5.35-3.76-4.48-9.93-7.76-10.72-14.05-2.74-2.26-5.92-.57-8.99-.44-2.23-5.22.21-11.55-3.97-16.02-2.4-1.85.84-4.27-.21-6.38-3.77-3.13-1.28-9.5-6.89-10.88.46-5.76-1.17-11.49.15-17.13-11.34-20.43-11.26-44.86-13.92-67.7-2.49-5.68,1.58-9.67,4.91-13.08,10.47-10.52,27.39-8.17,40.83-10.39,16.53-2.86,33.42.46,49.96-1.85"/>
  <path class="cls-124" d="M146.76,173.14c-8.5,2.12-17.48,1.85-25.69,5.17-3.36,1.87-8.5-3.76-10.34,1.21-1.49,4.56-9.86,3.59-8.83,9.27,0,4.3.66,17.28-2.1,8.19-5.84,2.49.79,5.09,3.46,6.91.71,5.28.38,16.18,8.06,16.64,4.45,4.71-3.58,6.2-4.4,10.91,2.17,4.76,3.84,9.78,6.84,14.13,3.63-1.89,3.15,4,6.27,3.79,4.02-.61,3.58,2.35-.1,2.22,1.21,3.4,8.14,3.07,6.2,7.68-.56,3.2-.85,10.18,4.04,7.53,7.8.41,4.28,10.11,9.95,13.51,2.53,2.27-4.81,6.7.05,7.94,5.05.95.23,8.9,5.63,9.27-.69.41-2.08,1.23-2.77,1.64-.62,4.19,4.37,5.78,7.47,7.01,3.91,2.86,8.93,2.94,13.38,4.51,2.58,2.28,2.38,6.12,4.1,8.98,5.15,3.84,11.36-.8,16.95,2.68,2.33,4.04,8.26,4.94,12.33,2.99,3.76-1.49,5.07,3.3,6.93,5.53,12.1-.11,24.64,1.51,35.98-3.48,4.1-1.31,4.17,6.63,7.7,2.58,1.84-3.05,6.27-2.74,7.24-6.35,3.46-.59,8.78,6.34,9.9.25,6.45,2.33,9.8-4.84,15.46-4.6,8.09-3.45,14.54-10.09,22.88-12.93,5.61-3.04,6.29-9.62,10.6-13.79,8.96-13.49,6.25-31.04,13.77-45.17,4.38-16.22,7.34-33.84,2.1-50.22-2.25-5.1-3.25-11.23-8.44-14.31-14.79-4.83-29.72-10.47-45.48-10.42-32.84.02-65.67-.13-98.51.07-10.16,2.46-20.37.69-30.63.66"/>
  <path class="cls-39" d="M78.94,177.01c3.55-2.59,7.07-5.33,11.34-6.61-3.79,5.51-11.13,8.35-12.83,15.25-3.81,16.58-.26,33.58-.57,50.37-.67,1.85-1.3,3.73-1.87,5.63-.48-1.59-.94-3.2-1.38-4.79-1.3-15.18-1.54-30.43-1.13-45.66.84-2.23,1.49-4.51,2.08-6.81.48-1.69.9-3.38,1.3-5.07.92-1.79,1.77-3.63,2.79-5.35.07.75.21,2.28.28,3.05h0Z"/>
  <path class="cls-151" d="M632.54,171.53c13.98,1.66,28.1-1.33,42.15.67,20.96.02,41.38,5.5,61.94,8.9,4.12,3.28,9.7,4.07,13.21,8.07,9.52,13.51,7.94,31.51,6.7,47.17-4.42,17.28-7.04,35.58-15.85,51.29-4.09,2.94-3.91,10.06-9.83,10.01-4.99,7.8-9.81,16.35-18.51,20.58-9.95,2.79-20.01,8.57-30.53,7.8-16.17-2.41-33.12,2.12-49.29-1.64-10.42-5.66-22.12-3.15-33.32-3.17-8.12-1.46-16.45-5.5-24.67-3.07-4.12-1.31-8.04-3.96-12.57-3.58-4.37-1.36-6.73-5.97-11.42-6.58-2.33-5.83-7.58-10.31-13.28-12.44.02,2.59-1.15,3.63-3.46,3.1-4.19-5.97-3.5-15.39-11.11-18.61-6.19-6.27-3.61-19.1-13.1-22.98-4.86-12-7.89-24.5-7.86-37.49.15-10.21-2.64-22.39,6.01-30.18,7.58-2.1,13.33-8.94,21.89-7.88,5.84-5.86,13.92,4.53,20.4-2.28,14.59-5.56,29.87-3.02,44.84-5.92,12.41-2.54,25.31.9,37.67-1.77M645.7,174.75c-6.81.59-13.49,1.64-20.24,2.35-22.85.76-45.09,6.06-67.85,7.71-7.62-3.51-7.62,4.07-11.98,6.3-10.14,6.56-17.76,16.12-26.44,24.36-3.38,8.4-.39,16.99,1.67,25.26,5.7.82-1.97,8.73,2.74,10.52,5.42,3.15,3.45,10,6.91,14.39,1.9,3.18,2.46,7.09,4.89,10.01,3.12.05,2.84-4.2,3.43-6.35,4.92-1.23,3.61,5.66,7.04,7.29,2.41,4.38,4.12,11.57,10.39,10.93-3.56,4.69,4.45,1.49,4.05,6.17,2.95,0,5.86-.79,8.83-.94,1.89,5.1,8.96,2.72,13.16,3.15,6.22,7.96,19.56,3.66,25.83,12.06,2.74.82,8.12,4.56,7.86-.84,5.86,1.41,12.24,1.05,16.3,6.14,15.71,7.27,34.06,1.81,50.5,5.04,2.64-1.05,6.4-1.05,7.25-4.33,11.51-2.02,24.65-3.41,32.18-13.61,3.82-5.91,5.99-13.64,12.56-17.07,12.06-22.17,22.7-47.33,18.56-73.12-2.56-4.63-1.81-13.79-9.21-13.74-2.26-7.09-8.52-12.18-16.36-11.69-11.39-6.25-24.9-4.73-36.65-9.01-15.13-.67-30.28-3.28-45.45-1h0Z"/>
  <path class="cls-108" d="M746.62,171.76c5.96-2.1,8.78,6.66,13.36,9.09,5.01,9.67,8.39,20.24,6.96,31.33-2.41,32.71-7.62,65.65-19.99,96.21-.71,1.66-1.38,3.32-2.04,5.01-.82.38-2.45,1.12-3.27,1.48l.53-1.33c4.87-9.78,8.22-20.25,11.14-30.76,4.5-17.77,9.37-35.76,9.77-54.16.15-1.25.44-3.73.59-4.97,1.67-8.44,1.92-17.18-.11-25.55l-.26-1.61c-1.25-10.31-8.91-18.51-16.67-24.73h0Z"/>
  <path class="cls-23" d="M146.76,173.14c10.26.03,20.47,1.81,30.63-.66,32.84-.2,65.67-.05,98.51-.07,15.76-.05,30.69,5.6,45.48,10.42,5.19,3.09,6.19,9.21,8.44,14.31,5.24,16.38,2.28,34.01-2.1,50.22-7.52,14.13-4.81,31.68-13.77,45.17-4.32,4.17-4.99,10.75-10.6,13.79-8.34,2.84-14.79,9.49-22.88,12.93-5.66-.25-9.01,6.93-15.46,4.6-1.12,6.09-6.43-.84-9.9-.25-.97,3.61-5.4,3.3-7.24,6.35-3.53,4.05-3.59-3.89-7.7-2.58-11.34,4.99-23.88,3.36-35.98,3.48-1.85-2.23-3.17-7.02-6.93-5.53-4.07,1.95-10,1.05-12.33-2.99-5.6-3.48-11.8,1.17-16.95-2.68-1.72-2.86-1.53-6.7-4.1-8.98-4.45-1.58-9.47-1.66-13.38-4.51-3.1-1.23-8.09-2.82-7.47-7.01.69-.41,2.08-1.23,2.77-1.64-5.4-.38-.57-8.32-5.63-9.27-4.86-1.25,2.48-5.68-.05-7.94-5.66-3.4-2.15-13.1-9.95-13.51-4.89,2.64-4.6-4.33-4.04-7.53,1.94-4.61-4.99-4.28-6.2-7.68,3.68.13,4.12-2.82.1-2.22-3.12.21-2.64-5.68-6.27-3.79-3-4.35-4.68-9.37-6.84-14.13.82-4.71,8.85-6.2,4.4-10.91-7.68-.46-7.35-11.36-8.06-16.64-2.68-1.82-9.31-4.41-3.46-6.91,2.76,9.09,2.1-3.89,2.1-8.19-1.03-5.68,7.34-4.71,8.83-9.27,1.84-4.97,6.98.66,10.34-1.21,8.21-3.32,17.18-3.05,25.69-5.17M187.82,174.99c-13.8,1.72-27.49,3.51-41.33,3.05-5.07,2.87-10.59,7.29-16.63,4.25-5.63.9-3.48,8.55-.08,11.14-2.33.41-6.63.28-6.52,3.61-1.36,4.23,3.84,3.41,6.42,4.55.11-5.33,3.35-9.4,8.39-11.24.15,3.48-.92,8.11-4.91,8.83,1.94,6.29,14.07-1.94,9.03,10.44-1.51,8.94,4.58,17.86.77,26.62,2,2.72,4.53,5.88,7.86,7.2-.9,2.08-2.08,4.04-2.92,6.17-.9,4.32,4.94,4.41,7.71,6.02,1.72-1.97,3.99-3.55,6.75-2.72,2.68,5.07,5.14,10.55,5.5,16.38,3.3.56,5.42-5.63,8.26-2.08,4.19,2.79,13.28,10.67-1.97,7.01-.66,4,9.27-1.12,5.86,4.37-2.18,3.63.33,4.14,3.69,3.91-2.94,4.56,2.13,8.8,3.61,12.95,1.21,4.64,5.47,5.53,9.54,5.07-.56-1.67-1.05-3.36-1.48-5.06,5.73-1.31,8.29,4.61,11.18,8.34.18-.82.56-2.46.74-3.27,6.17-2.04,5.3,4.25,6.4,8.06,3.1-.39,2.95-4.12,3.45-6.43,2.33-.44,3.46.64,3.38,3.27,2.99-1.82,4.89-4.66,4.84-8.24,4.97-.89,5.27,4.86,3.22,7.96,4.81.31,9.62,1.54,13.8,4.02.43,2.71,2.84,3.05,5.17,2.63.77-3.94,2.45-7.58,4.12-11.19,5.4-.57,9.11,6.15,14.33,3.55,2.87-.97,1.81,5.4,5.01,4.46,5.43,1.12,5.02-7.7,9.85-8.16,4.5-1.43,3.22,6.5,7.78,4.81.59-1.82.3-6.55,3.2-5.78,4.78,2.64,6.32-5.91,11.37-2.72,6.06-7.6,10.44-15.99,10.44-25.85-5.71-6.24,4.41-7.94,2.61-12.65-2.05-3.3,3.04-3.59,5.14-4.3,1.59-5.35,3.41-10.8,3.09-16.41-1.07-6.52,5.35-11.13,3.89-17.53-1.74-11.34.07-24.39-6.96-34.06-12.74-4.97-25.9-9.24-39.42-11.44-16.2-2.25-32.56,1.46-48.78-.28-8.45,2.92-16.49-2.2-24.98.54-6.84-1.36-13.39,1.92-20.4.21h0Z"/>
  <path class="cls-152" d="M187.82,174.99c7.01,1.71,13.56-1.58,20.4-.21,8.49-2.74,16.53,2.38,24.98-.54,16.22,1.74,32.58-1.97,48.78.28,13.52,2.2,26.69,6.47,39.42,11.44,7.02,9.67,5.22,22.71,6.96,34.06,1.46,6.4-4.96,11.01-3.89,17.53.33,5.61-1.49,11.06-3.09,16.41-2.1.71-7.19,1-5.14,4.3,1.81,4.71-8.32,6.42-2.61,12.65,0,9.86-4.38,18.25-10.44,25.85-5.06-3.18-6.6,5.37-11.37,2.72-2.9-.77-2.61,3.96-3.2,5.78-4.56,1.69-3.28-6.24-7.78-4.81-4.83.46-4.41,9.27-9.85,8.16-3.2.94-2.13-5.43-5.01-4.46-5.22,2.61-8.93-4.12-14.33-3.55-1.67,3.61-3.35,7.25-4.12,11.19-2.33.43-4.74.08-5.17-2.63-4.19-2.48-8.99-3.71-13.8-4.02,2.05-3.1,1.76-8.85-3.22-7.96.05,3.58-1.85,6.42-4.84,8.24.08-2.63-1.05-3.71-3.38-3.27-.49,2.31-.34,6.04-3.45,6.43-1.1-3.81-.23-10.09-6.4-8.06-.18.8-.56,2.45-.74,3.27-2.89-3.73-5.45-9.65-11.18-8.34.43,1.69.92,3.38,1.48,5.06-4.07.46-8.32-.43-9.54-5.07-1.48-4.15-6.55-8.39-3.61-12.95-3.36.23-5.88-.28-3.69-3.91,3.41-5.48-6.52-.36-5.86-4.37,15.25,3.66,6.15-4.22,1.97-7.01-2.84-3.55-4.96,2.64-8.26,2.08-.36-5.83-2.82-11.31-5.5-16.38-2.76-.82-5.02.76-6.75,2.72-2.77-1.61-8.62-1.71-7.71-6.02.84-2.13,2.02-4.09,2.92-6.17-3.33-1.33-5.86-4.48-7.86-7.2,3.81-8.76-2.28-17.68-.77-26.62,5.04-12.37-7.09-4.15-9.03-10.44,3.99-.72,5.06-5.35,4.91-8.83-5.04,1.84-8.27,5.91-8.39,11.24-2.58-1.13-7.78-.31-6.42-4.55-.11-3.33,4.19-3.2,6.52-3.61-3.4-2.59-5.55-10.24.08-11.14,6.04,3.04,11.55-1.38,16.63-4.25,13.84.46,27.52-1.33,41.33-3.05M273.01,176.6c-15.23,2.13-30.66.79-45.86,3.13-3.4.25-6.6-1.44-9.96-1.62-6.99,2.61-14.44.2-21.4,3.76-.18-.69-.56-2.08-.76-2.77-4.17,1.17-13.79-1.81-12.72,4.79.51,8.9-12.24-1.21-13.11,6.65-.31,2.15.66,4.15,1.23,6.17-4.15-.26-2.64,4.27-2.86,6.93,3.45-.64,8.65-3.84,10.7.72,5.14,2.48-1.3,9.7,3.43,12.88.16,2.84-1.69,5.94,1.54,8.09-1.12,5.3-1.4,10.65-.87,16.1,3.86.97,4.07-3.56,6.53-5.22-.16,2.95,1.21,7.68-3.38,7.14,3.87,2.07,5.61,6.55,9.96,7.93-.74-3.89-1.1-7.78.23-11.6,3.17.46,8.47,2.08,7.3,6.22-1.3,7.16,5.15,18.97,13.46,13.88-.53,3.91,4.97,3.73,6.4,1.07-.71-4.05-4.68-12.06,6.55-5.76,3.92-.15,7.78.54,11.59,1.44,2.89,3.61,2.12,7.85-1.18,10.83,5.6,4.58,7.25-4.96,13.11-3.15,5.83-.53-5.94,4.17-.11,3.32,3.27-1.94,6.71-.02,7.48,3.02-2.84,5.61,5.51,5.68,9.06,6.99-1.81-2.51-4.09-5.01-3.4-8.35,4.38-.46,4.73,5.09,7.02,7.73,2.05-.43,4.07-.95,6.12-1.4-3.84-2.94-2.76-7.17-1.25-11.09,3.82-1.1,3.41,3.84,4.87,6.09,2.94-.97,6.98-1.07,7.83-4.73.26-4,6.01,4.84,4.64.38-3-6.07,5.89-6.68,9.5-8.96.72-3.36,4.37-2.46,6.91-3.1,1.54-5.5,1.48-11.59,5.28-16.13-1.07-3.18-2-6.47.43-9.32,2.59-1.74,5.06-3.68,6.07-6.76-1.49-.85-3-1.66-4.53-2.41-2.08-3.56,3.46-1.71,2.91-4.56,1.25-4.92-4.73-5.74-4.45-10.82,3.07-1.61,7.75-3.87,5.76-8.12-3.59-1.44-6.48-4.23-6.76-8.27-13.69-6.06-28.23-11.06-43.35-11.09h0Z"/>
  <path class="cls-121" d="M359.91,173.68c3.92,4.46,6.37,10.67,5.1,16.64,3,12.28,5.22,26.14-.23,38.08-3.99,9.31-4.46,19.56-6.99,29.3-7.47,22.99-14.62,48.25-34.55,63.88-5.68,3.5-10.95,9.75-18.27,8.06.64-.57,1.9-1.69,2.54-2.25,2.31-1.46,4.45-3.22,6.38-5.14,2.08-1.18,4.14-2.43,6.19-3.64,9.7-3.09,13.59-14.41,19.61-21.6,11-21.94,16.9-46.09,20.29-70.26,4.35-17.38,3.79-35.66-.08-53.06h0Z"/>
  <path class="cls-46" d="M645.7,174.75c15.17-2.28,30.31.33,45.45,1,11.75,4.28,25.26,2.76,36.65,9.01,7.85-.49,14.1,4.6,16.36,11.69,7.4-.05,6.65,9.11,9.21,13.74,4.14,25.78-6.5,50.94-18.56,73.12-6.56,3.43-8.73,11.16-12.56,17.07-7.53,10.19-20.68,11.59-32.18,13.61-.85,3.28-4.61,3.28-7.25,4.33-16.45-3.23-34.79,2.23-50.5-5.04-4.05-5.09-10.44-4.73-16.3-6.14.26,5.4-5.12,1.66-7.86.84-6.27-8.4-19.61-4.1-25.83-12.06-4.2-.43-11.28,1.95-13.16-3.15-2.97.15-5.88.94-8.83.94.39-4.68-7.62-1.48-4.05-6.17-6.27.64-7.98-6.55-10.39-10.93-3.43-1.62-2.12-8.52-7.04-7.29-.59,2.15-.31,6.4-3.43,6.35-2.43-2.92-2.99-6.83-4.89-10.01-3.46-4.4-1.49-11.24-6.91-14.39-4.71-1.79,2.95-9.7-2.74-10.52-2.07-8.27-5.06-16.86-1.67-25.26,8.68-8.24,16.3-17.79,26.44-24.36,4.37-2.23,4.37-9.81,11.98-6.3,22.76-1.66,45-6.96,67.85-7.71,6.75-.71,13.43-1.76,20.24-2.35M650.61,177.98c-6.93,1.92-14.21,1.9-21.22,3.3-2.07,2.15-4.71,2.77-7.34,1.26-12.42,2.25-25.42,2.43-36.99,8.29-1.02,6.63-9.32-1.23-12.15,4.55-7.4,2.61-10.75,10.01-16.58,14.57-6.24,5.99-5.91,15.44-7.71,23.29-6.11,6.43,5.33,8.37,2.02,13.54-2.22,6.81,4.56,10.42,8.62,14.48-2.3,3.74,1.33,8.94,5.53,6.75,7.24-.48,6.47,13.24,13.59,10.11,3.59-1.89,4.78,3.22,6.7,5.27,7.45,1.4,13.36,6.68,20.53,9.08,6.73,6.73,17.94-1.08,23.72,7.34,5.06,5.92,12.87,5.61,19.63,8.24,3.48,1.53,7.04-2.63,10.47-.46,2.41.97,4.84,3.2,7.57,1.81,12.62,1.35,26.31-2.04,37.35-8.88,8.72,3.07,15.33-7.43,19.66-13.16,11.32-13.03,17.74-29.26,21.63-45.82,4.66-8.07,6.48-18.61,2.23-27.34-7.19-5.06-6.15-16.04-14.23-20.2-2.72-.31-3.61-2.89-5.15-4.71-8.57-1.51-16.22-7.98-25.54-6.22-12.8-5.42-27.03-7.09-40.85-4.83-3.84.82-7.71-1.13-11.49-.23h0Z"/>
  <path class="cls-62" d="M831.73,180.16c.53-2.2,1.12-4.4,1.81-6.55.16,5.04.57,10.18.23,15.26l-1.61-.46c-.08-2.76-.26-5.51-.43-8.26h0Z"/>
  <path class="cls-155" d="M273.01,176.6c15.12.03,29.66,5.04,43.35,11.09.28,4.04,3.17,6.83,6.76,8.27,1.99,4.25-2.69,6.52-5.76,8.12-.28,5.07,5.7,5.89,4.45,10.82.56,2.86-4.99,1-2.91,4.56,1.53.76,3.04,1.56,4.53,2.41-1.02,3.09-3.48,5.02-6.07,6.76-2.43,2.86-1.49,6.14-.43,9.32-3.81,4.55-3.74,10.64-5.28,16.13-2.54.64-6.19-.26-6.91,3.1-3.61,2.28-12.51,2.89-9.5,8.96,1.36,4.46-4.38-4.38-4.64-.38-.85,3.66-4.89,3.76-7.83,4.73-1.46-2.25-1.05-7.19-4.87-6.09-1.51,3.92-2.59,8.16,1.25,11.09-2.05.44-4.07.97-6.12,1.4-2.3-2.64-2.64-8.19-7.02-7.73-.69,3.35,1.59,5.84,3.4,8.35-3.55-1.31-11.9-1.38-9.06-6.99-.77-3.04-4.22-4.96-7.48-3.02-5.83.85,5.94-3.84.11-3.32-5.86-1.81-7.52,7.73-13.11,3.15,3.3-2.99,4.07-7.22,1.18-10.83-3.81-.9-7.66-1.59-11.59-1.44-11.23-6.3-7.25,1.71-6.55,5.76-1.43,2.66-6.93,2.84-6.4-1.07-8.3,5.09-14.75-6.73-13.46-13.88,1.17-4.14-4.14-5.76-7.3-6.22-1.33,3.82-.97,7.71-.23,11.6-4.35-1.38-6.09-5.86-9.96-7.93,4.6.54,3.22-4.19,3.38-7.14-2.46,1.66-2.68,6.19-6.53,5.22-.53-5.45-.25-10.8.87-16.1-3.23-2.15-1.38-5.25-1.54-8.09-4.73-3.18,1.71-10.41-3.43-12.88-2.05-4.56-7.25-1.36-10.7-.72.21-2.66-1.3-7.19,2.86-6.93-.57-2.02-1.54-4.02-1.23-6.17.87-7.86,13.62,2.25,13.11-6.65-1.07-6.6,8.55-3.63,12.72-4.79.2.69.57,2.08.76,2.77,6.96-3.56,14.41-1.15,21.4-3.76,3.36.18,6.56,1.87,9.96,1.62,15.2-2.35,30.63-1,45.86-3.13M272.99,179.75c-3.15,2.31-6.61,1.28-10.14.92-3.86,1.72-13.18,7.19-13.67,0-4.53.85-12.47,9.68-14.77,1.85-5.53,1.36-12.1-1.87-16.59,2.3-3.77,3.76-9.14,1.02-13.82,1.05-3.3,1.21-.57,3.48.82,5.04-.49,3.81-4.96,5.33-6.04,9.01,7.6,1.15-3.28,1.76,1.82,5.22,1.87-1.58,7.89-5.91,6.02-.49-6.56,2.64-2.68,10.42-4.25,15.48-1.89,4.04,3.74,4.02,6.27,4.91-.77-6.02-3.38-13.18,3.2-16.74-7.32,11.41,5.25,9.6,8.4,16.61-4.73-3.09-8.55,1.08-6.38,5.99,5.56,1.64,3.81,7.06,1.35,10.6,5.63-1.53,7.37-8.57,10.04-13.2,2.72.72,5.45,1.54,8.16.18-.92,4.3-3.4,10.08,1.28,13.01.61-2.76-1.4-8.29,3.38-6.73,3.99-.76-.51,6.78,3.4,6.48,2.2-.08,3.41.97,3.66,3.17,4.12-1.58,7.73-5.22,12.39-4.71-1.36,7.04,6.86,3.64,9.83,8.14.13-.75.39-2.25.54-3,2.87,1.53,3.28,9.45,6.09,11,1.13-4.46,1.51-9.55,5.43-12.57,4.19.38,5.4,2.86,3.32,6.5,4.84-.41,6.99-4.79,9.78-8.06,4.87.72,9.7,1.94,14.11,4.17,4.79-7.25,5.76-16.2,8.39-24.37-.34-3.1-.62-8.07-4.53-8.52.64-1.54,3.89-3.18,1.94-4.87-4.71-3.4,1.82-7.04,2.86-10.8-5.84,1.05-7.91-6.01-5.15-10.21-1.44.39-2.89.77-4.32,1.13-8.47-8.21-21.88-7.6-32.81-8.49h0Z"/>
  <path class="cls-143" d="M51.65,196.05c-.8-6.55-.33-14.82,5.86-18.63,4.09,2.77,11.6,3.13,8.85,10.85,2.05,15.97-2.49,34.79,7.27,48.58.44,1.59.9,3.2,1.38,4.79.36,9.44,3.35,18.53,3.77,27.93-1.74-2.76-3.61-5.5-4.69-8.58-4.41-16.4-6.25-33.76-13.38-49.29-3.96,1.62-4.83,4.86-2.63,9.73,1.25,11.46,1,22.98,1.54,34.48,2.36,18.86,7.85,37.24,15.89,54.44,1.18,2.58,2.87,4.86,5.01,6.73,7.24,15.26,20.34,27.16,35.07,35.07,7.57,1.94,14.56,5.53,21.98,7.88,9.86,3.76,20.65,3.76,30.99,5.2,42.18,2.2,86.92,3.51,126.08-14.75,3.3-1,2.59-4.73,2.61-7.4-5.6-1.03-11.77,3.18-16.95-.31,3.64-2.12,7.62-3.53,11.59-4.87,7.71-.41,15.46-4.19,23.06-1.2-5.06,6.71-8.26,16.35-17.61,18.15-22.07,7.78-45.53,13.15-69.03,13.18-20.88,3.3-41.77-2.81-62.74.11-25.54-3.38-53.23-8.81-71.53-28.67-12.57-10.72-19.61-25.9-26.74-40.44-.07-6.37-3.61-11.83-5.35-17.77-6.94-27.9-6.27-56.87-10.29-85.21h0Z"/>
  <path class="cls-116" d="M650.61,177.98c3.77-.9,7.65,1.05,11.49.23,13.82-2.26,28.05-.59,40.85,4.83,9.32-1.76,16.97,4.71,25.54,6.22,1.54,1.82,2.43,4.4,5.15,4.71,8.07,4.17,7.04,15.15,14.23,20.2,4.25,8.73,2.43,19.27-2.23,27.34-3.89,16.56-10.31,32.79-21.63,45.82-4.33,5.73-10.95,16.23-19.66,13.16-11.05,6.84-24.73,10.23-37.35,8.88-2.72,1.4-5.15-.84-7.57-1.81-3.43-2.17-6.99,1.99-10.47.46-6.76-2.63-14.57-2.31-19.63-8.24-5.78-8.42-16.99-.61-23.72-7.34-7.17-2.4-13.08-7.68-20.53-9.08-1.92-2.05-3.1-7.16-6.7-5.27-7.12,3.13-6.35-10.59-13.59-10.11-4.2,2.2-7.83-3-5.53-6.75-4.05-4.05-10.83-7.66-8.62-14.48,3.32-5.17-8.12-7.11-2.02-13.54,1.81-7.85,1.48-17.3,7.71-23.29,5.83-4.56,9.17-11.96,16.58-14.57,2.82-5.78,11.13,2.08,12.15-4.55,11.57-5.86,24.57-6.04,36.99-8.29,2.63,1.51,5.27.89,7.34-1.26,7.01-1.4,14.3-1.38,21.22-3.3M668.66,181.28c-10.44,2.49-21.58.02-31.87,3.89-13.52,4.43-27.41,7.66-40.14,14.2-4.96,7.16-12.42,12.85-14.48,21.63-3.46.36-2.12,3.09-1.41,5.3-2.23.28-7.21.71-5.19,4.07,2.36,3.69-2.81,5.56-2.77,9.08,10.54-4.37,9.6,5.51,12.41,10.73-1,6.93,5.7,9.54,8.5,14.62.66,4.12,7.99,4.35,6.22,8.83,2.71,1.28,3.4,6.19,6.99,4.48,1.9,2.69,3.68,6.76,7.14,7.37,6.96-1.85,13.97,2.87,18.38,7.93,9.57,5.7,20.91,7.8,31.94,7.71,4.35,1.13,8.94,2.17,13.46,1.31,6.47,2.74,12.33-4.45,19.12-2.56,1.97-5.14,9.75-2.54,13.34-4.99,8.11-3.15,12.08-10.88,16.89-17.46,8.52-17.22,16.64-36.26,13.67-55.93,0-8.99-4.07-20.01-13.08-23.47-3.5-3.28-6.84-6.71-11.47-8.29-7.29-4.45-16.94-1.87-23.67-7.34-8.03.36-16.08-1.69-23.98-1.12h0Z"/>
  <path class="cls-139" d="M272.99,179.75c10.93.89,24.34.28,32.81,8.49,1.43-.36,2.87-.74,4.32-1.13-2.76,4.2-.69,11.26,5.15,10.21-1.03,3.76-7.57,7.4-2.86,10.8,1.95,1.69-1.3,3.33-1.94,4.87,3.91.44,4.19,5.42,4.53,8.52-2.63,8.17-3.59,17.12-8.39,24.37-4.41-2.23-9.24-3.45-14.11-4.17-2.79,3.27-4.94,7.65-9.78,8.06,2.08-3.64.87-6.12-3.32-6.5-3.92,3.02-4.3,8.11-5.43,12.57-2.81-1.54-3.22-9.47-6.09-11-.15.75-.41,2.25-.54,3-2.97-4.5-11.19-1.1-9.83-8.14-4.66-.51-8.27,3.13-12.39,4.71-.25-2.2-1.46-3.25-3.66-3.17-3.91.3.59-7.24-3.4-6.48-4.78-1.56-2.77,3.97-3.38,6.73-4.68-2.94-2.2-8.71-1.28-13.01-2.71,1.36-5.43.54-8.16-.18-2.68,4.63-4.41,11.67-10.04,13.2,2.46-3.54,4.22-8.96-1.35-10.6-2.17-4.91,1.66-9.08,6.38-5.99-3.15-7.01-15.72-5.2-8.4-16.61-6.58,3.56-3.97,10.72-3.2,16.74-2.53-.89-8.16-.87-6.27-4.91,1.58-5.06-2.31-12.83,4.25-15.48,1.87-5.42-4.15-1.08-6.02.49-5.1-3.46,5.78-4.07-1.82-5.22,1.08-3.68,5.55-5.2,6.04-9.01-1.4-1.56-4.12-3.82-.82-5.04,4.68-.03,10.04,2.71,13.82-1.05,4.5-4.17,11.06-.94,16.59-2.3,2.3,7.83,10.24-1,14.77-1.85.49,7.19,9.81,1.72,13.67,0,3.53.36,6.99,1.4,10.14-.92h0Z"/>
  <path class="cls-36" d="M494.41,180.46c.43.49,1.28,1.46,1.71,1.94-5.6,6.76-8.85,15.26-8.94,24.08-1.41,5.74-1.36,11.49.15,17.23.13.84.41,2.51.54,3.35,2.12,21.83,9.29,42.98,16.53,63.63,3.41,8.21,7.86,15.95,11.36,24.16l-1.67.2c-1.62-2.72-3.13-5.5-4.87-8.14-8.53-17.97-15.17-36.8-19.48-56.23-3.32-15.28-7.14-30.95-4.84-46.68.51-2.18.89-4.4,1.23-6.61,1.1-3.3,2.22-6.6,3.28-9.91,1.66-2.35,3.36-4.66,5.02-7.01h0Z"/>
  <path class="cls-88" d="M668.66,181.28c7.89-.57,15.95,1.48,23.98,1.12,6.73,5.47,16.38,2.89,23.67,7.34,4.63,1.58,7.98,5.01,11.47,8.29,9.01,3.46,13.08,14.48,13.08,23.47,2.97,19.68-5.15,38.72-13.67,55.93-4.81,6.58-8.78,14.31-16.89,17.46-3.59,2.45-11.37-.15-13.34,4.99-6.79-1.89-12.65,5.3-19.12,2.56-4.51.85-9.11-.18-13.46-1.31-11.03.08-22.37-2.02-31.94-7.71-4.41-5.05-11.42-9.78-18.38-7.93-3.46-.61-5.24-4.68-7.14-7.37-3.59,1.71-4.28-3.2-6.99-4.48,1.77-4.48-5.56-4.71-6.22-8.83-2.81-5.09-9.5-7.7-8.5-14.62-2.81-5.22-1.87-15.1-12.41-10.73-.03-3.51,5.14-5.38,2.77-9.08-2.02-3.36,2.95-3.79,5.19-4.07-.71-2.22-2.05-4.94,1.41-5.3,2.05-8.78,9.52-14.48,14.48-21.63,12.74-6.53,26.62-9.77,40.14-14.2,10.29-3.87,21.43-1.4,31.87-3.89M660.44,186.35c-9.24.3-18.14,2.58-26.69,5.88-4.48,1.07-6.11,8.62-11.24,7.17-2.54,2.87-5.68,4.53-9.54,4.78-2.26,3.71-6.01,6.63-6.91,11.03-.05,4.73-5.3,7.73-2.64,12.6-4.2,4.37-1.94,11.46.25,16.36-2.76,2-3.2,5.25-2.92,8.44,6.14-4.2,6.43,8.58,7.4,11.11,2.23,3.5,3.99,9.04,8.98,5.97,5.61,6.4,11.23,12.56,17.02,18.74,17.96,8.32,38.5,9.5,58.02,8.07,5.89-3.92,12.31-7.7,19.83-6.42,9.13-7.4,13.66-18.76,18.53-29.07,6.93-14.1,6.48-30.23,4.35-45.41-4.33-4.55-7.5-10.03-11.21-15.02-7.48-7.34-17.58-10.14-27.57-12-11.24-4.96-23.77-2.63-35.65-2.25h0Z"/>
  <path class="cls-53" d="M3.71,181.84c4.4,1.92,8.01,5.14,10.98,8.86,6.02,7.17,16.15,10.03,21.06,18.28.69,9.6,1.02,19.3,1.59,28.94-1.79,11.98,6.78,23.32,2.08,35.37-5.66-19.32-6.38-39.57-8.52-59.45-6.68-7.4-16.97-10.04-24.36-16.72-2.89-1.1-3.68-3.69-2.82-6.55.51-2.89.1-5.83-.02-8.73h0Z"/>
  <path class="cls-73" d="M475.57,190.26c1.87-1.53,3.69-3.12,5.63-4.56.44,6.07-2.69,14.62,3.68,18.3-2.3,15.72,1.53,31.4,4.84,46.68,4.32,19.43,10.95,38.26,19.48,56.23-7.16-3.63-7.24-13.36-13.33-18.22-1.2-2.56-2.25-5.17-3.41-7.73-4.33-21.93-11.49-43.43-14.82-65.45,2.31-8.4-2.61-16.95-2.07-25.24h0Z"/>
  <path class="cls-102" d="M660.44,186.35c11.88-.38,24.41-2.71,35.65,2.25,10,1.85,20.09,4.66,27.57,12,3.71,4.99,6.88,10.47,11.21,15.02,2.13,15.18,2.58,31.31-4.35,45.41-4.87,10.31-9.4,21.66-18.53,29.07-7.52-1.28-13.93,2.49-19.83,6.42-19.51,1.43-40.06.25-58.02-8.07-5.79-6.19-11.41-12.34-17.02-18.74-4.99,3.07-6.75-2.48-8.98-5.97-.97-2.53-1.26-15.31-7.4-11.11-.28-3.18.16-6.43,2.92-8.44-2.18-4.91-4.45-12-.25-16.36-2.66-4.87,2.59-7.88,2.64-12.6.9-4.4,4.64-7.32,6.91-11.03,3.86-.25,6.99-1.9,9.54-4.78,5.14,1.44,6.76-6.11,11.24-7.17,8.55-3.3,17.45-5.58,26.69-5.88M667.04,189.49c-15.05,1.18-31.45,5.48-40.51,18.28-9.44,3.94-3.69,17.86-12.01,22.83-3.66,7.25-.41,14.48-.48,21.93,4.3-2.72,4.92,2.05,3.25,5.14,4.78,9.06,11.54,16.76,18.28,24.44,10.27,6.34,22.34,8.68,34.15,10.24,9.42.98,19.88,2.22,28.46-2.84,4.83-3.04,11.51-1.49,15.62-5.81,9.88-11.26,15.87-26.24,17.53-41.06-1.97-11.5.51-24.45-7.39-34.14-5.91-9.14-17.1-12.19-26.75-15.92-9.44-4.25-20.09-4.56-30.17-3.09h0Z"/>
  <path class="cls-104" d="M667.04,189.49c10.08-1.48,20.73-1.17,30.17,3.09,9.65,3.73,20.84,6.78,26.75,15.92,7.89,9.68,5.42,22.63,7.39,34.14-1.66,14.82-7.65,29.81-17.53,41.06-4.12,4.32-10.8,2.77-15.62,5.81-8.58,5.06-19.04,3.82-28.46,2.84-11.82-1.56-23.88-3.91-34.15-10.24-6.75-7.68-13.51-15.38-18.28-24.44,1.67-3.09,1.05-7.86-3.25-5.14.07-7.45-3.18-14.67.48-21.93,8.32-4.97,2.58-18.89,12.01-22.83,9.06-12.8,25.46-17.1,40.51-18.28M670.35,193c-10.87.9-21.52,4.22-31.09,9.5-1.51,2.86-3.76,5.1-6.52,6.76-3.32,6.11-8.49,11.73-9.08,18.87-.05,9.32-4.25,19.99,1.21,28.48,3.53,7.16,7.02,14.43,12.26,20.58,12.83,7.07,26.9,12.21,41.93,12.56,12.08,2.1,22.19-5.5,32.92-9.5,8.09-7.86,11.57-18.73,15.03-29.16,1.51-17.22-.03-38.98-16.25-49.12-12.59-5.6-26.28-12.34-40.44-8.96h0Z"/>
  <path class="cls-18" d="M825.96,200.65c2.28-3.97,4.32-8.08,6.2-12.23.56,4.22-.39,10.19-4.83,11.87l-1.38.36h0Z"/>
  <path class="cls-119" d="M670.35,193c14.16-3.38,27.85,3.36,40.44,8.96,16.22,10.14,17.76,31.91,16.25,49.12-3.46,10.44-6.94,21.3-15.03,29.16-10.73,4-20.84,11.6-32.92,9.5-15.03-.34-29.1-5.48-41.93-12.56-5.24-6.15-8.73-13.43-12.26-20.58-5.47-8.49-1.26-19.15-1.21-28.48.59-7.14,5.76-12.77,9.08-18.87,2.76-1.66,5.01-3.91,6.52-6.76,9.57-5.28,20.22-8.6,31.09-9.5M670.37,196.2c-9.04,1.77-18.48,2.71-26.47,7.76-8.76,7.4-13.56,17.99-15.25,29.13-5.55,20.14,6.91,45.89,29.07,48.43,13.57,6.01,30.56,8.45,43.41-.56,4.89-3.41,12.36-3.35,14.59-10.09,12.59-18.87,12.21-47.07-3.53-63.76-12.54-7.14-27-13.97-41.82-10.91h0Z"/>
  <path class="cls-51" d="M670.37,196.2c14.82-3.05,29.28,3.77,41.82,10.91,15.74,16.69,16.12,44.89,3.53,63.76-2.23,6.75-9.7,6.68-14.59,10.09-12.85,9.01-29.84,6.56-43.41.56-22.16-2.54-34.61-28.3-29.07-48.43,1.69-11.14,6.48-21.73,15.25-29.13,7.99-5.05,17.43-5.99,26.47-7.76M670.32,199.3c-10.45,2.72-24.14,3.74-29.82,14.44-10.45,15.56-12.39,37.65-1.31,53.31,3.28,2.69,6.73,5.2,9.75,8.24,12.93,5.1,26.95,10.55,41.08,7.76,7.53-1.72,12.44-9.54,20.6-9.26,4.89-7.63,8.45-15.95,11.36-24.5-1.66-14.16-.18-30.89-13.1-40.51-11.49-6.84-24.83-12.82-38.55-9.49h0Z"/>
  <path class="cls-99" d="M6.55,197.12c7.39,6.68,17.68,9.32,24.36,16.72,2.13,19.88,2.86,40.13,8.52,59.45,2.56,16,9.03,31.09,16,45.59,1.43,2.99,2.84,5.97,4.2,8.99l-1.66.3c-16.92-28.62-24.44-61.71-27.2-94.58-2.08-7.12,1.2-17-5.58-22.14-6.7-3.33-17.12-6.11-18.64-14.33h0Z"/>
  <path class="cls-27" d="M761.37,225.23c.28-9.6-.26-19.32,1.92-28.74l.26,1.61c-.1,8.5-.39,17.04.11,25.55-.15,1.25-.44,3.73-.59,4.97-.43-.85-1.28-2.54-1.71-3.4h0Z"/>
  <path class="cls-8" d="M670.32,199.3c13.72-3.33,27.06,2.64,38.55,9.49,12.92,9.62,11.44,26.34,13.1,40.51-2.91,8.55-6.47,16.87-11.36,24.5-8.16-.28-13.06,7.53-20.6,9.26-14.13,2.79-28.15-2.66-41.08-7.76-3.02-3.04-6.47-5.55-9.75-8.24-11.08-15.66-9.14-37.75,1.31-53.31,5.68-10.7,19.37-11.72,29.82-14.44M673.65,201.09c-9.6,2.04-19.91,3.56-27.82,9.72-4.2,7.11-8.83,14.15-10.21,22.45-5.47,17,5.42,36.3,22.11,41.67,11.36,5.35,24.72,7.66,36.62,2.46,5.27-3.05,10.95-5.45,16.12-8.52,11.85-15.85,11.23-39.06.08-55.16-10.11-8.39-23.44-14.79-36.9-12.62h0Z"/>
  <path class="cls-101" d="M763.56,198.1c2.04,8.37,1.79,17.12.11,25.55-.51-8.52-.21-17.05-.11-25.55h0Z"/>
  <path class="cls-86" d="M673.65,201.09c13.46-2.17,26.79,4.23,36.9,12.62,11.14,16.1,11.77,39.31-.08,55.16-5.17,3.07-10.85,5.47-16.12,8.52-11.9,5.2-25.26,2.89-36.62-2.46-16.69-5.37-27.57-24.67-22.11-41.67,1.38-8.3,6.01-15.35,10.21-22.45,7.91-6.15,18.22-7.68,27.82-9.72M667.05,204.24c-6.34,1.97-12.8,4.04-18.32,7.8-5.7,7.83-10.01,16.77-11.29,26.47-2,11.77,5.63,22.14,12.93,30.38,11.64,5.79,24.75,10.68,37.96,7.58,7.52-1.18,13.66-5.94,20.15-9.55,6.22-7.94,9.96-18.91,7.39-28.89-.54-8.57-1.82-19.71-10.13-24.45-10.37-9.45-25.13-12.03-38.7-9.34h0Z"/>
  <path class="cls-128" d="M825.96,200.65l1.38-.36c-.08.71-.26,2.1-.36,2.81-6.58,3.82-13.69,6.79-19.27,12.1,1.02-9.04,12.85-8.81,18.25-14.54h0Z"/>
  <path class="cls-148" d="M667.05,204.24c13.57-2.69,28.33-.11,38.7,9.34,8.3,4.74,9.59,15.89,10.13,24.45,2.58,9.98-1.17,20.94-7.39,28.89-6.5,3.61-12.64,8.37-20.15,9.55-13.21,3.1-26.33-1.79-37.96-7.58-7.3-8.24-14.94-18.61-12.93-30.38,1.28-9.7,5.6-18.64,11.29-26.47,5.51-3.76,11.98-5.83,18.32-7.8M668.69,205.88c-7.4,2.77-17.48,4-20.38,12.41-4.79,8.24-10.68,17.33-7.42,27.39,2.4,6.06,4.66,12.24,8.83,17.36,12.01,10.96,30.46,14.52,45.77,8.81,9.29-5.78,18.38-13.74,18.5-25.67.48-10.14.43-23.98-9.27-30-9.55-8.93-23.09-13.43-36.03-10.31h0Z"/>
  <path class="cls-118" d="M668.69,205.88c12.93-3.12,26.47,1.38,36.03,10.31,9.7,6.02,9.75,19.86,9.27,30-.11,11.93-9.21,19.89-18.5,25.67-15.31,5.71-33.76,2.15-45.77-8.81-4.17-5.12-6.43-11.31-8.83-17.36-3.27-10.06,2.63-19.15,7.42-27.39,2.9-8.4,12.98-9.63,20.38-12.41M658.57,213.61c-4.87-.33-6.09,6.12-9.19,9.04-9.67,10.24-5.96,25.92.98,36.44,11.46,12.47,32.4,18.25,46.96,8.12,5.96-6.4,14.8-12.11,14.28-22.04,2.22-14.85-6.7-32.86-22.42-34.79-9.63-4.07-21.96-2.66-30.61,3.23h0Z"/>
  <path class="cls-89" d="M487.32,223.71c-1.51-5.74-1.56-11.49-.15-17.23.44,5.74.15,11.46.15,17.23h0Z"/>
  <path class="cls-55" d="M469.84,208.61c5.02-1.87,6.12,3.46,7.8,6.89,3.33,22.03,10.49,43.53,14.82,65.45-7.45-11.31-10.27-25.13-13.54-38.11-5.22,2.41-1.79,8.75-1.07,13.13.89,9.75,7.57,18.51,6.04,28.49-3.23-8.91-6.2-17.91-9.37-26.82-1.82-9.93-4.43-19.71-6.3-29.62-1.74-6.22-2.28-13.89,1.62-19.42h0Z"/>
  <path class="cls-74" d="M658.57,213.61c8.65-5.89,20.98-7.3,30.61-3.23,1.84,1.4,3.64,2.87,5.38,4.43-11.42-3.53-26-6.55-35.19,3-8.26,7.06-14.05,19.14-8.73,29.56,4.23,13.33,19.04,19.92,32.14,20.04,13.52-2.54,24.04-15.44,23.11-29.36,2.08-9.83-7.07-15.76-11.32-23.24,12.92,5.4,17.71,21.57,14.13,34.27-4.58,7.07-9.09,15.61-17.41,18.71-18.94,7.62-44.49-6.14-45.33-27.47-1.36-10.59,7.6-18.32,12.62-26.7h0Z"/>
  <path class="cls-106" d="M689.18,210.38c15.72,1.94,24.64,19.94,22.42,34.79.53,9.93-8.32,15.64-14.28,22.04-14.56,10.13-35.5,4.35-46.96-8.12-6.94-10.52-10.65-26.19-.98-36.44,3.1-2.92,4.32-9.37,9.19-9.04-5.02,8.39-13.98,16.12-12.62,26.7.84,21.34,26.39,35.09,45.33,27.47,8.32-3.1,12.83-11.64,17.41-18.71,3.58-12.7-1.21-28.87-14.13-34.27-1.74-1.56-3.54-3.04-5.38-4.43h0Z"/>
  <path class="cls-22" d="M58.08,221.44c-2.2-4.87-1.33-8.11,2.63-9.73,7.12,15.53,8.96,32.89,13.38,49.29,1.08,3.09,2.95,5.83,4.69,8.58,2.84,8.55,4.38,17.45,6.63,26.16-4.58-3.43-5.15-9.49-7.24-14.41-3.79-9.03-6.47-18.53-10.91-27.26-4.96,4.1-1.46,11.18-.98,16.31,2.33,16.25,7.8,31.71,14.25,46.71-2.13-1.87-3.82-4.15-5.01-6.73-8.04-17.2-13.52-35.58-15.89-54.44-.54-11.51-.3-23.03-1.54-34.48h0Z"/>
  <path class="cls-109" d="M391.31,218.86c14.33-6.14,30.51-9.09,45.99-6.11,13.26,2.97,18.91,17.43,23.96,28.61,11.49,31.35,21.81,63.93,41.84,91.14,14.31,14.25,30.02,28.03,49.75,33.94,16.74,5.47,34.63,5.84,51.95,8.5,23.44,1.13,47.07,4.86,70.49,1.71,23.39.25,47.14-4.19,68.64-13.69-9.83,8.85-22.93,13.31-35.53,16.54-3.58-4.02-9.36.89-13.38.25-46.15,6.15-93.17,1.62-138.36-8.83-21.66-3.79-37.67-19.58-53.11-33.91-17-18.83-25.93-43.07-35.61-66.14-5.37-13.29-8.22-27.62-15.89-39.92-5.1-7.94-12.74-16.53-23.49-14.53-12.77-2.2-32.45,1.13-35.11,16.38-1.92,3.76-3.09,7.78-2.61,12.06-.82,2.36-1.87,4.61-2.99,6.84-5.25-10.39-1.44-22.96,3.46-32.86h0Z"/>
  <path class="cls-85" d="M659.37,217.81c9.19-9.55,23.77-6.53,35.19-3,4.25,7.48,13.41,13.41,11.32,23.24.94,13.92-9.58,26.82-23.11,29.36-13.1-.11-27.9-6.71-32.14-20.04-5.32-10.42.48-22.5,8.73-29.56M670.3,213.96c-8.91,3-14.79,11.01-18.58,19.25-2.46,18.15,16.31,33.17,33.38,30.22,17.71-3.81,23.86-29.61,10.77-41.65-4.76-9.13-16.81-9.11-25.57-7.81h0Z"/>
  <path class="cls-162" d="M670.3,213.96c8.76-1.3,20.81-1.31,25.57,7.81,13.1,12.05,6.94,37.85-10.77,41.65-17.07,2.95-35.84-12.06-33.38-30.22,3.79-8.24,9.67-16.25,18.58-19.25M671.96,215.6c-13.15,3.76-18.17,19.04-14.33,31.25,4.5,9.47,15.99,12,25.29,13.93,9.86-2.76,17.97-11.95,16.4-22.73,1.51-14.48-13.52-26.36-27.36-22.45h0Z"/>
  <path class="cls-13" d="M393.44,232.81c2.66-15.25,22.34-18.58,35.11-16.38,10.75-2,18.38,6.58,23.49,14.53,7.66,12.29,10.52,26.62,15.89,39.92,9.68,23.08,18.61,47.32,35.61,66.14,15.44,14.33,31.45,30.12,53.11,33.91,45.18,10.45,92.21,14.98,138.36,8.83,4.02.64,9.8-4.27,13.38-.25-22.03,6.68-45.3,8.29-68.19,7.85-13.67-1.4-27.21-1.87-40.93-2.28-15.13-3.92-31.22-3.77-46.02-9.09-12.9-4.4-25.24-11.26-34.99-20.84-12.64-8.03-22.17-19.51-31.13-31.27-2.48-4.5-11.6,5.14-6.94-8.04-3.15-6.3-5.78-12.85-8.17-19.47-2.68-1.54-6.37-2.46-7.43-5.73-4.51-13.39-3.1-28.31-9.86-40.98-2.08-11.54-7.47-23.65-18.07-29.56-15.05-4.92-37.31.54-41.1,18.05-1.2,2.05-2.38,4.12-3.41,6.25l-1.28.48c-.48-4.28.69-8.3,2.61-12.06h0Z"/>
  <path class="cls-26" d="M671.96,215.6c13.84-3.91,28.87,7.98,27.36,22.45,1.58,10.78-6.53,19.97-16.4,22.73-9.31-1.94-20.79-4.46-25.29-13.93-3.84-12.21,1.18-27.49,14.33-31.25M676.83,217.32c-14.3.66-20.55,18.71-14.74,30.1,6.29,7.57,19.24,11.96,27.85,5.86,13.2-11.41,4.22-36.3-13.11-35.96h0Z"/>
  <path class="cls-79" d="M489.55,216.42l1.07.76c.66,14.74,5.66,28.64,9.63,42.69,5.02,23.95,18.94,44.54,32.22,64.6,15.07,8.22,30.82,17.64,48.66,16.99,31.5,2.4,63.07,1.76,94.62.87,23.98.61,49.09-10.11,63.16-30,.82.31,2.45.92,3.27,1.23l-.53,1.33c-3.55,4.32-7.17,8.57-10.95,12.67-2.49,2.25-4.83,4.68-6.71,7.45-21.55,10.04-45.48,12.49-68.95,13.2h-11.42c-11.06.66-21.88-2.97-32.87-.08-3.2-.1-6.37-.23-9.54-.49-7.86-1.46-15.82-1.49-23.73-.8-10.67-.46-21.06-3.45-31.1-6.88,1.17-.95,2.31-1.9,3.46-2.87-11.34-3.92-22.22-10.82-27.84-21.83-7.55-8.07-8.99-19.48-15.84-27.87-.44.82-1.33,2.48-1.77,3.32-7.24-20.65-14.41-41.8-16.53-63.63.43-2.66,1.26-7.98,1.69-10.64h0Z"/>
  <path class="cls-134" d="M676.83,217.32c17.33-.34,26.31,24.55,13.11,35.96-8.62,6.11-21.57,1.71-27.85-5.86-5.81-11.39.44-29.44,14.74-30.1M673.55,220.44c-9.78,3.13-9.31,15.71-8.45,23.85,4.46,5.45,13.84,11.19,20.58,6.35,13.16-8.01,4.15-34.52-12.13-30.2h0Z"/>
  <path class="cls-45" d="M395.52,238.15c3.79-17.51,26.05-22.98,41.1-18.05,10.6,5.91,15.99,18.02,18.07,29.56,6.76,12.67,5.35,27.59,9.86,40.98,1.07,3.27,4.76,4.19,7.43,5.73,2.4,6.61,5.02,13.16,8.17,19.47-4.66,13.18,4.46,3.55,6.94,8.04,8.96,11.75,18.5,23.24,31.13,31.27,9.75,9.58,22.09,16.45,34.99,20.84,14.8,5.32,30.89,5.17,46.02,9.09,13.72.41,27.26.89,40.93,2.28l.15,1.62c-10.36-.05-20.7.41-30.99-.43-29.76-.51-60.45-3.69-87.33-17.46-25.72-12.36-42.59-36.96-54.6-61.97-7.62-17.74-15.13-35.61-19.4-54.51-1.1-5.43-3.09-10.87-1.84-16.46-2.18-8.04-9.29-14.74-17.64-16.13-7.89.13-15.18,3.23-21.65,7.53-4.12,2.41-7.63,5.65-11.36,8.6h0Z"/>
  <path class="cls-145" d="M673.55,220.44c16.28-4.32,25.29,22.19,12.13,30.2-6.75,4.84-16.12-.9-20.58-6.35-.85-8.14-1.33-20.71,8.45-23.85M673.58,223.85c-8.63,1.05-1.67,13.39-3.58,18.74,3.61,3.76,8.5,6.86,14.16,5.1,5.5-4.35.23-13.34,1.69-19.04-3.33-3.13-6.22-8.67-12.28-4.81h0Z"/>
  <path class="cls-129" d="M406.88,229.55c6.47-4.3,13.75-7.4,21.65-7.53,8.35,1.4,15.46,8.09,17.64,16.13-1.25,5.6.74,11.03,1.84,16.46-.8-.41-2.43-1.23-3.25-1.64-1.4-1.08-1.89-2.74-1.49-4.96.21-6.55-6.17-10.24-10.24-14.46-7.48-5.38-17.35-5.4-26.14-4h0Z"/>
  <path class="cls-122" d="M673.58,223.85c6.06-3.86,8.94,1.67,12.28,4.81-1.46,5.7,3.81,14.69-1.69,19.04-5.66,1.76-10.55-1.35-14.16-5.1,1.9-5.35-5.06-17.69,3.58-18.74h0Z"/>
  <path class="cls-17" d="M406.88,229.55c8.8-1.4,18.66-1.38,26.14,4,4.07,4.22,10.45,7.91,10.24,14.46-6.58-8.96-15.53-18.05-27.9-16.54-9.47-1.23-15.59,6.81-21.8,12.57l-1.46.36c1.03-2.13,2.22-4.2,3.41-6.25,3.73-2.95,7.24-6.19,11.36-8.6h0Z"/>
  <path class="cls-170" d="M75.01,241.64c.57-1.9,1.2-3.77,1.87-5.63,5.81,29.76,5.84,64.19,28.64,87.05,16.89,17.76,42.52,21.5,65.78,23.11l-.61,1.85c-8.75.36-17.43-.79-26.08-1.89-11.49-2.56-22.35-7.19-32.48-13.1-12.65-9.4-20.89-22.96-26.72-37.31-2.25-8.71-3.79-17.61-6.63-26.16-.43-9.4-3.41-18.5-3.77-27.93h0Z"/>
  <path class="cls-131" d="M477.85,255.97c-.72-4.38-4.15-10.72,1.07-13.13,3.27,12.98,6.09,26.8,13.54,38.11,1.17,2.56,2.22,5.17,3.41,7.73,4.38,15.77,16.13,27.62,24.8,41.05,6.94,6.25,14.95,11.83,24.34,13.54,15,3.99,30.46,5.24,45.63,8.32,20.45,5.14,41.52.61,62.27,3.35,6.42,2.91-3.66,11.16-7.73,6.19-32.37-.41-65.47,2.71-97-6.4-4.37-1.33-8.68-3.09-13.29-3.23-12.16-8.26-24.75-16.89-32.5-29.71-6.96-12.01-13.56-24.34-18.5-37.32,1.53-9.98-5.15-18.74-6.04-28.49h0Z"/>
  <path class="cls-157" d="M390.83,244.88l1.28-.48,1.46-.36c-1.66,6.19-5.53,11.77-6.47,18.3l-1.3.41c-.07-3.79,1-7.43,2.04-11.03,1.12-2.23,2.17-4.48,2.99-6.84h0Z"/>
  <path class="cls-141" d="M797.23,273.7c1.92-8.53,1.89-18.2,5.58-25.73-.34,8.83-2.04,17.53-3.87,26.16l-1.71-.43h0Z"/>
  <path class="cls-68" d="M444.76,252.97c.82.41,2.45,1.23,3.25,1.64,4.27,18.89,11.78,36.76,19.4,54.51,12.01,25.01,28.89,49.61,54.6,61.97,26.88,13.77,57.57,16.95,87.33,17.46-1.94.48-3.84,1.02-5.71,1.62-38.16.66-79.85-7.75-108.32-35.11-27.03-27.93-39.75-65.65-50.55-102.1h0Z"/>
  <path class="cls-140" d="M66.27,270.38c-.48-5.14-3.97-12.21.98-16.31,4.45,8.73,7.12,18.23,10.91,27.26,2.08,4.92,2.66,10.98,7.24,14.41,5.83,14.34,14.07,27.9,26.72,37.31-13.56-4.56-22.76-18.22-28.54-30.81-2.13-3.17-3.28-8.94-8.04-8.47.23,4.86,2.12,9.49,4.71,13.54,4.66,7.17,6.43,15.85,11.77,22.67,10.86,15.54,29.35,21.71,46.61,27.16,12.87,1.17,25.82.89,38.73.69l-.11-1.4c-10.64,0-20.32-4.99-30.51-7.24-.53-.75-1.61-2.28-2.13-3.05,8.65,1.1,17.33,2.25,26.08,1.89l1.51.21c8.07,1.66,16.36,1.17,24.54,1.79,25.75,2.54,51.83,1.62,77.58-.38-.11.69-.33,2.1-.43,2.79-24.5,8.93-50.86,11.42-76.79,10.65-19.96,1.49-39.7-1.79-59.53-3.05-7.42-2.35-14.41-5.94-21.98-7.88-14.74-7.91-27.84-19.81-35.07-35.07-6.45-15-11.92-30.46-14.25-46.71h0Z"/>
  <path class="cls-110" d="M472.7,257.86l1.82-.21c3.17,8.91,6.14,17.91,9.37,26.82,4.94,12.98,11.54,25.31,18.5,37.32,7.75,12.82,20.34,21.45,32.5,29.71,10.67,6.76,23.9,7.58,35.86,11.05,14.56,3.2,29.54,3.25,44.36,4.09,15.94,2.53,32,.02,47.94-.94,19.33-1.9,40.57-3.02,56.69-15.21,4.61-2.02,3.51-9.37-.82-11.14,1.79-1.31,3.5-2.76,5.07-4.33,1.64-.49,3.3-1,4.96-1.54,2.69-.25,3.99-2.63,5.55-4.48,2.18.51,4.23,1.44,6.3,2.36-4.56,4.28-1.79,11.37-6.02,15.95-8.52,5.58-17.56,10.31-26.06,15.92-6.86-.71-13.08,3.41-19.83,3.77-45.12,3.28-91.6,6.65-135.81-5.45-20.17-2.92-35.27-17.79-48.63-31.99-13.1-16.95-20.15-37.31-28.39-56.8-.59-5.07-2.4-9.88-3.35-14.89h0Z"/>
  <path class="cls-153" d="M792.39,291.77c1.43-6.07,2.9-12.15,4.84-18.07,2.02,6.42-1.94,12.26-3.25,18.35l-1.59-.28h0Z"/>
  <path class="cls-28" d="M506.16,287.37c6.84,8.39,8.29,19.79,15.84,27.87,5.61,11.01,16.49,17.91,27.84,21.83-1.15.97-2.3,1.92-3.46,2.87-13.44-3.66-22.22-14.8-30.63-25.09-3.5-8.21-7.94-15.95-11.36-24.16.44-.84,1.33-2.49,1.77-3.32h0Z"/>
  <path class="cls-93" d="M495.87,288.68c6.09,4.86,6.17,14.59,13.33,18.22,1.74,2.64,3.25,5.42,4.87,8.14,6.94,12.54,18.38,21.75,30.94,28.23-9.39-1.71-17.4-7.29-24.34-13.54-8.67-13.43-20.42-25.28-24.8-41.05h0Z"/>
  <path class="cls-154" d="M782.92,318.55c1.66-9.36,6.83-17.68,9.47-26.79,1.71,7.04-3.3,13.11-5.15,19.6-1.43,2.33-1.59,6.09-4.32,7.19h0Z"/>
  <path class="cls-135" d="M75.55,293.77c4.76-.48,5.91,5.3,8.04,8.47,5.78,12.59,14.98,26.24,28.54,30.81,10.13,5.91,20.99,10.54,32.48,13.1.53.77,1.61,2.3,2.13,3.05,10.19,2.25,19.88,7.24,30.51,7.24l.11,1.4c-12.92.2-25.87.48-38.73-.69-17.27-5.45-35.75-11.62-46.61-27.16-5.33-6.81-7.11-15.49-11.77-22.67-2.59-4.05-4.48-8.68-4.71-13.54h0Z"/>
  <path class="cls-69" d="M354.48,331.49c6.91-9.88,11.65-21.16,18.32-31.05-3.12,13.85-12.34,25.83-20.12,37.54l-1.62-.1c1.05-2.18,2.23-4.28,3.43-6.38h0Z"/>
  <path class="cls-70" d="M514.07,315.04l1.67-.2c8.4,10.29,17.18,21.43,30.63,25.09,10.04,3.43,20.43,6.42,31.1,6.88,6.09.82,12.24,1.23,18.43,1.25l.03,1.62-.02,1.66c-1.33.05-3.96.18-5.28.25-15.17-3.09-30.63-4.33-45.63-8.32-12.56-6.48-24-15.69-30.94-28.23h0Z"/>
  <path class="cls-96" d="M55.43,318.88c2.68.64,5.38,1.12,8.03,1.92,3.3,5.78,6.47,11.92,11.83,16.1,11.49,9.26,18.76,23.16,31.71,30.63,7.71,2.54,17.86,3.07,21.42,11.78-7.27-1.79-14.11-4.84-21.19-7.21-9.96-5.58-18.51-13.16-27.79-19.76-3.77-5.4-8.53-9.96-13.21-14.54-1.84-3.53-4.07-6.86-6.6-9.93-1.36-3.02-2.77-6.01-4.2-8.99h0Z"/>
  <path class="cls-57" d="M771.75,335.05c3.23-4.41,5.65-9.49,9.75-13.2-2.38,5.7-4.76,12.79-9.93,16.41.05-.8.13-2.41.18-3.22h0Z"/>
  <path class="cls-56" d="M272.61,341.4c12.29-2.08,22.19-10.04,32.76-16.05.54.51,1.61,1.53,2.15,2.04-.64.56-1.9,1.67-2.54,2.25-1.72.95-3.38,2.02-5.01,3.13-2.94,1.3-5.79,2.87-8.09,5.14-3.97,1.35-7.94,2.76-11.59,4.87-11.6,2.51-23.27,4.99-35.19,5.32-.61-.54-1.81-1.64-2.41-2.18,9.98-1.43,20.09-2.2,29.92-4.51h0Z"/>
  <path class="cls-82" d="M59.63,327.88c2.53,3.07,4.76,6.4,6.6,9.93-4.15-.51-7.14-5.88-6.6-9.93h0Z"/>
  <path class="cls-171" d="M723.99,335c1.89-2.77,4.22-5.2,6.71-7.45,1.41,2.23-.8,4.02-1.76,5.91-1.66.54-3.32,1.05-4.96,1.54h0Z"/>
  <path class="cls-173" d="M655.04,348.19c23.47-.71,47.4-3.15,68.95-13.2-1.58,1.58-3.28,3.02-5.07,4.33-8.88,3.13-17.71,6.5-26.87,8.68-13.66-.25-27.03,3.09-40.64,3.28l.87-1.1c.69-.51,2.07-1.51,2.76-2h0Z"/>
  <path class="cls-71" d="M715.58,362.67c19.86-6.79,37.08-19.12,56.16-27.62-.05.8-.13,2.41-.18,3.22.62,3.35-2.72,4.73-4.79,6.57-4.64,3.5-8.73,7.58-12.87,11.62-11-2.51-19.97,4.45-29.49,8.34-20.52,4.35-41.23,8.65-62.35,8.5-36.4,1.62-73.49.11-109.09-8.55.03-.8.08-2.41.1-3.2,44.22,12.1,90.7,8.73,135.81,5.45,6.75-.36,12.97-4.48,19.83-3.77,2.26,1.12,4.64.18,6.88-.54h0Z"/>
  <path class="cls-90" d="M66.23,337.81c4.68,4.58,9.44,9.14,13.21,14.54-5.38-1.38-8.96-7.6-13.29-11.36.03-.79.07-2.38.08-3.18h0Z"/>
  <path class="cls-2" d="M332.42,356.12c6.38-5.91,12.34-12.24,18.63-18.25l-.05,1.58c-18.53,26.34-49.66,41.95-81.13,46.97-12.05.79-24.18,4.87-36.19,3.73-2.28-.61-4.61-.97-6.94-1.23l-.15-1.54c27.93-.26,57.25-2.99,82.52-15.9,8.53-3.76,16.35-9.17,23.31-15.35h0Z"/>
  <path class="cls-59" d="M692.05,348.01c9.16-2.18,17.99-5.55,26.87-8.68,4.33,1.77,5.43,9.13.82,11.14-16.12,12.19-37.35,13.31-56.69,15.21-15.94.95-32,3.46-47.94.94-14.82-.84-29.8-.89-44.36-4.09,8.73-2.26,17.96,1.9,26.82,1.69,34.91.18,71.57,2.45,104.89-9.83-1.2-3.61-7.45-3.74-10.41-6.38h0Z"/>
  <path class="cls-167" d="M245.1,348.1c11.92-.33,23.58-2.81,35.19-5.32,5.19,3.5,11.36-.72,16.95.31-.02,2.68.69,6.4-2.61,7.4-39.16,18.27-83.9,16.95-126.08,14.75-10.34-1.44-21.12-1.44-30.99-5.2,19.83,1.26,39.57,4.55,59.53,3.05,25.93.77,52.29-1.72,76.79-10.65.1-.69.31-2.1.43-2.79-25.75,2-51.83,2.92-77.58.38,15.53-1.46,31.56,1.49,46.84-1.58l1.53-.36h0Z"/>
  <path class="cls-7" d="M753.91,356.45c4.14-4.04,8.22-8.12,12.87-11.62-2.77,5.04-7.3,12.97-13.77,12.6l.9-.98h0Z"/>
  <path class="cls-115" d="M171.3,346.18c23.78.3,47.6.53,71.39-.26.61.54,1.81,1.64,2.41,2.18l-1.53.36c-23.78-.8-47.58-.49-71.38-.21l-1.51-.21.61-1.85h0Z"/>
  <path class="cls-30" d="M577.47,346.82c7.91-.69,15.87-.66,23.73.8-1.33.11-3.97.33-5.3.44-6.19-.02-12.34-.43-18.43-1.25h0Z"/>
  <path class="cls-44" d="M610.74,348.11c11-2.89,21.81.74,32.87.08l-.02,1.15c-11.01.28-21.96.39-32.94.33l.08-1.56h0Z"/>
  <path class="cls-6" d="M172.2,348.24c23.8-.28,47.6-.59,71.38.21-15.28,3.07-31.31.11-46.84,1.58-8.17-.62-16.46-.13-24.54-1.79h0Z"/>
  <path class="cls-37" d="M595.9,348.06c1.33-.11,3.97-.33,5.3-.44,3.17.26,6.34.39,9.54.49l-.08,1.56c-4.99-.03-9.8,0-14.72.02l-.03-1.62h0Z"/>
  <path class="cls-87" d="M643.61,348.19h11.42c-.69.49-2.07,1.49-2.76,2-2.92-.08-5.84-.31-8.68-.85l.02-1.15h0Z"/>
  <path class="cls-24" d="M651.41,351.3c13.61-.2,26.98-3.53,40.64-3.28,2.95,2.64,9.21,2.77,10.41,6.38-33.32,12.28-69.98,10.01-104.89,9.83-8.86.21-18.09-3.96-26.82-1.69-11.96-3.46-25.19-4.28-35.86-11.05,4.61.15,8.93,1.9,13.29,3.23,31.53,9.11,64.63,5.99,97,6.4,4.07,4.97,14.15-3.28,7.73-6.19-20.75-2.74-41.82,1.79-62.27-3.35,1.33-.07,3.96-.2,5.28-.25,18.48-.23,36.98.15,55.49-.05h0Z"/>
  <path class="cls-111" d="M595.94,349.69c4.92-.02,9.73-.05,14.72-.02,10.98.07,21.93-.05,32.94-.33,2.84.54,5.76.77,8.68.85l-.87,1.1c-18.51.2-37.01-.18-55.49.05l.02-1.66h0Z"/>
  <path class="cls-100" d="M79.44,352.35c9.27,6.6,17.82,14.18,27.79,19.76-.87.11-2.63.31-3.5.41-7.91-6.14-20.78-10.37-24.29-20.17h0Z"/>
  <path class="cls-78" d="M724.41,364.79c9.52-3.89,18.5-10.85,29.49-8.34l-.9.98c-3.09,1.76-6.09,3.64-9.09,5.53-21.5,9.5-45.25,13.93-68.64,13.69-23.42,3.15-47.05-.57-70.49-1.71-17.32-2.66-35.2-3.04-51.95-8.5l.13-1.71c35.6,8.67,72.69,10.18,109.09,8.55,21.12.15,41.84-4.15,62.35-8.5h0Z"/>
  <path class="cls-160" d="M743.91,362.97c3-1.89,6.01-3.77,9.09-5.53-.21,5.83-8.73,7.17-12.08,10.9-26.8,16.84-59.58,20.04-90.43,21.93-2.53-.33-7.62-.97-10.16-1.28l-.15-1.62c22.9.44,46.17-1.17,68.19-7.85,12.6-3.23,25.7-7.7,35.53-16.54h0Z"/>
  <path class="cls-177" d="M107.22,372.11c7.07,2.36,13.92,5.42,21.19,7.21,17.48,6.84,36.58,8.34,55.2,8.45,6.7,1.36,13.56,1.25,20.37.87.64-.03,1.92-.08,2.56-.11,6.73.25,13.46.38,20.2.39,2.33.26,4.66.62,6.94,1.23-42.41,1.71-87.51,3.04-126.56-16.4l.1-1.64h0Z"/>
  <path class="cls-137" d="M183.61,387.76c6.79-.21,13.62-.46,20.37.87-6.81.38-13.67.49-20.37-.87h0Z"/>
  <path class="cls-147" d="M206.54,388.52c6.55-1.51,13.38-1.03,20.06-1.15l.15,1.54c-6.75-.02-13.47-.15-20.2-.39h0Z"/>
  <path class="cls-11" d="M603.63,390.18c1.87-.61,3.77-1.15,5.71-1.62,10.29.84,20.63.38,30.99.43,2.54.31,7.63.95,10.16,1.28-15.61.46-31.3,1.03-46.86-.08h0Z"/>
</svg>