<?xml version="1.0" encoding="UTF-8"?>
<svg id="Layer_1" data-name="Layer 1" xmlns="http://www.w3.org/2000/svg" viewBox="0 0 587.29 683.78">
  <defs>
    <style>
      .cls-1 {
        fill: #54ddf8;
      }

      .cls-2 {
        fill: #ed64a0;
      }

      .cls-3 {
        fill: #952c63;
      }

      .cls-4 {
        fill: #b81155;
      }

      .cls-5 {
        fill: #5ec2f6;
      }

      .cls-6 {
        fill: #58d6f2;
      }

      .cls-7 {
        fill: #bf0d4f;
      }

      .cls-8 {
        fill: #ea4a90;
      }

      .cls-9 {
        fill: #831b48;
      }

      .cls-10 {
        fill: #cb2d75;
      }

      .cls-11 {
        fill: #4d4b9f;
      }

      .cls-12 {
        fill: #56243a;
      }

      .cls-13 {
        fill: #93315a;
      }

      .cls-14 {
        fill: #af265f;
      }

      .cls-15 {
        fill: #961d51;
      }

      .cls-16 {
        fill: #4cbcf5;
      }

      .cls-17 {
        fill: #3eb2ef;
      }

      .cls-18 {
        fill: #ce1665;
      }

      .cls-19 {
        fill: #7c1238;
      }

      .cls-20 {
        fill: #e60545;
      }

      .cls-21 {
        fill: #be2e7c;
      }

      .cls-22 {
        fill: #700521;
      }

      .cls-23 {
        fill: #1b80c8;
      }

      .cls-24 {
        fill: #d43379;
      }

      .cls-25 {
        fill: #1a76c0;
      }

      .cls-26 {
        fill: #891a4a;
      }

      .cls-27 {
        fill: #9f2055;
      }

      .cls-28 {
        fill: #58abdc;
      }

      .cls-29 {
        fill: #802a7e;
      }

      .cls-30 {
        fill: #c23a6f;
      }

      .cls-31 {
        fill: #64c0f0;
      }

      .cls-32 {
        fill: #d03578;
      }

      .cls-33 {
        fill: #e23d85;
      }

      .cls-34 {
        fill: #c22f6d;
      }

      .cls-35 {
        fill: #d2317a;
      }

      .cls-36 {
        fill: #ca0c4d;
      }

      .cls-37 {
        fill: #5bb4e5;
      }

      .cls-38 {
        fill: #820425;
      }

      .cls-39 {
        fill: #da367d;
      }

      .cls-40 {
        fill: #2ee9ff;
      }

      .cls-41 {
        fill: #9a214f;
      }

      .cls-42 {
        fill: #47c6ef;
      }

      .cls-43 {
        fill: #e14289;
      }

      .cls-44 {
        fill: #50a6d6;
      }

      .cls-45 {
        fill: #d8347c;
      }

      .cls-46 {
        fill: #68c6f7;
      }

      .cls-47 {
        fill: #33e3fb;
      }

      .cls-48 {
        fill: #8d175d;
      }

      .cls-49 {
        fill: #c73672;
      }

      .cls-50 {
        fill: #467392;
      }

      .cls-51 {
        fill: #db387f;
      }

      .cls-52 {
        fill: #2fd7fc;
      }

      .cls-53 {
        fill: #5ab5e7;
      }

      .cls-54 {
        fill: #ef5699;
      }

      .cls-55 {
        fill: #801a48;
      }

      .cls-56 {
        fill: #a40a42;
      }

      .cls-57 {
        fill: #5d0b28;
      }

      .cls-58 {
        fill: #a11f57;
      }

      .cls-59 {
        fill: #781840;
      }

      .cls-60 {
        fill: #62bdef;
      }

      .cls-61 {
        fill: #761031;
      }

      .cls-62 {
        fill: #55bef5;
      }

      .cls-63 {
        fill: #60baec;
      }

      .cls-64 {
        fill: #4fafe3;
      }

      .cls-65 {
        fill: #a50a3c;
      }

      .cls-66 {
        fill: #d01e70;
      }

      .cls-67 {
        fill: #46b9f3;
      }

      .cls-68 {
        fill: #27bbf1;
      }

      .cls-69 {
        fill: #911d4f;
      }

      .cls-70 {
        fill: #1fb0ed;
      }

      .cls-71 {
        fill: #63e1f9;
      }

      .cls-72 {
        fill: #b32663;
      }

      .cls-73 {
        fill: #2792d6;
      }

      .cls-74 {
        fill: #ab205c;
      }

      .cls-75 {
        fill: #df145a;
      }

      .cls-76 {
        fill: #50a5d5;
      }

      .cls-77 {
        fill: #a2093b;
      }

      .cls-78 {
        fill: #29b6ec;
      }

      .cls-79 {
        fill: #bf2c6b;
      }

      .cls-80 {
        fill: #319fe1;
      }

      .cls-81 {
        fill: #d33884;
      }

      .cls-82 {
        fill: #5b0b2c;
      }

      .cls-83 {
        fill: #b90d48;
      }

      .cls-84 {
        fill: #e44188;
      }

      .cls-85 {
        fill: #56aee0;
      }

      .cls-86 {
        fill: #9f69a8;
      }

      .cls-87 {
        fill: #6a102e;
      }

      .cls-88 {
        fill: #37a8e8;
      }

      .cls-89 {
        fill: #cc2f73;
      }

      .cls-90 {
        fill: #bd2b6f;
      }

      .cls-91 {
        fill: #580825;
      }

      .cls-92 {
        fill: #1dc4f6;
      }

      .cls-93 {
        fill: #bd2a69;
      }

      .cls-94 {
        fill: #4aa4d8;
      }

      .cls-95 {
        fill: #57addd;
      }

      .cls-96 {
        fill: #2fcbf2;
      }

      .cls-97 {
        fill: #dc002c;
      }

      .cls-98 {
        fill: #8a0921;
      }

      .cls-99 {
        fill: #c62c6f;
      }

      .cls-100 {
        fill: #db1d62;
      }

      .cls-101 {
        fill: #df4684;
      }

      .cls-102 {
        fill: #e75294;
      }

      .cls-103 {
        fill: #7c145a;
      }

      .cls-104 {
        fill: #3a5d6f;
      }

      .cls-105 {
        fill: #73c7f5;
      }

      .cls-106 {
        fill: #dc377f;
      }

      .cls-107 {
        fill: #a01c63;
      }

      .cls-108 {
        fill: #a52160;
      }

      .cls-109 {
        fill: #5fbced;
      }

      .cls-110 {
        fill: #aa215c;
      }

      .cls-111 {
        fill: #42b5f1;
      }

      .cls-112 {
        fill: #c22972;
      }

      .cls-113 {
        fill: #981b68;
      }

      .cls-114 {
        fill: #821132;
      }

      .cls-115 {
        fill: #b6246d;
      }

      .cls-116 {
        fill: #1675bf;
      }

      .cls-117 {
        fill: #d13176;
      }

      .cls-118 {
        fill: #f671ac;
      }

      .cls-119 {
        fill: #f364a4;
      }

      .cls-120 {
        fill: #a9206c;
      }

      .cls-121 {
        fill: #ac2068;
      }

      .cls-122 {
        fill: #df3a82;
      }

      .cls-123 {
        fill: #a7255c;
      }

      .cls-124 {
        fill: #8a071c;
      }

      .cls-125 {
        fill: #904c85;
      }

      .cls-126 {
        fill: #3baeec;
      }

      .cls-127 {
        fill: #55cef2;
      }
    </style>
  </defs>
  <path class="cls-12" d="M275.22.15c10.68-.04,21.44-.34,32.18.04l.04,1.7c-10.77.05-21.49.11-32.21-.02V.15h0Z"/>
  <path class="cls-84" d="M196.96,20.18c24.82-10.38,51.22-17.72,78.26-18.31,10.72.13,21.44.07,32.21.02,4.06.97,13.08-2.52,14.33,1.79-9.57-.07-19.15-.07-28.67.02-12.62-.98-24.84,4.55-37.38,2.06-8.82,2.7-16.96,7.78-26.49,7.59-10.83,4.58-22.6,13.24-27.36,24.02,14.01,3.76,29.9,3.54,44.72,3.92,18.09-1.81,35.59,5.01,53.69,1.86,18.56,4.21,38.37,6.25,54.94,16.32,10.24.47,18.52,7.41,26.86,12.65,8.52,2.43,15.19,8.43,20.87,15.09,6.75,8.25,15.55,14.39,23.96,20.81,8.27,9.72,14.82,20.72,22.85,30.64,7.37,16.46,14.58,33.11,19.56,50.47,4.01,3.36,6.84,7.34,6.05,13.28.38,6.93,2.94,13.39,4.58,20.06.32,17.81,6.14,35.31,3.74,53.22,1.84,5.26,2.2,10.83,3.13,16.37,5.96-7.36,6.8-17.32,12.38-24.95,6.94-14.48,7.84-30.62,10.88-46.12.75-.29,2.29-.84,3.04-1.13.02,2.51.07,5.03.14,7.55.82,15.18-2.86,30.53-7.1,44.77-7.95,10.18-12.08,22.57-17.86,33.95-7.93-1.16-8.07,8.97-11.67,13.67-4.96,4.31-6.12,11.33-11.74,14.92-3.45,6.17-6.76,1.25-10.08-.39,4.89-10.18,7.95-21.81,7.39-32.82-3.35-3.31-1.58-6.62.7-9.91-1.99-10.18,3.26-19.99,2.61-30.3-.54-10.77,4.92-22.17-.25-32.48-4.8-10.33-.57-22.44-6.94-32.27-2.7-13.49-5.94-27.18-12.87-39.24-4.92-5.83-6.94-13.58-7.8-20.99-1.5-5.66-6.44-9.43-11.63-11.61-11.74-13.22-23.55-26.57-37.58-37.29-12.78-4.08-20.62-18.27-34.99-19.06-16.34-7.87-34.75-9.41-51.54-15.86-14.39,1.43-28.79-1.66-43.2-1.09-16.95.48-33.5-3.81-50.34-3.85-6.28-2.18-11.44,1.45-16.82,3.58-4.92-2.92-12.65-5.92-11.01-13.06,5.74-8.45,16.41-9.86,23.44-16.21-2.58-.21-5.14-.34-7.68-.38l.64-1.31h0Z"/>
  <path class="cls-8" d="M255.71,5.75c12.54,2.49,24.77-3.04,37.38-2.06,9.52-.09,19.09-.09,28.67-.02,27.11,1.88,53.26,10.52,77.52,22.51.63.77,1.88,2.33,2.51,3.1-8.16-3.02-16.68-5.35-24.27-9.68-6.85-3.06-13.99-7.82-21.8-5.98-15-.88-29.47-7.34-44.74-5.48-19.7-1.74-39.39,1.88-58.8,4.83-7.37,4.12-12.71,11.17-18.31,17.36,13.71,5.98,29.3,2.49,43.86,4.46,45.26,1,90.84,14.17,127.67,40.95,13.35,15.32,31.17,26.36,41.88,43.95,13.01,16.96,19.17,37.67,30.21,55.78,7.8,20.87,9.38,43.65,18.47,64.17,7.36,2.81,7.34-8.21,8.43-12.2,4.71-32.87,3.04-67.84-10.92-98.44-1.43-2.85-1.7-6.01-1.88-9.09l1.58.48c8.61,19.47,17.36,39.37,17.82,61.08-.48,4.06-.02,8.04,1.38,11.88.21.88.63,2.65.84,3.53-.04,7.61,0,15.3-.09,22.98-.75.29-2.29.84-3.04,1.13-3.04,15.5-3.94,31.64-10.88,46.12-5.58,7.62-6.42,17.59-12.38,24.95-.93-5.55-1.29-11.11-3.13-16.37,2.4-17.91-3.42-35.42-3.74-53.22-1.65-6.68-4.21-13.14-4.58-20.06.79-5.94-2.04-9.91-6.05-13.28-4.97-17.36-12.19-34-19.56-50.47-8.04-9.91-14.58-20.92-22.85-30.64-8.41-6.42-17.22-12.56-23.96-20.81-5.67-6.66-12.35-12.65-20.87-15.09-8.34-5.24-16.62-12.19-26.86-12.65-16.57-10.08-36.38-12.12-54.94-16.32-18.09,3.15-35.59-3.67-53.69-1.86-14.82-.38-30.71-.16-44.72-3.92,4.76-10.77,16.54-19.43,27.36-24.02,9.52.2,17.66-4.89,26.49-7.59h0Z"/>
  <path class="cls-54" d="M252.18,12.98c19.42-2.95,39.1-6.57,58.8-4.83,15.26-1.86,29.74,4.6,44.74,5.48,7.8-1.84,14.94,2.92,21.8,5.98,7.59,4.33,16.11,6.66,24.27,9.68,10.72,8.63,22.44,15.89,33.95,23.44,19.52,11.15,33.39,30.17,46.3,48.26,3.22,6.26,8.2,11.86,9.56,18.92.18,3.08.45,6.25,1.88,9.09,13.96,30.6,15.62,65.57,10.92,98.44-1.09,3.99-1.07,15.01-8.43,12.2-9.09-20.53-10.67-43.31-18.47-64.17-11.04-18.11-17.2-38.82-30.21-55.78-10.7-17.59-28.53-28.63-41.88-43.95-36.83-26.77-82.41-39.94-127.67-40.95-14.57-1.97-30.15,1.52-43.86-4.46,5.6-6.19,10.93-13.24,18.31-17.36M295.55,15.45c-4.63.88-10.06.73-14.48,1.29-3.17,2.77-6.19,5.67-9.09,8.72-.09,6.39,12.03.93,13.98,3.53,19.61,2.18,39.57,3.26,58.41,9.54,7.69,5.24,17.45,5.62,25.66,9.88,20.37,10.18,40.86,21.37,56.01,38.8,10.81,6.41,16.43,18.24,25.09,26.95,9.99,10,13.08,24.41,21.98,35.18,7.3,11.94,11.85,25.16,17.72,37.83,3.31,1.95,4.81,13.37,9.57,7.64-.84-11.69.05-23.71-3.22-35.43-3.81-30.24-22.35-55.03-38.21-79.96-10.68-12.15-23.3-22.51-37.12-30.89-17.39-16.2-41.27-21.96-63.06-29.78-20.87-2.97-42.2-6.19-63.24-3.29h0Z"/>
  <path class="cls-119" d="M295.55,15.45c21.05-2.9,42.38.32,63.24,3.29,21.8,7.82,45.67,13.58,63.06,29.78,13.82,8.38,26.43,18.74,37.12,30.89,15.86,24.93,34.4,49.71,38.21,79.96,3.27,11.72,2.38,23.75,3.22,35.43-4.76,5.73-6.26-5.69-9.57-7.64-5.87-12.67-10.41-25.89-17.72-37.83-8.89-10.77-11.99-25.18-21.98-35.18-8.66-8.72-14.28-20.54-25.09-26.95-15.16-17.43-35.65-28.61-56.01-38.8-8.21-4.26-17.97-4.63-25.66-9.88-18.84-6.28-38.8-7.36-58.41-9.54-1.95-2.59-14.07,2.86-13.98-3.53,2.9-3.04,5.92-5.94,9.09-8.72,4.42-.55,9.84-.41,14.48-1.29M351.58,24.15c-3.65,1.65-6.37,4.22-8.2,7.71,43.02,16.91,85.25,40.91,112.6,79.13,5.24,5.69,11.58,11.33,13.08,19.31,3.38,2.54,7.19,4.69,9.18,8.66,3.7,2.18,9.65,7.28,3.81-5.82-.3-11.35-8.18-19.95-13.46-29.29-9.14-19.43-25.11-34.97-42.54-47.05-10.93-9.4-23.37-16.96-36.94-21.81-13.22-1.41-23.82-11.88-37.55-10.84h0Z"/>
  <path class="cls-33" d="M177.18,32.61c5.14-5.31,12.03-9.29,19.13-11.13,2.54.04,5.1.16,7.68.38-7.03,6.35-17.7,7.77-23.44,16.21-1.65,7.14,6.08,10.15,11.01,13.06,5.39-2.13,10.54-5.76,16.82-3.58,16.84.04,33.39,4.33,50.34,3.85,14.41-.57,28.81,2.52,43.2,1.09,16.79,6.44,35.2,7.98,51.54,15.86,14.37.79,22.21,14.98,34.99,19.06,14.03,10.72,25.84,24.07,37.58,37.29,5.19,2.18,10.13,5.96,11.63,11.61.86,7.41,2.88,15.16,7.8,20.99,6.93,12.06,10.16,25.75,12.87,39.24,6.37,9.82,2.15,21.94,6.94,32.27,5.17,10.31-.29,21.71.25,32.48.64,10.31-4.6,20.11-2.61,30.3-2.27,3.29-4.04,6.6-.7,9.91.55,11.01-2.51,22.64-7.39,32.82,3.31,1.65,6.62,6.57,10.08.39,5.62-3.6,6.78-10.61,11.74-14.92,3.6-4.71,3.74-14.84,11.67-13.67-6.23,9.07-9.14,19.95-16.39,28.49-7.44,16.5-19.72,29.99-31.93,43.07-2.02-2.47-5.69-5.35-7.01-.73.91.66,2.7,1.95,3.62,2.59-6.89,1.15-11.33-4.87-17.9-4.56,1.29-4.1,2.72-10.24-3.63-9.99,1.86,4.72.43,10.04-3.88,12.8-7.68-2.99-10.02-14.75-4.87-21.17,8.89-8.93,17.65-18.06,27.13-26.4,1.97-4.71,4.49-9.36,4.22-14.62,3.08-6.66,6.19-13.67,4.85-21.28,1.49-2.45,5.24-4.6,2.45-7.52-3.24-5.39,7.34-6.75,5.06-12.33-1.43-8.89,4.78-16.97,3.22-25.81.38-8.34-.97-16.62-1.66-24.89.27-9.06.3-18.58-3.79-26.83,1.75-4.98-.77-9.31-3.4-13.35-2.36-16.61-8.73-32.68-18.54-45.92-9.84-8.07-17.48-18.5-25.48-28.31-11.11-11.81-27.38-17.43-38.08-29.78-7.3.93-11.99-6.25-19.01-5.33-6.82-2.24-13.62-5.15-20.94-5.31-6.53-.52-10.18-7.36-16.84-7.59-11.02.04-22.17,1.77-33.12.2-4.71-1.31-12.22-7.14-14.78-.21-1.54,2.95-4.51-.72-6.39-1.34-3.56-2.56-7,1.13-10.16,2.45-6.98-1.27-14.26-2-20.4-5.87-9.27.23-19.17-2.47-27.76,2.11-5.28-1.16-10.83-4.97-16.05-1.57-3.53,1-6.05,3.76-9,5.73-2.27-2.45-4.24-7.19-8.39-5.05-3.97,3.58-7.52,7.61-11.76,10.86l-1.59-.68c-.21-.81-.66-2.42-.89-3.22,10.54-10.84,21.62-21.15,32-32.16h0Z"/>
  <path class="cls-118" d="M351.58,24.15c13.73-1.04,24.32,9.43,37.55,10.84,13.56,4.85,26,12.42,36.94,21.81,17.43,12.08,33.39,27.61,42.54,47.05,5.28,9.34,13.15,17.95,13.46,29.29,5.83,13.1-.11,8-3.81,5.82-1.99-3.97-5.8-6.12-9.18-8.66-1.5-7.98-7.84-13.62-13.08-19.31-27.34-38.22-69.58-62.22-112.6-79.13,1.83-3.49,4.55-6.07,8.2-7.71h0Z"/>
  <path class="cls-101" d="M401.79,29.28c8.16-.05,14.21,7.46,21.31,10.93,3.4,4.24,12.67,6.17,12.63,12.51-11.51-7.55-23.23-14.82-33.95-23.44h0Z"/>
  <path class="cls-49" d="M150.59,49.15c8.98-4.9,16.05-15.23,26.59-16.54-10.38,11.01-21.46,21.31-32,32.16.23.81.68,2.42.89,3.22-4.06,5.24-12.83,8.66-13.46,15.71.04,4.46-2.54,8.59.16,12.9-10.65-1.41-11.44,8.86-14.85,15.64-3.17,2.42-6.71,4.53-10.61,2.42-.43-2.58-.84-5.12-1.45-7.62-.16-.81-.48-2.43-.64-3.24,10.47-21.08,28.2-38.49,45.37-54.65h0Z"/>
  <path class="cls-122" d="M176.83,57.13c5.23-3.4,10.77.41,16.05,1.57,8.59-4.58,18.49-1.88,27.76-2.11,6.14,3.87,13.42,4.6,20.4,5.87,3.17-1.32,6.6-5.01,10.16-2.45,1.88.63,4.85,4.29,6.39,1.34,2.56-6.93,10.08-1.09,14.78.21,10.95,1.57,22.1-.16,33.12-.2,6.66.23,10.31,7.07,16.84,7.59,7.32.16,14.12,3.08,20.94,5.31,7.01-.91,11.7,6.26,19.01,5.33,10.7,12.35,26.97,17.97,38.08,29.78,8,9.81,15.64,20.24,25.48,28.31,9.81,13.24,16.18,29.31,18.54,45.92,2.63,4.04,5.15,8.38,3.4,13.35,4.1,8.25,4.06,17.77,3.79,26.83.7,8.27,2.04,16.55,1.66,24.89,1.56,8.84-4.65,16.91-3.22,25.81,2.27,5.58-8.3,6.94-5.06,12.33,2.79,2.92-.97,5.06-2.45,7.52,1.34,7.61-1.77,14.62-4.85,21.28.27,5.26-2.25,9.91-4.22,14.62-9.48,8.34-18.24,17.47-27.13,26.4-5.15,6.42-2.81,18.18,4.87,21.17,4.31-2.76,5.74-8.07,3.88-12.8,6.35-.25,4.92,5.89,3.63,9.99,6.57-.3,11.01,5.71,17.9,4.56-.91-.64-2.7-1.93-3.62-2.59,1.32-4.62,4.99-1.74,7.01.73,12.21-13.08,24.48-26.57,31.93-43.07,7.25-8.54,10.16-19.42,16.39-28.49,5.78-11.38,9.91-23.77,17.86-33.95-2.99,18.18-10.84,34.93-18.33,51.59-4.92,14.37-15.23,25.82-21.3,39.62l-1.5-.02-1.61-.18c-2.4-.64-5.67-2.65-6.93.68-3.38,5.66-10.16,8.32-12.37,14.76-3.81,8.41-10.99,14.41-19.49,17.68-2.56,8.07-9.09,13.71-13.15,20.94-.88,2.22-5.74.68-4.99,3.49,2.04,5.4-6.08,3.67-9.32,5.12-.2-2.29-.34-4.58-.45-6.85-2.34.97-4.89,4.97-7.01,1.68-5.39-5.87-14.89-1.61-20.08-7.1,3.51,6.3,5.24,17.93-5.03,17.95-.48-3.58,2.34-5.96,3.94-8.79-4.26,1.04-8.59.77-12.72-.63-1.13-3.95,2.27-5.66,5.12-7.25-5.67-5.12-7.53-14.42-15.59-16.43-1.36-5.76,5.62-4.46,9.02-3.44-1.9-5.05-9.34-4.33-11.63-9.54-8.75-1.15-13.6,6.48-16.36,13.4-5.57,1.06-5.1-5.12-1.09-7.02-2.38.38-4.65.95-6.98,1.36-5.51-6.12-4.6-15.09-3.74-22.66-2.81.07-5.51.55-8.25.72-1.61-1.74-2.54-4.99-5.48-4.01-1.79,2.18-1.52,7.98-5.49,6.41-3.06-2.08-7.7-8.11-10.45-2.43-1.13,3.33-4.74,2.2-7.37,2.04-3.49-7.71-13.15-19.99-22.07-11.88-11.76-7.91-25.75-12.37-34.72-24-3.58-5.28-11.11-5.06-14.35-10.7-7.93-13.15-20.76-24.53-22.39-40.5,7.34,13.62,16.43,26.23,26.91,37.63,18.68,16.14,41.43,27.92,66.25,30.42,6.28,2.93,13.01-.61,19.54,1.52,9.61-1.66,20.08,1.95,29.04-2.77,1.7-.91,3.63-1.25,5.57-1.49,7.82,1.38,13.31-5.24,20.56-5.98,6.16,8.38,15.25-.63,16.95-7.8,6.84.07,9.31-6.34,12.1-11.51-5.28.52-9.2-1.79-9.93-7.23-11.24-1.06-22.39.13-33.54,1.06,3.94-2.27,8.18-3.88,12.49-5.33,23.84-2.04,48.41-11.33,63.35-30.91,5.89,1.77,16.16-4.9,18.38,2.52,5.85-5.64,2.67-14.37,6.76-20.81,3.28-14.82,4.76-30.05,3.78-45.2-2.56-17.95-1.15-36.97-9.72-53.65-.88-4.96-14.19-7.91-5.23-11.78-7.95-3.76-11.63-12.24-15.19-19.81-13.17-14.24-25.91-29.65-43.11-39.3-6.14-4.76-14.39-4.65-20.28-9.91-10.5-7.36-25.22-4.65-35.11-13.01-7.32-4.71-15.87-.86-23.85-2.49-11.29,3.69-23.77-3.35-34.4,2.65-4.04-.09-8.84-3.13-11.85.97-4.49,5.62-12.47.91-18.09,1.04-3.74-2.13-6.01-10.2-11.4-5.46-4.35,4.6-9.77-3.24-14.26.04-9.88,7.48-17.81-10.83-28.35-5.24,1.74-2.45,3.63-4.81,5.44-7.25h0Z"/>
  <path class="cls-106" d="M159.43,57.81c4.15-2.15,6.12,2.59,8.39,5.05,2.95-1.97,5.48-4.72,9-5.73-1.81,2.43-3.7,4.8-5.44,7.25,10.54-5.58,18.47,12.72,28.35,5.24,4.49-3.27,9.91,4.56,14.26-.04,5.39-4.74,7.66,3.33,11.4,5.46,5.62-.13,13.6,4.58,18.09-1.04,3.01-4.1,7.8-1.06,11.85-.97,10.63-6,23.1,1.04,34.4-2.65,7.98,1.63,16.54-2.22,23.85,2.49,9.9,8.36,24.61,5.65,35.11,13.01,5.89,5.26,14.14,5.15,20.28,9.91,17.2,9.65,29.94,25.05,43.11,39.3,3.56,7.57,7.25,16.05,15.19,19.81-8.97,3.87,4.35,6.82,5.23,11.78,8.57,16.68,7.16,35.7,9.72,53.65.98,15.16-.5,30.39-3.78,45.2-4.1,6.44-.91,15.18-6.76,20.81-2.22-7.43-12.49-.75-18.38-2.52-14.94,19.58-39.51,28.87-63.35,30.91,6.55-3.01,13.26-5.69,19.9-8.59,19.92-2.47,32.82-20.69,42.79-36.08,7.19-1.15,5.28-9.45,9.84-13.55,4.22-3.24,1.47-8.82,3.2-13.19,1.9,1.75,3.49,3.81,5.35,5.66,7.46-2.09-1.13-11.2,5.03-14.73-2.36-13.51-3.9-26.97-5.96-40.18-4.72-4.51-4.15-11.15-6.26-16.84-1.61-8.39-10.7-13.82-10-22.58-4.19-6.07-7.25-12.78-11.24-18.88-13.26-11.9-24.23-27.11-41.2-34.13-9-4.72-18.43-8.55-27.27-13.53-7.01,1.79-16.09,1.72-20.63-4.8-17.75-6.69-36.44,5.44-54.04-2.06-3.29,3.87-5.35,10.36-12.78,6.73-4.67,1.22-4.33,8.84-9.54,10.13-5.01,2.74-7.66-4.89-12.6-2.29-3.51,1.34-5.03-3.11-7.95-3.97-3.33,2.51-5.83,8.14-10.81,6.5-1.74-1.13-3.22-2.52-5.05-3.38-.84,2.34-1.52,4.76-2.54,7.07-1.72-1.07-3.33-2.27-4.99-3.35-.54,2.43.29,6.75-3.54,4.89-3.35-4.22-6.03-9.23-6.84-14.62-3.63-2.93-7-6.23-11.1-8.52-1.68,3.51,1.81,10.68-3.31,12.71-2.02-9.11-10.2-14.51-13.94-22.58-1.15-.23-3.45-.68-4.62-.89-.54-.25-1.63-.75-2.18-1,4.24-3.26,7.78-7.28,11.76-10.86h0Z"/>
  <path class="cls-24" d="M132.62,83.7c.63-7.05,9.4-10.47,13.46-15.71l1.59.68c.55.25,1.65.75,2.18,1,.05,6.21-3.94,13.6,1.59,18.38-.55,4.29-3.49,10.06,1.91,12.42,4.44,8.77.84,19.6,4.49,28.9-3.27,7.07,1.86,14.21-1.84,21.08,1.68,17.45-.98,34.95-1.38,52.42.09,4.12-3.45,7.55-2.52,11.78,1.77,18.04,1.32,36.67,6.73,54.15,4.13,8.46,3.01,18.74,9.23,26.31,1.72,2,4.29.72,6.53.82,2.63,5.44,3.26,11.69,6.6,16.82,5.21,6.96,3.56,16.46,8.21,23.71,1.99,4.33,6.44,6.62,9.74,9.95,4.19,5.92,6.67,13.22,11.99,18.38,3.02.79,4.53-4.44,8.12-3.24-1.34,5.74,2.81,11.06,1.23,16.75-1.7,4.47,4.42,5.6,7.18,7.55,3.02,7.84,9.09,13.94,12.26,21.8,4.87,2,1.61-7.87,8.16-4.9-2.99,8.8,3.24,16.68,8.59,23.03.25-2.43,1.43-3.35,3.53-2.77,2.86,6.71,8.2,11.86,13.12,17.13-1.29.13-3.87.34-5.15.47,3.04,4.99,4.69,11.17,9.68,14.69-1.56,2.22-3.22,4.37-4.58,6.73,2.52-1.25,4.89-2.85,7.52-3.95-.86,2.54-2.27,4.85-3.45,7.27,7.02,2.54,12.88,9.79,20.87,9,2.09-2.29,1.09-8.36,5.51-6.87,5.42,3.22,15.32,4.33,10.9,14.08-.97,5.19,5.4,5.73,9,6.85,6.23-2.72,13.69-2.34,20.01-5.94,4.58,1.95,8.97,2.59,13.39-.45,1.13,2.49,1.23,8.45,5.39,6.19,6.48-5.94,12.9-11.97,19.13-18.2,3.83-.07,7.75.18,11.76.73-2.9,9.09-13.37,12.99-19.61,19.7-23.01,3.11-46.55,3.85-69.85,3.78-8.91.61-17.82,1.77-26.66-.13.34-1.95,2.65-4.53.68-6.23-4.01-3.88-4.89-9.5-7.18-14.32-8.23-4.78-6.62-15.43-11.85-22.51-2.17.13-3.35,1.99-4.72,3.35-.32-7.02-7.3-11.38-6.62-18.49-7.41-7.25-13.21-16.28-17.29-25.72-1.9-1.34-4.83-.48-6.01-2.76-2.88-6.62-7.05-12.85-6.55-20.45-6.69,3.51-9.79-3.02-12.83-7.91,1.18-4.51-2.76-7.48-2.08-11.85-10.36-3.79-11.24-16.71-17.59-24.34-.5-6.78-4.62-11.92-7.7-17.56,1.45-5.14.5-10.56-4.08-13.78-2.27,1.2-4.33,2.79-6.78,3.58-1.81-5.48-1.91-11.78-5.66-16.32-6.03-8.29-.98-20.13-7.44-28.13-1.88-8.32-1.97-17.63-5.08-25.7-3.54-4.19.05-9.48-1.61-14.19-2.54-10.56-5.01-21.64-.93-32.18-2.47-7.62,3.17-14.98.41-22.49-7.57,2.52.97-5.74-.29-9.36-4.9-10.97-2.27-23.43-.63-34.77-.07-8.89-.04-18.24-3.85-26.47,1.91-8.27-.02-18.54-8.88-21.8h0Z"/>
  <path class="cls-45" d="M149.86,69.67c1.16.21,3.47.66,4.62.89,3.74,8.07,11.92,13.48,13.94,22.58,5.12-2.02,1.63-9.2,3.31-12.71,4.1,2.29,7.46,5.58,11.1,8.52.81,5.39,3.49,10.4,6.84,14.62,3.83,1.86,3.01-2.45,3.54-4.89,1.66,1.07,3.27,2.27,4.99,3.35,1.02-2.31,1.7-4.72,2.54-7.07,1.83.86,3.31,2.25,5.05,3.38,4.98,1.65,7.48-3.99,10.81-6.5,2.92.86,4.44,5.32,7.95,3.97,4.94-2.59,7.59,5.03,12.6,2.29,5.21-1.29,4.87-8.91,9.54-10.13,7.43,3.63,9.48-2.86,12.78-6.73,17.61,7.5,36.29-4.63,54.04,2.06,4.55,6.51,13.62,6.59,20.63,4.8,8.84,4.97,18.27,8.8,27.27,13.53,16.97,7.02,27.93,22.23,41.2,34.13,3.99,6.1,7.05,12.81,11.24,18.88-.7,8.77,8.39,14.19,10,22.58,2.11,5.69,1.54,12.33,6.26,16.84,2.06,13.21,3.6,26.66,5.96,40.18-6.16,3.53,2.43,12.63-5.03,14.73-1.86-1.84-3.45-3.9-5.35-5.66-1.74,4.37,1.02,9.95-3.2,13.19-4.56,4.1-2.65,12.4-9.84,13.55-9.97,15.39-22.87,33.61-42.79,36.08,18.54-10.9,34.99-26.63,42.81-47.01,7.32-11.36,5.35-25.66,8.25-38.35,2.45-13.98-4.9-27.4-3.44-41.12-5.26-.79-7.48-6.73-6.85-11.45-1.18-13.22-12.35-22.03-17.97-33.38-8.61-9.27-18.97-16.73-28.44-25.05-15.39-11.54-35.84-9.04-52.7-17.09-12.2-2.38-24.59,1.54-36.85,1.52-9.31-1.56-17.57,3.97-26.22,6.3-7,3.01-12.62,10.36-20.87,9.57-1.61,4.37-4.47,7.01-9.31,6.94-4.08,5.64-4.6,14.01-12.19,16.2,2.88,9.11-10.68,13.85-8.89,23.05,1.43,8.32-2.08,16.45-3.97,24.46-.66-.5-2.02-1.5-2.7-1.99,2.36-6.37,1.11-12.92,1.68-19.47-4.22.38-11.92-1.56-7.19,8.43-1.84,5.8-12.94-6.64-7.59,8.75-2.17,4.46-2.85,11.63-10.88,8.61-10.7,29.67-11.29,64.84,3.13,93.31,4.94-1.36,5.94,4.47,7.61,7.78,3.79,7.61,6.37,15.75,10.24,23.32,2.65,8.91,5.19,18.93,13.17,24.62,3.83,2.63,3.67,7.96,6.69,11.35.75,10.08,6.8,3.81,10.59,2.02.66,8.39,6.05,14.57,12.47,19.35,2.09,3.97,2.56,8.8,5.4,12.6,1.95,7,12.8,2.22,14.66,8.84,2,5.98,10,6.1,13.76,1.68-.47,2.92-1.27,5.78-1.4,8.77,2.59,1.06,5.3,1.93,7.95,3.02,1.7,5.01,3.99,9.86,4.87,15.14,3.83-2.02,9.29-9.84,5.14,5.35,2.81-.48,5.57-1.29,8.45-1.54,2.24,4.03,2.52,8.91,5.46,12.65,1.36,3.31,4.98.02,7.14-.52.34-4.26-1.22-8.34-1.5-12.51,3.13,5.39,10.18,9.63,7.34,16.55,3.65.45,3.33-3.76,4.74-6.03.95,10.2.91,20.47,2.42,30.64,2.22,1.43,4.74,2.36,7.16,3.54-1.41.16-4.24.52-5.66.7,1.25,6.46,7.98,6.68,13.14,7.36,7.89-3.78,15.86,1.49,23.82,2.25,5.19,2.86,11.47,2.72,15.69-1.79,6.71-.29,9.02-6.55,12.33-11.44,5.53-1.77,11.29-.81,16.91-.43-1.66,3.02-3.99,5.71-4.96,9.07-4.01-.55-7.93-.81-11.76-.73-6.23,6.23-12.65,12.26-19.13,18.2-4.15,2.25-4.26-3.7-5.39-6.19-4.42,3.04-8.8,2.4-13.39.45-6.32,3.6-13.78,3.22-20.01,5.94-3.6-1.13-9.97-1.66-9-6.85,4.42-9.75-5.48-10.86-10.9-14.08-4.42-1.49-3.42,4.58-5.51,6.87-7.98.79-13.85-6.46-20.87-9,1.18-2.42,2.59-4.72,3.45-7.27-2.63,1.11-4.99,2.7-7.52,3.95,1.36-2.36,3.02-4.51,4.58-6.73-4.99-3.53-6.64-9.7-9.68-14.69,1.29-.13,3.87-.34,5.15-.47-4.92-5.26-10.25-10.42-13.12-17.13-2.09-.57-3.27.34-3.53,2.77-5.35-6.35-11.58-14.23-8.59-23.03-6.55-2.97-3.29,6.91-8.16,4.9-3.17-7.86-9.23-13.96-12.26-21.8-2.76-1.95-8.88-3.08-7.18-7.55,1.57-5.69-2.58-11.01-1.23-16.75-3.6-1.2-5.1,4.03-8.12,3.24-5.32-5.15-7.8-12.46-11.99-18.38-3.29-3.33-7.75-5.62-9.74-9.95-4.65-7.25-3.01-16.75-8.21-23.71-3.35-5.14-3.97-11.38-6.6-16.82-2.24-.11-4.81,1.18-6.53-.82-6.23-7.57-5.1-17.84-9.23-26.31-5.4-17.48-4.96-36.11-6.73-54.15-.93-4.22,2.61-7.66,2.52-11.78.39-17.47,3.06-34.97,1.38-52.42,3.7-6.87-1.43-14.01,1.84-21.08-3.65-9.31-.05-20.13-4.49-28.9-5.4-2.36-2.47-8.12-1.91-12.42-5.53-4.78-1.54-12.17-1.59-18.38h0Z"/>
  <path class="cls-117" d="M132.62,83.7c8.86,3.26,10.79,13.53,8.88,21.8,3.81,8.23,3.78,17.57,3.85,26.47-1.65,11.35-4.28,23.8.63,34.77,1.25,3.61-7.28,11.88.29,9.36,2.76,7.52-2.88,14.87-.41,22.49-4.08,10.54-1.61,21.62.93,32.18,1.66,4.71-1.93,10,1.61,14.19,3.11,8.07,3.2,17.38,5.08,25.7,6.46,8,1.41,19.85,7.44,28.13,3.74,4.55,3.85,10.84,5.66,16.32,2.45-.79,4.51-2.38,6.78-3.58,4.58,3.22,5.53,8.64,4.08,13.78,3.08,5.64,7.19,10.77,7.7,17.56,6.35,7.62,7.23,20.54,17.59,24.34-.68,4.37,3.26,7.34,2.08,11.85,3.04,4.89,6.14,11.42,12.83,7.91-.5,7.61,3.67,13.83,6.55,20.45,1.18,2.27,4.12,1.41,6.01,2.76,4.08,9.43,9.88,18.47,17.29,25.72-.68,7.1,6.3,11.47,6.62,18.49,1.38-1.36,2.56-3.22,4.72-3.35,5.23,7.09,3.61,17.73,11.85,22.51,2.29,4.81,3.17,10.43,7.18,14.32,1.97,1.7-.34,4.28-.68,6.23-3.24-.04-9.72-.14-12.94-.18.82-.55,2.51-1.63,3.35-2.17-.63-7.07-7.59-10.02-13.05-12.99-5.78-6.12-2.22-15.96-8.55-21.78-8.61-10.25-11.13-25.52-22.42-33.07-2.95-6.08-5.3-12.35-8.29-18.36-3.36-1.79-7.43-3.26-8.91-7.07-9.14-20.11-23.16-37.76-31.21-58.36.23-4.12-4.13-3.27-6.84-4.15-11.47-14.1-8.25-34.32-19.17-48.51,2.38-10.72-6.68-18.33-9.04-28.01-.68-2.13,3.81-2.58,2.42-4.94-6.26-7.95-5.28-18.88-7.8-28.2-1.5-3.9,1.97-8.23-.59-11.78-1.13-1.93-2.31-3.95-1.57-6.23,1.34-11.78,4.19-24.11.81-35.81-2.18-7.96.25-16.07-1.54-24.03-2.42,1.16-4.55,2.85-6.87,4.13-2.13-6.53,1.47-12.13,6.21-15.73-2.08-8.38,3.83-15.73,1.36-23.85,1.47-5.51,4.87-11.4.27-16.39-2.7-4.31-.13-8.45-.16-12.9h0Z"/>
  <path class="cls-35" d="M274.66,94.21c12.26.02,24.64-3.9,36.85-1.52,16.86,8.05,37.31,5.55,52.7,17.09,9.47,8.32,19.83,15.78,28.44,25.05,5.62,11.35,16.79,20.15,17.97,33.38-.63,4.72,1.59,10.67,6.85,11.45-1.47,13.73,5.89,27.15,3.44,41.12-2.9,12.69-.93,26.99-8.25,38.35-7.82,20.38-24.27,36.11-42.81,47.01-6.64,2.9-13.35,5.58-19.9,8.59-4.31,1.45-8.55,3.06-12.49,5.33-2.92.23-5.83.32-8.72.5,1.5-1.32,3.01-2.65,4.55-3.95.7-.3,2.13-.93,2.83-1.25,4.78-1.54,9.57-3.19,14.01-5.58,9.47-1.45,17.09-7.96,25.2-12.56,15.53-8.72,26.4-23.87,33.46-39.98,7.93-21.71,5.62-45.87,1.68-68.15-5.26-40.01-36.74-72.91-74.23-85.4-30.23-5.42-63.99-9.34-91.98,6.84-14.01,12.69-33.73,23.44-37.13,43.63-6.16,9.18-7.53,20.58-11.9,30.58-.5-1-1.5-3.01-2-4.01,1.9-8.02,5.4-16.14,3.97-24.46-1.79-9.2,11.78-13.94,8.89-23.05,7.59-2.18,8.11-10.56,12.19-16.2,4.83.07,7.69-2.58,9.31-6.94,8.25.79,13.87-6.57,20.87-9.57,8.64-2.33,16.91-7.86,26.22-6.3h0Z"/>
  <path class="cls-89" d="M132.79,96.61c4.6,4.99,1.2,10.88-.27,16.39,2.47,8.12-3.44,15.48-1.36,23.85-4.74,3.6-8.34,9.2-6.21,15.73,2.33-1.29,4.46-2.97,6.87-4.13,1.79,7.96-.64,16.07,1.54,24.03,3.38,11.7.54,24.03-.81,35.81-.73,2.27.45,4.29,1.57,6.23,2.56,3.54-.91,7.87.59,11.78,2.52,9.32,1.54,20.26,7.8,28.2,1.4,2.36-3.1,2.81-2.42,4.94,2.36,9.68,11.42,17.29,9.04,28.01,10.92,14.19,7.7,34.41,19.17,48.51,2.7.88,7.07.04,6.84,4.15,8.05,20.6,22.07,38.24,31.21,58.36,1.49,3.81,5.55,5.28,8.91,7.07,2.99,6.01,5.33,12.28,8.29,18.36,11.29,7.55,13.82,22.82,22.42,33.07,6.33,5.82,2.77,15.66,8.55,21.78,5.46,2.97,12.42,5.92,13.05,12.99-.84.54-2.52,1.61-3.35,2.17-.84.05-2.52.16-3.36.21-3.56-.04-7.09-.04-10.59-.05,3.87-5.31-.05-10.47-3.33-14.73-5.44-8.7-8.54-18.67-13.48-27.61-7.87-4.85-9.79-14.35-14.01-21.94-13.6-19.97-27-39.51-40.03-59.82-1.36-6.19-3.69-12.87-9.77-15.8-13.05-19.2-17.39-42.41-28.65-62.35-5.46-9.86-6.08-21.58-10.83-31.6-3.85.52-10.97,3.65-6.16-7.07-1.15-10.36-3.81-20.54-3.78-31.01.64-5.74-4.67-10.29-3.49-16.11,2.04-11.54-3.29-22.89-2.04-34.5-1.74-18.02,1.22-35.86,4.37-53.51.47-2.11.09-4.03-1.15-5.76,3.42-6.78,4.21-17.05,14.85-15.64h0Z"/>
  <path class="cls-10" d="M244.26,110.53c27.99-16.18,61.76-12.26,91.98-6.84,37.49,12.49,68.97,45.38,74.23,85.4,3.94,22.28,6.25,46.44-1.68,68.15-7.07,16.11-17.93,31.26-33.46,39.98,12.17-12.17,24.28-25.14,30.01-41.71,14.41-47.62-.32-104.76-42.39-133.7-31.03-19.69-70.28-21.78-104.94-11.67-14.44,6.55-27.15,16.57-36.74,29.21-6.37,3.15-9.54,9.77-14.14,14.82,3.4-20.19,23.12-30.94,37.13-43.63h0Z"/>
  <path class="cls-72" d="M89.26,134.22c2.77-10.86,7.78-22.89,15.96-30.42.16.81.48,2.43.64,3.24-16.79,18.36-7.64,46.08-10.95,68.47,1.54,12.83,2.34,25.66,2.47,38.58,5.57,30.26,12.28,60.68,25.25,88.78,1.32,5.33,5.64,8.61,9.34,12.29,9.16,21.94,23.23,41.37,34.2,62.47,12.94,24.02,33.38,43.06,44.94,67.86,8.55,10.81,14.48,23.34,22.78,34.34,2.81,4.24,4.56,9.13,5.83,14.08-.89.02-2.7.05-3.61.05-.7-.66-2.11-2.02-2.83-2.7-.38-7.07-5.15-12.47-10.08-16.91-1.65-6.57-5.51-11.9-9.97-16.77-6.8-10-13.19-20.29-19.54-30.57-.7-.25-2.09-.75-2.79-1-2.58-5.49-5.42-11.22-10.67-14.48-.02-3.56-1.36-7.62-5.19-8.54.89-5.35-3.44-8.64-7.66-10.79-2.63-2.33-4.04-5.53-5.33-8.68-2.72-7.73-5.6-16.77-12.47-21.78-1.4-1.56-2.65-3.2-3.67-4.96-2.22-11.4-10.24-20.88-15.91-30.8-12.1-15.71-18.92-34.77-25.34-53.31-.23-8.91-6.8-15.32-8.66-23.64-6.62-33.04-7.98-66.68-12.28-99.88,3.19-4.4,5.94-9.32,5.53-14.96h0Z"/>
  <path class="cls-112" d="M258,110.14c34.66-10.11,73.91-8.02,104.94,11.67,42.07,28.94,56.8,86.08,42.39,133.7-5.73,16.57-17.84,29.55-30.01,41.71-8.11,4.6-15.73,11.11-25.2,12.56,4.58-5.15,10.4-9,16.21-12.65,25.29-13.69,40.23-43.15,41.21-71.53,3.96-47.44-24.71-98.48-71.65-112.53-26.31-7.46-55.05-7.7-80.42,3.27-11.88,4.63-18.93,15.84-28.49,23.69-1.43-.18-4.29-.52-5.73-.7,9.59-12.63,22.3-22.66,36.74-29.21h0Z"/>
  <path class="cls-93" d="M105.87,107.04c.61,2.51,1.02,5.05,1.45,7.62.89,14.91,2.22,30.33-1.66,44.94,1.34,18.29-1.31,36.76,1.77,55.05,5.35,17.56,3.79,36.6,10.47,53.83,3.33,6.71,3.01,15.05,7.34,21.22,2.81,1.36,6.89,1.25,7.18,5.42,4.85,16.68,15.01,30.96,20.87,47.15,10.52,19.92,22.87,38.65,36.22,56.75,3.79,5.67,5.94,12.8,11.4,17.27,5.58,4.87,6.05,13.69,12.4,17.91,6.82,3.76,5.51,12.97,10,18.72,7.84,11.4,14.23,23.69,22.08,35.11,1.93,2.31-1.54,4.06-2.49,5.92-.79-.02-2.38-.04-3.17-.04-1.27-4.96-3.02-9.84-5.83-14.08-8.3-11.01-14.23-23.53-22.78-34.34-11.56-24.8-32-43.84-44.94-67.86-10.97-21.1-25.04-40.53-34.2-62.47-3.7-3.69-8.02-6.96-9.34-12.29-12.97-28.1-19.69-58.52-25.25-88.78-.13-12.92-.93-25.75-2.47-38.58,3.31-22.39-5.83-50.11,10.95-68.47h0Z"/>
  <path class="cls-115" d="M255.48,116.35c25.38-10.97,54.12-10.74,80.42-3.27,46.94,14.05,75.61,65.09,71.65,112.53-.98,28.38-15.93,57.84-41.21,71.53,3.38-4.94,7.12-9.59,10.68-14.41,1.11-1.23,2.25-2.43,3.45-3.6,15.43-8.64,18.99-27.36,23.16-42.93.29-11.4,3.99-23.07,1.22-34.36-6.28-28.08-20.74-54.99-43.74-72.82-20.63-16.93-49.34-19.29-74.98-17.65-15.5-.07-30.49,6.68-41.02,17.93-.04,1.32-.11,4.01-.14,5.33v1.83c-.84.41-2.52,1.23-3.36,1.65-5.67.41-9.66,4.72-14.26,7.46-.09-1.38-.27-4.15-.36-5.53,9.56-7.86,16.61-19.06,28.49-23.69h0Z"/>
  <path class="cls-121" d="M245.12,129.3c10.52-11.26,25.52-18,41.02-17.93,25.64-1.65,54.35.72,74.98,17.65-25.13-12.85-54.01-20.2-82.16-14.08-8.91,1.36-20.58,4.1-23.78,13.9-3.42,1.93-6.87,3.76-10.2,5.8.04-1.32.11-4.01.14-5.33h0Z"/>
  <path class="cls-99" d="M107.32,114.66c3.9,2.11,7.44,0,10.61-2.42,1.23,1.74,1.61,3.65,1.15,5.76-3.15,17.65-6.1,35.49-4.37,53.51-1.25,11.61,4.08,22.96,2.04,34.5-1.18,5.82,4.13,10.36,3.49,16.11-.04,10.47,2.63,20.65,3.78,31.01-4.81,10.72,2.31,7.59,6.16,7.07,4.74,10.02,5.37,21.74,10.83,31.6,11.26,19.94,15.6,43.15,28.65,62.35,6.08,2.93,8.41,9.61,9.77,15.8,13.03,20.31,26.43,39.85,40.03,59.82,4.22,7.59,6.14,17.09,14.01,21.94,4.94,8.95,8.03,18.92,13.48,27.61,3.27,4.26,7.19,9.41,3.33,14.73-2.49-.04-4.94-.07-7.37-.11.95-1.86,4.42-3.61,2.49-5.92-7.86-11.42-14.24-23.71-22.08-35.11-4.49-5.74-3.19-14.96-10-18.72-6.35-4.22-6.82-13.05-12.4-17.91-5.46-4.47-7.61-11.6-11.4-17.27-13.35-18.09-25.7-36.83-36.22-56.75-5.85-16.2-16.02-30.48-20.87-47.15-.29-4.17-4.37-4.06-7.18-5.42-4.33-6.17-4.01-14.51-7.34-21.22-6.68-17.23-5.12-36.27-10.47-53.83-3.08-18.29-.43-36.76-1.77-55.05,3.88-14.6,2.56-30.03,1.66-44.94h0Z"/>
  <path class="cls-107" d="M278.96,114.93c28.15-6.12,57.03,1.23,82.16,14.08,23,17.82,37.46,44.74,43.74,72.82-1.38,12.81-.36,26.47-5.62,38.55-2.18-15.16,7.1-31.25.11-45.65-4.28-13.8-8.73-27.9-18.2-39.16-12.49-22.55-37.96-34.66-62.74-37.83-15.75-2.74-32.03-1.95-46.99,3.72-3.19.59-5.21,3.24-7.37,5.37-2.97.66-5.92,1.36-8.86,2,3.2-9.81,14.87-12.54,23.78-13.9h0Z"/>
  <path class="cls-48" d="M271.4,121.46c14.96-5.67,31.25-6.46,46.99-3.72,24.79,3.17,50.25,15.28,62.74,37.83,9.47,11.26,13.92,25.36,18.2,39.16-.36,6,1.36,13.58-4.8,17.04-1-3.1-1.27-6.35-1.32-9.56,3.7-9.88-1.04-19.47-5.98-27.86-9.13-15.68-17.11-34.66-35.04-41.86-13.28-7-27.99-11.67-43.02-12.24-7.12,1.56-15.68-2.11-21.87,2.99-3.95.61-15.82-1.79-10.06,2.74-4.51.82-8.59,1.99-12.99,2.63l-.23-1.77c2.17-2.13,4.19-4.78,7.37-5.37h0Z"/>
  <path class="cls-103" d="M287.31,123.24c6.19-5.1,14.75-1.43,21.87-2.99,15.03.57,29.74,5.24,43.02,12.24,17.93,7.19,25.91,26.18,35.04,41.86,4.94,8.39,9.68,17.99,5.98,27.86l-1.75.54c.29-7.66-3.29-14.64-5.65-21.71-.57.45-1.75,1.36-2.34,1.81-.73-1.72-1.4-3.44-2-5.15,2.36-6.87-6.62-11.58-9.22-17-6.78-9.66-15.68-19.31-27.22-22.98-16.23-12.85-37.72-14.8-57.71-14.48h0Z"/>
  <path class="cls-22" d="M277.26,125.97c-5.76-4.53,6.1-2.13,10.06-2.74,19.99-.32,41.48,1.63,57.71,14.48-7.75-2.45-14.94-6.32-22.75-8.41-14.66-3.85-29.99-4.85-45.03-3.33h0Z"/>
  <path class="cls-68" d="M277.26,125.97c15.03-1.52,30.37-.52,45.03,3.33-5.17,2.81-11.4-.73-16.66-.09-14.98-.05-30.89-2.47-44.95,3.85l-1.41-.18c-.09-2.68,2.97-3.58,5.01-4.28,4.4-.64,8.48-1.81,12.99-2.63h0Z"/>
  <path class="cls-3" d="M255.17,128.84c2.93-.64,5.89-1.34,8.86-2l.23,1.77c-2.04.7-5.1,1.59-5.01,4.28,0,3.01-.66,3.45-2,1.31-1.56-2.7-4.63-.09-6.71.25-1.9.64-3.74,1.32-5.57,2.02v-1.83c3.33-2.04,6.78-3.87,10.2-5.8h0Z"/>
  <path class="cls-88" d="M260.67,133.06c14.07-6.32,29.98-3.9,44.95-3.85,5.26-.64,11.49,2.9,16.66.09,7.8,2.09,15,5.96,22.75,8.41,3.31,4.22,8.05,6.91,12.13,10.31.86,4.69,6.53,12.83,11.81,11.69.82.25,2.45.75,3.27.98l-.75,1.66c-.25.61-.77,1.81-1.02,2.4,10.15,13.94,15.55,30.21,18.74,46.98.32,9.16.79,18.45.36,27.67-1.95,4.85-2.99,10.02-4.8,14.92-7.16,10.13-12.81,21.51-22.23,29.94-17.7,10.27-37.22,23.55-58.7,18.43-9.38,1.61-19.15.75-28.06-2.51-7.75-1.97-12.53-10-21.35-9.29-11.02-6.57-19.65-16.16-30.46-22.96-3.6-6.28-4.94-15.44-12.62-17.81-8.3-23.12-7.46-49.07.2-72.15,3.15-6.46,12.76-13.48,7.86-20.9,6.26-7.61,14.85-12.54,22.19-18.97.84-.41,2.52-1.23,3.36-1.65,1.83-.7,3.67-1.38,5.57-2.02,2.04,3.08-.82,4.62-3.2,6.12-17.48,10.31-28.88,29.4-30.98,49.39-2.99,11.72-2.86,24.14,2.04,35.4,3.63,8.16,2.42,18.56,8.2,25.52,9.04,1.93,9.48,17.07,19.49,15.21,2.61,3.17,5.26,6.33,7.93,9.52,2.77-1.16,5.08-6.07,8.09-4.69,6.34,2.06,5.21,9.68,10.72,12.58,4.94,5.74,13.49.25,19.72,3.47,5.89,2.7,13.14-3.08,18.45,1.29,3.47,1.77,6.05,6.75,10.54,5.06,6.68-1.74,13.17-4.13,20.1-4.78,28.45-8.14,44.43-38.42,44.63-66.5-.73-8.95.7-19.6-5.24-27.15-5.58-9.63-8.52-20.62-14.89-29.8-11.63-12.17-26.54-20.69-41.39-28.29-11.44-3.36-23.46-4.53-35.24-6.01-6.53-1.83-12.15,1.2-17.7,3.78-2.79-.38-8.36-1.13-11.13-1.5h0Z"/>
  <path class="cls-111" d="M271.8,134.56c5.55-2.58,11.17-5.6,17.7-3.78,11.78,1.49,23.8,2.65,35.24,6.01,14.85,7.61,29.76,16.12,41.39,28.29,6.37,9.18,9.31,20.17,14.89,29.8.32,6.5,1.09,13.1,2.22,19.52-2.24,13.73-4.64,28.02-14.48,38.49-3.11,4.9-12.06.7-11.72,8.02-4.33-1.72-8.7-3.31-12.92-5.26,2.92-9.38-8.84-6.23-14.48-4.56-.45,4.35-4.8,7.78-9.13,6.37-5.33-7.66-5.17-17.52-8.25-26.06-3.08-2.06-6.78-2.38-10.34-2.43.86,1.02,5.28,3.15,1.99,4.1-5.96,3.19-11.6-.45-16.07-4.04.47,2.47,1.13,4.92,1.61,7.44-4.17-1.32-5.62-5.15-7.37-8.72-4.9,1.59-9.56-.11-13.74-2.68-1.18-3.26,1.7-5.6,3.1-8.18-2.9-.63-7.57.75-7.73-3.44-.13-3.7-2.99-4.56-6.25-4.17.91,1.7,2.04,3.36,2.97,5.14-2.17,1.29-4.28,2.65-6.51,3.79-4.44-3.83-2.79-10.49-4.12-15.41-2.97-3.63-7.75-4.35-12.01-2.99-.09-9.41-3.61-18.34-3.44-27.74,3.06-12.4,8.93-25,21.8-29.74,3.13-.95,6.53-1.49,8.68-4.24,2.27-1.23,4.64-2.36,6.98-3.54M264.94,141.99c-3.31,3.87-9.23,3.27-12.58,7.05-3.38,2.76-2.93,7.61-2.92,11.54-2.34,2.51-2.4,5.94-2.59,9.18,4.81,2.25,8.23,5.4,7.16,11.2,4.15-.48,7.91-2.47,7.27-7.23,6.64-.81,4.78,6.64,3.19,10.47,2.24.13,4.49.3,6.78.52.39,2.65.61,5.76,3.49,6.96-.05-2.92,1.32-4.15,4.1-3.69.27,2.27-3.56,6.6-.2,7.41,4.42,3.72,5.23-5.66,10.43-3.42,2.72,3.26,10.15,11.42,11.69,3.33,4.44-1.07,7.27,3.56,11.49,4.15,5.82,2.2-1.5,11.17,3.72,14.1,3.47,2.79,7.96,9.04,12.47,4.4,2.4-3.83,13.64-4.26,9.7,2.18,2.18.04,4.38.07,6.62.13-.57,2.06-2.24,4.24-1.11,6.44,4.65,2.88,9.34,6.08,12.37,10.77,5.19-.79,11.35,1.16,15.46-3.36,12.15-8.25,8.59-24.79,7.32-37.13l-1.65.07c-4.35-12.74-9.97-25.02-18.16-35.76-.77.43-2.31,1.25-3.08,1.68-5.62-8.32-15.3-12.56-23.53-17.56-6.39-8.2-20.04-8.45-30.3-9.41l-.07-1.68c-12.81-1.27-26.23.54-37.06,7.64h0Z"/>
  <path class="cls-126" d="M250.54,134.44c2.08-.34,5.15-2.95,6.71-.25,1.34,2.15,2,1.7,2-1.31l1.41.18c2.77.38,8.34,1.13,11.13,1.5-2.34,1.18-4.71,2.31-6.98,3.54-9.81-1.02-17.36,5.91-24.75,11.29-10.25,10.81-16.91,25.34-16.75,40.41-.29,8.02-.81,18.49,6.3,24.07.43,9.31,7.87,16.34,8.52,25.59,2.31-.16,4.76-.47,5.91-2.83,3.22,5.82,8.88,8.79,9.82,15.87,5.1-.98,8.93-10.13,13.92-5.4-1.41,2.72-3.61,5.24-3.45,8.54,13.12-5.42,6.53,3.79,7.44,8.72,4.67.73,8.8,3.17,13.33,4.42-1.04-4.37,6.05-12.1,9.4-7.02,2.58,1.59.59,4.56.7,6.91,5.4.23,5.67-6.46,7.48-10.13,2-.04,5.73-.82,5.62,2.25-.89,2.97,2.76,2.17,4.56,2.95-.84,2.9-3.79,4.26-5.64,6.42,4.69-.36,12.67-5.74,7.75,7.12,2.36,1.18,7.1,3.54,9.47,4.72,3.24-3.4,6.59-6.69,9.97-9.95,7.48,6,17.64-.93,26.38-.3,16.63-13.22,24.84-36.65,22.44-57.36-1.13-6.42-1.9-13.03-2.22-19.52,5.94,7.55,4.51,18.2,5.24,27.15-.2,28.08-16.18,58.36-44.63,66.5-6.93.64-13.42,3.04-20.1,4.78-4.49,1.68-7.07-3.29-10.54-5.06-5.31-4.37-12.56,1.41-18.45-1.29-6.23-3.22-14.78,2.27-19.72-3.47-5.51-2.9-4.38-10.52-10.72-12.58-3.01-1.38-5.31,3.53-8.09,4.69-2.67-3.19-5.32-6.35-7.93-9.52-10,1.86-10.45-13.28-19.49-15.21-5.78-6.96-4.56-17.36-8.2-25.52-4.9-11.26-5.03-23.68-2.04-35.4,2.09-19.99,13.49-39.08,30.98-49.39,2.38-1.5,5.24-3.04,3.2-6.12h0Z"/>
  <path class="cls-41" d="M83.73,149.18c.48-5.03,1.36-12.08,5.53-14.96.41,5.64-2.34,10.56-5.53,14.96h0Z"/>
  <path class="cls-67" d="M264.94,141.99c10.83-7.1,24.25-8.91,37.06-7.64l.07,1.68c-11.42-2.04-21.99,2.49-31.76,7.66-2.42,4.13-4.76,8.32-7.64,12.17,6.82,7.28,14.91,14.64,25.61,15.62,10.33,6.75,21.47,12.31,32.68,17.54,7.3,5.91,13.74,13.99,23.51,15.6,3.9,3.76,6.41,9.38,11.17,12.33,1.5-1.7,2.74-3.61,4.22-5.33,2.92-.77,3.61,3.17,5.4,4.67,4.12.18,9.09.25,11.65-3.67-.04-5.35.5-10.29.23-15.55l1.65-.07c1.27,12.35,4.83,28.88-7.32,37.13-4.12,4.53-10.27,2.58-15.46,3.36-3.02-4.69-7.71-7.89-12.37-10.77-1.13-2.2.54-4.38,1.11-6.44-2.24-.05-4.44-.09-6.62-.13,3.94-6.44-7.3-6.01-9.7-2.18-4.51,4.63-9-1.61-12.47-4.4-5.23-2.93,2.09-11.9-3.72-14.1-4.22-.59-7.05-5.23-11.49-4.15-1.54,8.09-8.97-.07-11.69-3.33-5.21-2.24-6.01,7.14-10.43,3.42-3.36-.81.47-5.14.2-7.41-2.77-.47-4.15.77-4.1,3.69-2.88-1.2-3.1-4.31-3.49-6.96-2.29-.21-4.55-.39-6.78-.52,1.59-3.83,3.45-11.27-3.19-10.47.64,4.76-3.11,6.75-7.27,7.23,1.07-5.8-2.34-8.95-7.16-11.2.2-3.24.25-6.68,2.59-9.18-.02-3.94-.47-8.79,2.92-11.54,3.35-3.78,9.27-3.19,12.58-7.05h0Z"/>
  <path class="cls-16" d="M270.31,143.69c9.77-5.17,20.35-9.7,31.76-7.66,10.25.97,23.91,1.22,30.3,9.41-13.94-5.1-29.9-9.41-44.15-3.47-6.08,3.96-2.11,11.22,1.95,14.98,16.09,14.3,34.23,25.97,52.86,36.65,6.35,6.48,15.25,7.46,23.5,10.06,4.47-.81,10.02-2.95,5.26-10.2-1.11-12.08-8.18-21.78-15.89-30.46.77-.43,2.31-1.25,3.08-1.68,8.2,10.74,13.82,23.01,18.16,35.76.27,5.26-.27,10.2-.23,15.55-2.56,3.92-7.53,3.85-11.65,3.67-1.79-1.5-2.49-5.44-5.4-4.67-1.49,1.72-2.72,3.63-4.22,5.33-4.76-2.95-7.27-8.57-11.17-12.33-9.77-1.61-16.21-9.7-23.51-15.6-11.2-5.23-22.35-10.79-32.68-17.54-10.7-.98-18.79-8.34-25.61-15.62,2.88-3.85,5.23-8.04,7.64-12.17h0Z"/>
  <path class="cls-7" d="M227.35,145.57c4.6-2.74,8.59-7.05,14.26-7.46-7.34,6.42-15.93,11.36-22.19,18.97-1.54,1.56-2.72,3.4-3.61,5.4-2.95,2.9-5.4,6.23-7.57,9.75l-1.45-.72c2.56-11.06,13.26-17.91,20.56-25.95h0Z"/>
  <path class="cls-17" d="M240.07,149.4c7.39-5.39,14.94-12.31,24.75-11.29-2.15,2.76-5.55,3.29-8.68,4.24-12.87,4.74-18.74,17.34-21.8,29.74-.18,9.4,3.35,18.33,3.44,27.74,4.26-1.36,9.04-.64,12.01,2.99,1.32,4.92-.32,11.58,4.12,15.41,2.24-1.15,4.35-2.51,6.51-3.79-.93-1.77-2.06-3.44-2.97-5.14,3.26-.39,6.12.47,6.25,4.17.16,4.19,4.83,2.81,7.73,3.44-1.4,2.58-4.28,4.92-3.1,8.18,4.19,2.58,8.84,4.28,13.74,2.68,1.75,3.56,3.2,7.39,7.37,8.72-.48-2.52-1.15-4.97-1.61-7.44,4.47,3.6,10.11,7.23,16.07,4.04,3.29-.95-1.13-3.08-1.99-4.1,3.56.05,7.27.38,10.34,2.43,3.08,8.54,2.92,18.4,8.25,26.06,4.33,1.41,8.68-2.02,9.13-6.37,5.64-1.66,17.39-4.81,14.48,4.56,4.22,1.95,8.59,3.54,12.92,5.26-.34-7.32,8.61-3.11,11.72-8.02,9.84-10.47,12.24-24.77,14.48-38.49,2.4,20.71-5.82,44.13-22.44,57.36-8.73-.63-18.9,6.3-26.38.3-3.38,3.26-6.73,6.55-9.97,9.95-2.36-1.18-7.1-3.54-9.47-4.72,4.92-12.87-3.06-7.48-7.75-7.12,1.84-2.17,4.8-3.53,5.64-6.42-1.81-.79-5.46.02-4.56-2.95.11-3.08-3.62-2.29-5.62-2.25-1.81,3.67-2.08,10.36-7.48,10.13-.11-2.34,1.88-5.32-.7-6.91-3.35-5.08-10.43,2.65-9.4,7.02-4.53-1.25-8.66-3.69-13.33-4.42-.91-4.92,5.67-14.14-7.44-8.72-.16-3.29,2.04-5.82,3.45-8.54-4.99-4.72-8.82,4.42-13.92,5.4-.95-7.09-6.6-10.06-9.82-15.87-1.15,2.36-3.6,2.67-5.91,2.83-.64-9.25-8.09-16.28-8.52-25.59-7.1-5.58-6.59-16.05-6.3-24.07-.16-15.07,6.5-29.6,16.75-40.41h0Z"/>
  <path class="cls-91" d="M345.03,137.71c11.54,3.67,20.44,13.31,27.22,22.98-.82-.23-2.45-.73-3.27-.98-3.76-4.13-7.39-8.34-11.81-11.69-4.08-3.4-8.82-6.08-12.13-10.31h0Z"/>
  <path class="cls-21" d="M207.12,154.16c4.6-5.05,7.77-11.67,14.14-14.82,1.43.18,4.3.52,5.73.7.09,1.38.27,4.15.36,5.53-7.3,8.04-18,14.89-20.56,25.95-5.58,7.16-8.66,15.69-11.72,24.11-.16-3.65-.18-7.27.16-10.88,4.37-10,5.74-21.4,11.9-30.58h0Z"/>
  <path class="cls-62" d="M288.23,141.97c14.24-5.94,30.21-1.63,44.15,3.47,8.23,4.99,17.91,9.23,23.53,17.56,7.71,8.68,14.78,18.38,15.89,30.46,4.76,7.25-.79,9.4-5.26,10.2-8.25-2.59-17.14-3.58-23.5-10.06-18.63-10.68-36.78-22.35-52.86-36.65-4.06-3.76-8.03-11.02-1.95-14.98M304.48,144.12c-2.74.79-7.53.14-5.94,4.44,3.1,6.07,7.8,11.44,13.64,15.07,6.44,6.82,13.31,13.55,22.12,17.27,7.02,3.4,12.6,9.38,19.74,12.49,4.13-1.59,8.32-1.81,12.44.07-.07-25.16-24.64-41.27-45.94-49.02-4.81-2.72-11.17-.21-16.05-.32h0Z"/>
  <path class="cls-5" d="M304.48,144.12c4.89.11,11.24-2.4,16.05.32,21.3,7.75,45.87,23.85,45.94,49.02-4.12-1.88-8.3-1.66-12.44-.07-7.14-3.11-12.72-9.09-19.74-12.49-8.8-3.72-15.68-10.45-22.12-17.27-5.83-3.63-10.54-9-13.64-15.07-1.59-4.29,3.2-3.65,5.94-4.44M323.87,151.05c-3.45,1.68-11.01,5.42-5.42,9.82,6.08,5.74,12.15,12.22,19.95,15.71,6.35-1.45,10.95,5.08,17.02,4.13,2.61-4.21.81-9.88-2.76-12.9-8.25-7.55-17.27-15.41-28.79-16.77h0Z"/>
  <path class="cls-123" d="M82.19,148.7l1.54.48c4.29,33.2,5.65,66.84,12.28,99.88,1.86,8.32,8.43,14.73,8.66,23.64,6.42,18.54,13.24,37.6,25.34,53.31,5.67,9.91,13.69,19.4,15.91,30.8-7.5-9.07-10.84-20.81-18.97-29.42-11.18-17.54-18.81-36.99-26.13-56.39-8.7-16.27-13.14-34.31-15.41-52.49,0-2.95-3.67-3.4-5.85-3.61-3.4-5.64-3.69-12.38-5.92-18.45.13-16.21,5.31-31.96,8.55-47.75h0Z"/>
  <path class="cls-52" d="M368.97,159.71c-5.28,1.15-10.95-7-11.81-11.69,4.42,3.35,8.05,7.55,11.81,11.69h0Z"/>
  <path class="cls-46" d="M323.87,151.05c11.53,1.36,20.54,9.22,28.79,16.77,3.56,3.02,5.37,8.7,2.76,12.9-6.07.95-10.67-5.58-17.02-4.13-7.8-3.49-13.87-9.97-19.95-15.71-5.58-4.4,1.97-8.14,5.42-9.82h0Z"/>
  <path class="cls-80" d="M215.8,162.48c.89-2,2.08-3.85,3.61-5.4,4.9,7.43-4.71,14.44-7.86,20.9-7.66,23.09-8.5,49.03-.2,72.15,7.68,2.36,9.02,11.52,12.62,17.81,10.81,6.8,19.43,16.39,30.46,22.96,8.82-.72,13.6,7.32,21.35,9.29,8.91,3.26,18.68,4.12,28.06,2.51,21.47,5.12,41-8.16,58.7-18.43,9.41-8.43,15.07-19.81,22.23-29.94-1.66,9-6.59,16.86-10.68,24.87.18.55.54,1.66.72,2.22l.45,1.31c-2.77,2.11-5.21,4.62-7.14,7.5-.54-.86-1.61-2.56-2.15-3.4-15.1,11.17-31.73,22.08-50.97,23.77-13.4-1.68-27.29,1.9-40.41-2.02-15.44-6.03-33.5-10.22-43.22-24.87-9-7.8-16.55-17.11-22.8-27.25-7.93-16.5-7.75-34.88-9.47-52.61.64-8,7.41-15.23,5.28-23.28.91-2.97,1.88-5.96,2.4-9.02l1.45.72c4.46,2.83,6.64-6.33,7.57-9.75h0Z"/>
  <path class="cls-51" d="M185,167.71c-4.72-9.99,2.97-8.05,7.19-8.43-.57,6.55.68,13.1-1.68,19.47-2.13,6.21-2.24,13.28-5.51,19.13-4.19,4.63,6.35,9.77-1.45,12.38-1.45-3.76-2.04-7.73-3.4-11.49-6.91-1.07-5.83,10.11-8.25,13.4-5.83,11.65-4.67,25.38-3.44,37.92,4.17,12.47,9.88,24.27,15.53,36.11,1.63,15.96,14.46,27.34,22.39,40.5,3.24,5.64,10.77,5.42,14.35,10.7,8.97,11.63,22.96,16.09,34.72,24,8.91-8.11,18.58,4.17,22.07,11.88,2.63.16,6.25,1.29,7.37-2.04,2.76-5.67,7.39.36,10.45,2.43,3.97,1.57,3.7-4.22,5.49-6.41,2.93-.98,3.87,2.27,5.48,4.01,2.74-.16,5.44-.64,8.25-.72-.86,7.57-1.77,16.54,3.74,22.66,2.33-.41,4.6-.98,6.98-1.36-4.01,1.9-4.47,8.07,1.09,7.02,2.76-6.93,7.61-14.55,16.36-13.4,2.29,5.21,9.74,4.49,11.63,9.54-3.4-1.02-10.38-2.33-9.02,3.44,8.05,2,9.91,11.31,15.59,16.43-2.85,1.59-6.25,3.29-5.12,7.25,4.13,1.4,8.46,1.66,12.72.63-1.59,2.83-4.42,5.21-3.94,8.79,10.27-.02,8.54-11.65,5.03-17.95,5.19,5.49,14.69,1.23,20.08,7.1,2.13,3.29,4.67-.72,7.01-1.68.11,2.27.25,4.56.45,6.85,3.24-1.45,11.36.29,9.32-5.12-.75-2.81,4.12-1.27,4.99-3.49,4.06-7.23,10.59-12.87,13.15-20.94,8.5-3.27,15.68-9.27,19.49-17.68,2.2-6.44,8.98-9.11,12.37-14.76,1.25-3.33,4.53-1.32,6.93-.68-8.8,12.54-16.18,26.09-24,39.28-4.31,2.67-9.14,5.53-10.72,10.7-3.47,11.08-11.9,19.24-17.75,28.99-4.01-.68-7.95-1.95-12.03-1.81-.05,7.32-9.75,8.41-9.59,15.75-2.79-2.24-5.6-4.4-8.32-6.64-.61,2.88.79,7.71-3.76,7.07-4.76-.07-4.92,5.89-7.53,8.75-2.43-.27-4.33-1.99-6.51-2.83-2.58,1.34-4.9,3.08-7.36,4.6-2.31-3.31-1.9-9.68-6.8-10.09-5.37-1.16.2-6.62,1.57-9.23-2.99.27-5.92.75-8.88,1,.45-4.97.86-9.97.68-14.96-3.97-.95-7.8-2.27-11.54-3.81-.41,2.11.04,7.5-1.91,2.9-1.45-2.38-3.28,3.19-4.94,4.06-.36-3.81-.56-7.84-5.17-8.23-7.91-8.88.2-22.6-7.37-31.6-2.13-3.61-1.75,2.25-4.19,1.79-3.11.13-2.92-5.39-6.46-4.97-.88,2.86-1.66,5.78-2.7,8.61-4.72,1.59-2.08-6.23-7.02-5.3-3.78-.36,1.32-3.85,1.79-5.49,1.45-4.15-3.95-4.04-6.46-5.33,1.45,3.9,1.47,7-3.63,5.76,3.11-6.23-3.83-2.36-7.27-2.22-4.83-4.53-5.67-11.51-8.21-17.32-6.35-4.44-8.48.79-12.06,3.38-5.01-2.47-6.78-7.98-9.02-12.65-2.18.29-3.47,2.27-5.12,3.47-4.1-4.22-9.22-7.53-11.88-12.96-7.05-3.58-8.55-16-17.72-14.55-6.76-10.83-15.77-20.13-24.03-29.83-3.87-7.57-6.44-15.71-10.24-23.32-1.66-3.31-2.67-9.14-7.61-7.78-14.42-28.47-13.83-63.64-3.13-93.31,8.03,3.02,8.72-4.15,10.88-8.61-5.35-15.39,5.74-2.95,7.59-8.75h0Z"/>
  <path class="cls-57" d="M372.25,160.69c2.59,5.42,11.58,10.13,9.22,17-3.17-5.23-6.68-10.22-9.97-15.34l.75-1.66h0Z"/>
  <path class="cls-92" d="M208.23,172.23c2.17-3.53,4.62-6.85,7.57-9.75-.93,3.42-3.11,12.58-7.57,9.75h0Z"/>
  <path class="cls-96" d="M370.47,164.75c.25-.59.77-1.79,1.02-2.4,3.29,5.12,6.8,10.11,9.97,15.34.61,1.72,1.27,3.44,2,5.15,2.85,7.16,5.58,14.35,7.77,21.74.02,1.15.07,3.44.11,4.58-.54.63-1.61,1.91-2.13,2.56-3.19-16.77-8.59-33.04-18.74-46.98h0Z"/>
  <path class="cls-36" d="M195.06,195.62c3.06-8.41,6.14-16.95,11.72-24.11-.52,3.06-1.49,6.05-2.4,9.02-8.8,16.09-10.93,34.66-9.38,52.74.3,6.96,2.38,13.73,3.58,20.63-.2,1.07-.61,3.22-.81,4.29-3.45-8.5-4.51-17.73-5.46-26.75.05-5.1.09-10.16.13-15.21-.09-7.03,1.22-13.8,2.61-20.62h0Z"/>
  <path class="cls-81" d="M185,197.88c3.27-5.85,3.38-12.92,5.51-19.13.68.48,2.04,1.49,2.7,1.99.5,1,1.5,3.01,2,4.01-.34,3.61-.32,7.23-.16,10.88-1.4,6.82-2.7,13.58-2.61,20.62-1.02,4.94-2.15,10.33-.13,15.21.95,9.02,2,18.25,5.46,26.75,4.37,9.63,9.04,19.24,15.07,28.01,4.37,5.6,9.4,10.67,14.17,15.98l-2.11.63c-13.85-10.7-21.33-26.74-30.51-41.14-1.4-17.7-9.99-33.77-10.84-51.41,7.8-2.61-2.74-7.75,1.45-12.38h0Z"/>
  <path class="cls-70" d="M204.39,180.54c2.13,8.05-4.63,15.28-5.28,23.28-1.57,9.72-.84,20.03-4.1,29.46-1.56-18.07.57-36.65,9.38-52.74h0Z"/>
  <path class="cls-82" d="M383.47,182.85c.59-.45,1.77-1.36,2.34-1.81,2.36,7.07,5.94,14.05,5.65,21.71l-.23,1.84c-2.18-7.39-4.92-14.58-7.77-21.74h0Z"/>
  <path class="cls-30" d="M510.99,181.47c4.46.72,2.68,8.72,1.38,11.88-1.4-3.85-1.86-7.82-1.38-11.88h0Z"/>
  <path class="cls-113" d="M399.34,194.73c7,14.41-2.29,30.49-.11,45.65-4.1,8.82-2.88,22.8-12.89,26.79,1.02-2.47,2.15-4.89,2.94-7.43,5.46-15.39,7.14-31.78,5.26-47.98,6.16-3.45,4.44-11.04,4.8-17.04h0Z"/>
  <path class="cls-15" d="M73.64,196.45c2.24,6.07,2.52,12.81,5.92,18.45-3.06,18.95,10.22,34.7,13.98,52.58-1.13,6.46,4.21,9.9,7.28,14.32,8.73,19.09,16.18,39.62,30.46,55.44,21.08,41.88,49.39,79.47,74.32,119.08,7.14,10.58,16.5,20.13,21.03,32.28-.32.91-.97,2.72-1.31,3.63-.91.02-2.72.05-3.63.07,1.06-7.52-3.51-13.64-7.95-19.15-12.22-12.28-19.18-28.4-29.17-42.34-11.56-18.24-23.44-36.26-35-54.49-15.46-26.66-34.99-50.9-48.01-78.94-8.79-5.4-16.05-15.12-17.31-25.81-4.04-9.81-6.05-20.24-9.06-30.33-4.08-14.32-2.42-30.06-1.56-44.79h0Z"/>
  <path class="cls-13" d="M513.21,196.88l1.77.13c0,10.09.27,20.22-.02,30.35l-1.7.05c-.07-2.52-.13-5.05-.14-7.55.09-7.68.05-15.37.09-22.98h0Z"/>
  <path class="cls-43" d="M171.91,212.18c2.42-3.29,1.34-14.48,8.25-13.4,1.36,3.76,1.95,7.73,3.4,11.49.86,17.65,9.45,33.72,10.84,51.41-5.06-9.52-9.18-19.49-14.69-28.76-.68.5-2.04,1.52-2.72,2.02-.21,13.22-1.97,28.24,6,39.78,10.7,26.4,29.29,50.86,56.1,62.24,22.69,10.58,48.73,13.31,73.19,8.02,9.02-1.18,18.72-3.95,25.41-10.52-2.18-4.38-6.6-8.3-11.81-6.35-28.9,5.33-57.93-.5-84.7-11.27-5.66-4.46-11.85-8.27-16.27-14.01l2.11-.63c12.81,8.11,25.38,17.63,40.68,20.54,19.9,5.82,41.32,3.1,61.04-2.17,2.88-.18,5.8-.27,8.72-.5,11.15-.93,22.3-2.11,33.54-1.06.73,5.44,4.65,7.75,9.93,7.23-2.79,5.17-5.26,11.58-12.1,11.51-1.7,7.18-10.79,16.18-16.95,7.8-7.25.73-12.74,7.36-20.56,5.98-1.93.23-3.87.57-5.57,1.49-8.97,4.72-19.43,1.11-29.04,2.77-6.53-2.13-13.26,1.41-19.54-1.52-24.82-2.51-47.57-14.28-66.25-30.42-10.49-11.4-19.58-24.02-26.91-37.63-5.66-11.85-11.36-23.64-15.53-36.11-1.23-12.54-2.4-26.27,3.44-37.92h0Z"/>
  <path class="cls-38" d="M391.47,202.75l1.75-.54c.05,3.2.32,6.46,1.32,9.56,1.88,16.2.2,32.59-5.26,47.98-.45-.59-1.36-1.77-1.81-2.36,1.45-5.76,2.79-11.52,4.01-17.31l.32-1.61c1.47-8.48,3.06-17.57.25-25.93-.18-.84-.54-2.52-.72-3.36-.04-1.15-.09-3.44-.11-4.58l.23-1.84h0Z"/>
  <path class="cls-120" d="M404.85,201.83c2.77,11.29-.93,22.96-1.22,34.36-4.17,15.57-7.73,34.29-23.16,42.93,1.57-4.17,3.47-8.21,5.87-11.95,10-3.99,8.79-17.97,12.89-26.79,5.26-12.08,4.24-25.73,5.62-38.55h0Z"/>
  <path class="cls-73" d="M199.11,203.82c1.72,17.73,1.54,36.11,9.47,52.61,6.25,10.15,13.8,19.45,22.8,27.25,9.72,14.66,27.77,18.84,43.22,24.87,13.12,3.92,27,.34,40.41,2.02,19.24-1.68,35.86-12.6,50.97-23.77.54.84,1.61,2.54,2.15,3.4-7.43,12.2-22.85,15.41-32,25.14-.7.32-2.13.95-2.83,1.25-2.47-.5-4.94.11-7.36.45-11.33-4.44-23.09.91-34.59-.34-24.5-2.33-49.25-11.94-65.89-30.62-8.02-8.48-14.26-18.43-20.38-28.31-1.07,1.2-2.11,2.43-3.08,3.72-1.22-2.52-2.29-5.08-3.4-7.61-1.2-6.91-3.27-13.67-3.58-20.63,3.26-9.43,2.52-19.74,4.1-29.46h0Z"/>
  <path class="cls-40" d="M389.21,211.73c.52-.64,1.59-1.93,2.13-2.56.18.84.54,2.52.72,3.36-.43,8.59-.48,17.29-.25,25.93l-.32,1.61-1.91-.68c.43-9.22-.04-18.5-.36-27.67h0Z"/>
  <path class="cls-11" d="M392.06,212.53c2.81,8.36,1.22,17.45-.25,25.93-.23-8.64-.18-17.34.25-25.93h0Z"/>
  <path class="cls-58" d="M79.56,214.9c2.18.21,5.85.66,5.85,3.61,2.27,18.18,6.71,36.22,15.41,52.49,7.32,19.4,14.94,38.85,26.13,56.39,8.12,8.61,11.47,20.35,18.97,29.42,1.02,1.75,2.27,3.4,3.67,4.96,3.58,7.52,7.23,15.19,12.47,21.78,1.29,3.15,2.7,6.35,5.33,8.68,1.4,4.33,3.72,8.29,7.66,10.79.07,3.54,1.52,7.36,5.19,8.54,2.63,5.28,5.66,10.93,10.67,14.48,8.64,17.25,19.43,33.84,32.3,48.34.36,6.84,10.2,10.74,5.82,17.68-.93.04-2.77.13-3.7.18.34-.91.98-2.72,1.31-3.63-4.53-12.15-13.89-21.71-21.03-32.28-24.93-39.6-53.24-77.2-74.32-119.08-14.28-15.82-21.73-36.35-30.46-55.44-3.08-4.42-8.41-7.86-7.28-14.32-3.76-17.88-17.04-33.63-13.98-52.58h0Z"/>
  <path class="cls-66" d="M192.32,231.45c-2.02-4.89-.89-10.27.13-15.21-.04,5.05-.07,10.11-.13,15.21h0Z"/>
  <path class="cls-102" d="M176.99,234.94c.68-.5,2.04-1.52,2.72-2.02,5.51,9.27,9.63,19.24,14.69,28.76,9.18,14.41,16.66,30.44,30.51,41.14,4.42,5.74,10.61,9.56,16.27,14.01-11.08-2.45-17.86-11.72-25.52-19.15-12.42-10.95-19.97-25.77-28.42-39.67-5.1.72-4.26,7.71-2.7,11.79,4.81,14.66,13.94,27.25,22.87,39.66,19.97,21.15,49.23,32.95,78.36,32.21,4.53-1.54,12.33-.84,14.28-4.94-19.94-4.81-42.56-6.03-58.88-19.9,26.77,10.77,55.8,16.61,84.7,11.27,5.21-1.95,9.63,1.97,11.81,6.35-6.69,6.57-16.39,9.34-25.41,10.52-24.46,5.3-50.5,2.56-73.19-8.02-26.81-11.38-45.4-35.84-56.1-62.24-7.96-11.54-6.21-26.56-6-39.78h0Z"/>
  <path class="cls-78" d="M384.77,254.32c1.81-4.9,2.85-10.08,4.8-14.92l1.91.68c-1.22,5.78-2.56,11.54-4.01,17.31-4.35,7.96-6.42,17.22-12.67,24.03-.18-.55-.54-1.66-.72-2.22,4.1-8.02,9.02-15.87,10.68-24.87h0Z"/>
  <path class="cls-26" d="M75.2,241.24c3.01,10.09,5.01,20.53,9.06,30.33,1.25,10.68,8.52,20.4,17.31,25.81,13.03,28.04,32.55,52.27,48.01,78.94,11.56,18.24,23.44,36.26,35,54.49,9.99,13.94,16.95,30.06,29.17,42.34,4.44,5.51,9,11.63,7.95,19.15-1.32-.07-3.95-.21-5.26-.29.21-7.7-6.94-12.12-10.79-17.93-8.09-9.29-14.26-19.92-19.13-31.14-8.59-14.62-18.88-28.17-26.36-43.36-7.78-13.87-19.15-25.29-26.88-39.21-2.83-5.14-9.11-4.44-14.1-5.53-.75-.61-2.24-1.83-2.99-2.45-4.71-13.64-13.22-25.54-18.25-39.05-2.72-4.89-3.78-11.31-8.88-14.39-8.38-17.52-13.03-38.15-13.85-57.71h0Z"/>
  <path class="cls-77" d="M198.59,253.91c1.11,2.52,2.18,5.08,3.4,7.61,3.92,8.72,8.34,17.31,14.32,24.82-.86-.04-2.59-.09-3.45-.13-6.03-8.77-10.7-18.38-15.07-28.01.2-1.07.61-3.22.81-4.29h0Z"/>
  <path class="cls-2" d="M184.54,269.8c-1.56-4.08-2.4-11.08,2.7-11.79,8.45,13.9,16,28.72,28.42,39.67,7.66,7.43,14.44,16.7,25.52,19.15,16.32,13.87,38.94,15.09,58.88,19.9-1.95,4.1-9.75,3.4-14.28,4.94-29.13.73-58.39-11.06-78.36-32.21-8.93-12.4-18.06-25-22.87-39.66h0Z"/>
  <path class="cls-23" d="M201.99,261.51c.97-1.29,2-2.52,3.08-3.72,6.12,9.88,12.37,19.83,20.38,28.31,16.64,18.68,41.39,28.29,65.89,30.62,11.51,1.25,23.26-4.1,34.59.34-7.77,4.01-16.77,4.21-25.16,5.83-6.96-.54-13.71-.81-20.6-.25-2.76-.29-5.48-.52-8.2-.77-8.07-4.6-18.11-4.28-25.41-10.31,4.28-4.24-2.92-7.68-5.57-3.26-1.79-1.22-3.56-2.4-5.24-3.67.34-.91,1.02-2.74,1.34-3.65-5.44-5.55-10.9-11.1-16.73-16.18-.57.93-1.74,2.79-2.33,3.72-.43-.54-1.31-1.65-1.74-2.2-5.98-7.52-10.4-16.11-14.32-24.82h0Z"/>
  <path class="cls-56" d="M374.81,281.41c6.25-6.82,8.32-16.07,12.67-24.03.45.59,1.36,1.77,1.81,2.36-.79,2.54-1.91,4.96-2.94,7.43-2.4,3.74-4.29,7.78-5.87,11.95-1.2,1.16-2.34,2.36-3.45,3.6h-1.77l-.45-1.31h0Z"/>
  <path class="cls-4" d="M368.11,290.22c1.93-2.88,4.37-5.39,7.14-7.5h1.77c-3.56,4.81-7.3,9.47-10.68,14.41-5.82,3.65-11.63,7.5-16.21,12.65-4.44,2.4-9.23,4.04-14.01,5.58,9.14-9.74,24.57-12.94,32-25.14h0Z"/>
  <path class="cls-25" d="M220.37,284.81c5.83,5.08,11.29,10.63,16.73,16.18-.32.91-1,2.74-1.34,3.65-6.41-4.78-12.97-9.59-17.72-16.11.59-.93,1.75-2.79,2.33-3.72h0Z"/>
  <path class="cls-83" d="M212.85,286.21c.86.04,2.59.09,3.45.13.43.55,1.31,1.66,1.74,2.2,4.74,6.51,11.31,11.33,17.72,16.11,1.68,1.27,3.45,2.45,5.24,3.67,1.72,1.25,3.63,2.25,5.57,3.26,7.3,6.03,17.34,5.71,25.41,10.31-1.06.21-3.2.64-4.28.86-15.3-2.92-27.86-12.44-40.68-20.54-4.78-5.31-9.81-10.38-14.17-15.98h0Z"/>
  <path class="cls-19" d="M89.05,298.95c5.1,3.08,6.16,9.5,8.88,14.39,5.03,13.51,13.55,25.41,18.25,39.05l-1.65-.02c-10.15-15.69-18.33-32.64-25.21-49.96-.07-.86-.2-2.59-.27-3.45h0Z"/>
  <path class="cls-116" d="M241,308.31c2.65-4.42,9.84-.98,5.57,3.26-1.93-1-3.85-2-5.57-3.26h0Z"/>
  <path class="cls-39" d="M187.51,309.48c8.27,9.7,17.27,19.01,24.03,29.83,9.16-1.45,10.67,10.97,17.72,14.55,2.67,5.42,7.78,8.73,11.88,12.96,1.65-1.2,2.93-3.19,5.12-3.47,2.24,4.67,4.01,10.18,9.02,12.65,3.58-2.59,5.71-7.82,12.06-3.38,2.54,5.82,3.38,12.8,8.21,17.32,3.44-.14,10.38-4.01,7.27,2.22,5.1,1.23,5.08-1.86,3.63-5.76,2.51,1.29,7.91,1.18,6.46,5.33-.47,1.65-5.57,5.14-1.79,5.49,4.94-.93,2.29,6.89,7.02,5.3,1.04-2.83,1.82-5.74,2.7-8.61,3.54-.41,3.35,5.1,6.46,4.97,2.43.47,2.06-5.4,4.19-1.79,7.57,9-.54,22.73,7.37,31.6,4.62.39,4.81,4.42,5.17,8.23,1.66-.88,3.49-6.44,4.94-4.06,1.95,4.6,1.5-.79,1.91-2.9,3.74,1.54,7.57,2.86,11.54,3.81.18,4.99-.23,9.99-.68,14.96,2.95-.25,5.89-.73,8.88-1-1.38,2.61-6.94,8.07-1.57,9.23,4.9.41,4.49,6.78,6.8,10.09,2.45-1.52,4.78-3.26,7.36-4.6,2.18.84,4.08,2.56,6.51,2.83,2.61-2.86,2.77-8.82,7.53-8.75,4.55.64,3.15-4.19,3.76-7.07,2.72,2.24,5.53,4.4,8.32,6.64-.16-7.34,9.54-8.43,9.59-15.75,4.08-.14,8.02,1.13,12.03,1.81-4.17,6.53-8.95,12.69-12.71,19.49-5.62-.38-11.38-1.34-16.91.43-3.31,4.89-5.62,11.15-12.33,11.44-4.22,4.51-10.5,4.65-15.69,1.79-7.96-.77-15.93-6.03-23.82-2.25-5.15-.68-11.88-.89-13.14-7.36,1.41-.18,4.24-.54,5.66-.7-2.42-1.18-4.94-2.11-7.16-3.54-1.5-10.16-1.47-20.44-2.42-30.64-1.41,2.27-1.09,6.48-4.74,6.03,2.85-6.93-4.21-11.17-7.34-16.55.29,4.17,1.84,8.25,1.5,12.51-2.17.54-5.78,3.83-7.14.52-2.93-3.74-3.22-8.63-5.46-12.65-2.88.25-5.64,1.06-8.45,1.54,4.15-15.19-1.31-7.37-5.14-5.35-.88-5.28-3.17-10.13-4.87-15.14-2.65-1.09-5.35-1.97-7.95-3.02.13-2.99.93-5.85,1.4-8.77-3.76,4.42-11.76,4.29-13.76-1.68-1.86-6.62-12.71-1.84-14.66-8.84-2.85-3.79-3.31-8.63-5.4-12.6-6.42-4.78-11.81-10.95-12.47-19.35-3.79,1.79-9.84,8.05-10.59-2.02-3.02-3.38-2.86-8.72-6.69-11.35-7.98-5.69-10.52-15.71-13.17-24.62h0Z"/>
  <path class="cls-18" d="M325.93,317.06c2.42-.34,4.89-.95,7.36-.45-1.54,1.31-3.04,2.63-4.55,3.95-19.72,5.26-41.14,7.98-61.04,2.17,1.07-.21,3.22-.64,4.28-.86,2.72.25,5.44.48,8.2.77,6.69,1.38,13.78,1.79,20.6.25,8.39-1.63,17.39-1.83,25.16-5.83h0Z"/>
  <path class="cls-29" d="M280.17,322.65c6.89-.55,13.64-.29,20.6.25-6.82,1.54-13.9,1.13-20.6-.25h0Z"/>
  <path class="cls-61" d="M116.18,352.39c.75.63,2.24,1.84,2.99,2.45,27.86,45.72,57.39,90.41,86.33,135.49l-1.9.41c-20.2-28.04-38.17-57.64-57.02-86.58-2.18-3.49-4.51-6.89-6.8-10.25-1.49-2.54-2.95-5.05-4.51-7.46-.86-1.74-1.7-3.47-2.67-5.1-2.81-5.05-5.94-9.9-9.48-14.42-2.09-4.96-7.09-8.89-6.94-14.53h0Z"/>
  <path class="cls-55" d="M119.17,354.84c4.99,1.09,11.27.39,14.1,5.53,7.73,13.92,19.09,25.34,26.88,39.21,7.48,15.19,17.77,28.74,26.36,43.36,4.87,11.22,11.04,21.85,19.13,31.14,3.85,5.82,11.01,10.24,10.79,17.93-3.67-.52-7.28-1.34-10.93-1.68-28.94-45.08-58.46-89.76-86.33-135.49h0Z"/>
  <path class="cls-74" d="M149.59,361.77c6.87,5.01,9.75,14.05,12.47,21.78-5.24-6.59-8.89-14.26-12.47-21.78M180.24,411.55c5.24,3.26,8.09,8.98,10.67,14.48-5.01-3.54-8.04-9.2-10.67-14.48M190.91,426.03c.7.25,2.09.75,2.79,1,6.35,10.27,12.74,20.56,19.54,30.57,4.46,4.87,8.32,10.2,9.97,16.77-12.87-14.5-23.66-31.08-32.3-48.34h0Z"/>
  <path class="cls-100" d="M463.42,363.2l1.61.18c.02,2-.73,3.67-2.25,4.97-2.15,1.91-3.53,4.44-4.6,7.07-3.99,8.14-9.38,15.5-13.24,23.69-1.32,1.02-2.61,2.06-3.87,3.11l-1.65.25c7.82-13.19,15.19-26.74,24-39.28h0Z"/>
  <path class="cls-109" d="M64.14,383.15c18.72-8.5,39.23-11.11,58.98-16.23,3.54,4.53,6.68,9.38,9.48,14.42-3.92.27-7.02,2.47-10.06,4.71-10.76,3.54-21.74,6.17-32.77,8.64-8.45,3.4-16.12,8.61-25.05,10.76-9.63,5.92-15.94,15.84-21.4,25.47.82,4.97,1.74,10.42,3.97,15.09,24.75,24.61,61.24,31.03,93.9,38.67,14.21,2.99,28.69,4.44,43.04,6.75-7.16,2.09-14.05,7.7-16.59,14.75,16.21-1.11,32.19,3.45,48.48,2.61,14.17,1.47,28.44,5.03,42.79,3.58,16.43,2.54,33.09,3.99,49.73,3.88,16.3,3.65,32.84.16,49.3,1.7,19.08-.82,38.4.18,57.19-4.01,23.19-3.44,46.08-8.43,69.02-13.08,8.18.54,15.59-4.01,23.91-3.19-15.23,8.77-33.41,8.73-50.09,13.05-40.77,8.93-82.64,9.97-124.2,10.9-15.37,2.56-30.67-1.72-46.06-.82-23.12-1.09-46.42-1.65-69.24-5.94-32-.04-63.33-7.77-94.77-12.65-10.06-1.9-20.63-8.79-30.98-4.81-19.69-2.86-37.67-11.99-55.85-19.31-7.57-4.42-14.85-11.74-24.21-11.65-3.02-2.9-4.6-8.16-9.43-8.32-6.3-8.25-2.15-20.9,1.81-30.28,11.54-23.09,36.01-35.74,59.09-44.67h0Z"/>
  <path class="cls-63" d="M458.18,375.42c1.07-2.63,2.45-5.15,4.6-7.07,27.67,3.2,54.06,13.53,79.12,25.41,8.89,5.3,20.06,9.25,25.57,18.61-4.72.36-10.5-5.76-13.69.54-8,5.23-2.31,14.48-3.02,21.94-6,13.05-17.25,26.52-32.52,26.77,5.99-5.89,18-9.32,18.25-19.15,9.91-10.13-3.08-23.68-11.24-30.26-15.52-7.64-32.44-11.24-48.44-17.59-8.57-.81-17.36.21-25.98-.48,2.02-6.33,10.59-11.86,7.36-18.72h0Z"/>
  <path class="cls-127" d="M458.18,375.42c3.24,6.85-5.33,12.38-7.36,18.72-1.83,1.84-3.79,3.49-5.89,4.98,3.87-8.2,9.25-15.55,13.24-23.69h0Z"/>
  <path class="cls-85" d="M122.55,386.05c3.04-2.24,6.14-4.44,10.06-4.71.97,1.63,1.81,3.36,2.67,5.1-2.77,2.61.84,10.77,4.51,7.46,2.29,3.36,4.62,6.76,6.8,10.25-32.61,4.42-66.09,11.54-93.67,30.44-3.72,2.58-4.76,7.25-5.62,11.4-2.24-4.67-3.15-10.11-3.97-15.09,5.46-9.63,11.78-19.54,21.4-25.47,8.93-2.15,16.61-7.36,25.05-10.76,11.02-2.47,22.01-5.1,32.77-8.64h0Z"/>
  <path class="cls-1" d="M139.78,393.91c-3.67,3.31-7.28-4.85-4.51-7.46,1.56,2.42,3.02,4.92,4.51,7.46h0Z"/>
  <path class="cls-110" d="M167.4,392.22c4.22,2.15,8.55,5.44,7.66,10.79-3.94-2.51-6.26-6.46-7.66-10.79M175.05,403.02c3.83.91,5.17,4.97,5.19,8.54-3.67-1.18-5.12-4.99-5.19-8.54h0Z"/>
  <path class="cls-28" d="M450.83,394.14c8.63.7,17.41-.32,25.98.48,16,6.35,32.93,9.95,48.44,17.59,8.16,6.59,21.15,20.13,11.24,30.26-25.11-25.2-62.53-29.53-95.28-38.55l-.14-1.7c1.25-1.06,2.54-2.09,3.87-3.11,2.09-1.49,4.06-3.13,5.89-4.98h0Z"/>
  <path class="cls-34" d="M428.71,413.18c1.57-5.17,6.41-8.04,10.72-10.7l1.65-.25.14,1.7c-18.4,29.74-37.94,58.75-56.8,88.17l-1.06.34c-2.72-2.38-6.39-1.99-9.68-2,6.25-6.71,16.71-10.61,19.61-19.7.97-3.36,3.29-6.05,4.96-9.07,3.76-6.8,8.54-12.96,12.71-19.49,5.85-9.75,14.28-17.91,17.75-28.99h0Z"/>
  <path class="cls-31" d="M553.78,412.91c3.19-6.3,8.97-.18,13.69-.54,9.34,6.42,17.63,17.95,17.43,30.03v11.99c.34,4.94-1.56,11.83-5.37,14.37-4.22-2.67-8.43.72-12.22,2.51-11.78,9.72-26.23,15.37-39.92,21.76-6.39,1.77-13.21,2.09-19.31,4.64-8.32-.82-15.73,3.72-23.91,3.19,17.18-6.03,34.5-11.88,49.89-21.85,9.45-4.46,16.91-11.88,22.17-20.83-11.63,2.31-22.3,7.87-31.98,14.55-12.33,7.64-27.47,7.02-40.77,11.9-14.75,7.68-31.96,7.25-47.39,12.92-4.71,1.65-9.81-.72-14.32,1.63-17.56,7-36.76,6.46-55.3,5.67-4.38-.61-6.57,4.06-9.07,6.84,18.79,4.31,38.53,1.04,57.73,2.25-18.79,4.19-38.12,3.19-57.19,4.01-16.46-1.54-33,1.95-49.3-1.7-16.64.11-33.3-1.34-49.73-3.88-14.35,1.45-28.62-2.11-42.79-3.58-16.28.84-32.27-3.72-48.48-2.61,2.54-7.05,9.43-12.65,16.59-14.75,6.39,1.07,12.9.93,19.22,2.68,26.63,7.02,54.71,3.79,81.96,6.26,28.79.47,57.53-1.5,86.29-2.9l.25-1.66c-2.81-.13-8.41-.38-11.22-.5,7.34-1.59,15.55.25,22.62-2.86l1.06-.34c32.07-1.54,63.92-7.62,94.97-15.78,13.08-4.49,25.95-9.66,38.85-14.69,15.26-.25,26.52-13.73,32.52-26.77.72-7.46-4.98-16.71,3.02-21.94h0Z"/>
  <path class="cls-104" d="M584.9,442.4c3.19,1.43,3.19,10.52,0,11.99v-11.99h0Z"/>
  <path class="cls-76" d="M3.24,458.1c4.83.16,6.41,5.42,9.43,8.32,9.36-.09,16.64,7.23,24.21,11.65,18.18,7.32,36.17,16.45,55.85,19.31-1.16,1.7-2.34,3.38-3.33,5.19,10.63,5.92,23.23,7.12,34.93,10,16.09.05,31.8,4.4,47.21,8.73-2.45,2.63-5.03,5.17-7.19,8.05,7.93,3.36,15.98,6.5,23.6,10.54-3.1.52-6.12,1.22-9.16,1.83-.21-.63-.66-1.9-.88-2.54-29.47-2.88-58.29-10.95-86.79-18.7-21.6-8.48-44.49-15.18-62.78-30.14-11.11-7.55-23.85-18.13-25.11-32.25h0Z"/>
  <path class="cls-105" d="M524.25,472.72c9.68-6.68,20.35-12.24,31.98-14.55-5.26,8.95-12.72,16.37-22.17,20.83-15.39,9.97-32.71,15.82-49.89,21.85-22.94,4.65-45.83,9.65-69.02,13.08-19.2-1.22-38.94,2.06-57.73-2.25,2.51-2.77,4.69-7.44,9.07-6.84,18.54.79,37.74,1.32,55.3-5.67,4.51-2.34,9.61.02,14.32-1.63,15.43-5.67,32.64-5.24,47.39-12.92,13.3-4.89,28.44-4.26,40.77-11.9h0Z"/>
  <path class="cls-95" d="M567.31,471.27c3.79-1.79,8-5.17,12.22-2.51-1.83,7.12-7.68,12.8-13.08,17.57-16.7,12.28-34.77,24.05-54.96,29.24,5.15-5.89,9.91-14.75,19.42-13.15,5.44-1.57,11.38-3.26,14.98-8.02-4.64-.34-13.87-1.04-18.5-1.38,13.69-6.39,28.15-12.04,39.92-21.76h0Z"/>
  <path class="cls-108" d="M223.21,474.36c4.92,4.44,9.7,9.84,10.08,16.91.72.68,2.13,2.04,2.83,2.7-.61.41-1.83,1.23-2.43,1.66-4.33.11-8.55-.25-12.63-1.07,2.17-1.07,11.83,1.25,7.98-2.52,4.38-6.94-5.46-10.84-5.82-17.68h0Z"/>
  <path class="cls-98" d="M203.6,490.74l1.9-.41c3.65.34,7.27,1.16,10.93,1.68,1.31.07,3.94.21,5.26.29.91-.02,2.72-.05,3.63-.07.93-.05,2.77-.14,3.7-.18,3.85,3.78-5.82,1.45-7.98,2.52-5.99-.41-11.69-.45-17.59-.47.04-.84.11-2.52.14-3.36h0Z"/>
  <path class="cls-75" d="M373.68,490.44c3.29.02,6.96-.38,9.68,2-7.07,3.11-15.28,1.27-22.62,2.86-33.3,2.04-66.66,3.06-100.02,2.09l.04-1.5.11-1.77c.84-.05,2.52-.16,3.36-.21,3.22.04,9.7.14,12.94.18,8.84,1.9,17.75.73,26.66.13,23.3.07,46.83-.66,69.85-3.78h0Z"/>
  <path class="cls-64" d="M508.07,497.66c6.1-2.54,12.92-2.86,19.31-4.64,4.63.34,13.87,1.04,18.5,1.38-3.6,4.76-9.54,6.44-14.98,8.02-9.5-1.59-14.26,7.27-19.42,13.15-6.35,3.53-14.21,6.07-21.55,7.19-5.53-.63-12.33-5.99-16.93-.91-5.99,6.57-15.96,4.01-23.57,6.94-8.75,1.18-17.79-2.34-26.41.09-10.84,3.99-22.28.09-33.34,2.54-5.06.41-9.93-2.09-14.98-.91-14.48,3.01-28.95-.97-43.45-.07-14.44,3.11-28.85-2.72-43.32-.11-16.21,2.09-32.14-3.47-48.34-2.97-8.61-1.15-17.04-4.65-25.79-3.87-11.99.48-23.78-.88-35.04-4.85-3.04-1.74-5.19.64-7.23,2.65-15.41-4.33-31.12-8.68-47.21-8.73-11.7-2.88-24.3-4.08-34.93-10,.98-1.81,2.17-3.49,3.33-5.19,10.34-3.97,20.92,2.92,30.98,4.81,31.44,4.89,62.78,12.62,94.77,12.65,22.82,4.29,46.12,4.85,69.24,5.94,15.39-.89,30.69,3.38,46.06.82,41.55-.93,83.43-1.97,124.2-10.9,16.68-4.31,34.86-4.28,50.09-13.05h0Z"/>
  <path class="cls-71" d="M203.45,494.1c5.91.02,11.6.05,17.59.47,4.08.82,8.3,1.18,12.63,1.07,4.81.07,9.7.25,14.62.5,4.12,2.4,8.25,2.83,12.42,1.25,33.36.97,66.71-.05,100.02-2.09,2.81.13,8.41.38,11.22.5l-.25,1.66c-28.76,1.4-57.5,3.36-86.29,2.9-27.25-2.47-55.33.75-81.96-6.26h0Z"/>
  <path class="cls-97" d="M233.68,495.64c.61-.43,1.83-1.25,2.43-1.66.91,0,2.72-.04,3.61-.05.79,0,2.38.02,3.17.04,2.43.04,4.89.07,7.37.11,3.51.02,7.03.02,10.59.05l-.11,1.77c-3.11.07-9.34.2-12.46.25-4.92-.25-9.81-.43-14.62-.5h0Z"/>
  <path class="cls-86" d="M248.3,496.14c3.11-.05,9.34-.18,12.46-.25l-.04,1.5c-4.17,1.57-8.3,1.15-12.42-1.25h0Z"/>
  <path class="cls-94" d="M171.55,521.31c2.04-2,4.19-4.38,7.23-2.65,11.26,3.97,23.05,5.33,35.04,4.85,8.75-.79,17.18,2.72,25.79,3.87,16.2-.5,32.12,5.06,48.34,2.97,14.48-2.61,28.88,3.22,43.32.11,14.5-.89,28.97,3.08,43.45.07,5.05-1.18,9.91,1.32,14.98.91,11.06-2.45,22.49,1.45,33.34-2.54,8.63-2.43,17.66,1.09,26.41-.09,7.61-2.93,17.57-.38,23.57-6.94,4.6-5.08,11.4.29,16.93.91l-.18,1.47c-25.98,7.19-52.43,12.03-78.78,17.23-20.76,1-41.32,6.17-62.22,6.41-6.03-.23-11.74-.11-17.64-.5-25-3.24-50.3-.48-75.39-1.63-2.74-.39-8.23-1.16-10.97-1.54-19.06-1.83-4.22,2.63,2.25,3.06-3.79.18-7.55.34-11.31.27-16.07-1.45-32.05-3.76-47.75-7.64-7.62-4.04-15.68-7.18-23.6-10.54,2.17-2.88,4.74-5.42,7.19-8.05h0Z"/>
  <path class="cls-53" d="M178.79,541.72c3.04-.61,6.07-1.31,9.16-1.83,15.69,3.88,31.68,6.19,47.75,7.64l-.25,1.31c-.81,3.11,3.63,12.01,6.64,7.48.21.93.66,2.83.89,3.78-22.01.98-43.58,6.14-64.6,12.33-13.82,4.94-28.76,11.13-37.46,23.53-4.38,5.66.25,12.97,5.01,16.61,13.73,11.22,30.82,17.25,47.42,22.82-2.74,4.13-9.09,6.64-9.32,12.04,35.93,10.92,73.21,17.2,110.86,16.61,55.89,3.38,114.71-4.08,163.49-33.23,3.69-1.13,7.66,1.11,11.52,1.09-2.52,5.23-8.05,10.27-13.98,12.22-14.05,6.8-28.62,12.49-43.47,17.38-4.31-.77-8.68-1.06-11.72,2.74-8.8,7.52-20.72.52-29.9,6.14-8.73,5.78-19.26-.89-28.85-.38-7.41.84-14.64,2.33-22.05,2.92-4.94-.25-8.57-6.5-14.32-3.36-21.51-.11-42.93-1.23-64.41-.82-22.03-6-44.77-9.34-66.43-16.84-9.65,2.61-16.55-6.39-25.02-8.95-12.06-2.38-22.23-9.59-33.75-13.21-15.07-14.5-12.69-42.07,2.08-56.59,17.14-15.14,38.17-26.84,60.68-31.42h0Z"/>
  <path class="cls-37" d="M348.77,547.88c20.9-.23,41.46-5.4,62.22-6.41,11.54,4.72,23.73,8.12,34.25,15.1,6.26,4.38,16.34,6.89,19.33,14.53-7.41-1.74-12.74,3.95-17.09,9.13,1.4,5.66,4.4,10.74,5.99,16.34.14,7.53-2.99,17.13-12.03,17.41,2.04-4.4,7.34-8.57,5.05-13.83-2.77-5.3-6-10.9-11.95-13.15-27.06-18.07-59.9-22.46-91.36-27,.64-2.17,1.34-4.31,2.08-6.44,1.15-1.91,2.31-3.81,3.51-5.67h0Z"/>
  <path class="cls-42" d="M247.01,547.27c-6.48-.43-21.31-4.89-2.25-3.06,2.74.38,8.23,1.15,10.97,1.54l-.21,1.88c-1.32.04-3.99.11-5.33.14-.79-.13-2.38-.38-3.17-.5h0Z"/>
  <path class="cls-47" d="M255.73,545.75c25.09,1.15,50.39-1.61,75.39,1.63-.89.16-2.67.48-3.56.63-7.98-.13-15.84-.32-23.71-.29-13.14-.09-26.25-.04-39.33.04-3.02-.07-6.01-.11-9-.13l.21-1.88h0Z"/>
  <path class="cls-124" d="M235.7,547.54c3.76.07,7.52-.09,11.31-.27.79.13,2.38.38,3.17.5l-.54,1.7c-4.19-.43-8.12-.18-6.46,5.1l-1.47.05c-2.02-2.02-4.13-3.95-6.26-5.78l.25-1.31h0Z"/>
  <path class="cls-65" d="M250.18,547.77c1.34-.04,4.01-.11,5.33-.14,2.99.02,5.98.05,9,.13l-.09,1.79-.14,1.83-1.83.02c-.89,0-2.72.02-3.62.02-.88-.02-2.65-.04-3.53-.05-1.23-.07-3.74-.21-4.99-.29l-.68-1.59.54-1.7h0Z"/>
  <path class="cls-125" d="M264.51,547.75c13.08-.07,26.2-.13,39.33-.04v1.81c-13.17-.02-26.31-.07-39.42.02l.09-1.79h0Z"/>
  <path class="cls-90" d="M303.85,547.72c7.87-.04,15.73.16,23.71.29-7.86,1.7-15.8,1.56-23.71,1.52v-1.81h0Z"/>
  <path class="cls-20" d="M327.56,548.01c.89-.14,2.67-.47,3.56-.63,5.91.39,11.61.27,17.64.5-1.2,1.86-2.36,3.76-3.51,5.67l-1.45-.89c-.32-.73-.97-2.22-1.29-2.95-24.95,1.13-49.95,1.61-74.93,2.13-.84-.13-2.49-.36-3.31-.47l.14-1.83c13.12-.09,26.25-.04,39.42-.02,7.91.04,15.86.18,23.71-1.52h0Z"/>
  <path class="cls-6" d="M242.09,556.33c-3.01,4.53-7.44-4.37-6.64-7.48,2.13,1.83,4.24,3.76,6.26,5.78l.38,1.7h0Z"/>
  <path class="cls-9" d="M243.18,554.57c-1.66-5.28,2.27-5.53,6.46-5.1l.68,1.59c6.03,12.33,18.81,19.97,24.73,32.52,3.27,7.7,9.75,13.17,14.28,20.06-1.7-.82-3.36-1.65-4.99-2.47-5.44-2.88-11.18-6.19-12.15-12.88-3.35-13.01-14.03-19.29-24.09-26.09-1.7-2.52-3.26-5.12-4.92-7.62h0Z"/>
  <path class="cls-32" d="M267.59,551.83c24.98-.52,49.98-1,74.93-2.13.32.73.97,2.22,1.29,2.95-5.01,7.32-14.53,10.72-17.68,19.35-2.77,6.8-9.95,10.58-16.91,11.51-8.86-.73-14.26-8.57-18.58-15.44-4.38-4.15-8.95-8.32-11.04-14.17-4.08-.5-8.09-1.18-12.01-2.06h0Z"/>
  <path class="cls-69" d="M250.32,551.07c1.25.07,3.76.21,4.99.29,8.93,12.58,19.42,24.07,26.9,37.65,3.01,6.91,9.16,11.24,14.85,15.75-2.65.14-5.49.52-7.73-1.11-4.53-6.89-11.01-12.37-14.28-20.06-5.92-12.54-18.7-20.19-24.73-32.52h0Z"/>
  <path class="cls-27" d="M255.32,551.35c.88.02,2.65.04,3.53.05,11.9,14.03,23.71,28.17,32.82,44.27,6.05,7.75,16.64,4.01,25.11,4.22-2.77,1.86-5.76,3.35-8.8,4.72-3.49-1.86-7.27.11-10.9.13-5.69-4.51-11.85-8.84-14.85-15.75-7.48-13.58-17.97-25.07-26.9-37.65h0Z"/>
  <path class="cls-14" d="M258.84,551.41c.89,0,2.72-.02,3.62-.02,5.99,7.19,14.82,11.76,19.6,19.97,4.71,7.66,9.34,15.37,14.94,22.48,5.74,1.18,11.42,2.02,17.39,2.15,3.88-2.74,7.46-5.89,11.33-8.66-2.49,4.63-5.48,8.82-8.95,12.58-8.46-.21-19.06,3.53-25.11-4.22-9.11-16.11-20.92-30.24-32.82-44.27h0Z"/>
  <path class="cls-79" d="M262.46,551.39l1.83-.02c.82.11,2.47.34,3.31.47,3.92.88,7.93,1.56,12.01,2.06,2.09,5.85,6.66,10.02,11.04,14.17,4.31,6.87,9.72,14.71,18.58,15.44,6.96-.93,14.14-4.71,16.91-11.51,3.15-8.63,12.67-12.03,17.68-19.35l1.45.89c-.73,2.13-1.43,4.28-2.08,6.44-6.19,8.88-10.79,18.75-17.47,27.33-3.87,2.77-7.44,5.92-11.33,8.66-5.98-.13-11.65-.97-17.39-2.15-5.6-7.1-10.24-14.82-14.94-22.48-4.78-8.21-13.6-12.78-19.6-19.97h0Z"/>
  <path class="cls-87" d="M241.72,554.63l1.47-.05c1.66,2.51,3.22,5.1,4.92,7.62,9.81,13.42,15.48,33.05,32.28,39.51.41.93,1.25,2.83,1.66,3.78-20.51-6.91-27.13-29.44-39.07-45.38-.23-.95-.68-2.85-.89-3.78l-.38-1.7h0Z"/>
  <path class="cls-59" d="M248.1,562.2c10.06,6.8,20.74,13.08,24.09,26.09.97,6.69,6.71,10,12.15,12.88-.98.13-2.97.39-3.95.54-16.8-6.46-22.48-26.09-32.28-39.51h0Z"/>
  <path class="cls-60" d="M447.48,580.24c4.35-5.17,9.68-10.86,17.09-9.13,19.86,12.65,21.78,44.49,5.35,60.79-3.87.02-7.84-2.22-11.52-1.09-48.78,29.15-107.61,36.61-163.49,33.23-37.65.59-74.93-5.69-110.86-16.61.23-5.4,6.59-7.91,9.32-12.04,25.45,5.92,51.61,10.31,77.86,11.22,15.66,1.83,31.75,2.34,47.42.11,42.32-3.67,86.4-8.91,122.8-32.73,9.04-.29,12.17-9.88,12.03-17.41-1.59-5.6-4.6-10.68-5.99-16.34h0Z"/>
  <path class="cls-114" d="M280.39,601.71c.98-.14,2.97-.41,3.95-.54,1.63.82,3.29,1.65,4.99,2.47,2.24,1.63,5.08,1.25,7.73,1.11,3.63-.02,7.41-1.99,10.9-.13-7.78,4.42-17.72,2.06-25.91.86-.41-.95-1.25-2.85-1.66-3.78h0Z"/>
  <path class="cls-44" d="M116.03,629.73c11.52,3.61,21.69,10.83,33.75,13.21,8.46,2.56,15.37,11.56,25.02,8.95,21.65,7.5,44.4,10.84,66.43,16.84,21.47-.41,42.9.72,64.41.82,5.74-3.13,9.38,3.11,14.32,3.36,7.41-.59,14.64-2.08,22.05-2.92,9.59-.52,20.12,6.16,28.85.38,9.18-5.62,21.1,1.38,29.9-6.14,3.04-3.79,7.41-3.51,11.72-2.74,14.85-4.89,29.42-10.58,43.47-17.38-1.56,5.28-8.3,6.37-12.04,9.7-48.66,26.22-105.57,30.3-159.74,29.94-38.19.34-76.25-6.78-112.6-18.16-20.06-8.66-43.04-17.09-55.53-35.86h0Z"/>
  <path class="cls-50" d="M271.23,646.61c15.78-1.07,31.6-.48,47.42.11-15.68,2.24-31.76,1.72-47.42-.11h0Z"/>
</svg>